<svg id="svg" version="1.1" width="512" height="341" xmlns="http://www.w3.org/2000/svg"><path d="M332.500 113.126 C 329.750 114.182,326.600 115.457,325.500 115.959 C 321.418 117.820,313.187 121.240,302.245 125.620 C 288.196 131.245,285.209 131.226,283.004 125.500 C 279.809 117.202,278.140 115.000,275.050 115.000 C 271.803 115.000,272.476 114.257,258.316 133.500 C 249.736 145.161,242.822 151.981,239.566 151.996 C 239.052 151.998,236.802 152.828,234.566 153.841 C 232.330 154.853,227.575 156.849,224.000 158.277 C 220.425 159.705,213.675 162.493,209.000 164.473 C 204.325 166.452,196.450 169.696,191.500 171.681 C 186.550 173.666,182.072 175.675,181.550 176.145 C 181.027 176.615,163.240 177.000,142.023 177.000 C 108.725 177.000,103.141 177.213,101.223 178.557 C 98.486 180.473,98.373 182.594,100.934 183.965 C 102.174 184.628,117.035 185.000,142.313 185.000 L 181.758 185.000 187.629 182.433 C 190.858 181.020,195.525 179.039,198.000 178.030 C 200.475 177.020,205.875 174.739,210.000 172.959 C 219.428 168.893,238.226 161.228,243.492 159.303 C 245.688 158.500,247.938 157.487,248.492 157.052 C 249.046 156.617,251.300 155.693,253.500 155.000 C 255.700 154.307,257.950 153.401,258.500 152.987 C 259.050 152.574,264.900 150.102,271.500 147.496 C 278.100 144.889,288.675 140.532,295.000 137.812 C 301.325 135.093,308.525 132.043,311.000 131.033 C 321.616 126.702,328.765 123.674,332.566 121.899 C 334.802 120.855,337.180 120.000,337.849 120.000 C 338.519 120.000,340.425 118.611,342.084 116.914 C 344.489 114.454,344.863 113.540,343.928 112.414 C 342.376 110.543,338.612 110.777,332.500 113.126 M275.393 130.582 C 277.249 135.419,274.953 138.291,269.612 137.815 L 266.084 137.500 269.625 133.250 C 273.477 128.627,274.467 128.169,275.393 130.582 M357.250 178.220 C 354.489 179.552,354.323 182.568,356.934 183.965 C 359.558 185.369,417.442 185.369,420.066 183.965 C 422.627 182.594,422.514 180.473,419.777 178.557 C 417.884 177.231,413.257 177.010,388.527 177.068 C 369.845 177.111,358.698 177.522,357.250 178.220 " stroke="none" fill="undefined" fill-rule="evenodd"/></svg>