<svg id="svg" version="1.1" width="512" height="341" xmlns="http://www.w3.org/2000/svg"><path d="M251.699 87.912 C 244.725 89.361,244.197 92.696,250.469 95.687 L 254.000 97.370 254.000 113.685 L 254.000 130.000 216.223 130.000 C 183.649 130.000,178.139 130.214,176.223 131.557 C 173.486 133.473,173.373 135.594,175.934 136.965 C 178.618 138.401,350.382 138.401,353.066 136.965 C 355.247 135.797,355.642 132.533,353.750 131.309 C 353.063 130.864,333.150 130.275,309.500 130.000 L 266.500 129.500 266.500 113.508 L 266.500 97.516 270.250 95.750 C 274.113 93.931,275.157 91.202,272.750 89.211 C 271.075 87.825,256.459 86.923,251.699 87.912 M175.190 144.972 C 173.355 146.121,171.188 148.705,170.327 150.772 C 169.474 152.822,168.263 154.831,167.638 155.235 C 167.012 155.639,151.570 155.976,133.321 155.985 C 104.506 155.998,99.936 156.207,98.571 157.571 C 96.465 159.678,96.588 160.598,99.223 162.443 C 101.122 163.774,106.168 164.002,133.973 164.015 C 151.863 164.024,167.000 164.361,167.610 164.765 C 168.221 165.169,169.416 166.850,170.265 168.500 C 171.115 170.150,173.015 172.625,174.488 174.000 C 176.935 176.284,177.946 176.500,186.185 176.500 L 195.204 176.500 198.539 172.527 C 204.431 165.507,204.432 154.147,198.541 147.332 C 195.251 143.526,195.179 143.501,186.865 143.202 C 179.804 142.948,177.984 143.224,175.190 144.972 M330.885 146.879 L 326.806 150.959 327.153 160.462 C 327.489 169.664,327.604 170.068,330.769 173.232 C 333.852 176.315,334.505 176.519,342.269 176.833 C 349.558 177.127,350.893 176.898,353.935 174.833 C 355.825 173.550,358.303 170.700,359.443 168.500 L 361.515 164.500 391.008 164.000 C 407.228 163.725,421.063 163.136,421.750 162.691 C 422.438 162.246,423.000 161.035,423.000 160.000 C 423.000 158.965,422.438 157.754,421.750 157.309 C 421.063 156.864,407.228 156.275,391.007 156.000 L 361.514 155.500 359.856 152.000 C 358.944 150.075,356.993 147.375,355.520 146.000 C 353.155 143.793,351.794 143.459,343.903 143.150 L 334.965 142.800 330.885 146.879 M190.601 154.333 C 194.244 157.467,194.201 162.570,190.504 165.750 C 187.000 168.764,184.430 168.584,180.923 165.077 C 177.287 161.441,177.218 158.426,180.687 154.805 C 183.960 151.388,187.009 151.243,190.601 154.333 M348.077 154.923 C 351.644 158.491,351.782 161.309,348.545 164.545 C 345.205 167.886,340.782 167.810,338.073 164.365 C 336.933 162.916,336.000 160.856,336.000 159.788 C 336.000 157.418,341.218 152.000,343.500 152.000 C 344.410 152.000,346.469 153.315,348.077 154.923 " stroke="none" fill="undefined" fill-rule="evenodd"/></svg>