<svg id="svg" version="1.1" width="512" height="341" xmlns="http://www.w3.org/2000/svg"><path d="M243.200 144.200 C 241.486 145.914,241.718 149.678,243.582 150.393 C 244.452 150.727,247.115 151.000,249.500 151.000 C 255.282 151.000,257.000 150.220,257.000 147.593 C 257.000 144.196,255.046 143.000,249.500 143.000 C 246.695 143.000,243.860 143.540,243.200 144.200 M324.871 160.266 C 319.159 165.490,317.996 167.682,318.015 173.184 C 318.035 179.005,319.817 182.104,323.942 183.486 C 326.706 184.412,327.033 184.773,325.604 185.322 C 324.626 185.697,293.582 185.952,256.617 185.888 L 189.408 185.771 189.169 182.636 C 188.767 177.365,187.009 176.490,181.685 178.916 C 175.826 181.585,175.179 181.545,171.805 178.313 C 168.557 175.202,168.153 171.243,170.650 167.016 C 174.467 160.553,167.334 158.345,162.314 164.436 L 159.481 167.872 126.703 168.186 C 98.891 168.452,93.782 168.727,92.978 170.000 C 91.618 172.154,91.780 173.637,93.571 175.429 C 94.934 176.791,99.372 177.000,127.001 177.000 L 158.858 177.000 161.714 181.250 C 163.285 183.588,165.187 187.000,165.941 188.834 C 166.695 190.668,168.396 192.580,169.721 193.084 C 171.112 193.613,208.458 194.000,258.065 194.000 C 342.667 194.000,344.031 193.969,346.000 192.000 C 347.100 190.900,348.000 189.310,348.000 188.467 C 348.000 187.623,349.133 184.698,350.517 181.967 L 353.034 177.000 380.470 177.000 C 408.806 177.000,413.000 176.479,413.000 172.962 C 413.000 168.840,410.945 168.522,380.929 168.000 C 365.107 167.725,351.989 167.275,351.778 167.000 C 351.567 166.725,350.621 165.262,349.674 163.750 C 348.728 162.238,347.467 161.000,346.871 161.000 C 346.276 161.000,344.452 159.875,342.818 158.500 C 340.478 156.531,338.747 156.003,334.673 156.016 C 329.995 156.030,329.057 156.437,324.871 160.266 M340.096 166.068 C 346.407 170.562,341.993 182.013,334.563 180.420 C 329.950 179.431,328.004 178.140,326.950 175.370 C 325.651 171.952,326.720 168.365,329.747 165.984 C 332.984 163.438,336.441 163.466,340.096 166.068 " stroke="none" fill="undefined" fill-rule="evenodd"/></svg>