<svg id="svg" version="1.1" width="512" height="341" xmlns="http://www.w3.org/2000/svg"><path d="M320.841 110.524 C 316.300 112.991,313.998 117.911,314.014 125.118 C 314.033 134.276,314.638 135.631,320.615 139.911 L 325.979 143.752 321.740 143.285 C 318.469 142.925,315.556 143.611,309.000 146.287 C 304.325 148.194,299.150 150.304,297.500 150.975 C 295.850 151.646,292.700 153.005,290.500 153.994 C 288.300 154.983,284.250 156.695,281.500 157.798 C 274.945 160.426,264.514 164.761,259.500 166.940 C 255.644 168.616,253.093 169.679,239.000 175.478 C 235.425 176.949,231.150 178.747,229.500 179.473 C 227.850 180.200,224.025 181.813,221.000 183.058 C 217.975 184.303,213.700 186.112,211.500 187.077 C 209.300 188.043,204.350 190.042,200.500 191.519 C 196.650 192.996,191.852 195.031,189.838 196.040 C 183.425 199.255,179.585 199.492,176.066 196.891 C 173.806 195.220,171.214 194.481,166.577 194.186 C 157.134 193.585,153.523 195.143,149.391 201.604 L 145.939 207.000 117.404 207.000 C 99.646 207.000,88.138 207.391,86.934 208.035 C 85.870 208.605,85.000 209.939,85.000 211.000 C 85.000 212.061,85.870 213.395,86.934 213.965 C 88.138 214.609,99.658 215.000,117.444 215.000 L 146.018 215.000 149.167 220.117 C 151.203 223.426,153.485 225.722,155.626 226.617 C 159.541 228.253,168.510 228.430,172.601 226.953 C 176.267 225.629,181.000 219.492,181.000 216.061 C 181.000 212.038,183.515 209.327,189.259 207.159 C 192.141 206.070,195.850 204.467,197.500 203.596 C 199.150 202.725,201.050 202.010,201.723 202.006 C 202.396 202.003,204.871 201.138,207.223 200.083 C 212.184 197.860,231.205 189.814,238.500 186.852 C 241.250 185.736,245.164 183.962,247.198 182.911 C 249.232 181.860,251.433 181.000,252.089 181.000 C 252.744 181.000,255.130 180.149,257.390 179.108 C 259.651 178.067,264.875 175.772,269.000 174.008 C 273.125 172.244,277.918 170.170,279.651 169.400 C 281.384 168.630,283.116 168.000,283.500 168.000 C 283.884 168.000,285.616 167.359,287.349 166.576 C 290.364 165.214,299.821 161.241,310.500 156.850 C 313.250 155.719,316.850 154.188,318.500 153.448 C 320.150 152.707,323.248 151.401,325.385 150.546 C 327.521 149.690,331.010 147.417,333.137 145.495 C 335.265 143.573,337.591 142.000,338.307 142.000 C 339.781 142.000,344.789 136.873,347.343 132.750 L 349.046 130.000 376.958 130.000 C 392.673 130.000,405.991 129.574,407.435 129.025 C 410.509 127.856,410.860 124.530,408.066 123.035 C 406.885 122.403,395.689 121.961,379.316 121.900 C 364.567 121.845,351.484 121.508,350.243 121.150 C 349.002 120.793,347.202 118.934,346.243 117.020 C 343.362 111.268,338.904 108.993,330.602 109.040 C 326.379 109.064,322.422 109.665,320.841 110.524 M337.250 121.080 C 339.850 124.262,339.444 128.200,336.195 131.313 C 332.560 134.795,328.656 134.810,325.452 131.354 C 322.287 127.939,322.328 124.018,325.564 120.526 C 327.753 118.164,328.667 117.845,331.814 118.349 C 333.841 118.674,336.288 119.903,337.250 121.080 M322.445 194.959 C 321.315 195.417,318.909 197.478,317.099 199.540 C 313.857 203.233,313.812 203.417,314.153 211.629 C 314.490 219.737,314.603 220.070,318.233 223.700 C 321.698 227.165,322.460 227.461,328.859 227.822 C 337.899 228.333,341.925 226.468,345.969 219.897 L 348.982 215.000 377.556 215.000 C 395.342 215.000,406.862 214.609,408.066 213.965 C 409.130 213.395,410.000 212.061,410.000 211.000 C 410.000 209.939,409.130 208.605,408.066 208.035 C 406.862 207.391,395.342 207.000,377.556 207.000 L 348.982 207.000 345.969 202.103 C 344.162 199.167,341.603 196.565,339.577 195.603 C 335.988 193.900,325.988 193.524,322.445 194.959 M169.927 205.635 C 176.160 213.558,166.515 223.606,159.455 216.545 C 155.675 212.766,155.805 208.589,159.806 205.255 C 163.469 202.202,167.342 202.347,169.927 205.635 M336.260 205.540 C 338.041 207.191,339.000 209.103,339.000 211.000 C 339.000 212.897,338.041 214.809,336.260 216.460 C 331.993 220.416,326.963 219.764,324.463 214.928 C 322.396 210.932,322.636 208.685,325.452 205.646 C 328.613 202.236,332.654 202.196,336.260 205.540 " stroke="none" fill="undefined" fill-rule="evenodd"/></svg>