<svg id="svg" version="1.1" width="512" height="196" xmlns="http://www.w3.org/2000/svg"><path d="M369.000 20.991 C 367.625 21.442,362.450 23.600,357.500 25.787 C 352.550 27.974,339.725 33.588,329.000 38.263 C 318.275 42.938,303.650 49.337,296.500 52.483 C 289.350 55.630,280.575 59.447,277.000 60.966 C 273.425 62.485,266.225 65.639,261.000 67.975 C 248.411 73.604,241.505 76.628,209.500 90.531 C 194.650 96.981,180.250 103.274,177.500 104.514 C 165.717 109.828,158.093 113.000,157.107 113.000 C 156.525 113.000,154.575 111.363,152.774 109.361 C 146.315 102.183,136.585 100.086,128.315 104.090 C 123.364 106.486,118.366 112.056,117.459 116.188 C 117.117 117.744,116.004 119.463,114.984 120.008 C 113.843 120.619,96.834 121.000,70.688 121.000 C 33.882 121.000,28.077 121.202,26.980 122.524 C 26.284 123.362,26.041 124.375,26.440 124.774 C 26.839 125.173,47.030 125.725,71.309 126.000 L 115.453 126.500 118.110 132.000 C 121.336 138.678,124.187 141.449,129.904 143.466 C 135.431 145.416,140.079 145.412,144.768 143.452 C 152.200 140.347,155.409 135.694,157.297 125.284 L 158.500 118.649 184.500 107.305 C 198.800 101.065,214.775 94.130,220.000 91.892 C 225.225 89.654,235.125 85.335,242.000 82.294 C 248.875 79.253,257.875 75.291,262.000 73.490 C 266.125 71.689,275.125 67.742,282.000 64.720 C 288.875 61.697,303.500 55.292,314.500 50.487 C 325.500 45.682,338.325 40.072,343.000 38.020 C 347.675 35.968,355.683 32.537,360.795 30.395 C 371.770 25.796,376.301 22.586,374.000 21.039 C 372.291 19.890,372.357 19.891,369.000 20.991 M365.484 103.265 C 360.089 105.474,356.165 109.189,354.062 114.078 C 349.147 125.502,353.609 138.434,364.008 142.908 C 370.597 145.743,375.530 145.563,382.071 142.250 C 386.870 139.819,387.897 138.717,390.924 132.750 L 394.348 126.000 437.424 125.985 C 461.498 125.976,481.133 125.569,481.936 125.061 C 483.126 124.308,483.147 123.883,482.063 122.576 C 480.911 121.188,475.794 120.998,439.128 120.986 C 416.232 120.979,396.483 120.700,395.239 120.367 C 393.878 120.002,392.732 118.714,392.361 117.131 C 390.461 109.039,382.979 103.004,374.109 102.408 C 371.024 102.200,367.143 102.586,365.484 103.265 M142.800 108.411 C 144.285 109.187,146.829 111.219,148.454 112.928 C 150.942 115.545,151.468 117.017,151.791 122.267 C 152.116 127.543,151.816 129.023,149.838 131.908 C 146.094 137.367,142.656 139.385,137.100 139.385 C 128.578 139.385,121.833 132.367,121.833 123.500 C 121.833 112.217,133.716 103.665,142.800 108.411 M379.664 109.543 C 387.320 114.030,389.853 122.322,386.096 130.595 C 382.510 138.492,373.581 141.696,366.000 137.808 C 360.823 135.153,356.989 128.850,357.016 123.038 C 357.052 115.472,365.137 107.058,372.412 107.016 C 374.014 107.007,377.277 108.144,379.664 109.543 " stroke="none" fill="undefined" fill-rule="evenodd"/></svg>