<svg id="svg" version="1.1" width="512" height="341" xmlns="http://www.w3.org/2000/svg"><path d="M335.500 107.439 C 333.850 108.206,329.800 109.946,326.500 111.307 C 305.854 119.818,297.005 123.506,293.305 125.144 C 290.998 126.165,288.816 127.000,288.456 127.000 C 288.096 127.000,286.384 127.641,284.651 128.424 C 282.918 129.207,278.125 131.252,274.000 132.969 C 269.875 134.686,265.375 136.688,264.000 137.417 C 262.625 138.146,259.700 139.309,257.500 140.001 C 255.300 140.694,253.050 141.587,252.500 141.985 C 251.950 142.384,250.150 143.191,248.500 143.778 C 246.850 144.366,240.550 146.952,234.500 149.524 C 228.450 152.097,218.775 156.131,213.000 158.490 C 197.794 164.701,194.846 165.939,191.500 167.514 C 179.279 173.266,181.680 173.000,142.022 173.000 C 117.937 173.000,104.215 173.378,102.149 174.098 C 98.102 175.509,97.880 178.649,101.750 179.731 C 103.263 180.154,121.825 180.500,143.000 180.500 L 181.500 180.500 188.000 177.780 C 191.575 176.285,197.875 173.650,202.000 171.925 C 206.125 170.200,213.325 167.250,218.000 165.370 C 222.675 163.490,227.400 161.544,228.500 161.046 C 230.456 160.160,234.839 158.315,250.000 151.996 C 254.125 150.277,258.850 148.271,260.500 147.538 C 262.150 146.805,265.750 145.278,268.500 144.144 C 271.250 143.010,278.288 140.038,284.141 137.541 C 289.993 135.043,295.100 133.000,295.490 133.000 C 295.879 133.000,297.616 132.364,299.349 131.587 C 302.746 130.064,310.091 126.956,322.000 122.002 C 326.125 120.286,330.400 118.488,331.500 118.006 C 332.600 117.524,335.599 116.242,338.164 115.159 C 343.054 113.093,345.407 110.225,344.389 107.572 C 343.644 105.630,339.527 105.569,335.500 107.439 M332.108 164.657 C 325.532 171.233,325.245 181.488,331.438 188.634 L 334.788 192.500 345.899 192.411 C 352.010 192.363,357.301 192.032,357.656 191.678 C 358.011 191.323,358.845 188.888,359.510 186.266 L 360.719 181.500 389.109 181.000 C 416.760 180.513,422.000 179.890,422.000 177.087 C 422.000 173.937,418.520 173.497,389.708 173.000 L 360.719 172.500 359.510 167.734 C 358.845 165.112,358.036 162.703,357.713 162.379 C 357.389 162.056,352.382 161.549,346.587 161.253 L 336.049 160.715 332.108 164.657 M349.545 171.455 C 352.746 174.655,352.713 178.751,349.460 182.260 C 346.071 185.914,341.585 185.935,337.805 182.313 C 334.433 179.083,334.175 175.318,337.073 171.635 C 339.913 168.024,346.027 167.936,349.545 171.455 " stroke="none" fill="undefined" fill-rule="evenodd"/></svg>