<svg id="svg" version="1.1" width="512" height="341" xmlns="http://www.w3.org/2000/svg"><path d="M237.255 106.444 C 231.837 108.874,229.000 112.410,229.000 116.732 C 229.000 121.343,230.762 124.067,235.749 127.168 C 239.026 129.205,240.764 129.500,249.500 129.500 C 258.640 129.500,259.908 129.260,264.240 126.714 C 269.337 123.718,270.337 121.698,269.820 115.444 C 269.550 112.179,268.828 111.108,265.167 108.540 C 261.116 105.697,260.176 105.483,250.667 105.244 C 243.446 105.062,239.560 105.410,237.255 106.444 M245.761 116.500 C 246.157 121.065,244.732 122.654,241.544 121.202 C 238.071 119.620,237.363 117.361,239.574 114.919 C 242.240 111.973,245.438 112.790,245.761 116.500 M259.887 115.379 L 262.122 117.759 259.392 119.906 C 255.741 122.778,254.560 122.157,254.193 117.172 C 253.932 113.644,254.176 113.000,255.768 113.000 C 256.804 113.000,258.657 114.071,259.887 115.379 M330.000 115.889 C 324.649 118.721,317.780 121.770,315.000 122.546 C 313.625 122.931,312.050 123.596,311.500 124.025 C 310.950 124.454,306.225 126.466,301.000 128.496 C 295.775 130.527,288.377 133.721,284.560 135.594 C 280.743 137.467,277.085 139.000,276.431 139.000 C 275.777 139.000,272.600 140.155,269.371 141.567 C 262.960 144.371,256.253 147.147,248.500 150.208 C 245.750 151.293,242.204 152.828,240.621 153.618 C 239.037 154.409,231.387 157.572,223.621 160.649 C 215.854 163.725,208.612 166.862,207.527 167.621 C 206.443 168.379,204.861 169.000,204.013 169.000 C 203.164 169.000,200.791 169.900,198.739 171.000 C 196.686 172.100,194.443 173.014,193.754 173.031 C 193.064 173.048,190.250 174.169,187.500 175.522 C 184.750 176.875,181.922 177.986,181.215 177.991 C 180.508 177.996,178.933 178.636,177.715 179.413 C 175.936 180.547,167.826 180.909,136.500 181.252 C 115.050 181.487,96.713 182.025,95.750 182.447 C 93.416 183.470,93.523 186.674,95.934 187.965 C 97.179 188.631,112.245 188.989,138.184 188.969 L 178.500 188.937 183.500 186.478 C 186.250 185.125,189.026 184.014,189.669 184.009 C 190.312 184.004,192.112 183.338,193.669 182.529 C 195.226 181.720,199.425 179.882,203.000 178.444 C 206.575 177.007,211.300 175.015,213.500 174.019 C 215.700 173.023,219.975 171.211,223.000 169.992 C 226.025 168.774,230.003 167.140,231.840 166.362 C 233.677 165.583,239.302 163.339,244.340 161.374 C 249.378 159.409,254.625 157.244,256.000 156.563 C 263.773 152.712,267.600 150.995,268.404 150.997 C 268.900 150.999,271.600 149.933,274.404 148.630 C 277.207 147.326,282.650 145.020,286.500 143.504 C 290.350 141.988,294.388 140.130,295.473 139.374 C 296.557 138.618,298.191 138.000,299.102 138.000 C 300.559 138.000,304.368 136.505,315.500 131.565 C 317.150 130.832,322.841 128.571,328.147 126.540 C 338.746 122.484,343.144 119.045,341.365 116.205 C 339.877 113.828,334.192 113.670,330.000 115.889 M360.000 181.625 C 351.314 182.246,350.000 182.743,350.000 185.402 C 350.000 187.009,350.721 187.960,352.250 188.370 C 356.255 189.443,413.988 189.077,416.066 187.965 C 418.477 186.674,418.586 183.452,416.250 182.504 C 414.309 181.717,368.676 181.004,360.000 181.625 " stroke="none" fill="undefined" fill-rule="evenodd"/></svg>