<svg id="svg" version="1.1" width="512" height="180" xmlns="http://www.w3.org/2000/svg"><path d="M257.335 24.000 C 256.145 24.480,254.696 25.689,254.116 26.686 C 253.536 27.684,253.047 27.938,253.030 27.250 C 252.970 24.782,249.209 25.960,248.241 28.750 C 246.982 32.377,248.230 41.659,250.248 43.677 C 252.540 45.969,255.445 44.643,254.496 41.738 C 253.110 37.499,253.370 33.465,255.000 33.899 C 260.084 35.252,261.912 35.088,263.901 33.099 C 266.546 30.454,266.565 27.984,263.961 25.189 C 261.767 22.834,260.701 22.642,257.335 24.000 M361.500 53.645 C 346.950 55.670,301.998 61.664,276.000 65.047 C 263.625 66.657,242.025 69.547,228.000 71.469 C 182.418 77.716,154.738 81.114,153.451 80.619 C 152.757 80.353,150.712 77.363,148.906 73.974 C 144.634 65.961,140.476 62.787,133.488 62.207 C 129.180 61.850,127.415 62.198,124.546 63.971 C 118.629 67.628,113.832 76.026,111.539 86.739 C 111.158 88.520,110.318 90.320,109.673 90.739 C 109.028 91.157,88.025 91.725,63.000 92.000 C 23.444 92.435,17.500 92.696,17.500 94.000 C 17.500 95.304,23.567 95.568,64.000 96.025 C 89.575 96.314,110.541 96.651,110.591 96.775 C 110.641 96.899,111.250 99.587,111.945 102.750 C 113.616 110.360,118.579 119.577,122.695 122.717 C 127.068 126.052,133.833 126.830,138.837 124.573 C 146.634 121.058,151.728 111.418,153.059 97.661 C 153.547 92.622,153.958 87.986,153.973 87.358 C 154.011 85.738,156.019 85.361,182.665 81.979 C 195.774 80.314,212.800 78.061,220.500 76.971 C 234.813 74.945,284.111 68.403,344.162 60.561 C 376.396 56.351,382.768 55.051,381.469 52.950 C 380.694 51.696,373.774 51.937,361.500 53.645 M371.869 64.007 C 367.536 66.297,362.520 73.508,360.478 80.386 C 358.587 86.753,358.575 101.270,360.455 107.517 C 362.604 114.658,368.307 122.384,372.986 124.494 C 378.171 126.832,384.866 126.103,389.305 122.717 C 393.327 119.649,398.560 110.148,400.047 103.216 C 400.647 100.419,401.710 97.656,402.409 97.076 C 403.249 96.378,419.084 95.932,449.090 95.760 C 488.672 95.533,494.500 95.307,494.500 94.000 C 494.500 92.696,488.533 92.435,448.799 92.000 C 420.305 91.688,402.740 91.123,402.146 90.500 C 401.622 89.950,400.459 86.590,399.562 83.033 C 395.286 66.085,383.396 57.916,371.869 64.007 M140.599 70.096 C 146.456 75.773,148.505 81.997,148.467 94.000 C 148.439 102.726,148.048 105.365,146.150 109.618 C 139.718 124.038,127.841 125.761,120.799 113.296 C 117.394 107.270,114.847 96.057,115.620 90.500 C 118.459 70.107,130.479 60.288,140.599 70.096 M386.374 68.510 C 393.183 72.971,397.935 88.525,395.999 100.008 C 394.557 108.556,389.572 117.672,384.951 120.211 C 373.345 126.589,361.894 111.015,363.213 90.646 C 363.906 79.943,369.223 69.672,375.500 66.913 C 378.190 65.730,383.271 66.476,386.374 68.510 " stroke="none" fill="undefined" fill-rule="evenodd"/></svg>