<svg id="svg" version="1.1" width="512" height="512" xmlns="http://www.w3.org/2000/svg"><path d="M219.750 101.696 C 218.117 103.527,218.000 108.594,218.000 177.629 C 218.000 233.829,217.712 251.888,216.800 252.800 C 215.908 253.692,205.659 254.000,176.865 254.000 C 154.117 254.000,137.072 254.403,135.565 254.975 C 131.998 256.332,131.998 260.668,135.565 262.025 C 137.066 262.595,153.639 263.000,175.500 263.000 C 197.361 263.000,213.934 263.405,215.435 263.975 L 218.000 264.950 218.000 339.320 C 218.000 412.363,218.036 413.722,219.995 415.496 C 221.798 417.127,223.467 417.247,237.245 416.741 C 248.731 416.318,253.982 415.682,258.500 414.165 C 261.800 413.056,266.944 411.653,269.932 411.046 C 272.919 410.440,275.844 409.565,276.432 409.102 C 277.019 408.639,279.300 407.694,281.500 407.001 C 286.265 405.501,305.203 395.752,308.898 392.897 C 310.329 391.790,313.412 389.657,315.749 388.156 C 325.905 381.632,350.883 355.982,354.497 348.365 C 355.353 346.561,356.449 344.841,356.931 344.542 C 358.766 343.409,371.000 320.320,371.000 317.992 C 371.000 317.403,371.857 315.240,372.905 313.187 C 373.952 311.133,375.137 307.214,375.538 304.477 C 375.939 301.739,377.215 297.250,378.375 294.500 C 380.367 289.778,380.484 287.776,380.492 258.500 C 380.499 230.948,380.303 227.063,378.726 223.570 C 377.750 221.408,376.301 216.521,375.507 212.709 C 374.712 208.898,373.657 205.266,373.163 204.640 C 372.669 204.013,371.529 201.250,370.629 198.500 C 368.170 190.981,359.249 174.281,356.450 171.959 C 355.653 171.297,355.000 170.213,355.000 169.549 C 355.000 167.403,339.620 149.736,330.147 141.000 C 325.078 136.325,318.358 130.809,315.215 128.742 C 312.072 126.675,308.395 124.120,307.045 123.065 C 303.861 120.577,285.315 111.000,283.679 111.000 C 282.988 111.000,280.640 110.080,278.461 108.956 C 276.283 107.832,272.250 106.442,269.500 105.868 C 266.750 105.294,261.575 103.940,258.000 102.860 C 253.388 101.466,247.142 100.727,236.500 100.315 C 222.457 99.772,221.388 99.860,219.750 101.696 M242.761 111.909 C 247.567 112.958,253.975 114.128,257.000 114.507 C 260.025 114.887,264.366 116.007,266.646 116.996 C 268.926 117.986,272.301 119.115,274.146 119.506 C 275.991 119.897,279.075 121.007,281.000 121.972 C 282.925 122.937,286.075 124.453,288.000 125.341 C 294.440 128.310,300.419 132.175,311.500 140.532 C 335.838 158.888,352.868 181.845,362.661 209.500 C 365.143 216.509,365.573 218.276,369.104 236.034 C 371.475 247.958,371.676 268.962,369.508 278.311 C 368.687 281.850,367.525 288.268,366.927 292.571 C 366.328 296.875,364.975 302.089,363.919 304.158 C 362.864 306.227,362.000 308.679,362.000 309.607 C 362.000 311.821,352.449 331.245,348.530 337.000 C 334.821 357.134,324.370 367.735,302.502 383.690 C 300.851 384.895,297.700 386.796,295.500 387.915 C 293.300 389.034,290.825 390.366,290.000 390.874 C 286.185 393.224,277.890 396.864,274.856 397.519 C 273.010 397.918,269.869 399.070,267.875 400.078 C 265.882 401.087,260.932 402.348,256.875 402.881 C 252.819 403.413,245.889 404.631,241.475 405.589 C 236.949 406.570,232.261 407.031,230.725 406.646 L 228.000 405.962 228.000 259.181 C 228.000 146.351,228.278 112.122,229.200 111.200 C 230.814 109.586,232.535 109.675,242.761 111.909 " stroke="none" fill="undefined" fill-rule="evenodd"/></svg>