<svg id="svg" version="1.1" width="512" height="512" xmlns="http://www.w3.org/2000/svg"><path d="M142.750 96.696 C 141.099 98.546,141.000 107.437,141.000 253.329 L 141.000 408.000 143.149 410.149 C 145.213 412.213,145.882 412.275,159.899 411.697 C 170.047 411.278,176.482 410.497,181.000 409.134 C 184.575 408.056,189.075 406.890,191.000 406.544 C 200.077 404.911,224.028 394.139,231.122 388.500 C 233.198 386.850,236.832 384.300,239.198 382.833 C 248.300 377.190,271.758 353.149,277.500 343.579 C 278.600 341.746,280.718 338.711,282.208 336.834 C 285.441 332.760,292.210 320.005,293.929 314.750 C 294.744 312.256,295.884 310.846,297.328 310.541 C 298.522 310.290,313.718 309.937,331.096 309.758 C 359.080 309.469,362.995 309.233,365.346 307.693 C 368.394 305.695,368.532 305.111,366.582 302.441 C 365.245 300.610,363.378 300.472,333.630 300.000 C 310.217 299.629,301.773 299.177,300.842 298.244 C 299.837 297.237,299.852 296.047,300.918 292.244 C 303.782 282.024,304.150 276.671,303.789 250.550 C 303.442 225.403,303.255 223.061,301.136 217.266 C 297.095 206.220,294.322 207.000,337.633 207.000 C 361.569 207.000,375.831 206.626,377.066 205.965 C 379.560 204.630,379.684 199.543,377.250 198.371 C 376.288 197.908,358.175 197.406,337.000 197.258 C 315.825 197.109,297.537 196.769,296.361 196.502 C 295.060 196.207,293.954 194.936,293.541 193.259 C 292.410 188.675,283.373 171.347,280.107 167.500 C 279.173 166.400,277.802 164.283,277.060 162.796 C 275.004 158.674,261.323 143.401,252.183 135.023 C 244.783 128.240,238.992 123.844,227.524 116.304 C 218.576 110.421,199.140 101.937,191.500 100.580 C 189.300 100.189,184.575 98.975,181.000 97.882 C 176.340 96.458,170.255 95.731,159.500 95.315 C 145.457 94.772,144.388 94.860,142.750 96.696 M171.908 107.589 C 184.060 109.903,200.730 114.708,204.940 117.111 C 205.798 117.600,208.525 118.928,211.000 120.061 C 217.573 123.072,220.844 125.007,228.575 130.458 C 245.690 142.527,258.187 155.188,270.505 172.938 C 275.324 179.882,283.611 196.405,284.854 201.545 C 285.380 203.720,286.713 207.750,287.818 210.500 C 293.791 225.372,296.254 258.677,292.589 275.000 C 291.663 279.125,290.458 285.142,289.911 288.371 C 289.365 291.600,288.036 295.969,286.959 298.081 C 285.881 300.193,285.000 303.653,285.000 305.770 C 285.000 309.645,278.763 324.000,277.079 324.000 C 276.619 324.000,275.661 325.462,274.950 327.250 C 274.239 329.038,271.790 332.750,269.507 335.500 C 267.225 338.250,263.532 342.975,261.303 346.000 C 255.664 353.649,245.594 363.557,236.329 370.571 C 224.735 379.348,213.678 386.464,210.000 387.514 C 208.625 387.907,206.150 389.028,204.500 390.006 C 202.850 390.984,199.925 392.112,198.000 392.513 C 196.075 392.913,193.297 393.856,191.826 394.607 C 189.335 395.879,169.571 400.032,158.741 401.559 C 150.226 402.759,151.000 417.554,151.000 253.578 C 151.000 141.217,151.278 107.122,152.200 106.200 C 153.914 104.486,156.618 104.677,171.908 107.589 " stroke="none" fill="undefined" fill-rule="evenodd"/></svg>