<svg id="svg" version="1.1" width="512" height="298" xmlns="http://www.w3.org/2000/svg"><path d="M212.500 108.217 C 209.750 109.327,206.825 110.627,206.000 111.107 C 195.902 116.979,193.778 117.194,186.495 113.084 C 183.653 111.480,177.617 109.371,173.082 108.396 C 165.195 106.701,164.464 106.701,156.338 108.390 C 146.454 110.444,138.156 114.871,132.544 121.083 C 129.254 124.725,126.296 130.189,122.171 140.250 L 121.043 143.000 86.587 143.000 C 51.343 143.000,46.555 143.453,47.186 146.728 C 47.944 150.664,50.999 150.971,89.500 150.970 C 109.850 150.970,127.059 150.614,127.743 150.180 C 128.427 149.746,130.121 146.055,131.507 141.979 C 135.594 129.963,141.331 123.359,151.449 119.022 C 157.914 116.250,170.987 116.208,177.355 118.938 C 186.266 122.758,187.645 126.119,183.788 134.623 C 181.908 138.767,181.569 141.304,181.538 151.500 C 181.508 161.015,181.856 164.151,183.220 166.642 C 186.885 173.339,200.336 173.996,204.474 167.680 C 205.342 166.356,206.554 162.420,207.168 158.935 C 208.535 151.174,206.953 139.014,203.705 132.330 C 201.743 128.291,201.682 127.658,203.025 125.266 C 205.162 121.460,213.449 116.979,220.449 115.843 C 233.273 113.763,249.321 117.982,253.637 124.569 C 255.228 126.997,255.202 127.402,253.127 132.407 C 246.756 147.778,248.554 167.979,256.566 171.025 C 260.206 172.409,265.508 172.232,269.423 170.597 C 274.128 168.631,275.509 164.098,275.393 151.000 C 275.320 142.790,274.831 139.301,273.150 135.000 C 269.368 125.322,270.114 123.425,279.560 118.693 C 292.099 112.413,312.957 114.950,320.837 123.714 C 323.403 126.569,323.362 127.144,319.914 136.500 C 318.213 141.114,317.700 144.694,317.691 152.000 C 317.678 163.169,319.326 168.083,323.872 170.434 C 330.081 173.645,338.999 171.754,341.754 166.642 C 344.196 162.110,344.090 142.321,341.590 136.000 C 337.653 126.048,338.392 123.867,347.217 119.392 C 351.100 117.423,353.447 117.000,360.499 117.000 C 377.234 117.000,387.861 125.066,393.522 142.066 C 395.562 148.193,396.660 150.126,398.333 150.542 C 399.525 150.839,417.247 150.950,437.715 150.791 C 471.592 150.526,475.088 150.343,476.680 148.750 C 478.345 147.084,478.345 146.916,476.680 145.250 C 475.099 143.668,471.492 143.452,439.215 143.000 L 403.500 142.500 402.000 137.952 C 396.637 121.694,385.887 112.088,368.961 108.431 C 361.471 106.812,360.399 106.806,352.657 108.327 C 347.751 109.291,341.621 111.388,337.631 113.468 C 331.135 116.854,330.764 116.928,327.387 115.517 C 325.461 114.712,322.673 113.221,321.192 112.202 C 315.298 108.149,306.989 106.125,296.185 106.109 C 285.095 106.093,284.545 106.244,270.386 113.204 L 262.272 117.192 258.886 115.462 C 257.024 114.510,254.375 112.973,253.000 112.046 C 251.625 111.120,247.872 109.380,244.661 108.181 C 236.665 105.194,219.944 105.213,212.500 108.217 M197.694 144.075 C 200.213 151.305,198.783 161.303,195.154 161.827 C 191.122 162.409,190.000 160.381,190.000 152.512 C 190.000 146.659,190.405 144.755,192.109 142.588 C 194.719 139.271,196.152 139.652,197.694 144.075 M265.443 143.223 C 266.439 144.644,266.995 147.616,266.986 151.473 C 266.966 160.304,266.311 162.000,262.919 162.000 C 259.143 162.000,258.000 159.627,258.000 151.788 C 258.000 145.250,259.773 141.000,262.500 141.000 C 263.263 141.000,264.587 142.000,265.443 143.223 M333.171 142.655 C 334.607 143.954,335.000 145.796,335.000 151.221 C 335.000 159.197,333.865 162.000,330.634 162.000 C 327.159 162.000,325.686 158.271,326.169 150.692 C 326.731 141.853,329.180 139.043,333.171 142.655 " stroke="none" fill="undefined" fill-rule="evenodd"/></svg>