<svg id="svg" version="1.1" width="512" height="512" xmlns="http://www.w3.org/2000/svg"><path d="M243.000 45.675 C 235.576 47.174,222.805 51.464,215.319 54.972 C 193.276 65.302,171.775 86.939,160.880 109.756 C 158.711 114.297,156.553 119.922,156.084 122.256 C 155.614 124.590,154.503 129.182,153.615 132.460 C 152.168 137.799,152.000 151.565,152.000 264.519 C 152.000 369.813,152.226 390.927,153.372 392.494 C 154.611 394.189,156.530 394.404,173.122 394.712 C 183.230 394.900,192.047 395.247,192.717 395.483 C 193.638 395.807,194.002 405.531,194.217 435.537 C 194.488 473.433,194.585 475.225,196.441 476.581 C 202.000 480.644,202.369 478.268,202.967 434.500 L 203.500 395.500 238.876 394.936 C 258.333 394.625,284.883 394.625,297.876 394.936 L 321.500 395.500 322.000 434.715 C 322.455 470.362,322.660 474.090,324.254 475.684 C 325.926 477.354,326.113 477.331,328.254 475.192 C 330.494 472.953,330.501 472.845,330.804 433.973 L 331.108 395.000 346.304 394.940 C 363.198 394.874,370.766 393.980,372.087 391.893 C 373.223 390.099,373.199 140.848,372.063 135.500 C 366.656 110.057,357.906 93.767,340.500 76.737 C 326.130 62.677,311.572 54.039,292.846 48.459 C 284.253 45.899,281.969 45.654,264.500 45.422 C 254.050 45.284,244.375 45.397,243.000 45.675 M280.500 55.332 C 283.800 56.150,288.750 57.327,291.500 57.949 C 298.120 59.444,315.112 67.801,322.000 72.948 C 335.242 82.844,347.000 96.981,354.480 112.000 C 356.534 116.125,358.609 120.269,359.090 121.208 C 359.571 122.147,360.985 127.097,362.232 132.208 L 364.500 141.500 364.758 262.388 C 364.950 352.409,364.722 383.630,363.865 384.663 C 362.955 385.759,359.449 385.992,347.107 385.775 L 331.500 385.500 330.947 317.000 L 330.394 248.500 327.483 240.500 C 323.814 230.414,321.268 225.911,315.322 218.989 C 306.276 208.460,298.941 203.440,283.000 196.866 C 278.112 194.851,275.830 194.600,262.500 194.615 C 248.574 194.630,247.012 194.825,240.687 197.331 C 227.748 202.457,223.641 205.119,214.380 214.380 C 205.102 223.659,202.403 227.828,197.356 240.687 L 194.682 247.500 194.307 314.500 C 194.100 351.350,193.713 382.512,193.447 383.750 C 192.970 385.964,192.718 386.000,177.681 386.000 C 167.129 386.000,162.029 385.629,161.200 384.800 C 160.280 383.880,160.003 355.935,160.012 265.050 C 160.023 150.359,160.088 146.240,162.000 138.500 C 163.087 134.100,163.983 129.600,163.992 128.500 C 164.007 126.445,168.436 114.944,171.539 108.900 C 178.608 95.133,191.924 79.763,203.000 72.586 C 215.225 64.665,231.964 57.006,237.078 56.994 C 238.410 56.991,241.300 56.484,243.500 55.866 C 254.504 52.778,269.332 52.564,280.500 55.332 M279.000 205.393 C 290.138 208.903,294.628 211.659,303.617 220.500 C 312.277 229.018,315.833 234.759,319.722 246.500 L 322.040 253.500 321.992 318.478 C 321.960 361.195,321.594 383.807,320.924 384.478 C 318.369 387.041,275.706 387.944,225.830 386.491 C 209.685 386.020,204.036 385.535,203.672 384.587 C 203.403 383.887,203.068 354.556,202.927 319.407 L 202.671 255.500 205.321 247.000 C 213.595 220.457,235.867 203.363,262.500 203.114 C 269.355 203.050,273.287 203.593,279.000 205.393 " stroke="none" fill="undefined" fill-rule="evenodd"/></svg>