<svg id="svg" version="1.1" width="512" height="512" xmlns="http://www.w3.org/2000/svg"><path d="M229.500 95.980 C 225.650 96.446,220.670 97.493,218.433 98.305 C 216.196 99.118,211.863 100.302,208.805 100.937 C 205.746 101.572,201.519 102.971,199.411 104.046 C 197.302 105.120,195.009 106.000,194.315 106.000 C 193.048 106.000,183.423 110.590,174.977 115.222 C 169.807 118.057,157.942 126.065,153.500 129.716 C 142.819 138.497,125.824 157.201,120.500 166.035 C 110.218 183.096,104.999 194.604,101.012 209.000 C 100.022 212.575,98.462 218.200,97.545 221.500 C 93.992 234.284,94.535 278.340,98.374 288.665 C 99.158 290.774,100.475 295.200,101.301 298.500 C 105.699 316.072,115.563 335.337,128.593 351.801 C 135.606 360.664,153.582 378.137,160.078 382.406 C 162.510 384.005,165.734 386.153,167.241 387.180 C 168.749 388.207,171.899 390.076,174.241 391.334 C 176.584 392.592,179.400 394.119,180.500 394.728 C 185.923 397.729,193.104 401.000,194.270 401.000 C 194.989 401.000,197.291 401.874,199.386 402.942 C 201.481 404.010,204.614 405.166,206.348 405.510 C 208.081 405.855,213.550 407.334,218.500 408.797 C 227.234 411.379,228.270 411.458,253.500 411.458 C 278.730 411.458,279.766 411.379,288.500 408.797 C 293.450 407.334,299.038 405.828,300.917 405.452 C 302.796 405.076,305.721 403.922,307.417 402.888 C 309.113 401.854,311.400 400.997,312.500 400.985 C 314.927 400.958,332.875 391.868,339.759 387.180 C 341.266 386.153,344.493 384.005,346.929 382.406 C 357.698 375.340,379.547 352.140,387.464 339.367 C 395.627 326.195,404.264 307.114,406.070 298.262 C 406.546 295.931,407.958 290.756,409.209 286.762 C 411.331 279.984,411.482 277.767,411.470 253.500 C 411.458 228.288,411.377 227.227,408.797 218.500 C 407.334 213.550,405.855 208.081,405.510 206.348 C 405.166 204.614,404.010 201.481,402.942 199.386 C 401.874 197.291,401.000 194.914,401.000 194.105 C 401.000 191.994,390.194 171.035,387.372 167.673 C 386.068 166.119,385.000 164.461,385.000 163.990 C 385.000 162.502,375.219 150.826,366.700 142.143 C 357.906 133.181,347.665 124.759,338.310 118.797 C 330.963 114.115,314.979 106.037,313.000 106.006 C 312.175 105.992,309.250 104.875,306.500 103.522 C 303.750 102.169,300.567 101.048,299.426 101.031 C 298.286 101.014,293.561 99.839,288.926 98.420 C 281.176 96.047,278.736 95.811,258.500 95.486 C 246.400 95.292,233.350 95.514,229.500 95.980 M271.647 106.479 C 275.028 107.276,280.878 108.419,284.647 109.019 C 291.362 110.087,308.403 115.304,310.459 116.921 C 311.032 117.371,313.300 118.305,315.500 118.996 C 317.700 119.687,320.175 120.795,321.000 121.457 C 322.380 122.565,331.133 127.835,333.528 129.000 C 334.093 129.275,337.660 131.750,341.455 134.500 C 356.277 145.243,369.101 159.274,379.206 175.802 C 381.794 180.036,384.538 184.400,385.303 185.500 C 386.069 186.600,387.272 189.300,387.978 191.500 C 388.683 193.700,389.647 195.990,390.119 196.589 C 391.565 198.423,397.998 218.942,398.026 221.807 C 398.040 223.288,398.928 228.325,400.000 233.000 C 402.399 243.465,402.657 262.589,400.521 271.647 C 399.724 275.028,398.581 280.878,397.981 284.647 C 396.913 291.362,391.696 308.403,390.079 310.459 C 389.629 311.032,388.681 313.300,387.972 315.500 C 387.264 317.700,385.927 320.625,385.001 322.000 C 384.076 323.375,381.921 326.854,380.212 329.732 C 371.502 344.401,356.163 361.817,345.188 369.500 C 342.831 371.150,339.277 373.746,337.290 375.269 C 335.303 376.792,331.163 379.449,328.089 381.174 C 325.015 382.899,321.825 384.862,321.000 385.537 C 320.175 386.211,318.375 387.088,317.000 387.485 C 315.625 387.882,312.700 389.024,310.500 390.022 C 302.015 393.871,293.264 396.315,275.000 399.937 C 261.513 402.612,245.957 402.674,233.034 400.104 C 227.790 399.061,221.250 397.762,218.500 397.216 C 212.278 395.981,201.635 392.449,197.000 390.080 C 195.075 389.097,192.150 387.966,190.500 387.568 C 188.850 387.170,186.825 386.294,186.000 385.621 C 185.175 384.949,181.575 382.651,178.000 380.516 C 168.180 374.650,154.184 363.900,147.835 357.347 C 140.871 350.159,129.953 335.700,125.776 328.135 C 124.066 325.036,122.101 321.825,121.411 321.000 C 120.721 320.175,119.842 318.150,119.459 316.500 C 119.076 314.850,118.183 312.568,117.475 311.429 C 115.174 307.725,110.028 291.068,108.907 283.694 C 108.306 279.737,107.187 273.800,106.422 270.500 C 104.629 262.774,104.632 244.209,106.426 236.500 C 107.195 233.200,108.352 226.959,108.998 222.631 C 109.644 218.303,111.034 212.754,112.086 210.298 C 113.139 207.843,114.000 205.077,114.000 204.152 C 114.000 203.227,114.834 200.902,115.853 198.985 C 116.872 197.068,118.281 193.700,118.983 191.500 C 119.686 189.300,120.695 186.952,121.226 186.282 C 122.411 184.787,129.000 173.887,129.000 173.422 C 129.000 173.237,132.327 168.679,136.394 163.293 C 147.650 148.385,163.771 134.097,178.500 125.975 C 181.800 124.155,185.175 122.123,186.000 121.459 C 186.825 120.796,189.300 119.680,191.500 118.979 C 193.700 118.279,197.068 116.872,198.985 115.853 C 200.902 114.834,203.227 114.000,204.152 114.000 C 205.077 114.000,207.806 113.155,210.215 112.122 C 212.624 111.089,219.074 109.521,224.548 108.636 C 230.022 107.752,235.850 106.610,237.500 106.100 C 242.337 104.604,264.750 104.853,271.647 106.479 M196.000 187.709 C 195.175 188.013,193.713 188.947,192.750 189.785 C 191.118 191.207,191.000 195.519,191.000 253.500 C 191.000 325.594,189.948 319.149,201.829 319.820 C 212.519 320.425,211.837 323.221,212.195 277.281 C 212.426 247.605,212.803 237.795,213.750 236.849 C 214.646 235.954,215.306 235.906,216.081 236.681 C 217.108 237.708,227.053 266.206,238.178 300.000 C 241.000 308.572,244.123 316.251,245.166 317.181 C 248.088 319.786,257.039 320.550,261.247 318.553 C 265.141 316.705,266.213 314.831,268.554 305.780 C 269.448 302.326,270.624 298.962,271.167 298.304 C 271.711 297.646,272.772 294.721,273.525 291.804 C 275.412 284.496,278.807 274.293,280.946 269.500 C 281.928 267.299,283.066 263.975,283.475 262.112 C 283.884 260.250,285.290 256.425,286.600 253.613 C 287.909 250.801,288.985 247.548,288.990 246.385 C 289.003 243.560,292.692 239.000,294.964 239.000 C 296.089 239.000,297.032 239.992,297.436 241.601 C 297.795 243.031,298.026 260.410,297.949 280.220 C 297.831 310.956,298.029 316.458,299.303 317.732 C 300.285 318.713,303.019 319.272,307.293 319.362 C 318.583 319.602,317.568 325.392,318.364 256.242 C 318.742 223.384,318.749 194.987,318.378 193.137 C 317.517 188.837,313.438 186.998,304.782 187.006 C 297.123 187.012,291.331 188.508,290.117 190.794 C 289.618 191.732,285.610 203.075,281.211 216.000 C 268.450 253.492,258.228 282.822,257.528 283.954 C 257.173 284.529,256.492 285.000,256.016 285.000 C 254.651 285.000,249.010 273.952,247.930 269.164 C 247.393 266.779,246.064 263.085,244.977 260.954 C 243.889 258.823,242.996 256.049,242.990 254.790 C 242.985 253.530,241.930 250.244,240.646 247.487 C 239.362 244.730,237.978 240.695,237.570 238.521 C 237.162 236.348,236.128 233.214,235.271 231.558 C 234.415 229.902,233.140 226.286,232.439 223.523 C 231.737 220.761,230.463 216.475,229.607 214.000 C 228.752 211.525,227.327 207.250,226.440 204.500 C 221.920 190.480,220.874 188.200,218.695 187.616 C 215.967 186.885,198.042 186.958,196.000 187.709 " stroke="none" fill="undefined" fill-rule="evenodd"/></svg>