<svg id="svg" version="1.1" width="512" height="341" xmlns="http://www.w3.org/2000/svg"><path d="M225.655 80.829 C 224.142 82.500,224.000 89.999,224.000 168.106 C 224.000 243.826,224.177 253.808,225.557 255.777 C 227.107 257.991,227.239 258.000,257.334 258.000 C 283.068 258.000,287.885 257.769,289.777 256.443 L 292.000 254.887 292.000 168.598 C 292.000 86.274,291.916 82.234,290.171 80.655 C 288.554 79.191,284.819 79.000,257.826 79.000 C 229.533 79.000,227.189 79.133,225.655 80.829 M208.098 84.149 C 207.376 86.221,207.000 100.217,207.000 125.042 C 207.000 158.537,206.822 162.854,205.418 163.393 C 204.548 163.727,169.111 164.045,126.668 164.100 C 84.226 164.155,48.418 164.502,47.095 164.872 C 45.772 165.243,44.197 166.349,43.595 167.331 C 42.724 168.751,42.898 169.413,44.441 170.559 C 46.093 171.785,58.070 172.000,124.757 172.000 C 176.870 172.000,203.780 172.347,205.066 173.035 C 206.926 174.031,207.001 175.535,207.015 212.285 C 207.030 250.681,207.359 254.637,210.634 255.716 C 211.258 255.921,212.495 255.362,213.384 254.473 C 214.846 253.011,215.000 244.872,215.000 168.863 C 215.000 112.876,214.655 84.224,213.965 82.934 C 212.349 79.914,209.358 80.533,208.098 84.149 M301.975 83.565 C 301.370 85.157,301.000 117.560,301.000 168.954 C 301.000 246.502,301.112 251.917,302.759 253.950 C 304.834 256.513,307.523 255.907,308.388 252.681 C 308.709 251.481,308.979 233.303,308.986 212.285 C 308.999 175.534,309.074 174.031,310.934 173.035 C 312.221 172.347,339.322 172.000,391.863 172.000 C 462.343 172.000,471.027 171.831,472.429 170.429 C 474.420 168.437,474.405 167.581,472.347 165.872 C 470.987 164.744,456.389 164.411,390.097 164.000 L 309.500 163.500 309.000 124.000 C 308.725 102.275,308.114 83.713,307.643 82.750 C 306.357 80.125,303.105 80.593,301.975 83.565 M282.800 88.200 C 283.713 89.113,284.000 108.348,284.000 168.665 C 284.000 246.008,283.953 247.955,282.066 248.965 C 279.578 250.296,238.047 250.349,234.565 249.025 L 232.000 248.050 232.000 168.725 C 232.000 108.361,232.287 89.113,233.200 88.200 C 234.904 86.496,281.096 86.496,282.800 88.200 " stroke="none" fill="undefined" fill-rule="evenodd"/></svg>