<svg id="svg" version="1.1" width="512" height="512" xmlns="http://www.w3.org/2000/svg"><path d="M278.377 146.289 C 276.245 148.648,273.375 152.479,272.000 154.802 C 270.625 157.125,267.360 162.049,264.744 165.743 C 262.129 169.438,259.702 173.370,259.352 174.481 C 259.001 175.591,256.754 178.799,254.357 181.608 C 251.961 184.417,250.000 187.173,250.000 187.733 C 250.000 188.292,247.622 192.068,244.717 196.125 C 241.811 200.181,238.786 204.783,237.994 206.350 C 237.202 207.918,234.711 211.180,232.458 213.600 L 228.360 218.000 217.680 218.000 C 204.926 218.000,203.000 219.096,203.000 226.353 C 203.000 228.748,202.716 233.424,202.369 236.745 L 201.738 242.784 180.119 243.179 C 156.751 243.605,154.000 244.172,154.000 248.560 C 154.000 250.312,154.760 251.338,156.565 252.025 C 157.976 252.561,168.524 253.000,180.006 253.000 C 194.522 253.000,201.096 253.346,201.585 254.137 C 201.971 254.762,202.257 263.827,202.219 274.281 C 202.167 288.917,201.846 293.482,200.826 294.129 C 200.096 294.591,190.192 294.976,178.815 294.985 C 167.438 294.993,156.976 295.439,155.565 295.975 C 152.775 297.036,151.958 301.208,154.250 302.691 C 154.938 303.136,165.701 303.725,178.169 304.000 C 190.637 304.275,201.115 304.778,201.453 305.117 C 201.791 305.456,202.346 310.302,202.686 315.884 C 203.029 321.510,203.868 326.805,204.570 327.765 C 205.599 329.172,207.961 329.591,217.168 329.998 C 223.401 330.274,229.044 330.853,229.709 331.284 C 230.828 332.009,239.873 345.081,244.500 352.660 C 245.600 354.462,248.217 358.313,250.317 361.218 C 252.416 364.123,255.912 369.200,258.086 372.500 C 260.260 375.800,263.830 380.975,266.018 384.000 C 268.206 387.025,270.030 389.950,270.071 390.500 C 270.111 391.050,272.280 394.425,274.891 398.000 C 280.624 405.852,284.236 407.662,287.105 404.119 C 288.943 401.849,289.000 397.938,289.000 274.112 C 289.000 160.182,288.832 146.206,287.443 144.223 C 285.143 140.938,282.714 141.492,278.377 146.289 M279.000 273.609 C 279.000 329.284,278.727 375.548,278.393 376.418 C 278.059 377.288,277.188 378.000,276.456 378.000 C 275.382 378.000,269.622 370.195,262.489 359.076 C 261.933 358.209,259.683 354.831,257.489 351.570 C 255.295 348.308,251.777 342.908,249.672 339.570 C 247.566 336.231,245.030 332.600,244.035 331.500 C 243.040 330.400,241.262 327.581,240.085 325.236 C 237.974 321.029,237.948 320.310,238.222 272.736 L 238.500 224.500 243.734 216.500 C 246.613 212.100,250.663 206.034,252.734 203.019 C 254.805 200.004,257.057 196.404,257.737 195.019 C 258.418 193.634,260.546 190.475,262.467 188.000 C 264.388 185.525,266.711 182.150,267.628 180.500 C 268.545 178.850,270.892 175.546,272.844 173.158 C 276.113 169.158,276.495 168.956,277.696 170.599 C 278.748 172.037,279.000 191.971,279.000 273.609 M227.760 272.885 C 227.948 304.823,227.703 317.653,226.888 318.635 C 226.192 319.474,223.714 320.000,220.459 320.000 C 211.172 320.000,212.000 324.494,212.000 274.060 C 212.000 249.460,212.318 229.015,212.706 228.627 C 213.095 228.239,216.582 228.051,220.456 228.210 L 227.500 228.500 227.760 272.885 " stroke="none" fill="undefined" fill-rule="evenodd"/></svg>