<svg id="svg" version="1.1" width="512" height="341" xmlns="http://www.w3.org/2000/svg"><path d="M229.785 45.250 C 228.787 46.997,228.433 60.930,228.200 107.627 L 227.900 167.755 224.200 168.366 C 222.165 168.703,180.817 168.983,132.315 168.989 C 77.465 168.996,43.161 169.369,41.565 169.975 C 40.154 170.512,39.000 171.621,39.000 172.440 C 39.000 176.437,39.929 176.481,135.500 177.000 L 227.500 177.500 228.000 237.500 C 228.523 300.261,228.697 302.590,232.817 301.797 C 237.010 300.989,237.051 299.640,236.769 170.613 C 236.489 42.561,236.504 43.000,232.500 43.000 C 231.714 43.000,230.492 44.013,229.785 45.250 M309.816 49.250 C 302.423 59.171,291.127 79.970,286.598 92.000 C 285.045 96.125,283.156 101.075,282.401 103.000 C 281.646 104.925,280.561 108.679,279.989 111.341 C 279.418 114.004,278.339 117.646,277.592 119.435 C 276.844 121.224,275.910 125.570,275.516 129.094 C 275.122 132.617,274.074 138.425,273.187 142.000 C 270.872 151.337,270.881 194.815,273.200 203.500 C 274.081 206.800,275.104 212.406,275.474 215.957 C 275.844 219.508,276.717 223.783,277.415 225.457 C 278.113 227.131,279.268 230.975,279.980 234.000 C 284.043 251.251,300.243 284.554,310.360 296.456 C 313.709 300.395,313.734 300.404,316.361 298.683 C 317.813 297.732,319.000 296.592,319.000 296.150 C 319.000 295.708,316.000 290.675,312.333 284.966 C 297.923 262.530,285.957 232.218,282.937 210.499 C 282.327 206.117,281.641 202.229,281.413 201.859 C 281.184 201.489,280.531 196.646,279.962 191.096 C 278.323 175.128,266.110 177.016,371.785 176.900 C 421.678 176.845,463.582 176.498,464.905 176.128 C 466.228 175.757,467.793 174.690,468.383 173.755 C 471.070 169.495,471.669 169.526,373.914 169.000 C 292.726 168.563,280.804 168.310,279.958 167.000 C 278.935 165.416,279.499 154.956,281.062 146.500 C 281.571 143.750,282.453 138.125,283.023 134.000 C 285.923 113.021,299.108 80.195,312.947 59.500 C 316.258 54.550,318.974 50.195,318.983 49.821 C 319.017 48.476,315.818 46.000,314.047 46.000 C 313.052 46.000,311.148 47.462,309.816 49.250 " stroke="none" fill="undefined" fill-rule="evenodd"/></svg>