<svg id="svg" version="1.1" width="512" height="298" xmlns="http://www.w3.org/2000/svg"><path d="M238.130 25.343 C 237.345 26.289,236.940 44.371,236.758 86.593 L 236.500 146.500 144.122 147.000 C 53.044 147.493,51.725 147.528,50.412 149.506 C 49.540 150.820,49.399 152.027,50.003 153.006 C 50.808 154.308,62.843 154.564,143.713 155.000 L 236.500 155.500 236.758 215.430 C 236.990 269.448,237.178 275.540,238.663 277.180 C 240.678 279.406,241.413 279.444,243.429 277.429 C 244.840 276.017,245.000 263.185,245.000 151.129 C 245.000 55.451,244.721 26.121,243.800 25.200 C 242.209 23.609,239.513 23.677,238.130 25.343 M281.200 25.200 C 280.280 26.120,280.000 55.337,280.000 150.618 C 280.000 218.938,280.273 275.548,280.607 276.418 C 281.348 278.349,285.339 278.501,286.870 276.657 C 287.655 275.711,288.060 257.629,288.242 215.407 L 288.500 155.500 381.500 154.987 C 432.650 154.705,474.613 154.367,474.750 154.237 C 475.572 153.458,474.784 149.065,473.654 148.128 C 472.689 147.327,446.288 146.938,380.404 146.755 L 288.500 146.500 288.242 87.070 C 288.010 33.517,287.821 27.460,286.337 25.820 C 284.422 23.704,282.882 23.518,281.200 25.200 " stroke="none" fill="undefined" fill-rule="evenodd"/></svg>