<svg id="svg" version="1.1" width="512" height="298" xmlns="http://www.w3.org/2000/svg"><path d="M231.336 17.843 C 230.796 18.204,229.939 19.400,229.432 20.500 C 228.922 21.609,228.286 49.235,228.005 82.500 L 227.500 142.500 134.500 143.000 C 83.350 143.275,40.938 143.864,40.250 144.309 C 38.516 145.431,38.689 147.497,40.653 149.128 C 42.019 150.261,58.439 150.587,134.903 151.000 L 227.500 151.500 228.000 211.500 C 228.513 273.094,228.712 276.000,232.413 276.000 C 236.579 276.000,236.487 278.682,236.769 149.275 C 236.949 66.899,236.696 24.584,236.008 22.031 C 234.979 18.208,233.188 16.603,231.336 17.843 M305.621 29.750 C 283.159 63.512,271.181 103.986,271.072 146.500 C 271.004 172.568,274.855 195.021,283.849 221.000 C 286.229 227.874,293.856 244.991,295.435 247.000 C 296.083 247.825,297.124 249.701,297.748 251.168 C 298.874 253.817,308.506 268.785,311.392 272.371 C 312.459 273.697,313.622 274.061,315.382 273.619 C 319.956 272.471,319.494 269.794,313.007 259.847 C 296.421 234.415,286.303 207.521,282.027 177.500 C 278.972 156.059,278.807 153.937,280.076 152.409 C 281.065 151.216,295.231 150.998,372.372 150.986 C 422.493 150.979,464.498 150.705,465.717 150.378 C 468.319 149.681,469.697 146.297,468.050 144.649 C 467.208 143.808,441.962 143.361,373.700 142.982 C 322.440 142.697,280.387 142.360,280.250 142.232 C 279.378 141.422,280.294 127.211,281.920 116.340 C 283.947 102.788,286.622 91.388,290.681 79.000 C 294.155 68.402,305.673 45.176,312.889 34.222 C 316.250 29.119,319.000 24.297,319.000 23.507 C 319.000 21.940,316.024 20.000,313.620 20.000 C 312.788 20.000,309.189 24.387,305.621 29.750 M166.078 40.854 C 165.532 41.874,164.777 45.718,164.400 49.395 C 163.600 57.207,162.715 58.000,154.788 58.000 C 149.678 58.000,145.000 59.922,145.000 62.022 C 145.000 63.811,149.619 65.387,156.486 65.939 L 163.472 66.500 164.507 74.500 C 165.623 83.126,166.340 85.000,168.524 85.000 C 170.540 85.000,171.795 82.138,172.503 75.923 C 173.673 65.655,173.077 66.322,181.554 65.778 C 190.693 65.192,193.545 63.365,190.528 60.031 C 188.999 58.342,187.457 58.000,181.364 58.000 C 173.070 58.000,173.644 58.679,172.533 47.566 C 172.206 44.302,171.448 41.040,170.847 40.316 C 169.301 38.452,167.239 38.685,166.078 40.854 " stroke="none" fill="undefined" fill-rule="evenodd"/></svg>