<svg id="svg" version="1.1" width="512" height="298" xmlns="http://www.w3.org/2000/svg"><path d="M229.908 21.610 C 228.743 23.013,228.414 33.949,228.000 84.903 L 227.500 146.500 134.073 146.755 C 50.340 146.984,40.464 147.175,38.890 148.599 C 37.122 150.199,37.372 152.828,39.427 154.235 C 40.017 154.639,81.675 154.982,132.000 154.998 C 182.325 155.014,224.512 155.299,225.750 155.630 L 228.000 156.233 228.000 215.649 C 228.000 265.864,228.229 275.613,229.481 278.609 C 231.203 282.731,233.739 282.886,235.710 278.991 C 237.556 275.343,237.556 26.657,235.710 23.009 C 234.156 19.937,231.774 19.363,229.908 21.610 M272.557 22.223 C 271.168 24.206,271.000 38.046,271.000 150.675 C 271.000 244.339,271.299 277.563,272.161 279.453 C 273.401 282.175,275.842 282.758,277.800 280.800 C 278.707 279.893,279.000 264.689,279.000 218.500 C 279.000 172.311,279.293 157.107,280.200 156.200 C 281.116 155.284,303.422 155.000,374.500 155.000 C 445.578 155.000,467.884 154.716,468.800 153.800 C 470.602 151.998,470.246 149.202,468.066 148.035 C 466.772 147.343,435.472 147.000,373.601 147.000 C 283.142 147.000,281.047 146.957,280.035 145.066 C 279.354 143.794,279.000 122.465,279.000 82.766 C 279.000 37.148,278.707 22.107,277.800 21.200 C 276.007 19.407,274.295 19.741,272.557 22.223 M165.898 43.623 C 165.146 44.530,164.390 48.389,164.186 52.373 C 163.739 61.111,162.821 62.000,154.243 62.000 C 147.035 62.000,144.000 63.185,144.000 66.000 C 144.000 68.791,147.023 70.000,154.000 70.000 C 162.924 70.000,164.000 70.848,164.000 77.886 C 164.000 85.973,165.537 90.000,168.623 90.000 C 171.728 90.000,173.000 86.810,173.000 79.017 C 173.000 70.074,173.072 70.000,181.673 70.000 C 189.915 70.000,193.000 68.911,193.000 66.000 C 193.000 63.089,189.915 62.000,181.673 62.000 C 173.072 62.000,173.000 61.926,173.000 52.983 C 173.000 49.764,172.561 45.976,172.025 44.565 C 170.909 41.630,167.932 41.172,165.898 43.623 " stroke="none" fill="undefined" fill-rule="evenodd"/></svg>