<svg id="svg" version="1.1" width="512" height="341" xmlns="http://www.w3.org/2000/svg"><path d="M331.269 40.882 C 328.568 43.017,324.927 45.503,323.179 46.407 C 320.264 47.915,320.000 47.917,320.000 46.436 C 320.000 44.678,316.222 41.087,314.317 41.033 C 312.653 40.986,307.242 47.993,301.060 58.200 C 297.938 63.355,293.185 69.365,289.395 72.949 C 282.779 79.207,281.682 81.917,284.158 85.882 C 285.403 87.875,284.569 93.286,281.674 102.000 C 278.047 112.915,276.048 119.782,275.413 123.500 C 274.403 129.414,272.123 133.451,257.126 155.878 C 249.632 167.086,242.671 177.549,241.658 179.128 C 240.066 181.611,238.561 182.627,237.777 181.750 C 237.654 181.613,237.316 150.181,237.027 111.903 C 236.478 39.436,236.451 39.000,232.413 39.000 C 228.712 39.000,228.513 41.906,228.000 103.500 L 227.500 163.500 134.903 164.000 C 38.144 164.522,39.000 164.482,39.000 168.587 C 39.000 169.326,39.870 170.395,40.934 170.965 C 42.226 171.656,72.097 172.000,130.795 172.000 C 179.154 172.000,220.809 172.286,223.360 172.636 L 228.000 173.272 228.000 185.798 C 228.000 197.563,227.838 198.603,225.328 202.912 C 222.948 206.999,195.858 247.922,181.084 269.750 C 167.081 290.439,165.283 294.330,168.495 296.996 C 169.695 297.992,170.440 297.942,172.274 296.740 C 173.994 295.613,213.613 237.898,224.000 221.388 C 224.825 220.077,225.950 219.153,226.500 219.334 C 227.130 219.542,227.685 233.307,228.000 256.582 C 228.509 294.154,228.919 298.000,232.413 298.000 C 236.328 298.000,236.483 296.320,237.000 248.098 C 237.403 210.526,237.773 201.016,238.912 199.000 C 239.688 197.625,245.763 188.467,252.412 178.649 C 259.060 168.830,265.329 159.493,266.342 157.899 C 270.259 151.735,270.717 153.518,271.378 177.500 C 271.695 189.004,272.405 197.304,273.344 200.500 C 274.153 203.250,275.100 208.200,275.448 211.500 C 275.797 214.800,276.907 219.975,277.914 223.000 C 278.921 226.025,280.217 230.300,280.794 232.500 C 285.562 250.701,300.709 281.389,310.533 292.754 C 313.685 296.400,313.722 296.412,316.352 294.689 C 317.809 293.735,319.000 292.432,319.000 291.795 C 319.000 291.158,316.466 286.828,313.370 282.174 C 310.273 277.521,305.376 269.165,302.487 263.606 C 297.910 254.798,295.626 249.423,289.484 233.000 C 287.566 227.870,285.018 217.431,283.871 210.000 C 283.319 206.425,282.182 200.421,281.345 196.659 C 280.508 192.896,279.751 186.158,279.662 181.686 L 279.500 173.554 282.500 172.895 C 284.150 172.533,325.917 172.183,375.316 172.118 C 435.092 172.040,465.778 171.654,467.066 170.965 C 470.086 169.349,469.467 166.358,465.851 165.098 C 463.654 164.332,435.246 164.000,371.886 164.000 L 281.070 164.000 279.914 161.839 C 278.429 159.065,279.388 149.062,282.114 138.869 C 284.301 130.692,283.999 131.193,310.832 91.250 C 318.684 79.563,325.533 70.000,326.054 70.000 C 327.740 70.000,327.056 79.527,324.934 85.593 C 323.798 88.842,322.609 94.753,322.291 98.729 C 321.737 105.671,321.810 105.996,324.107 106.902 C 326.016 107.654,326.854 107.433,328.250 105.811 C 329.212 104.693,330.000 102.751,330.000 101.495 C 330.000 100.238,330.865 96.351,331.922 92.855 C 332.978 89.360,334.322 83.575,334.908 80.000 C 335.493 76.425,336.654 71.039,337.486 68.032 C 338.319 65.025,339.000 61.608,339.000 60.439 C 339.000 59.270,339.900 55.697,341.000 52.500 C 343.405 45.509,343.553 40.696,341.429 38.571 C 338.987 36.130,336.590 36.675,331.269 40.882 M314.543 68.750 C 313.441 71.628,299.331 93.227,296.089 97.000 L 293.081 100.500 293.041 97.869 C 292.986 94.304,297.508 82.538,300.848 77.555 C 303.287 73.917,312.132 67.000,314.346 67.000 C 314.823 67.000,314.912 67.787,314.543 68.750 " stroke="none" fill="undefined" fill-rule="evenodd"/></svg>