<svg id="svg" version="1.1" width="512" height="341" xmlns="http://www.w3.org/2000/svg"><path d="M320.368 50.288 C 314.795 54.804,304.025 63.225,296.434 69.000 C 279.310 82.027,279.000 82.329,279.000 86.000 C 279.000 90.943,282.919 89.996,292.885 82.648 C 305.593 73.278,309.453 70.859,309.841 72.023 C 310.319 73.456,303.506 84.728,291.724 102.000 C 286.284 109.975,280.909 117.991,279.780 119.814 C 275.868 126.129,275.514 123.312,275.279 83.939 C 275.061 47.521,274.666 42.978,271.715 43.015 C 267.482 43.069,267.524 42.622,267.000 92.213 C 266.651 125.246,266.153 140.103,265.347 141.500 C 263.987 143.860,251.667 162.241,241.701 176.778 C 236.666 184.122,234.348 186.748,233.578 185.978 C 232.838 185.239,232.343 162.999,232.000 115.000 C 231.629 63.107,231.195 44.794,230.317 43.916 C 228.652 42.252,226.146 43.485,224.985 46.539 C 224.379 48.134,224.000 71.782,224.000 108.030 C 224.000 165.239,223.944 166.959,222.066 167.965 C 220.773 168.657,189.996 169.000,129.288 169.000 C 49.434 169.000,38.181 169.185,36.264 170.527 C 33.512 172.455,34.275 174.552,38.229 175.930 C 40.321 176.659,69.892 177.000,131.067 177.000 C 180.440 177.000,221.548 177.273,222.418 177.607 C 223.741 178.114,223.999 180.205,223.997 190.357 L 223.994 202.500 219.247 210.187 C 216.636 214.415,202.913 235.201,188.750 256.379 C 168.950 285.987,163.000 295.598,163.000 297.974 C 163.000 301.513,164.873 302.673,167.939 301.033 C 169.092 300.416,180.294 284.519,192.834 265.706 C 219.476 225.735,221.294 223.088,222.133 223.038 C 223.661 222.946,223.973 229.547,223.986 262.203 C 223.996 286.381,224.352 297.678,225.161 299.453 C 226.389 302.150,229.337 302.841,230.691 300.750 C 231.136 300.063,231.725 278.557,232.000 252.959 L 232.500 206.418 239.500 195.776 C 258.206 167.337,264.309 158.909,265.401 160.001 C 266.169 160.768,266.651 181.972,267.000 230.299 C 267.275 268.360,267.864 300.063,268.309 300.750 C 269.533 302.642,272.797 302.247,273.965 300.066 C 274.645 298.794,275.000 277.591,275.000 238.173 C 275.000 184.421,275.164 178.151,276.582 177.607 C 277.452 177.273,318.822 177.000,368.517 177.000 C 425.414 177.000,459.829 176.635,461.461 176.015 C 464.903 174.706,465.835 172.083,463.471 170.355 C 461.944 169.238,445.654 169.000,370.874 169.000 C 314.334 169.000,279.163 168.632,277.565 168.025 C 275.014 167.055,275.000 166.988,275.000 155.363 C 275.000 141.453,272.716 146.094,298.550 107.500 C 320.205 75.149,320.258 75.073,321.250 75.031 C 322.747 74.969,321.887 86.635,320.000 92.000 C 318.852 95.264,318.052 100.217,318.033 104.183 C 318.004 110.054,318.248 110.944,320.048 111.515 C 322.868 112.410,324.838 110.481,325.529 106.150 C 325.848 104.142,326.943 99.125,327.962 95.000 C 332.330 77.307,333.301 73.126,334.576 66.500 C 335.318 62.650,336.616 57.291,337.462 54.591 C 340.299 45.535,339.188 41.968,333.550 42.038 C 331.250 42.066,328.008 44.095,320.368 50.288 " stroke="none" fill="undefined" fill-rule="evenodd"/></svg>