<svg id="svg" version="1.1" width="512" height="341" xmlns="http://www.w3.org/2000/svg"><path d="M305.093 22.388 C 302.704 25.266,306.097 29.038,318.471 37.261 C 330.420 45.201,331.955 46.489,331.985 48.601 C 331.993 49.206,326.307 58.206,319.349 68.601 C 293.352 107.439,293.000 107.919,293.000 104.527 C 293.000 98.411,303.709 76.301,314.485 60.168 C 322.123 48.733,322.353 46.500,315.891 46.500 C 312.813 46.500,312.060 47.146,307.737 53.500 C 297.708 68.238,287.619 88.499,282.588 104.000 C 281.071 108.675,279.155 114.525,278.330 117.000 C 277.506 119.475,276.267 124.507,275.577 128.182 C 274.767 132.495,272.936 137.201,270.411 141.454 C 262.882 154.141,238.766 188.973,237.887 188.430 C 237.385 188.120,237.000 157.616,237.000 118.096 C 237.000 51.758,236.910 48.228,235.171 46.655 C 232.835 44.541,231.699 44.570,229.686 46.794 C 228.227 48.407,228.058 54.617,228.016 107.960 C 227.983 149.700,227.642 167.727,226.867 168.661 C 225.967 169.745,208.646 170.037,132.741 170.245 C 46.502 170.481,39.640 170.624,38.647 172.197 C 37.920 173.350,37.893 174.793,38.562 176.697 L 39.548 179.500 133.524 180.000 L 227.500 180.500 227.782 192.878 L 228.064 205.257 197.032 251.725 C 178.437 279.569,166.000 299.129,166.000 300.529 C 166.000 301.987,166.752 303.104,168.000 303.500 C 172.617 304.966,173.055 304.461,192.700 275.000 C 194.351 272.525,200.606 263.151,206.601 254.168 C 212.595 245.186,219.420 234.926,221.766 231.369 C 224.112 227.812,226.475 225.175,227.016 225.510 C 227.633 225.891,228.000 239.933,228.000 263.125 C 228.000 286.722,228.375 300.832,229.035 302.066 C 230.382 304.583,234.618 304.583,235.965 302.066 C 236.635 300.813,237.000 283.952,237.000 254.209 L 237.000 208.286 244.023 197.893 C 247.886 192.177,255.171 181.322,260.211 173.771 C 265.252 166.221,269.629 160.295,269.938 160.604 C 270.247 160.912,270.794 171.140,271.153 183.332 C 271.608 198.752,272.248 206.718,273.258 209.500 C 274.056 211.700,275.025 216.339,275.411 219.808 C 275.797 223.277,276.933 228.452,277.936 231.308 C 278.939 234.164,280.228 238.300,280.800 240.500 C 285.951 260.284,308.408 302.060,314.748 303.652 C 317.673 304.386,320.348 303.056,320.825 300.632 C 321.004 299.722,318.732 295.495,315.775 291.239 C 302.626 272.311,291.484 248.322,287.420 230.189 C 286.642 226.718,285.578 223.081,285.057 222.106 C 284.535 221.132,283.650 215.871,283.090 210.417 C 282.530 204.963,281.584 199.101,280.987 197.390 C 280.390 195.680,280.037 191.180,280.201 187.390 L 280.500 180.500 373.904 180.245 C 440.897 180.062,467.688 179.674,468.654 178.872 C 470.348 177.467,470.409 172.581,468.750 171.218 C 467.920 170.536,436.397 170.094,375.000 169.904 C 319.913 169.734,281.994 169.241,281.250 168.687 C 278.814 166.871,280.119 152.872,283.931 139.935 C 285.152 135.790,340.109 54.000,341.673 54.000 C 343.683 54.000,348.323 56.522,355.409 61.465 C 364.956 68.126,372.553 72.109,374.375 71.410 C 376.992 70.405,377.579 66.115,375.381 64.051 C 373.160 61.965,358.161 51.981,320.000 27.188 C 310.354 20.922,307.163 19.894,305.093 22.388 " stroke="none" fill="undefined" fill-rule="evenodd"/></svg>