<svg id="svg" version="1.1" width="512" height="341" xmlns="http://www.w3.org/2000/svg"><path d="M315.001 18.499 C 312.410 21.620,315.529 25.149,328.271 33.517 C 335.029 37.954,340.633 42.333,340.824 43.326 C 341.030 44.394,330.933 60.455,315.835 83.074 C 293.760 116.146,290.339 120.810,289.250 119.324 C 288.304 118.032,288.000 108.694,288.000 80.880 C 288.000 48.816,287.800 43.943,286.429 42.571 C 284.511 40.654,282.608 40.563,281.151 42.318 C 280.403 43.219,279.970 58.470,279.779 90.606 L 279.500 137.576 265.096 159.038 C 247.319 185.527,247.393 185.429,246.330 183.784 C 245.873 183.078,245.376 151.257,245.223 113.070 C 245.030 64.585,244.616 43.243,243.851 42.320 C 242.248 40.389,239.226 40.708,238.035 42.934 C 237.355 44.205,237.000 65.106,237.000 103.852 C 237.000 136.294,236.727 163.548,236.393 164.418 C 235.846 165.845,226.631 166.000,142.372 166.000 L 48.957 166.000 47.783 168.578 C 46.947 170.411,46.913 171.638,47.663 172.828 C 48.635 174.368,56.033 174.520,141.513 174.755 C 208.056 174.938,234.688 175.326,235.654 176.128 C 236.642 176.948,237.000 180.368,237.000 189.003 L 237.000 200.761 226.902 216.131 C 221.348 224.584,216.286 232.255,215.652 233.178 C 215.019 234.101,205.613 248.151,194.750 264.401 C 174.152 295.216,172.299 299.000,177.809 299.000 C 179.354 299.000,181.333 298.438,182.207 297.750 C 183.082 297.063,190.640 286.150,199.003 273.500 C 207.367 260.850,214.989 249.375,215.942 248.000 C 216.895 246.625,221.367 239.987,225.880 233.250 C 230.393 226.512,234.464 221.000,234.926 221.000 C 236.687 221.000,236.973 226.527,236.986 260.816 C 236.995 283.221,237.378 296.839,238.035 298.066 C 239.226 300.290,242.248 300.611,243.849 298.682 C 244.597 297.781,245.030 282.540,245.221 250.432 L 245.500 203.500 261.091 180.500 C 269.665 167.850,277.090 157.586,277.591 157.691 C 278.091 157.796,278.793 158.921,279.150 160.191 C 279.508 161.461,279.845 192.898,279.900 230.050 C 279.976 281.143,280.292 297.892,281.200 298.800 C 282.830 300.430,284.550 300.308,286.429 298.429 C 287.822 297.035,288.000 290.087,288.000 237.051 C 288.000 188.559,288.251 177.036,289.328 176.143 C 290.273 175.358,317.252 175.032,382.988 175.010 C 449.244 174.988,475.698 174.666,476.660 173.867 C 478.325 172.486,478.402 168.802,476.800 167.200 C 475.884 166.284,453.557 166.000,382.407 166.000 C 298.350 166.000,289.154 165.845,288.607 164.418 C 288.273 163.548,287.998 157.811,287.995 151.668 L 287.989 140.500 296.348 128.000 C 300.946 121.125,314.268 101.100,325.953 83.500 C 337.637 65.900,347.812 50.858,348.562 50.073 C 350.317 48.236,351.956 48.975,364.706 57.356 C 377.996 66.090,381.458 67.695,383.452 66.040 C 384.303 65.333,385.000 63.761,385.000 62.546 C 385.000 60.811,381.946 58.324,370.750 50.940 C 339.225 30.150,318.569 17.000,317.438 17.000 C 316.782 17.000,315.685 17.675,315.001 18.499 " stroke="none" fill="undefined" fill-rule="evenodd"/></svg>