<?xml version="1.0" standalone="no"?>
<!DOCTYPE svg PUBLIC "-//W3C//DTD SVG 20010904//EN"
 "http://www.w3.org/TR/2001/REC-SVG-20010904/DTD/svg10.dtd">
<svg version="1.0" xmlns="http://www.w3.org/2000/svg"
 width="120.000000pt" height="100.000000pt" viewBox="0 0 120.000000 100.000000"
 preserveAspectRatio="xMidYMid meet">

<g transform="translate(0.000000,100.000000) scale(0.100000,-0.100000)"
fill="#000000" stroke="none">
<path d="M300 735 l0 -74 -97 -4 -98 -3 98 -2 97 -2 0 -145 0 -144 -97 -4 -98
-3 98 -2 97 -2 0 -75 0 -75 173 0 c123 0 188 4 223 15 103 30 184 119 206 226
l12 58 95 4 96 3 -95 2 -96 2 -12 58 c-22 108 -103 197 -206 227 -35 11 -100
15 -223 15 l-173 0 0 -75z m400 49 c75 -22 162 -109 184 -184 35 -119 12 -216
-73 -301 -80 -79 -116 -89 -333 -89 l-168 0 0 295 0 295 168 0 c125 0 182 -4
222 -16z"/>
</g>
</svg>
