<?xml version="1.0" standalone="no"?>
<!DOCTYPE svg PUBLIC "-//W3C//DTD SVG 20010904//EN"
 "http://www.w3.org/TR/2001/REC-SVG-20010904/DTD/svg10.dtd">
<svg version="1.0" xmlns="http://www.w3.org/2000/svg"
 width="120.000000pt" height="100.000000pt" viewBox="0 0 120.000000 100.000000"
 preserveAspectRatio="xMidYMid meet">

<g transform="translate(0.000000,100.000000) scale(0.100000,-0.100000)"
fill="#000000" stroke="none">
<path d="M320 660 l0 -149 -97 -4 -98 -3 98 -2 97 -2 0 -150 c0 -82 2 -150 5
-150 3 0 137 66 298 147 l292 148 105 6 105 5 -98 2 -97 2 -300 150 c-165 83
-302 150 -305 150 -3 0 -5 -67 -5 -150z m305 -12 l285 -143 -282 -142 c-156
-78 -286 -142 -290 -142 -5 -1 -8 127 -8 284 0 157 2 285 5 285 3 0 133 -64
290 -142z"/>
</g>
</svg>
