<?xml version="1.0" standalone="no"?>
<!DOCTYPE svg PUBLIC "-//W3C//DTD SVG 20010904//EN"
 "http://www.w3.org/TR/2001/REC-SVG-20010904/DTD/svg10.dtd">
<svg version="1.0" xmlns="http://www.w3.org/2000/svg"
 width="120.000000pt" height="100.000000pt" viewBox="0 0 120.000000 100.000000"
 preserveAspectRatio="xMidYMid meet">

<g transform="translate(0.000000,100.000000) scale(0.100000,-0.100000)"
fill="#000000" stroke="none">
<path d="M280 800 l0 -99 -97 -4 -98 -3 98 -2 97 -2 0 -195 0 -194 -97 -4 -98
-3 98 -2 97 -2 0 -100 0 -100 305 0 305 0 0 100 0 99 98 4 97 3 -97 2 -98 2 0
195 0 194 98 4 97 3 -97 2 -98 2 0 100 0 100 -305 0 -305 0 0 -100z m600 -305
l0 -395 -295 0 -295 0 0 70 0 70 50 25 c28 14 50 27 50 30 0 3 -22 16 -50 30
l-50 25 0 270 0 270 295 0 295 0 0 -395z m-545 -182 l36 -17 -33 -18 c-45 -24
-48 -23 -48 17 0 19 2 35 5 35 2 0 20 -8 40 -17z"/>
<path d="M310 700 c0 -37 2 -41 21 -38 12 2 27 11 33 21 14 22 -3 51 -33 55
-19 3 -21 -1 -21 -38z m45 0 c0 -16 -6 -26 -17 -28 -14 -3 -18 3 -18 28 0 25
4 31 18 28 11 -2 17 -12 17 -28z"/>
<path d="M812 728 c-27 -27 -5 -69 34 -66 15 2 21 10 22 32 3 40 -30 60 -56
34z m46 -24 c3 -22 -21 -39 -39 -28 -11 6 -12 38 -2 48 13 13 38 1 41 -20z"/>
<path d="M807 343 c10 -3 10 -9 0 -24 -16 -25 2 -54 35 -55 21 -1 24 4 26 33
2 18 -1 33 -6 33 -5 0 -7 -11 -5 -24 3 -15 -1 -25 -12 -30 -46 -17 -48 38 -2
58 l32 14 -40 0 c-22 0 -35 -2 -28 -5z"/>
</g>
</svg>
