<?xml version="1.0" standalone="no"?>
<!DOCTYPE svg PUBLIC "-//W3C//DTD SVG 20010904//EN"
 "http://www.w3.org/TR/2001/REC-SVG-20010904/DTD/svg10.dtd">
<svg version="1.0" xmlns="http://www.w3.org/2000/svg"
 width="120.000000pt" height="120.000000pt" viewBox="0 0 120.000000 120.000000"
 preserveAspectRatio="xMidYMid meet">

<g transform="translate(0.000000,120.000000) scale(0.100000,-0.100000)"
fill="#000000" stroke="none">
<path d="M310 835 l0 -74 -97 -4 -98 -3 98 -2 97 -2 0 -145 0 -144 -97 -4 -98
-3 98 -2 97 -2 0 -75 0 -75 173 0 c194 0 246 10 314 60 52 38 98 106 112 168
15 58 38 71 135 74 l71 2 -75 6 c-108 9 -116 14 -130 71 -15 62 -60 130 -113
169 -68 50 -120 60 -314 60 l-173 0 0 -75z m400 49 c75 -22 162 -109 184 -184
35 -119 12 -216 -73 -301 -80 -79 -116 -89 -333 -89 l-168 0 0 295 0 295 168
0 c125 0 182 -4 222 -16z m240 -279 c0 -8 -7 -15 -15 -15 -8 0 -15 7 -15 15 0
8 7 15 15 15 8 0 15 -7 15 -15z"/>
</g>
</svg>
