<?xml version="1.0" standalone="no"?>
<!DOCTYPE svg PUBLIC "-//W3C//DTD SVG 20010904//EN"
 "http://www.w3.org/TR/2001/REC-SVG-20010904/DTD/svg10.dtd">
<svg version="1.0" xmlns="http://www.w3.org/2000/svg"
 width="120.000000pt" height="120.000000pt" viewBox="0 0 120.000000 120.000000"
 preserveAspectRatio="xMidYMid meet">

<g transform="translate(0.000000,120.000000) scale(0.100000,-0.100000)"
fill="#000000" stroke="none">
<path d="M262 903 c16 -32 46 -102 52 -120 7 -23 6 -23 -96 -25 l-103 -2 105
-5 105 -6 6 -30 c4 -16 7 -66 7 -110 0 -44 -3 -93 -7 -110 l-6 -30 -105 -6
-105 -5 103 -2 c102 -2 103 -2 96 -24 -6 -19 -36 -89 -52 -120 -2 -5 63 -8
145 -8 157 0 215 10 293 50 62 32 153 122 186 184 20 39 32 52 45 49 9 -3 20
0 23 6 4 6 42 12 84 13 l77 2 -75 3 c-41 2 -80 9 -87 15 -7 5 -19 8 -26 5 -8
-3 -23 15 -41 48 -33 63 -124 153 -186 185 -78 40 -136 50 -293 50 -82 0 -147
-3 -145 -7z m361 -23 c111 -34 219 -130 272 -241 16 -34 16 -38 0 -70 -58
-113 -162 -205 -272 -239 -52 -16 -93 -20 -205 -20 -130 0 -140 1 -132 18 48
109 58 159 58 277 0 118 -10 168 -58 278 -8 16 2 17 132 17 112 0 153 -4 205
-20z m327 -275 c0 -8 -7 -15 -15 -15 -8 0 -15 7 -15 15 0 8 7 15 15 15 8 0 15
-7 15 -15z"/>
</g>
</svg>
