<?xml version="1.0" standalone="no"?>
<!DOCTYPE svg PUBLIC "-//W3C//DTD SVG 20010904//EN"
 "http://www.w3.org/TR/2001/REC-SVG-20010904/DTD/svg10.dtd">
<svg version="1.0" xmlns="http://www.w3.org/2000/svg"
 width="120.000000pt" height="120.000000pt" viewBox="0 0 120.000000 120.000000"
 preserveAspectRatio="xMidYMid meet">

<g transform="translate(0.000000,120.000000) scale(0.100000,-0.100000)"
fill="#000000" stroke="none">
<path d="M252 903 c16 -32 46 -102 52 -120 7 -23 6 -23 -96 -25 l-103 -2 105
-5 105 -6 6 -30 c4 -16 7 -66 7 -110 0 -44 -3 -93 -7 -110 l-6 -30 -105 -6
-105 -5 103 -2 c102 -2 103 -2 96 -24 -6 -19 -36 -89 -52 -120 -7 -14 290 -9
344 6 116 31 233 126 288 234 l26 51 97 4 98 3 -97 2 -98 2 -26 52 c-55 108
-172 203 -288 234 -54 15 -351 20 -344 7z m361 -23 c110 -34 203 -115 273
-240 l20 -35 -28 -49 c-47 -80 -80 -117 -141 -163 -89 -65 -160 -83 -329 -83
-130 0 -140 1 -132 18 48 109 58 159 58 277 0 118 -10 168 -58 278 -8 16 2 17
132 17 112 0 153 -4 205 -20z"/>
</g>
</svg>
