<?xml version="1.0" standalone="no"?>
<!DOCTYPE svg PUBLIC "-//W3C//DTD SVG 20010904//EN"
 "http://www.w3.org/TR/2001/REC-SVG-20010904/DTD/svg10.dtd">
<svg version="1.0" xmlns="http://www.w3.org/2000/svg"
 width="120.000000pt" height="120.000000pt" viewBox="0 0 120.000000 120.000000"
 preserveAspectRatio="xMidYMid meet">

<g transform="translate(0.000000,120.000000) scale(0.100000,-0.100000)"
fill="#000000" stroke="none">
<path d="M212 905 c2 -5 13 -30 24 -55 44 -94 46 -90 -43 -92 l-78 -2 80 -5
c79 -6 80 -6 86 -36 4 -16 7 -66 7 -110 0 -44 -3 -93 -7 -110 -6 -30 -7 -30
-86 -36 l-80 -5 78 -2 c89 -2 88 2 41 -97 -13 -27 -21 -51 -19 -53 5 -5 40 65
54 111 9 26 18 37 32 37 17 0 19 -4 13 -22 -6 -19 -36 -89 -52 -120 -2 -5 63
-8 145 -8 157 0 215 10 293 50 62 32 153 122 186 184 20 39 32 52 45 49 9 -3
20 0 23 6 4 6 42 12 84 13 l77 2 -75 3 c-41 2 -80 9 -87 15 -7 5 -19 8 -26 5
-8 -3 -23 15 -41 48 -33 63 -124 153 -186 185 -78 40 -136 50 -293 50 -82 0
-147 -3 -145 -7 16 -32 46 -102 52 -120 6 -19 4 -23 -12 -23 -14 0 -25 15 -40
58 -12 31 -29 66 -37 77 -9 11 -15 16 -13 10z m411 -25 c111 -34 219 -130 272
-241 16 -34 16 -38 0 -70 -58 -113 -162 -205 -272 -239 -52 -16 -93 -20 -205
-20 -130 0 -140 1 -132 18 48 109 58 159 58 277 0 118 -10 168 -58 278 -8 16
2 17 132 17 112 0 153 -4 205 -20z m-292 -165 c4 -16 7 -66 7 -110 0 -108 -8
-139 -35 -143 -20 -3 -21 -1 -12 35 11 49 11 167 0 216 -9 36 -8 38 12 35 15
-2 24 -12 28 -33z m619 -110 c0 -8 -7 -15 -15 -15 -8 0 -15 7 -15 15 0 8 7 15
15 15 8 0 15 -7 15 -15z"/>
</g>
</svg>
