<svg id="svg" version="1.1" width="512" height="426" xmlns="http://www.w3.org/2000/svg"><path d="M135.866 78.679 C 125.165 79.336,125.623 77.885,125.159 112.533 L 124.765 141.914 85.409 142.207 C 46.114 142.500,46.050 142.503,43.804 144.750 L 41.556 147.000 43.804 149.250 C 46.049 151.496,46.121 151.501,85.535 151.813 L 125.016 152.126 124.758 210.813 L 124.500 269.500 85.500 270.000 C 64.050 270.275,45.747 270.872,44.827 271.327 C 42.190 272.632,41.873 274.873,44.023 277.023 C 45.920 278.920,47.472 279.000,82.375 279.000 C 102.381 279.000,120.156 279.281,121.875 279.625 L 125.000 280.250 125.084 304.375 C 125.183 332.547,125.838 339.677,128.508 341.630 C 130.055 342.761,143.224 343.000,203.941 342.999 L 277.500 342.998 288.000 340.429 C 315.300 333.752,331.237 324.754,351.598 304.521 C 367.024 289.193,376.538 275.043,382.907 257.958 C 386.021 249.604,390.000 233.430,390.000 229.127 C 390.000 227.011,390.281 223.228,390.625 220.720 L 391.250 216.161 429.875 215.799 C 470.666 215.417,474.000 215.038,474.000 210.788 C 474.000 206.474,469.605 206.000,429.591 206.000 C 404.881 206.000,391.901 205.648,391.479 204.967 C 391.128 204.398,390.599 200.461,390.303 196.217 C 389.098 178.915,379.530 151.309,370.825 140.016 C 369.758 138.632,367.636 135.556,366.109 133.181 C 361.304 125.707,341.305 106.385,332.086 100.309 C 317.541 90.724,309.077 86.969,290.500 81.858 L 279.500 78.832 211.000 78.552 C 173.325 78.398,139.515 78.455,135.866 78.679 M281.500 90.403 C 305.671 95.215,321.409 103.226,342.711 121.562 C 353.936 131.225,368.957 154.538,374.886 171.500 C 378.618 182.176,380.993 197.519,381.002 211.000 C 381.028 254.321,359.709 292.039,321.537 316.203 C 309.704 323.694,296.019 328.753,279.000 331.930 C 267.864 334.008,265.413 334.067,201.500 333.788 L 135.500 333.500 135.243 212.000 C 135.101 145.175,135.200 89.938,135.461 89.250 C 135.836 88.267,150.209 88.001,202.719 88.007 C 269.096 88.014,269.573 88.028,281.500 90.403 " stroke="none" fill="undefined" fill-rule="evenodd"/></svg>