<svg id="svg" version="1.1" width="512" height="426" xmlns="http://www.w3.org/2000/svg"><path d="M136.571 80.571 C 135.707 81.436,134.896 82.223,134.769 82.321 C 134.642 82.420,134.305 110.175,134.019 144.000 L 133.500 205.500 94.500 206.000 C 53.815 206.522,51.000 206.837,51.000 210.875 C 51.000 214.629,54.728 215.000,92.482 215.000 C 113.705 215.000,129.939 215.406,131.435 215.975 L 134.000 216.950 134.000 277.340 C 134.000 336.921,134.028 337.766,136.073 340.365 C 137.212 341.814,138.835 343.000,139.679 343.000 C 140.523 343.000,198.647 314.313,268.844 279.250 L 396.476 215.500 438.204 215.000 C 474.482 214.565,480.138 214.293,481.512 212.918 C 482.953 211.476,482.920 211.122,481.136 208.918 L 479.179 206.500 436.839 206.000 L 394.500 205.500 370.500 193.364 C 286.478 150.877,141.639 79.000,140.045 79.000 C 138.999 79.000,137.436 79.707,136.571 80.571 M262.827 150.737 C 326.257 182.363,378.399 208.877,378.699 209.657 C 379.431 211.565,376.999 214.045,371.802 216.688 C 331.106 237.391,146.603 329.000,145.604 329.000 C 144.850 329.000,143.962 327.988,143.630 326.750 C 142.854 323.853,142.836 97.212,143.612 94.319 C 144.007 92.846,144.733 92.316,145.849 92.687 C 146.757 92.988,199.397 119.111,262.827 150.737 " stroke="none" fill="undefined" fill-rule="evenodd"/></svg>