<svg id="svg" version="1.1" width="512" height="512" xmlns="http://www.w3.org/2000/svg"><path d="M251.035 38.934 C 250.437 40.052,250.000 48.103,250.000 58.000 C 250.000 67.897,249.563 75.948,248.965 77.066 C 247.959 78.946,246.215 79.000,186.899 79.000 C 146.742 79.000,125.207 79.354,123.934 80.035 C 122.072 81.032,122.000 82.542,122.000 120.601 C 122.000 145.938,121.628 160.826,120.965 162.066 C 119.968 163.928,118.462 164.000,80.687 164.000 C 46.788 164.000,41.142 164.212,39.223 165.557 C 36.400 167.534,36.400 169.466,39.223 171.443 C 41.141 172.787,46.737 173.000,80.141 173.000 C 101.423 173.000,119.548 173.273,120.418 173.607 C 121.842 174.153,122.000 182.051,122.000 252.673 C 122.000 304.844,121.653 331.780,120.965 333.066 C 119.969 334.927,118.465 335.000,81.012 335.000 C 53.608 335.000,41.341 335.343,39.547 336.161 C 36.529 337.536,36.215 340.510,38.934 341.965 C 40.170 342.626,54.587 343.000,78.869 343.000 C 101.140 343.000,117.932 343.404,119.435 343.975 L 122.000 344.950 122.000 385.404 C 122.000 420.846,122.195 426.052,123.571 427.429 C 124.966 428.823,132.095 429.000,186.955 429.000 L 248.767 429.000 249.370 431.250 C 249.701 432.488,249.979 441.001,249.986 450.168 C 249.994 459.336,250.273 467.548,250.607 468.418 C 251.407 470.504,256.593 470.504,257.393 468.418 C 257.727 467.548,258.000 458.863,258.000 449.118 C 258.000 436.671,258.357 431.043,259.200 430.200 C 260.107 429.293,275.321 429.000,321.545 429.000 C 379.511 429.000,382.776 428.905,384.345 427.171 C 385.827 425.534,386.000 421.150,386.000 385.206 C 386.000 346.549,386.071 345.032,387.934 344.035 C 389.171 343.373,403.737 343.000,428.352 343.000 C 449.519 343.000,467.548 342.727,468.418 342.393 C 470.634 341.543,470.398 337.283,468.066 336.035 C 466.828 335.373,452.145 335.000,427.266 335.000 C 398.370 335.000,388.092 334.692,387.200 333.800 C 385.462 332.062,385.462 175.938,387.200 174.200 C 388.091 173.309,398.230 173.000,426.635 173.000 C 449.058 173.000,465.931 172.597,467.435 172.025 C 470.591 170.825,470.973 166.591,468.066 165.035 C 466.828 164.373,452.145 164.000,427.266 164.000 C 398.370 164.000,388.092 163.692,387.200 162.800 C 386.307 161.907,386.000 151.438,386.000 121.871 C 386.000 87.088,385.804 81.947,384.429 80.571 C 383.034 79.177,375.958 79.000,321.629 79.000 C 275.340 79.000,260.107 78.707,259.200 77.800 C 258.355 76.955,258.000 71.234,258.000 58.455 C 258.000 42.146,257.815 40.142,256.171 38.655 C 253.773 36.485,252.303 36.565,251.035 38.934 M240.455 89.455 C 235.582 94.327,239.081 103.102,246.368 104.285 C 250.164 104.901,258.000 109.454,258.000 111.044 C 258.000 113.170,254.625 113.216,250.367 111.148 C 245.173 108.624,240.751 108.391,238.614 110.529 C 236.783 112.359,237.412 114.546,240.834 118.250 C 243.280 120.898,243.746 121.000,253.389 121.000 C 263.300 121.000,263.439 120.966,266.702 117.804 C 269.494 115.098,270.000 113.900,270.000 109.995 C 270.000 107.458,269.438 104.651,268.750 103.757 C 267.616 102.281,261.905 99.437,253.250 96.035 C 251.463 95.332,250.000 94.392,250.000 93.946 C 250.000 92.264,253.810 92.023,257.307 93.484 C 261.444 95.212,267.579 95.490,268.506 93.991 C 269.533 92.329,268.105 89.358,265.728 88.211 C 264.109 87.429,278.831 87.117,319.628 87.068 C 364.585 87.013,375.970 87.259,376.836 88.303 C 377.983 89.685,378.712 162.621,377.590 163.743 C 377.266 164.068,377.000 162.180,377.000 159.549 C 377.000 155.304,376.551 154.316,373.017 150.782 L 369.035 146.800 360.082 147.150 C 351.737 147.476,350.912 147.704,347.938 150.500 C 344.146 154.065,340.023 162.334,340.010 166.404 C 339.997 170.223,344.137 178.851,347.493 182.000 C 349.981 184.334,351.017 184.533,363.118 185.000 C 373.153 185.387,376.292 185.839,377.024 187.000 C 378.372 189.138,378.315 309.543,376.965 312.066 C 376.005 313.860,374.716 314.000,359.165 314.000 C 341.888 314.000,340.000 314.408,340.000 318.143 C 340.000 319.102,340.962 320.560,342.138 321.384 C 344.249 322.863,344.254 322.942,342.526 327.691 C 339.508 335.988,339.542 339.840,342.690 345.999 C 347.146 354.719,349.890 356.000,364.113 356.000 C 374.830 356.000,376.027 356.183,376.980 357.962 C 377.664 359.240,377.937 370.312,377.765 389.712 L 377.500 419.500 256.000 419.774 C 189.175 419.925,133.488 419.804,132.250 419.505 L 130.000 418.962 130.000 392.554 L 130.000 366.145 132.548 364.141 C 135.286 361.987,165.443 347.000,167.039 347.000 C 169.408 347.000,172.000 342.858,172.000 339.073 C 172.000 336.021,171.413 334.683,169.365 333.073 C 167.916 331.933,166.228 330.996,165.615 330.990 C 164.015 330.976,134.333 315.730,131.975 313.710 C 130.046 312.059,130.000 310.502,130.000 246.819 C 130.000 194.463,130.246 181.936,131.250 183.233 C 132.544 184.905,137.142 185.372,149.868 185.124 C 155.861 185.007,156.463 184.772,160.118 181.118 L 164.000 177.235 164.000 166.579 L 164.000 155.923 160.074 151.711 L 156.148 147.500 144.689 147.167 C 133.674 146.846,133.167 146.923,131.615 149.139 C 130.113 151.283,130.000 149.265,130.000 120.423 C 130.000 97.627,130.318 89.082,131.200 88.200 C 132.104 87.296,146.012 87.000,187.655 87.000 L 242.909 87.000 240.455 89.455 M131.756 161.831 C 132.327 169.810,131.302 180.000,129.928 180.000 C 129.402 180.000,129.000 174.059,129.000 166.300 C 129.000 156.127,129.291 152.891,130.128 153.728 C 130.749 154.349,131.481 157.995,131.756 161.831 M149.927 158.635 C 152.212 161.539,152.801 169.634,150.977 173.043 C 149.643 175.536,146.554 177.150,144.572 176.389 C 143.317 175.908,143.000 174.110,143.000 167.475 C 143.000 162.904,143.273 158.452,143.607 157.582 C 144.530 155.176,147.611 155.690,149.927 158.635 M363.150 157.080 C 364.261 157.675,365.830 159.742,366.638 161.675 C 367.945 164.804,367.933 165.453,366.530 167.595 C 365.629 168.969,363.978 170.000,362.677 170.000 C 359.576 170.000,358.009 171.809,357.955 175.450 C 357.910 178.465,357.882 178.449,355.500 174.000 C 352.769 168.900,352.480 166.313,354.193 162.297 C 356.741 156.326,359.135 154.932,363.150 157.080 M377.932 173.750 C 377.877 179.230,377.666 180.089,376.809 178.316 C 375.848 176.329,376.469 167.000,377.561 167.000 C 377.803 167.000,377.970 170.037,377.932 173.750 M377.800 322.200 C 379.109 323.509,379.352 328.082,378.318 331.946 C 377.712 334.212,377.608 334.249,376.902 332.446 C 376.483 331.376,376.109 329.016,376.070 327.202 C 376.012 324.467,375.445 323.662,372.750 322.491 L 369.500 321.078 373.050 321.039 C 375.002 321.018,377.140 321.540,377.800 322.200 M144.500 333.544 C 148.900 335.627,154.525 337.892,157.000 338.576 C 161.186 339.734,161.277 339.827,158.310 339.911 C 155.029 340.003,136.823 348.018,133.813 350.695 C 132.885 351.521,131.648 351.900,131.063 351.539 C 129.916 350.830,129.522 327.811,130.637 326.696 C 130.988 326.346,132.450 326.891,133.887 327.907 C 135.324 328.924,140.100 331.460,144.500 333.544 M364.388 328.876 C 366.950 331.707,367.562 337.296,365.531 339.326 C 364.610 340.247,363.044 341.000,362.051 341.000 C 359.662 341.000,358.256 342.830,357.824 346.500 C 357.478 349.440,357.426 349.403,355.235 344.623 C 352.477 338.604,352.436 336.026,355.020 330.960 C 356.654 327.758,357.581 327.000,359.865 327.000 C 361.419 327.000,363.454 327.844,364.388 328.876 M377.731 347.924 L 376.643 350.500 376.235 348.119 C 376.010 346.809,376.158 344.109,376.564 342.119 L 377.301 338.500 378.060 341.924 C 378.508 343.945,378.373 346.403,377.731 347.924 M238.200 379.200 C 237.365 380.035,237.000 385.340,237.000 396.629 C 237.000 414.736,237.421 416.000,243.449 416.000 C 247.579 416.000,248.628 414.742,249.526 408.707 C 249.953 405.840,250.694 404.063,251.370 404.285 C 251.992 404.489,254.444 407.209,256.821 410.328 C 260.705 415.427,261.516 416.000,264.848 416.000 C 269.452 416.000,273.162 413.618,272.288 411.223 C 271.942 410.275,270.611 408.228,269.330 406.673 C 266.656 403.429,266.357 400.232,268.468 397.441 C 271.740 393.115,269.578 381.450,265.055 379.030 C 262.284 377.547,239.710 377.690,238.200 379.200 M257.455 388.859 C 258.500 392.151,257.039 394.000,253.393 394.000 C 250.182 394.000,250.000 393.812,250.000 390.500 C 250.000 387.180,250.176 387.000,253.433 387.000 C 255.900 387.000,257.031 387.523,257.455 388.859 " stroke="none" fill="undefined" fill-rule="evenodd"/></svg>