<svg id="svg" version="1.1" width="512" height="426" xmlns="http://www.w3.org/2000/svg"><path d="M121.000 44.000 C 119.069 45.931,119.000 47.333,119.000 84.918 C 119.000 106.323,118.727 124.548,118.393 125.418 C 117.854 126.823,113.440 127.000,78.940 127.000 C 41.556 127.000,35.000 127.456,35.000 130.054 C 35.000 131.819,40.508 132.083,76.078 132.024 C 98.815 131.986,114.805 132.356,116.384 132.956 L 119.000 133.950 119.000 214.775 C 119.000 276.306,118.714 295.886,117.800 296.800 C 116.908 297.692,106.576 298.000,77.491 298.000 C 45.213 298.000,38.043 298.249,36.441 299.425 C 32.323 302.449,38.785 303.000,78.365 303.000 C 106.770 303.000,116.909 303.309,117.800 304.200 C 118.693 305.093,119.000 315.543,119.000 345.045 C 119.000 382.182,119.116 384.795,120.829 386.345 C 122.510 387.867,132.887 388.000,249.674 388.000 C 371.455 388.000,376.758 387.925,378.345 386.171 C 379.826 384.535,380.000 380.196,380.000 344.871 C 380.000 315.505,380.307 305.093,381.200 304.200 C 382.090 303.310,392.352 302.988,420.950 302.955 C 450.812 302.920,460.176 302.610,462.500 301.578 L 465.500 300.245 462.685 299.123 C 460.773 298.360,447.441 298.000,421.135 298.000 C 392.341 298.000,382.092 297.692,381.200 296.800 C 379.690 295.290,379.474 136.382,380.978 134.000 C 381.786 132.721,387.910 132.426,422.630 132.000 C 453.836 131.617,463.431 131.210,463.749 130.256 C 464.670 127.487,458.217 127.000,420.635 127.000 C 392.230 127.000,382.091 126.691,381.200 125.800 C 380.307 124.907,380.000 114.533,380.000 85.300 C 380.000 47.333,379.932 45.932,378.000 44.000 C 376.021 42.021,374.667 42.000,249.500 42.000 C 124.333 42.000,122.979 42.021,121.000 44.000 M373.800 48.200 C 375.545 49.945,375.545 380.055,373.800 381.800 C 372.880 382.720,343.994 383.000,249.871 383.000 C 139.633 383.000,126.983 382.840,125.571 381.429 C 124.219 380.076,124.000 376.026,124.000 352.383 L 124.000 324.909 126.455 322.455 C 127.805 321.105,129.459 320.000,130.131 320.000 C 131.791 320.000,161.060 305.195,163.250 303.247 C 165.574 301.179,165.457 299.773,162.750 297.259 C 160.234 294.923,130.546 280.000,128.414 280.000 C 127.665 280.000,126.365 278.672,125.526 277.050 C 124.185 274.457,124.000 260.577,124.000 162.484 C 124.000 87.457,124.339 50.234,125.035 48.934 C 126.050 47.038,128.490 47.000,249.335 47.000 C 343.874 47.000,372.880 47.280,373.800 48.200 M137.000 110.727 C 131.485 111.731,131.000 113.127,131.000 128.000 C 131.000 144.793,131.133 145.000,141.924 145.000 C 154.064 145.000,158.000 140.624,158.000 127.126 C 158.000 119.984,157.727 118.829,155.381 116.041 C 150.795 110.591,145.755 109.134,137.000 110.727 M352.619 111.034 C 349.234 112.048,345.324 115.481,343.548 119.000 C 339.835 126.353,341.163 134.678,347.069 141.075 L 350.927 145.254 356.714 144.577 C 364.354 143.684,366.516 143.662,369.640 144.446 C 372.095 145.062,372.210 144.933,371.539 142.301 C 371.146 140.760,370.903 134.705,370.998 128.844 C 371.096 122.839,370.705 117.317,370.103 116.192 C 368.795 113.749,361.261 109.968,357.934 110.086 C 356.595 110.133,354.204 110.560,352.619 111.034 M150.987 119.480 C 152.389 121.747,153.000 124.470,153.000 128.445 C 153.000 133.421,152.625 134.529,150.077 137.077 C 147.886 139.268,146.215 140.000,143.406 140.000 C 137.083 140.000,136.427 138.652,137.000 126.832 L 137.500 116.513 140.500 115.981 C 145.876 115.029,148.850 116.021,150.987 119.480 M364.588 118.689 C 366.827 121.105,367.051 122.090,366.790 128.379 L 366.500 135.379 363.120 136.252 C 361.260 136.732,358.775 137.756,357.597 138.528 C 354.317 140.678,351.321 139.295,349.037 134.577 C 346.602 129.546,346.500 127.132,348.521 122.295 C 350.866 116.683,351.804 116.000,357.170 116.000 C 361.232 116.000,362.533 116.472,364.588 118.689 M339.000 278.015 C 337.667 278.891,337.667 279.109,339.000 279.985 C 339.825 280.526,341.625 280.988,343.000 281.011 C 344.375 281.034,347.300 281.904,349.500 282.945 L 353.500 284.838 350.323 284.919 C 348.144 284.975,346.495 285.827,345.076 287.631 C 339.278 295.001,340.596 306.116,348.007 312.353 C 350.932 314.814,351.610 314.934,361.597 314.753 L 372.107 314.562 371.406 312.031 C 371.021 310.639,370.805 304.520,370.927 298.434 C 371.166 286.478,371.013 286.081,365.500 284.299 L 362.500 283.330 367.750 281.585 C 370.798 280.571,373.000 279.244,373.000 278.420 C 373.000 277.251,370.126 277.003,356.750 277.015 C 347.796 277.024,339.827 277.473,339.000 278.015 M141.349 291.887 C 149.132 295.676,156.595 299.107,157.933 299.513 C 160.192 300.198,160.039 300.376,155.786 301.990 C 153.267 302.946,145.678 306.477,138.922 309.836 C 129.633 314.455,126.316 315.678,125.319 314.850 C 124.344 314.040,124.000 310.161,124.000 299.961 C 124.000 286.823,124.220 285.674,126.849 285.079 C 127.041 285.036,133.566 288.099,141.349 291.887 M364.750 288.282 C 366.650 290.027,366.998 291.373,366.985 296.924 C 366.976 300.541,366.639 303.955,366.235 304.511 C 365.831 305.066,363.143 306.603,360.261 307.926 C 353.565 311.001,350.945 310.041,348.491 303.615 C 346.461 298.299,347.030 293.503,350.164 289.518 C 354.034 284.599,360.173 284.079,364.750 288.282 " stroke="none" fill="undefined" fill-rule="evenodd"/></svg>