<svg id="svg" version="1.1" width="512" height="512" xmlns="http://www.w3.org/2000/svg"><path d="M136.035 128.934 C 135.355 130.206,135.000 151.382,135.000 190.743 C 135.000 237.085,134.717 250.995,133.750 252.288 C 132.626 253.791,128.560 253.986,93.285 254.229 C 56.936 254.480,53.939 254.633,52.285 256.315 C 50.570 258.058,50.593 258.205,52.861 260.065 C 55.105 261.904,57.131 262.000,93.911 262.000 C 122.669 262.000,132.908 262.308,133.800 263.200 C 134.707 264.107,135.000 279.148,135.000 324.766 C 135.000 364.465,135.354 385.794,136.035 387.066 C 136.711 388.328,138.128 389.000,140.116 389.000 C 142.145 389.000,184.390 368.378,266.614 327.250 L 390.067 265.500 393.982 267.750 C 396.771 269.353,399.514 270.000,403.527 270.000 C 408.749 270.000,409.453 269.710,413.238 266.000 L 417.318 262.000 447.094 262.000 C 464.021 262.000,477.977 261.579,479.435 261.025 C 480.922 260.459,482.000 259.266,482.000 258.185 C 482.000 254.459,478.151 254.000,446.897 254.000 L 416.887 254.000 414.194 251.125 C 412.712 249.544,410.517 247.744,409.316 247.125 C 405.841 245.335,398.856 245.777,395.500 248.000 C 393.850 249.093,391.529 249.990,390.343 249.993 C 389.157 249.997,332.921 222.325,265.374 188.500 C 192.318 151.916,141.450 127.000,139.816 127.000 C 138.125 127.000,136.673 127.743,136.035 128.934 M147.642 139.042 C 148.215 139.615,199.942 165.731,262.592 197.077 C 325.241 228.423,377.333 254.899,378.350 255.913 C 379.767 257.324,379.962 258.196,379.184 259.628 C 377.978 261.847,145.408 378.370,143.965 377.478 C 142.907 376.825,142.554 142.325,143.607 139.582 C 144.303 137.767,146.123 137.523,147.642 139.042 M405.816 258.259 C 406.090 260.625,405.777 261.000,403.535 261.000 C 400.508 261.000,399.221 258.644,401.046 256.444 C 402.936 254.167,405.455 255.125,405.816 258.259 " stroke="none" fill="undefined" fill-rule="evenodd"/></svg>