<svg id="svg" version="1.1" width="512" height="512" xmlns="http://www.w3.org/2000/svg"><path d="M132.557 125.223 C 131.235 127.109,131.000 131.797,131.000 156.247 L 131.000 185.050 128.435 186.025 C 126.935 186.595,110.405 187.000,88.626 187.000 C 57.868 187.000,51.044 187.249,49.441 188.433 C 47.846 189.610,47.732 190.101,48.799 191.183 C 49.820 192.218,58.481 192.561,89.238 192.784 C 115.578 192.975,128.806 193.424,129.689 194.157 C 130.743 195.032,131.000 206.776,131.000 254.147 L 131.000 313.050 128.435 314.025 C 126.935 314.595,110.405 315.000,88.626 315.000 C 57.868 315.000,51.044 315.249,49.441 316.433 C 47.846 317.610,47.732 318.101,48.799 319.183 C 49.820 320.218,58.481 320.561,89.238 320.784 C 115.578 320.975,128.806 321.424,129.689 322.157 C 130.713 323.007,131.000 329.337,131.000 351.075 C 131.000 381.737,131.301 383.601,136.403 384.531 C 138.106 384.842,172.125 384.962,212.000 384.798 C 291.466 384.471,285.390 384.896,305.500 378.264 C 323.560 372.308,339.929 361.840,355.292 346.423 C 376.733 324.906,388.337 301.634,393.459 269.876 C 394.024 266.374,394.216 266.229,399.177 265.571 C 403.306 265.023,405.013 264.168,407.905 261.195 L 411.500 257.500 442.500 256.997 C 471.496 256.527,477.000 256.042,477.000 253.952 C 477.000 251.859,472.547 251.469,443.297 251.000 L 412.094 250.500 408.046 246.546 C 404.852 243.426,403.017 242.476,399.353 242.046 C 394.041 241.421,393.583 240.813,392.182 232.500 C 391.625 229.200,390.529 223.800,389.746 220.500 C 381.626 186.285,355.024 153.532,320.915 135.753 C 312.791 131.518,307.420 129.635,293.000 125.963 L 281.500 123.036 207.807 123.018 L 134.113 123.000 132.557 125.223 M289.500 132.204 C 319.292 139.395,342.089 153.980,360.648 177.722 C 373.497 194.159,379.823 207.875,384.449 229.330 C 391.664 262.790,383.598 299.708,363.111 326.991 C 359.596 331.671,354.421 337.899,351.611 340.831 C 343.519 349.273,325.039 362.577,315.500 366.828 C 302.346 372.690,287.681 376.549,273.000 378.011 C 260.856 379.221,143.742 379.233,140.565 378.025 L 138.000 377.050 138.000 254.225 C 138.000 157.917,138.267 131.133,139.238 130.162 C 140.205 129.195,155.619 128.992,209.488 129.236 L 278.500 129.549 289.500 132.204 M401.950 250.440 C 402.607 251.231,402.999 253.144,402.822 254.690 C 402.540 257.153,402.082 257.500,399.115 257.500 C 396.571 257.500,395.533 256.969,394.940 255.365 C 393.317 250.980,399.054 246.950,401.950 250.440 " stroke="none" fill="undefined" fill-rule="evenodd"/></svg>