<svg id="svg" version="1.1" width="512" height="512" xmlns="http://www.w3.org/2000/svg"><path d="M111.200 124.200 C 109.327 126.073,109.710 127.549,114.063 135.231 C 121.900 149.062,133.117 177.296,133.430 183.983 C 133.547 186.472,127.310 186.882,88.441 186.942 C 57.910 186.990,51.040 187.252,49.441 188.433 C 47.847 189.609,47.732 190.101,48.799 191.183 C 49.816 192.215,59.292 192.608,92.630 193.000 C 132.797 193.472,135.240 193.605,136.538 195.382 C 138.005 197.389,139.071 202.377,140.946 216.000 C 141.589 220.675,142.581 227.650,143.150 231.500 C 144.634 241.533,143.670 276.239,141.554 289.000 C 138.700 306.214,137.823 310.669,137.038 311.938 C 135.496 314.434,127.453 314.953,89.941 314.976 C 58.069 314.996,51.046 315.248,49.441 316.433 C 47.847 317.609,47.732 318.101,48.799 319.183 C 49.814 320.213,59.011 320.609,91.000 321.000 C 119.520 321.349,132.245 321.843,133.034 322.633 C 134.217 323.817,133.399 326.965,128.261 341.000 C 124.146 352.243,121.967 357.163,115.708 369.339 C 110.935 378.626,109.849 381.537,110.671 382.839 C 111.630 384.359,117.194 384.500,176.110 384.500 C 225.376 384.500,241.304 384.204,243.924 383.241 C 245.807 382.549,250.307 381.515,253.924 380.943 C 267.960 378.722,292.733 368.459,309.711 357.830 C 341.212 338.109,365.839 311.126,383.941 276.500 C 386.816 271.000,389.566 266.087,390.052 265.582 C 390.538 265.077,393.889 264.771,397.498 264.902 C 403.910 265.135,404.145 265.053,407.780 261.320 L 411.500 257.500 442.500 256.997 C 471.496 256.527,477.000 256.042,477.000 253.952 C 477.000 251.859,472.553 251.469,443.382 251.000 L 412.264 250.500 407.510 246.117 L 402.756 241.734 396.583 242.310 C 389.493 242.972,390.787 244.181,383.119 229.731 C 376.240 216.768,370.305 207.688,360.415 195.000 C 337.142 165.139,301.967 140.973,265.188 129.576 C 260.617 128.159,255.892 126.992,254.688 126.983 C 253.485 126.973,249.125 126.081,245.000 125.000 C 237.932 123.148,233.895 123.033,174.950 123.017 C 127.614 123.004,112.108 123.292,111.200 124.200 M231.500 129.943 C 265.425 135.046,286.457 142.769,310.635 159.000 C 334.828 175.241,354.764 196.015,370.313 221.184 C 377.588 232.960,385.427 249.977,385.430 254.000 C 385.432 257.382,377.614 275.037,372.586 283.000 C 360.049 302.858,355.829 308.199,340.512 323.591 C 327.361 336.807,322.294 341.135,312.150 347.816 C 292.025 361.071,266.230 372.319,251.000 374.480 C 248.525 374.832,243.125 375.880,239.000 376.809 C 232.455 378.285,224.538 378.500,176.801 378.500 C 140.132 378.500,121.757 378.156,121.057 377.456 C 120.330 376.730,121.098 374.367,123.575 369.703 C 130.843 356.015,139.068 333.596,143.277 316.000 C 149.443 290.224,150.301 282.603,150.255 254.072 C 150.230 238.557,149.731 224.795,149.054 221.000 C 148.418 217.425,147.223 210.450,146.400 205.500 C 144.910 196.537,144.055 193.162,139.187 177.000 C 135.877 166.009,129.314 149.570,124.087 139.173 L 119.954 130.953 122.227 130.040 C 125.190 128.850,223.653 128.762,231.500 129.943 M401.395 250.299 C 402.577 251.164,403.059 252.586,402.836 254.549 C 402.538 257.170,402.121 257.500,399.115 257.500 C 394.960 257.500,393.296 254.450,395.632 251.115 C 397.337 248.680,398.881 248.462,401.395 250.299 " stroke="none" fill="undefined" fill-rule="evenodd"/></svg>