<svg id="svg" version="1.1" width="512" height="512" xmlns="http://www.w3.org/2000/svg"><path d="M107.200 124.200 C 106.540 124.860,106.000 125.816,106.000 126.325 C 106.000 126.834,109.099 133.607,112.886 141.375 C 121.823 159.708,122.177 160.546,126.426 173.435 C 128.974 181.165,129.718 184.682,128.966 185.435 C 128.265 186.137,113.952 186.671,86.999 187.000 C 55.010 187.391,45.813 187.787,44.798 188.817 C 43.732 189.899,43.847 190.391,45.441 191.567 C 47.051 192.755,54.389 193.003,88.441 193.015 C 111.024 193.024,129.995 193.361,130.600 193.765 C 132.928 195.320,134.264 199.676,136.150 211.867 C 139.500 233.517,140.516 252.137,139.252 268.750 C 137.873 286.873,134.472 308.631,132.561 311.548 C 131.698 312.865,129.641 313.963,127.320 314.347 C 125.219 314.694,106.374 314.983,85.441 314.989 C 53.988 314.998,47.045 315.249,45.441 316.433 C 43.847 317.609,43.732 318.101,44.799 319.183 C 45.814 320.213,55.012 320.609,87.000 321.000 C 112.636 321.313,128.281 321.879,128.915 322.514 C 130.918 324.519,122.238 347.970,111.777 368.818 C 106.894 378.550,105.819 381.490,106.657 382.818 C 107.629 384.359,112.833 384.522,168.886 384.758 C 221.118 384.978,231.109 384.788,237.277 383.462 C 241.250 382.607,246.959 381.486,249.964 380.971 C 258.201 379.560,278.280 372.356,289.157 366.910 C 307.257 357.848,328.257 342.792,342.009 329.019 C 358.998 312.004,376.944 284.862,386.786 261.294 C 387.494 259.600,389.069 257.947,390.286 257.621 C 391.504 257.294,409.663 257.021,430.639 257.014 C 466.768 257.001,468.903 256.899,471.139 255.078 L 473.500 253.155 470.685 252.078 C 468.880 251.387,454.709 250.958,431.185 250.882 C 411.008 250.817,393.152 250.475,391.504 250.123 C 388.811 249.546,387.750 247.967,381.004 234.491 C 369.427 211.363,357.372 194.246,341.553 178.473 C 325.923 162.887,302.785 146.841,283.378 138.128 C 273.678 133.774,253.966 127.000,250.993 127.000 C 249.966 127.000,245.386 126.103,240.813 125.007 C 232.973 123.128,228.966 123.014,170.450 123.007 C 123.514 123.002,108.108 123.292,107.200 124.200 M242.000 132.259 C 248.875 133.712,255.850 135.350,257.500 135.899 C 280.114 143.428,290.488 148.390,308.055 160.081 C 317.937 166.658,323.600 171.466,335.552 183.432 C 356.821 204.723,369.115 222.774,380.039 248.750 L 382.246 254.000 380.051 259.250 C 377.393 265.607,369.211 281.918,367.635 284.000 C 367.011 284.825,365.870 286.625,365.101 288.000 C 355.825 304.576,330.138 332.216,312.500 344.599 C 287.566 362.106,268.749 370.090,238.000 376.211 C 226.868 378.427,224.767 378.500,172.301 378.500 C 133.971 378.500,117.777 378.175,116.993 377.392 C 116.180 376.580,116.948 374.170,119.857 368.392 C 124.923 358.329,131.885 340.924,135.212 330.000 C 140.016 314.229,141.020 310.272,141.969 303.375 C 142.488 299.594,143.592 292.900,144.422 288.500 C 146.515 277.400,146.544 230.852,144.465 219.500 C 143.660 215.100,142.537 208.350,141.970 204.500 C 141.404 200.650,140.228 195.025,139.358 192.000 C 135.052 177.030,132.589 169.095,130.976 165.000 C 125.646 151.466,123.169 145.782,119.675 139.057 C 115.987 131.961,115.893 131.551,117.654 130.258 C 119.169 129.144,129.346 128.965,174.500 129.260 C 229.473 129.618,229.506 129.619,242.000 132.259 " stroke="none" fill="undefined" fill-rule="evenodd"/></svg>