<svg id="svg" version="1.1" width="512" height="512" xmlns="http://www.w3.org/2000/svg"><path d="M90.200 124.200 C 88.329 126.071,88.625 127.036,94.781 139.136 C 100.251 149.890,101.399 152.445,106.180 164.500 C 110.396 175.132,112.944 184.456,111.915 185.486 C 111.297 186.104,99.027 186.695,80.498 187.000 C 58.071 187.369,49.768 187.828,48.847 188.750 C 45.598 192.006,49.370 192.489,82.086 193.000 C 117.226 193.549,115.089 193.120,116.957 200.000 C 118.222 204.659,120.933 223.959,122.154 237.000 C 123.219 248.376,122.512 275.049,120.926 283.350 C 120.385 286.182,119.289 293.125,118.491 298.777 C 117.694 304.430,116.577 309.923,116.009 310.983 C 114.198 314.366,108.524 314.989,79.441 314.994 C 56.662 314.999,51.017 315.270,49.441 316.433 C 47.847 317.609,47.732 318.101,48.798 319.183 C 49.792 320.192,57.204 320.617,80.500 321.000 C 100.093 321.322,111.284 321.880,111.971 322.569 C 112.727 323.327,112.560 325.075,111.397 328.569 C 107.236 341.075,101.238 355.597,95.252 367.665 C 91.446 375.336,88.975 381.491,89.329 382.415 C 90.137 384.520,93.309 384.431,95.237 382.250 C 97.364 379.843,107.126 360.034,110.390 351.500 C 111.862 347.650,113.439 343.820,113.893 342.988 C 114.348 342.156,115.463 338.919,116.372 335.793 C 117.280 332.668,118.902 328.060,119.976 325.555 C 121.758 321.398,122.232 321.000,125.399 321.000 C 127.308 321.000,130.074 321.458,131.547 322.018 C 133.723 322.845,134.092 323.453,133.520 325.268 C 133.133 326.496,132.204 329.525,131.455 332.000 C 128.393 342.115,124.577 351.285,117.342 365.915 C 111.542 377.642,109.958 381.709,110.719 382.915 C 111.615 384.335,118.427 384.500,176.110 384.500 C 225.376 384.500,241.304 384.204,243.924 383.241 C 245.807 382.549,250.307 381.515,253.924 380.943 C 267.960 378.722,292.733 368.459,309.711 357.830 C 341.212 338.109,365.839 311.126,383.941 276.500 C 386.816 271.000,389.566 266.087,390.052 265.582 C 390.538 265.077,393.889 264.771,397.498 264.902 C 403.910 265.135,404.145 265.053,407.780 261.320 L 411.500 257.500 442.500 256.997 C 471.496 256.527,477.000 256.042,477.000 253.952 C 477.000 251.859,472.553 251.469,443.382 251.000 L 412.264 250.500 407.510 246.117 L 402.756 241.734 396.583 242.310 C 389.493 242.972,390.787 244.181,383.119 229.731 C 376.240 216.768,370.305 207.688,360.415 195.000 C 337.142 165.139,301.967 140.973,265.188 129.576 C 260.617 128.159,255.967 127.000,254.855 127.000 C 253.743 127.000,249.295 126.097,244.970 124.992 C 237.451 123.072,234.374 122.996,174.413 123.242 C 115.690 123.484,111.647 123.612,110.609 125.269 C 109.748 126.643,109.921 127.760,111.385 130.269 C 120.377 145.683,133.091 176.669,133.430 184.000 C 133.485 185.183,132.158 185.500,127.147 185.500 L 120.793 185.500 117.485 175.500 C 109.325 150.835,95.827 123.000,92.026 123.000 C 91.682 123.000,90.860 123.540,90.200 124.200 M231.500 129.943 C 265.425 135.046,286.457 142.769,310.635 159.000 C 334.828 175.241,354.764 196.015,370.313 221.184 C 377.588 232.960,385.427 249.977,385.430 254.000 C 385.432 257.382,377.614 275.037,372.586 283.000 C 360.049 302.858,355.829 308.199,340.512 323.591 C 327.361 336.807,322.294 341.135,312.150 347.816 C 292.025 361.071,266.230 372.319,251.000 374.480 C 248.525 374.832,243.125 375.880,239.000 376.809 C 232.455 378.285,224.538 378.500,176.801 378.500 C 140.132 378.500,121.757 378.156,121.057 377.456 C 120.330 376.730,121.098 374.367,123.575 369.703 C 130.843 356.015,139.068 333.596,143.277 316.000 C 149.443 290.224,150.301 282.603,150.255 254.072 C 150.230 238.557,149.731 224.795,149.054 221.000 C 148.418 217.425,147.223 210.450,146.400 205.500 C 144.910 196.537,144.055 193.162,139.187 177.000 C 135.877 166.009,129.314 149.570,124.087 139.173 L 119.954 130.953 122.227 130.040 C 125.190 128.850,223.653 128.762,231.500 129.943 M136.671 195.565 C 138.011 197.397,139.108 202.641,140.946 216.000 C 141.589 220.675,142.581 227.650,143.150 231.500 C 144.634 241.533,143.670 276.239,141.554 289.000 C 137.324 314.511,137.558 314.000,130.129 314.000 C 122.479 314.000,122.516 314.235,126.789 293.000 C 129.372 280.166,129.274 227.461,126.643 214.000 C 122.937 195.046,123.007 196.114,125.366 194.409 C 128.053 192.468,134.920 193.170,136.671 195.565 M401.395 250.299 C 402.577 251.164,403.059 252.586,402.836 254.549 C 402.538 257.170,402.121 257.500,399.115 257.500 C 394.960 257.500,393.296 254.450,395.632 251.115 C 397.337 248.680,398.881 248.462,401.395 250.299 " stroke="none" fill="undefined" fill-rule="evenodd"/></svg>