<svg id="svg" version="1.1" width="512" height="512" xmlns="http://www.w3.org/2000/svg"><path d="M111.567 119.926 C 109.695 121.995,109.739 122.148,115.782 134.259 C 125.890 154.517,134.730 177.655,133.544 180.747 C 132.900 182.423,122.579 182.426,121.263 180.750 C 120.723 180.063,118.371 173.875,116.035 167.000 C 111.145 152.606,110.857 151.920,102.366 134.378 C 95.463 120.119,93.824 117.971,91.166 119.699 C 88.765 121.259,89.347 124.666,93.185 131.500 C 95.037 134.800,97.837 140.425,99.405 144.000 C 100.974 147.575,103.047 152.300,104.013 154.500 C 104.978 156.700,107.432 163.401,109.465 169.391 C 112.420 178.099,112.894 180.452,111.831 181.126 C 111.099 181.590,97.743 181.976,82.151 181.985 C 57.958 181.998,53.295 182.241,50.343 183.642 L 46.883 185.283 49.692 187.135 C 52.269 188.834,54.992 188.987,82.750 188.993 C 111.662 189.000,113.088 189.088,115.000 191.000 C 116.100 192.100,117.010 193.338,117.022 193.750 C 117.034 194.162,117.954 200.350,119.065 207.500 C 122.392 228.902,123.450 248.168,122.189 264.342 C 120.482 286.224,117.014 307.042,114.715 309.202 C 114.597 309.313,100.325 309.650,83.000 309.952 C 55.772 310.426,51.180 310.726,49.143 312.169 L 46.786 313.838 49.843 315.419 C 52.420 316.751,57.362 317.000,81.259 317.000 C 102.414 317.000,110.053 317.319,111.332 318.254 C 112.924 319.417,112.757 320.337,109.027 331.004 C 104.289 344.550,98.055 358.812,92.713 368.325 C 88.550 375.739,88.216 379.317,91.642 379.805 C 94.285 380.182,96.210 377.586,102.250 365.500 C 108.561 352.873,113.266 341.218,117.994 326.500 C 119.231 322.650,120.693 318.938,121.244 318.250 C 122.391 316.818,130.796 316.585,132.915 317.926 C 134.123 318.691,134.073 319.677,132.572 324.661 C 129.577 334.612,121.918 352.976,115.799 364.882 C 109.685 376.779,109.262 379.526,113.384 380.560 C 114.621 380.871,143.504 380.960,177.567 380.758 C 230.193 380.446,240.326 380.154,245.000 378.814 C 248.025 377.947,252.300 376.930,254.500 376.554 C 259.633 375.677,272.666 371.632,281.000 368.329 C 296.072 362.356,313.363 352.055,330.163 339.042 C 351.647 322.399,372.745 295.491,385.783 268.103 C 388.821 261.721,391.983 255.713,392.808 254.750 C 394.191 253.139,397.417 253.000,433.544 253.000 C 470.387 253.000,472.919 252.886,475.089 251.129 L 477.400 249.258 474.249 247.629 C 471.498 246.206,466.220 246.000,432.589 246.000 C 403.024 246.000,393.828 245.710,392.997 244.750 C 392.403 244.063,388.886 237.425,385.184 230.000 C 377.091 213.772,372.969 207.117,362.696 193.696 C 344.522 169.953,320.656 150.248,293.774 136.790 C 283.568 131.681,260.173 123.020,256.500 122.992 C 255.400 122.983,250.900 122.014,246.500 120.837 C 238.825 118.784,235.963 118.680,175.980 118.266 C 113.550 117.835,113.457 117.837,111.567 119.926 M239.500 127.000 C 244.846 128.100,250.227 129.000,251.457 129.000 C 252.687 129.000,259.895 131.062,267.474 133.581 C 295.791 142.996,317.965 156.985,340.873 179.889 C 357.748 196.760,368.117 211.286,378.973 233.260 L 386.759 249.021 384.439 254.765 C 380.376 264.823,373.055 278.112,364.201 291.500 C 357.156 302.153,352.881 307.208,340.526 319.500 C 332.234 327.750,323.436 335.843,320.975 337.485 C 318.514 339.127,314.250 342.129,311.500 344.156 C 304.944 348.988,285.592 359.040,275.500 362.853 C 264.644 366.956,255.655 369.385,242.000 371.908 C 231.167 373.909,227.332 374.032,175.833 374.016 C 133.008 374.004,121.073 373.729,120.736 372.750 C 120.498 372.063,122.059 368.134,124.204 364.021 C 134.627 344.031,143.048 317.415,148.057 288.635 C 150.004 277.443,150.292 272.307,150.266 249.135 C 150.241 226.451,149.920 220.720,148.103 210.500 C 144.559 190.561,139.524 171.092,135.044 160.000 C 130.852 149.623,123.586 133.367,121.898 130.592 C 118.417 124.867,117.133 125.000,176.012 125.000 C 225.873 125.000,230.486 125.145,239.500 127.000 M137.199 193.000 C 138.133 194.925,139.355 200.100,139.914 204.500 C 140.472 208.900,141.658 217.225,142.549 223.000 C 144.627 236.475,144.125 269.854,141.632 284.000 C 140.711 289.225,139.534 296.140,139.018 299.366 C 137.627 308.052,136.007 310.000,130.177 310.000 C 127.550 310.000,124.939 309.539,124.375 308.975 C 123.254 307.854,123.986 301.692,126.747 289.000 C 129.228 277.592,129.756 228.561,127.528 216.405 C 126.631 211.507,125.415 203.735,124.828 199.134 C 123.584 189.401,123.940 188.831,131.000 189.239 C 135.048 189.474,135.671 189.851,137.199 193.000 " stroke="none" fill="undefined" fill-rule="evenodd"/></svg>