<svg id="svg" version="1.1" width="512" height="341" xmlns="http://www.w3.org/2000/svg"><path d="M116.750 124.080 C 115.181 124.994,115.000 127.053,115.000 143.978 C 115.000 159.808,114.746 163.111,113.429 164.429 C 112.061 165.796,107.405 166.000,77.551 166.000 C 49.020 166.000,43.045 166.241,42.058 167.430 C 39.476 170.541,44.192 171.000,78.734 171.000 C 103.741 171.000,112.914 171.314,113.800 172.200 C 114.646 173.046,115.005 178.874,115.015 191.950 C 115.024 202.152,115.457 211.175,115.978 212.000 C 116.801 213.302,125.195 213.537,179.693 213.779 C 214.214 213.933,242.811 214.411,243.241 214.841 C 243.671 215.271,241.543 218.487,238.511 221.987 C 233.108 228.226,231.575 232.000,234.443 232.000 C 235.237 232.000,239.010 229.304,242.829 226.010 C 249.357 220.377,249.808 220.153,250.372 222.260 C 250.702 223.492,250.979 239.170,250.986 257.101 C 250.999 288.327,251.609 296.000,254.079 296.000 C 255.709 296.000,255.958 291.649,256.276 257.500 C 256.451 238.800,256.952 222.727,257.391 221.783 C 258.081 220.298,258.792 220.632,262.656 224.254 C 274.985 235.810,279.397 234.047,268.758 221.815 C 266.034 218.684,264.102 215.645,264.462 215.061 C 264.913 214.332,284.259 213.995,326.309 213.985 C 373.610 213.974,388.067 213.684,390.000 212.707 L 392.500 211.443 392.773 192.547 C 392.944 180.673,393.454 173.158,394.145 172.325 C 395.019 171.273,402.227 171.000,429.188 171.000 C 463.809 171.000,468.525 170.542,465.942 167.430 C 464.955 166.241,459.028 166.000,430.812 166.000 C 409.326 166.000,396.159 165.620,394.934 164.965 C 393.127 163.998,393.000 162.693,393.000 145.120 C 393.000 128.167,392.819 126.147,391.171 124.655 C 389.488 123.132,378.555 123.002,253.921 123.030 C 163.799 123.051,117.915 123.402,116.750 124.080 M387.021 130.000 C 388.056 131.638,388.407 203.775,387.393 206.418 C 386.844 207.850,374.213 208.000,254.593 208.000 C 153.110 208.000,122.121 207.721,121.200 206.800 C 119.623 205.223,119.473 132.853,121.041 129.923 C 122.065 128.010,124.208 127.982,254.078 128.239 C 370.128 128.468,386.188 128.681,387.021 130.000 " stroke="none" fill="undefined" fill-rule="evenodd"/></svg>