<svg id="svg" version="1.1" width="512" height="341" xmlns="http://www.w3.org/2000/svg"><path d="M132.339 124.475 C 130.486 125.773,129.320 128.084,125.011 139.000 C 124.034 141.475,122.306 145.750,121.172 148.500 C 120.037 151.250,118.538 155.205,117.839 157.290 C 115.346 164.731,116.849 164.442,77.647 165.000 C 58.316 165.275,41.712 165.886,40.750 166.357 C 38.377 167.519,38.550 168.659,41.379 170.512 C 43.446 171.867,48.630 172.034,80.974 171.786 L 118.191 171.500 120.410 168.716 C 121.630 167.185,124.609 160.928,127.030 154.811 C 129.450 148.694,132.147 142.806,133.022 141.725 C 134.587 139.792,134.640 139.801,136.284 142.311 C 137.204 143.714,138.822 147.031,139.882 149.681 C 143.771 159.412,149.932 174.887,155.933 190.000 C 164.129 210.642,165.183 212.500,168.695 212.500 C 172.073 212.500,172.607 211.537,180.882 190.500 C 198.790 144.975,200.542 141.000,202.699 141.000 C 204.179 141.000,208.022 148.924,213.612 163.500 C 215.510 168.450,217.557 173.625,218.160 175.000 C 218.763 176.375,222.128 184.669,225.637 193.431 C 232.249 209.939,234.047 213.000,237.132 213.000 C 239.736 213.000,241.177 210.366,248.372 192.452 C 251.896 183.678,257.764 169.081,261.413 160.012 C 265.061 150.944,268.751 142.844,269.613 142.012 C 271.016 140.657,271.352 140.752,272.839 142.918 C 274.303 145.049,283.267 166.287,290.600 185.000 C 292.001 188.575,294.187 193.975,295.457 197.000 C 296.727 200.025,298.034 203.664,298.361 205.088 C 299.196 208.714,302.792 213.000,305.000 213.000 C 307.197 213.000,310.788 208.737,311.666 205.088 C 312.008 203.664,313.094 200.700,314.079 198.500 C 315.064 196.300,317.745 189.775,320.036 184.000 C 324.520 172.698,326.901 166.730,329.912 159.250 C 330.963 156.637,332.651 152.443,333.662 149.929 C 334.673 147.414,336.247 144.264,337.161 142.929 C 340.021 138.745,341.392 140.945,350.597 164.500 C 352.531 169.450,354.697 174.850,355.410 176.500 C 356.123 178.150,357.944 182.650,359.457 186.500 C 365.300 201.372,366.236 203.639,368.335 208.000 C 371.285 214.131,374.809 214.684,377.869 209.497 C 379.041 207.511,380.000 205.405,380.000 204.818 C 380.000 204.231,381.169 200.994,382.599 197.625 C 384.028 194.256,386.005 189.475,386.992 187.000 C 391.443 175.842,392.467 173.821,394.114 172.939 C 395.108 172.407,410.436 172.000,429.484 172.000 C 458.592 172.000,463.522 171.782,466.249 170.371 L 469.400 168.742 467.089 166.871 C 464.925 165.118,462.439 165.000,427.812 165.000 L 390.846 165.000 388.084 167.762 C 386.565 169.282,384.389 172.994,383.250 176.012 C 380.037 184.525,375.291 194.702,374.228 195.359 C 371.986 196.744,369.475 191.418,354.019 152.500 C 350.961 144.800,347.572 136.528,344.335 128.865 C 343.491 126.866,341.769 124.760,340.508 124.186 C 337.452 122.793,334.698 125.700,332.113 133.048 C 331.058 136.046,327.888 144.125,325.068 151.000 C 322.248 157.875,317.412 169.856,314.320 177.624 C 311.228 185.392,307.849 192.817,306.810 194.124 L 304.921 196.500 303.259 194.130 C 301.377 191.447,299.979 188.155,289.400 161.500 C 285.253 151.050,280.991 140.592,279.930 138.261 C 278.868 135.929,278.000 133.582,278.000 133.045 C 278.000 131.031,274.731 125.313,272.939 124.194 C 270.500 122.671,268.243 123.621,266.585 126.871 C 265.848 128.317,260.419 141.650,254.522 156.500 C 242.959 185.617,238.372 196.000,237.071 196.000 C 235.656 196.000,234.027 193.441,231.571 187.360 C 230.269 184.137,227.080 176.325,224.483 170.000 C 221.887 163.675,219.167 156.925,218.439 155.000 C 217.711 153.075,215.919 148.575,214.457 145.000 C 212.994 141.425,210.965 136.318,209.949 133.651 C 207.053 126.057,205.261 123.832,202.326 124.190 C 198.962 124.599,197.970 126.566,186.535 155.500 C 172.367 191.350,171.940 192.356,170.088 194.285 C 167.014 197.487,166.906 197.264,146.856 146.500 C 138.911 126.385,138.383 125.275,136.199 124.106 C 134.837 123.378,133.759 123.481,132.339 124.475 M248.982 210.383 C 245.142 213.011,232.727 226.537,231.753 229.153 C 231.414 230.062,231.702 231.577,232.391 232.520 C 233.542 234.094,233.891 234.108,236.645 232.683 C 238.296 231.830,240.248 230.406,240.984 229.519 C 241.720 228.632,243.646 226.964,245.265 225.812 C 247.693 224.082,248.361 223.960,249.088 225.108 C 249.573 225.874,249.976 241.027,249.985 258.782 C 249.997 285.445,250.266 291.700,251.527 294.719 C 252.972 298.177,253.147 298.281,254.777 296.654 C 256.320 295.113,256.552 291.343,257.000 260.516 C 257.341 237.025,257.856 225.742,258.622 224.977 C 259.452 224.148,261.210 225.049,265.358 228.428 C 272.084 233.906,276.000 234.554,276.000 230.187 C 276.000 227.949,273.987 225.397,266.140 217.687 C 260.624 212.268,255.440 208.000,254.372 208.000 C 253.323 208.000,250.897 209.072,248.982 210.383 " stroke="none" fill="undefined" fill-rule="evenodd"/></svg>