<svg id="svg" version="1.1" width="512" height="341" xmlns="http://www.w3.org/2000/svg"><path d="M130.016 131.186 C 128.898 133.009,127.587 135.850,127.104 137.500 C 124.817 145.300,115.778 166.638,114.291 167.750 C 113.028 168.694,104.142 169.000,78.031 169.000 C 48.346 169.000,43.130 169.221,41.223 170.557 C 40.000 171.413,39.000 172.466,39.000 172.896 C 39.000 175.526,45.365 176.000,80.646 176.000 L 117.198 176.000 120.008 172.992 C 121.553 171.337,123.503 168.075,124.342 165.742 C 127.766 156.212,131.300 148.395,132.967 146.660 C 134.679 144.879,134.799 144.911,136.716 147.660 C 137.805 149.222,138.958 151.400,139.278 152.500 C 139.598 153.600,142.183 160.125,145.023 167.000 C 151.436 182.527,160.032 203.933,162.407 210.292 C 164.538 215.997,168.160 218.942,170.578 216.935 C 172.365 215.452,176.000 208.695,176.000 206.856 C 176.000 206.182,176.845 203.802,177.878 201.566 C 178.911 199.330,180.974 194.350,182.462 190.500 C 183.951 186.650,185.780 182.150,186.527 180.500 C 187.275 178.850,189.451 173.450,191.363 168.500 C 196.060 156.341,200.604 146.363,201.772 145.641 C 204.008 144.259,206.902 150.401,221.967 188.500 C 232.013 213.906,233.568 217.000,236.290 217.000 C 239.480 217.000,241.582 214.497,243.905 207.930 C 244.962 204.944,247.940 197.325,250.524 191.000 C 255.892 177.859,256.866 175.439,262.865 160.335 C 265.266 154.291,268.096 148.255,269.155 146.923 L 271.079 144.500 272.741 146.870 C 274.403 149.240,276.830 154.764,281.584 167.000 C 282.973 170.575,284.772 175.003,285.581 176.840 C 286.391 178.677,288.643 184.302,290.585 189.340 C 292.527 194.378,294.990 200.408,296.058 202.739 C 297.126 205.071,298.000 207.484,298.000 208.103 C 298.000 209.963,302.215 216.868,303.698 217.437 C 305.176 218.005,308.682 216.208,309.390 214.522 C 309.626 213.960,315.473 199.413,322.385 182.196 C 334.458 152.120,337.656 145.000,339.093 145.000 C 340.344 145.000,342.066 147.789,344.429 153.640 C 345.731 156.863,348.920 164.675,351.517 171.000 C 354.113 177.325,356.831 184.075,357.557 186.000 C 361.990 197.762,368.238 212.714,369.569 214.745 C 371.853 218.232,375.717 217.442,378.104 213.000 C 379.139 211.075,382.697 202.525,386.010 194.000 C 389.323 185.475,392.788 177.938,393.708 177.250 C 394.972 176.306,403.881 176.000,430.080 176.000 C 462.491 176.000,464.931 175.877,467.089 174.129 L 469.400 172.258 466.181 170.593 C 463.319 169.113,458.909 168.961,426.385 169.214 L 389.809 169.500 387.414 172.500 C 386.097 174.150,383.193 180.154,380.961 185.842 C 376.323 197.659,375.043 200.000,373.218 200.000 C 371.815 200.000,367.891 191.847,362.388 177.500 C 360.490 172.550,358.443 167.375,357.840 166.000 C 357.237 164.625,353.872 156.331,350.363 147.569 C 343.751 131.061,341.953 128.000,338.868 128.000 C 336.264 128.000,334.823 130.634,327.628 148.548 C 305.436 203.805,306.376 201.835,303.568 198.964 C 302.372 197.741,296.042 182.864,286.882 159.750 C 285.847 157.137,284.050 152.637,282.890 149.750 C 281.729 146.863,279.671 141.575,278.317 138.000 C 275.563 130.734,273.541 128.000,270.918 128.000 C 268.791 128.000,265.199 132.318,264.334 135.912 C 263.992 137.336,262.906 140.300,261.921 142.500 C 260.936 144.700,258.255 151.225,255.964 157.000 C 251.480 168.302,249.099 174.270,246.088 181.750 C 245.037 184.363,243.349 188.557,242.338 191.071 C 241.327 193.586,239.753 196.736,238.839 198.071 C 235.979 202.255,234.608 200.055,225.403 176.500 C 223.469 171.550,221.303 166.150,220.590 164.500 C 219.877 162.850,218.056 158.350,216.543 154.500 C 210.700 139.628,209.764 137.361,207.665 133.000 C 205.998 129.535,204.881 128.429,202.807 128.189 C 199.869 127.850,198.257 130.060,194.923 139.000 C 194.001 141.475,192.290 145.863,191.123 148.750 C 189.955 151.637,188.153 156.137,187.118 158.750 C 179.128 178.912,171.726 196.488,170.323 198.629 L 168.648 201.185 166.853 198.843 C 165.866 197.554,164.403 194.700,163.603 192.500 C 162.143 188.483,155.613 172.400,152.031 164.000 C 150.976 161.525,148.040 154.100,145.507 147.500 C 139.356 131.476,137.715 128.573,134.586 128.186 C 132.618 127.942,131.592 128.616,130.016 131.186 " stroke="none" fill="undefined" fill-rule="evenodd"/></svg>