<svg id="svg" version="1.1" width="512" height="341" xmlns="http://www.w3.org/2000/svg"><path d="M117.000 127.287 L 114.500 128.557 114.227 147.453 C 114.056 159.327,113.546 166.842,112.855 167.675 C 111.981 168.728,104.737 169.000,77.600 169.000 C 48.306 169.000,43.129 169.222,41.223 170.557 C 34.648 175.161,40.080 176.000,76.482 176.000 C 95.106 176.000,109.960 176.414,111.435 176.975 L 114.000 177.950 114.000 196.820 C 114.000 213.831,114.180 215.853,115.829 217.345 C 117.512 218.868,128.523 219.000,253.829 219.000 C 388.667 219.000,390.020 218.980,392.000 217.000 C 393.856 215.144,394.000 213.667,394.000 196.535 C 394.000 179.303,394.129 178.001,395.934 177.035 C 397.157 176.381,410.174 176.000,431.323 176.000 C 462.520 176.000,464.934 175.874,467.089 174.129 L 469.400 172.258 466.249 170.629 C 463.523 169.219,458.612 169.000,429.750 169.000 C 405.144 169.000,396.085 168.685,395.200 167.800 C 394.355 166.955,394.000 161.242,394.000 148.491 C 394.000 134.430,393.683 129.948,392.581 128.441 C 391.189 126.538,388.489 126.495,255.331 126.259 C 147.139 126.067,118.991 126.276,117.000 127.287 M385.418 134.607 C 386.822 135.146,387.000 139.434,387.000 172.632 L 387.000 210.050 384.435 211.025 C 380.401 212.559,123.739 212.339,122.200 210.800 C 120.429 209.029,120.478 135.377,122.250 134.662 C 124.051 133.935,383.526 133.881,385.418 134.607 " stroke="none" fill="undefined" fill-rule="evenodd"/></svg>