<svg id="svg" version="1.1" width="512" height="341" xmlns="http://www.w3.org/2000/svg"><path d="M331.969 40.565 C 329.712 42.998,321.889 49.135,304.015 62.500 C 287.945 74.515,283.000 79.130,283.000 82.111 C 283.000 85.292,287.769 84.409,293.408 80.185 C 296.208 78.086,301.906 73.811,306.069 70.685 C 313.083 65.417,317.000 63.705,317.000 65.907 C 317.000 66.771,313.505 72.168,290.707 106.500 C 277.860 125.848,278.046 125.657,273.470 124.252 C 268.863 122.838,267.084 124.428,264.089 132.635 C 262.912 135.861,261.537 139.400,261.033 140.500 C 260.530 141.600,258.716 145.875,257.004 150.000 C 251.666 162.857,248.928 168.199,242.822 177.660 C 237.147 186.453,234.895 188.671,232.895 187.435 C 231.533 186.594,228.664 180.657,224.629 170.331 C 222.663 165.298,220.393 159.677,219.587 157.840 C 217.934 154.078,212.708 140.980,209.935 133.651 C 207.068 126.073,205.265 123.832,202.326 124.190 C 198.962 124.599,197.970 126.566,186.535 155.500 C 172.367 191.350,171.940 192.356,170.088 194.285 C 168.443 195.999,168.310 195.999,166.786 194.285 C 165.913 193.303,162.498 185.750,159.198 177.500 C 155.897 169.250,150.760 156.425,147.781 149.000 C 144.802 141.575,141.570 133.362,140.599 130.748 C 138.501 125.102,135.585 122.617,132.805 124.105 C 130.956 125.094,129.453 127.959,124.989 139.000 C 123.766 142.025,121.943 146.525,120.937 149.000 C 119.932 151.475,118.538 155.205,117.839 157.290 C 115.346 164.731,116.849 164.442,77.647 165.000 C 58.316 165.275,41.712 165.886,40.750 166.357 C 38.377 167.519,38.550 168.659,41.379 170.512 C 43.446 171.867,48.630 172.034,80.974 171.786 L 118.191 171.500 120.410 168.716 C 121.630 167.185,124.609 160.928,127.030 154.811 C 129.450 148.694,132.147 142.806,133.022 141.725 C 134.587 139.792,134.640 139.801,136.284 142.311 C 137.204 143.714,138.822 147.031,139.882 149.681 C 143.771 159.412,149.932 174.887,155.933 190.000 C 164.129 210.642,165.183 212.500,168.695 212.500 C 172.073 212.500,172.607 211.537,180.882 190.500 C 198.790 144.975,200.542 141.000,202.699 141.000 C 204.182 141.000,208.047 148.977,213.603 163.500 C 215.496 168.450,217.722 174.003,218.550 175.840 C 221.767 182.986,227.000 197.035,227.000 198.528 C 227.000 201.180,224.305 205.645,208.116 229.807 C 199.527 242.626,191.846 254.101,191.046 255.307 C 190.247 256.513,186.197 262.572,182.046 268.772 C 171.081 285.152,167.000 292.196,167.000 294.746 C 167.000 297.191,168.888 297.666,171.997 296.002 C 173.534 295.179,213.604 236.450,224.636 218.851 C 228.384 212.871,231.645 210.245,233.284 211.884 C 235.160 213.760,238.861 213.142,240.471 210.685 C 241.305 209.411,243.966 203.449,246.384 197.435 C 252.565 182.058,253.749 179.312,257.211 172.320 C 261.217 164.229,270.018 150.961,272.292 149.585 C 274.830 148.048,277.046 151.249,281.925 163.500 C 287.215 176.783,292.658 190.241,295.474 197.000 C 296.735 200.025,298.034 203.664,298.361 205.088 C 299.196 208.714,302.792 213.000,305.000 213.000 C 307.197 213.000,310.788 208.737,311.666 205.088 C 312.008 203.664,313.094 200.700,314.079 198.500 C 315.064 196.300,317.745 189.775,320.036 184.000 C 324.520 172.698,326.901 166.730,329.912 159.250 C 330.963 156.637,332.651 152.443,333.662 149.929 C 334.673 147.414,336.247 144.264,337.161 142.929 C 340.021 138.745,341.392 140.945,350.597 164.500 C 352.531 169.450,354.697 174.850,355.410 176.500 C 356.123 178.150,357.944 182.650,359.457 186.500 C 365.300 201.372,366.236 203.639,368.335 208.000 C 371.285 214.131,374.809 214.684,377.869 209.497 C 379.041 207.511,380.000 205.405,380.000 204.818 C 380.000 204.231,381.169 200.994,382.599 197.625 C 384.028 194.256,386.005 189.475,386.992 187.000 C 391.443 175.842,392.467 173.821,394.114 172.939 C 395.108 172.407,410.436 172.000,429.484 172.000 C 458.592 172.000,463.522 171.782,466.249 170.371 L 469.400 168.742 467.089 166.871 C 464.925 165.118,462.439 165.000,427.812 165.000 L 390.846 165.000 388.084 167.762 C 386.565 169.282,384.389 172.994,383.250 176.012 C 380.037 184.525,375.291 194.702,374.228 195.359 C 371.986 196.744,369.475 191.418,354.019 152.500 C 350.961 144.800,347.572 136.528,344.335 128.865 C 343.491 126.866,341.769 124.760,340.508 124.186 C 337.452 122.793,334.698 125.700,332.113 133.048 C 331.058 136.046,327.888 144.125,325.068 151.000 C 322.248 157.875,317.412 169.856,314.320 177.624 C 311.228 185.392,307.849 192.817,306.810 194.124 L 304.921 196.500 303.259 194.130 C 301.411 191.496,300.261 188.799,289.385 161.613 C 281.105 140.914,280.182 137.444,282.009 133.887 C 284.174 129.671,323.917 70.314,325.396 69.087 C 326.275 68.357,327.051 68.273,327.419 68.868 C 328.144 70.041,326.560 80.610,324.613 87.599 C 323.831 90.403,322.876 95.645,322.490 99.248 C 321.833 105.381,321.926 105.842,323.942 106.482 C 326.955 107.438,328.733 105.587,329.504 100.692 C 329.868 98.387,330.986 93.125,331.990 89.000 C 332.993 84.875,334.825 77.000,336.060 71.500 C 337.295 66.000,339.276 57.675,340.462 53.000 C 341.667 48.253,342.370 43.175,342.055 41.500 C 341.570 38.919,340.998 38.458,337.964 38.203 C 335.205 37.970,333.901 38.484,331.969 40.565 " stroke="none" fill="undefined" fill-rule="evenodd"/></svg>