<svg id="svg" version="1.1" width="512" height="341" xmlns="http://www.w3.org/2000/svg"><path d="M334.500 43.184 C 333.400 43.802,330.657 45.926,328.404 47.904 C 326.151 49.882,319.228 55.325,313.019 60.000 C 297.112 71.978,285.713 81.027,284.250 82.836 C 282.527 84.967,282.684 87.665,284.572 88.389 C 286.353 89.073,288.922 87.878,294.000 84.007 C 314.777 68.170,319.287 65.758,315.858 72.316 C 314.239 75.413,288.383 114.444,283.774 120.750 L 279.937 126.000 199.718 126.015 C 137.084 126.026,118.952 126.307,117.000 127.293 L 114.500 128.557 114.227 147.453 C 114.056 159.327,113.546 166.842,112.855 167.675 C 111.981 168.728,104.737 169.000,77.600 169.000 C 48.306 169.000,43.129 169.222,41.223 170.557 C 34.648 175.161,40.080 176.000,76.482 176.000 C 95.106 176.000,109.960 176.414,111.435 176.975 L 114.000 177.950 114.000 196.820 C 114.000 213.831,114.180 215.853,115.829 217.345 C 117.477 218.837,122.410 219.000,165.860 219.000 C 220.280 219.000,217.465 218.542,212.921 226.660 C 211.589 229.039,201.697 244.152,190.937 260.243 C 180.177 276.334,170.389 291.128,169.187 293.118 C 166.595 297.406,166.380 300.548,168.619 301.407 C 170.897 302.281,175.163 297.458,184.114 283.892 C 188.247 277.626,192.275 271.534,193.065 270.353 C 220.215 229.744,226.362 220.876,227.956 220.023 C 229.215 219.350,257.253 219.000,309.934 219.000 C 388.667 219.000,390.033 218.967,392.000 217.000 C 393.856 215.144,394.000 213.667,394.000 196.535 C 394.000 179.303,394.129 178.001,395.934 177.035 C 397.157 176.381,410.174 176.000,431.323 176.000 C 462.520 176.000,464.934 175.874,467.089 174.129 L 469.400 172.258 466.249 170.629 C 463.523 169.219,458.612 169.000,429.750 169.000 C 405.144 169.000,396.085 168.685,395.200 167.800 C 394.355 166.955,394.000 161.242,394.000 148.491 C 394.000 134.435,393.683 129.948,392.581 128.441 C 391.220 126.578,389.182 126.479,341.831 125.968 C 314.699 125.675,292.381 125.337,292.237 125.218 C 291.495 124.605,295.590 116.936,300.720 109.330 C 303.899 104.617,309.503 96.202,313.173 90.631 C 321.863 77.437,325.273 73.030,326.500 73.405 C 327.966 73.852,327.191 82.462,324.957 90.546 C 323.886 94.421,322.895 100.496,322.755 104.046 C 322.505 110.383,322.549 110.506,325.192 110.811 C 327.565 111.085,327.997 110.670,328.845 107.311 C 331.348 97.387,332.398 92.866,334.025 85.000 C 337.154 69.866,339.812 58.565,340.918 55.685 C 342.363 51.926,342.294 44.694,340.800 43.200 C 339.317 41.717,337.122 41.712,334.500 43.184 M272.269 134.603 C 273.739 136.073,272.560 137.963,238.314 189.039 C 231.109 199.786,224.422 209.236,223.454 210.039 C 221.975 211.267,213.904 211.546,172.744 211.786 C 136.737 211.997,123.423 211.766,122.396 210.914 C 120.447 209.296,120.306 135.447,122.250 134.662 C 124.045 133.938,271.546 133.880,272.269 134.603 M385.418 134.607 C 386.822 135.146,387.000 139.434,387.000 172.632 L 387.000 210.050 384.353 211.056 C 381.435 212.165,236.638 211.973,235.524 210.858 C 235.171 210.505,235.517 208.705,236.292 206.858 C 237.848 203.151,279.980 139.841,283.281 136.250 L 285.349 134.000 334.593 134.000 C 361.677 134.000,384.548 134.273,385.418 134.607 " stroke="none" fill="undefined" fill-rule="evenodd"/></svg>