<svg id="svg" version="1.1" width="512" height="341" xmlns="http://www.w3.org/2000/svg"><path d="M306.750 26.758 C 304.666 27.221,304.671 27.185,306.226 30.596 C 307.015 32.329,312.034 36.272,320.326 41.675 C 332.409 49.547,333.160 50.225,332.544 52.681 C 332.183 54.121,322.575 69.214,311.193 86.223 C 299.812 103.231,289.049 119.477,287.276 122.324 C 285.502 125.171,282.802 128.510,281.276 129.745 L 278.500 131.990 198.289 131.995 L 118.078 132.000 116.039 134.189 C 114.161 136.204,114.000 137.656,114.000 152.539 C 114.000 161.656,113.523 170.069,112.907 171.838 L 111.813 174.975 76.265 175.237 C 43.666 175.478,40.626 175.645,39.614 177.250 C 38.809 178.526,38.809 179.474,39.614 180.750 C 40.626 182.355,43.663 182.522,76.204 182.762 L 111.690 183.025 112.845 185.560 C 113.566 187.142,114.012 194.366,114.032 204.797 C 114.057 218.111,114.370 221.906,115.574 223.500 C 117.040 225.440,118.559 225.515,166.293 226.000 C 212.227 226.467,215.491 226.616,215.363 228.237 C 215.288 229.192,204.142 246.572,190.595 266.858 C 173.999 291.709,166.167 304.273,166.589 305.371 C 167.537 307.843,172.588 307.447,174.510 304.750 C 175.391 303.512,179.384 297.550,183.383 291.500 C 191.374 279.411,203.645 260.923,206.282 257.000 C 207.206 255.625,211.632 248.972,216.118 242.215 C 220.603 235.459,225.397 229.046,226.771 227.965 C 229.208 226.049,231.255 226.000,309.562 226.000 L 389.855 226.000 391.927 223.365 C 393.847 220.925,394.000 219.422,394.000 203.065 C 394.000 190.659,394.357 185.043,395.200 184.200 C 396.087 183.313,405.370 183.000,430.766 183.000 C 452.543 183.000,465.840 182.621,467.066 181.965 C 469.554 180.633,469.554 177.367,467.066 176.035 C 465.840 175.379,452.543 175.000,430.766 175.000 C 405.370 175.000,396.087 174.687,395.200 173.800 C 394.357 172.957,394.000 167.341,394.000 154.935 C 394.000 138.578,393.847 137.075,391.927 134.635 L 389.855 132.000 340.927 132.000 C 297.718 132.000,292.000 131.822,292.000 130.473 C 292.000 129.633,298.188 119.698,305.750 108.395 C 323.098 82.466,321.254 85.234,329.109 73.332 C 338.485 59.123,340.158 56.997,341.938 57.022 C 342.797 57.034,349.762 61.084,357.415 66.022 C 365.069 70.960,372.104 75.000,373.049 75.000 C 374.800 75.000,376.236 71.740,375.403 69.654 C 374.959 68.543,365.233 61.896,343.000 47.507 C 337.225 43.770,328.900 38.376,324.500 35.520 C 310.852 26.661,309.714 26.099,306.750 26.758 M270.462 140.986 L 273.055 141.971 270.902 146.236 C 269.718 148.581,267.290 152.525,265.507 155.000 C 263.724 157.475,254.288 171.425,244.538 186.000 C 234.789 200.575,225.719 213.625,224.384 215.000 L 221.956 217.500 173.077 217.777 C 129.383 218.025,124.028 217.885,122.599 216.456 C 121.193 215.050,121.000 210.524,121.000 179.000 C 121.000 147.736,121.201 142.942,122.571 141.571 C 123.971 140.172,132.009 140.000,196.006 140.000 C 240.802 140.000,268.846 140.371,270.462 140.986 M385.128 141.652 C 386.220 142.968,386.559 150.429,386.787 178.271 C 387.036 208.596,386.868 213.553,385.514 215.619 L 383.954 218.000 312.042 218.000 C 267.996 218.000,239.141 217.624,237.579 217.030 C 235.402 216.202,235.159 215.711,235.929 213.687 C 236.425 212.381,247.276 195.716,260.042 176.653 C 280.012 146.831,283.688 141.865,286.376 141.086 C 288.094 140.588,310.707 140.140,336.628 140.090 C 379.298 140.009,383.885 140.156,385.128 141.652 " stroke="none" fill="undefined" fill-rule="evenodd"/></svg>