<svg id="svg" version="1.1" width="512" height="341" xmlns="http://www.w3.org/2000/svg"><path d="M310.785 27.060 C 307.511 28.969,310.906 32.626,324.129 41.434 C 332.450 46.977,336.999 50.626,336.996 51.754 C 336.991 53.756,333.652 59.321,322.902 75.245 C 310.379 93.793,300.273 108.944,293.638 119.113 C 282.307 136.481,281.299 137.549,277.756 135.935 C 273.074 133.802,270.791 136.413,265.897 149.500 C 263.662 155.476,261.267 161.062,256.024 172.532 C 251.105 183.291,240.309 199.000,237.833 199.000 C 236.910 199.000,233.911 193.331,231.155 186.375 C 230.093 183.694,227.095 176.325,224.493 170.000 C 221.891 163.675,219.172 156.925,218.451 155.000 C 213.317 141.297,211.359 137.500,208.672 136.037 C 205.923 134.540,205.774 134.589,202.969 137.909 C 201.385 139.784,199.824 142.525,199.500 144.000 C 199.176 145.476,197.531 150.017,195.845 154.091 C 194.159 158.166,188.998 170.922,184.376 182.437 C 179.754 193.952,175.245 204.177,174.357 205.158 C 171.490 208.326,171.627 208.614,148.883 151.802 C 146.747 146.467,145.000 141.691,145.000 141.186 C 145.000 139.382,140.822 135.000,139.102 135.000 C 135.885 135.000,133.267 139.376,126.955 155.298 C 122.705 166.020,119.896 171.723,118.212 173.048 C 115.860 174.898,113.934 175.000,81.299 175.000 C 59.478 175.000,46.160 175.379,44.934 176.035 C 42.446 177.367,42.446 180.633,44.934 181.965 C 46.169 182.626,60.424 183.000,84.345 183.000 L 121.822 183.000 124.273 180.087 C 125.622 178.485,128.587 172.367,130.864 166.492 C 133.141 160.617,135.864 154.717,136.916 153.380 L 138.828 150.949 140.845 153.782 C 141.954 155.340,144.411 160.639,146.304 165.558 C 148.197 170.476,153.111 182.825,157.224 193.000 C 161.337 203.175,165.232 213.121,165.880 215.103 C 167.468 219.959,171.197 223.390,173.942 222.519 C 176.742 221.630,178.343 219.000,181.565 210.000 C 183.042 205.875,185.065 200.700,186.060 198.500 C 187.056 196.300,189.745 189.775,192.036 184.000 C 194.327 178.225,197.104 171.250,198.206 168.500 C 199.308 165.750,200.764 162.019,201.440 160.209 C 203.319 155.183,206.389 151.504,207.917 152.449 C 209.286 153.295,212.638 160.361,216.479 170.500 C 217.729 173.800,221.507 183.329,224.876 191.676 C 228.244 200.022,231.000 208.180,231.000 209.803 C 231.000 212.004,224.041 223.162,203.670 253.628 C 188.639 276.107,175.119 296.279,173.627 298.453 C 170.114 303.572,170.431 306.500,174.500 306.500 C 177.595 306.500,179.377 304.090,206.669 263.000 C 208.678 259.975,212.837 253.755,215.911 249.178 C 218.985 244.601,223.075 238.475,225.000 235.565 C 235.047 220.376,233.666 221.723,238.452 222.441 C 242.400 223.033,242.965 222.831,245.375 219.966 C 246.819 218.250,248.000 216.150,248.000 215.298 C 248.000 214.447,249.093 211.219,250.428 208.125 C 251.764 205.031,254.765 198.000,257.098 192.500 C 261.781 181.459,269.596 167.934,274.603 162.208 C 277.528 158.862,277.998 158.650,279.421 160.034 C 280.918 161.491,285.039 170.682,290.616 185.000 C 292.008 188.575,294.182 193.975,295.445 197.000 C 296.709 200.025,298.749 205.200,299.978 208.500 C 303.569 218.140,305.295 221.177,307.839 222.336 C 309.938 223.293,310.581 223.034,313.094 220.221 C 314.669 218.458,316.241 215.887,316.588 214.507 C 317.902 209.270,339.847 155.682,341.686 153.219 L 343.613 150.638 345.742 154.083 C 346.913 155.978,349.282 161.122,351.007 165.514 C 352.731 169.906,354.719 174.850,355.424 176.500 C 356.130 178.150,357.958 182.650,359.487 186.500 C 361.017 190.350,363.108 195.408,364.134 197.739 C 365.160 200.071,366.002 202.321,366.003 202.739 C 366.008 203.656,371.435 217.075,372.935 219.878 C 374.307 222.442,377.390 223.397,379.922 222.042 C 382.187 220.830,382.750 219.650,389.965 201.000 C 392.838 193.575,396.058 186.600,397.121 185.500 C 398.964 183.592,400.714 183.477,435.168 183.000 C 468.154 182.543,471.379 182.348,472.387 180.750 C 473.191 179.474,473.191 178.526,472.386 177.250 C 471.373 175.643,468.260 175.477,434.391 175.221 C 414.101 175.068,396.493 175.188,395.263 175.487 C 392.265 176.217,390.484 179.156,385.450 191.681 C 383.112 197.497,380.351 203.392,379.315 204.780 L 377.430 207.305 375.657 204.599 C 374.681 203.110,370.037 192.354,365.335 180.696 C 360.634 169.038,355.670 156.800,354.305 153.500 C 352.939 150.200,351.395 146.051,350.873 144.281 C 349.733 140.418,345.377 135.000,343.411 135.000 C 341.028 135.000,338.335 138.494,335.986 144.635 C 332.354 154.129,330.481 158.840,325.503 171.000 C 322.914 177.325,319.056 186.880,316.931 192.233 C 314.807 197.587,312.290 203.155,311.338 204.607 L 309.608 207.247 307.283 204.373 C 306.004 202.793,304.679 200.432,304.339 199.127 C 304.000 197.822,302.189 193.097,300.315 188.627 C 293.304 171.902,285.928 152.889,285.373 150.115 C 285.057 148.536,285.345 146.177,286.013 144.872 C 286.681 143.567,299.889 123.476,315.364 100.224 C 334.748 71.098,344.173 57.773,345.663 57.387 C 347.253 56.975,351.077 58.999,360.115 65.036 C 373.907 74.249,377.732 76.033,379.092 73.885 C 381.268 70.450,379.811 68.910,365.500 59.517 C 325.352 33.166,313.958 25.923,312.822 26.030 C 312.645 26.047,311.728 26.511,310.785 27.060 " stroke="none" fill="undefined" fill-rule="evenodd"/></svg>