<svg id="svg" version="1.1" width="512" height="512" xmlns="http://www.w3.org/2000/svg"><path d="M255.035 49.934 C 254.348 51.219,254.000 77.278,254.000 127.500 C 254.000 180.684,253.673 203.743,252.898 205.191 C 251.890 207.074,245.674 201.140,180.148 135.735 C 140.742 96.402,107.492 63.916,106.259 63.545 C 103.246 62.639,102.000 63.585,102.000 66.781 C 102.000 68.974,115.399 82.850,178.000 145.487 L 254.000 221.530 254.000 347.043 C 254.000 459.023,254.168 472.795,255.557 474.777 C 257.473 477.514,259.594 477.627,260.965 475.066 C 261.663 473.762,262.000 432.504,262.000 348.516 C 262.000 241.661,262.206 223.516,263.448 221.200 C 264.244 219.715,300.565 182.950,344.162 139.500 C 387.759 96.050,424.708 59.062,426.271 57.304 C 427.834 55.546,429.321 52.958,429.576 51.554 C 429.995 49.244,429.728 49.000,426.790 49.000 C 423.819 49.000,416.771 55.764,344.481 128.000 C 300.998 171.450,264.933 207.000,264.336 207.000 C 263.739 207.000,262.969 205.594,262.625 203.875 C 262.281 202.156,262.000 167.252,262.000 126.309 C 262.000 76.908,261.652 51.218,260.965 49.934 C 260.395 48.870,259.061 48.000,258.000 48.000 C 256.939 48.000,255.605 48.870,255.035 49.934 " stroke="none" fill="undefined" fill-rule="evenodd"/></svg>