<svg id="svg" version="1.1" width="512" height="512" xmlns="http://www.w3.org/2000/svg"><path d="M156.200 17.200 C 155.433 17.967,155.000 21.867,155.000 28.000 C 155.000 34.133,154.567 38.033,153.800 38.800 C 153.051 39.549,149.338 40.000,143.922 40.000 C 137.460 40.000,134.930 40.380,134.010 41.488 C 132.316 43.530,133.516 43.887,145.029 44.772 L 154.500 45.500 154.784 64.000 C 154.941 74.175,154.836 83.446,154.552 84.602 C 154.085 86.504,153.119 86.759,144.391 87.279 C 135.314 87.821,131.643 88.975,133.399 90.733 C 133.820 91.155,138.290 91.657,143.332 91.850 C 148.374 92.042,153.063 92.660,153.750 93.222 C 155.527 94.676,155.543 132.547,153.767 133.644 C 153.088 134.063,148.476 134.588,143.517 134.809 C 128.704 135.471,129.149 138.958,144.050 138.985 C 149.347 138.994,153.057 139.457,153.800 140.200 C 155.493 141.893,155.493 179.107,153.800 180.800 C 153.057 181.543,149.347 182.006,144.050 182.015 C 129.149 182.042,128.704 185.529,143.517 186.191 C 148.476 186.412,153.088 186.937,153.767 187.356 C 154.677 187.919,155.000 193.307,155.000 207.952 C 155.000 225.116,154.787 227.868,153.418 228.393 C 152.548 228.727,148.103 229.000,143.541 229.000 C 137.416 229.000,134.922 229.389,134.010 230.488 C 132.291 232.559,133.943 233.054,145.225 233.847 L 154.500 234.500 154.500 255.000 L 154.500 275.500 145.029 276.228 C 133.516 277.113,132.316 277.470,134.010 279.512 C 134.922 280.611,137.416 281.000,143.541 281.000 C 148.103 281.000,152.548 281.273,153.418 281.607 C 154.787 282.132,155.000 284.892,155.000 302.132 L 155.000 322.050 152.435 323.025 C 151.024 323.561,146.326 324.000,141.994 324.000 C 137.294 324.000,133.841 324.448,133.431 325.112 C 132.194 327.113,135.359 327.969,144.050 327.985 C 149.347 327.994,153.057 328.457,153.800 329.200 C 155.493 330.893,155.493 368.107,153.800 369.800 C 153.057 370.543,149.347 371.006,144.050 371.015 C 129.149 371.042,128.704 374.529,143.517 375.191 C 148.476 375.412,153.088 375.937,153.767 376.356 C 154.678 376.919,155.000 382.325,155.000 397.040 C 155.000 420.085,156.420 417.712,142.330 418.216 C 137.836 418.376,133.816 418.851,133.396 419.270 C 131.599 421.067,135.506 422.305,144.451 422.773 C 153.161 423.229,154.078 423.466,154.550 425.387 C 154.835 426.549,154.941 435.825,154.784 446.000 L 154.500 464.500 144.000 465.616 C 138.225 466.230,133.332 466.792,133.128 466.866 C 132.923 466.940,133.315 467.675,134.000 468.500 C 134.943 469.636,137.495 470.000,144.515 470.000 C 152.047 470.000,153.900 470.297,154.393 471.582 C 154.727 472.452,155.000 477.312,155.000 482.382 C 155.000 488.218,155.440 492.040,156.200 492.800 C 157.710 494.310,345.611 494.529,348.000 493.024 C 349.126 492.315,349.625 489.388,350.000 481.290 L 350.500 470.500 360.705 470.000 C 366.748 469.704,371.404 469.004,372.122 468.283 C 373.767 466.631,372.672 466.353,360.500 465.336 L 350.500 464.500 350.500 444.000 L 350.500 423.500 360.827 422.873 C 371.000 422.256,374.570 421.119,371.837 419.369 C 371.102 418.898,366.000 418.285,360.500 418.007 L 350.500 417.500 350.229 397.233 L 349.958 376.966 352.544 375.983 C 353.967 375.442,358.588 374.993,362.815 374.985 C 367.042 374.976,371.123 374.575,371.885 374.092 C 374.529 372.417,369.432 371.000,360.766 371.000 C 355.592 371.000,351.942 370.542,351.200 369.800 C 350.350 368.950,350.000 362.986,350.000 349.335 C 350.000 326.704,349.252 328.000,362.312 328.000 C 368.491 328.000,371.080 327.609,371.966 326.541 C 373.516 324.673,371.589 324.229,359.763 323.729 C 354.958 323.526,350.809 323.143,350.544 322.877 C 349.814 322.147,349.759 283.199,350.486 282.022 C 350.843 281.445,355.146 281.000,360.368 281.000 C 366.812 281.000,370.207 280.567,371.559 279.571 C 374.227 277.608,372.809 277.182,360.500 276.254 L 350.500 275.500 350.500 255.000 L 350.500 234.500 360.229 233.865 C 371.581 233.124,373.906 232.509,372.122 230.717 C 371.404 229.996,366.748 229.296,360.705 229.000 L 350.500 228.500 350.230 207.879 L 349.960 187.258 353.105 186.629 C 354.835 186.283,359.307 186.000,363.043 186.000 C 371.312 186.000,373.531 185.345,371.903 183.383 C 371.092 182.405,368.280 182.000,362.312 182.000 C 349.252 182.000,350.000 183.296,350.000 160.665 C 350.000 147.014,350.350 141.050,351.200 140.200 C 351.959 139.441,355.773 139.000,361.578 139.000 C 368.171 139.000,371.078 138.611,371.903 137.617 C 373.554 135.627,371.297 135.000,362.483 135.000 C 358.439 135.000,353.967 134.558,352.544 134.017 L 349.958 133.034 350.229 112.767 L 350.500 92.500 360.701 92.000 C 370.462 91.522,374.730 90.187,371.965 88.479 C 371.301 88.068,366.199 87.454,360.628 87.116 L 350.500 86.500 350.500 66.000 L 350.500 45.500 360.500 44.746 C 372.291 43.857,373.849 43.451,372.122 41.717 C 371.404 40.996,366.748 40.296,360.705 40.000 L 350.500 39.500 350.000 28.710 C 349.625 20.612,349.126 17.685,348.000 16.976 C 345.611 15.471,157.710 15.690,156.200 17.200 M270.476 22.036 C 269.148 24.193,259.674 27.479,253.785 27.826 C 247.914 28.172,246.251 27.838,240.535 25.163 C 236.941 23.481,234.000 21.969,234.000 21.803 C 234.000 21.636,242.281 21.500,252.403 21.500 C 262.525 21.500,270.658 21.741,270.476 22.036 M231.155 25.648 C 238.000 31.397,244.447 33.978,252.000 33.995 C 260.381 34.014,266.861 31.647,273.169 26.263 L 278.195 21.973 310.848 22.236 L 343.500 22.500 343.500 255.000 L 343.500 487.500 253.500 487.738 C 204.000 487.869,162.941 487.619,162.258 487.184 C 160.411 486.006,160.384 24.008,162.231 22.836 C 162.929 22.393,177.745 22.024,195.155 22.015 L 226.811 22.000 231.155 25.648 M302.248 32.784 C 299.298 33.250,297.264 36.780,299.459 37.623 C 300.309 37.949,302.152 37.928,303.555 37.576 C 305.951 36.974,306.032 37.073,304.890 39.218 C 304.222 40.473,302.341 43.165,300.711 45.199 C 295.950 51.141,297.093 52.003,309.719 51.985 C 315.648 51.976,320.995 51.639,321.600 51.235 C 323.592 49.905,325.000 46.194,324.985 42.316 C 324.956 34.656,321.101 31.392,314.250 33.225 C 312.462 33.703,309.538 33.719,307.750 33.261 C 305.962 32.803,303.487 32.588,302.248 32.784 M185.635 35.073 C 183.067 37.092,182.063 40.000,183.933 40.000 C 184.971 40.000,185.641 41.808,186.518 46.974 C 187.064 50.190,188.381 51.947,190.275 51.985 C 191.716 52.013,193.000 46.900,193.000 41.135 C 193.000 33.037,190.666 31.115,185.635 35.073 M318.969 42.500 C 318.969 46.418,317.545 48.864,316.639 46.502 C 315.793 44.297,315.821 38.512,316.682 37.652 C 317.744 36.590,318.969 39.188,318.969 42.500 M311.000 46.500 C 312.075 47.795,311.648 47.995,307.872 47.965 C 303.577 47.930,303.544 47.904,306.000 46.500 C 309.177 44.684,309.493 44.684,311.000 46.500 M183.064 81.880 C 181.526 84.755,181.677 85.000,185.000 85.000 C 188.860 85.000,188.778 86.101,184.500 91.704 C 182.575 94.225,181.000 96.657,181.000 97.109 C 181.000 99.526,187.922 100.200,194.948 98.467 C 198.446 97.604,195.665 96.035,190.602 96.015 L 186.704 96.000 190.089 93.719 C 197.303 88.857,196.224 80.778,188.282 80.196 C 184.971 79.953,183.913 80.294,183.064 81.880 M302.683 82.035 C 299.655 84.417,299.305 86.179,301.500 88.000 C 302.346 88.702,303.000 90.882,303.000 93.000 C 303.000 97.135,304.838 99.383,307.410 98.396 C 308.817 97.856,309.030 96.424,308.787 89.140 C 308.465 79.474,307.446 78.288,302.683 82.035 M312.643 81.140 C 310.983 82.105,310.861 83.031,311.499 89.860 C 311.891 94.062,312.727 97.831,313.356 98.235 C 314.848 99.193,320.169 99.180,321.687 98.214 C 325.945 95.507,325.885 83.627,321.600 80.765 C 319.978 79.682,314.777 79.900,312.643 81.140 M317.930 88.250 C 317.872 90.897,317.713 91.129,317.068 89.500 C 316.633 88.400,316.488 86.938,316.745 86.250 C 317.550 84.105,318.003 84.870,317.930 88.250 M183.614 128.529 C 181.162 130.981,182.698 133.225,186.290 132.436 L 189.327 131.769 187.204 134.468 L 185.082 137.166 187.791 139.650 L 190.500 142.134 186.828 141.536 C 182.445 140.823,181.066 142.310,183.557 145.063 C 185.701 147.432,189.756 147.560,192.901 145.357 C 195.094 143.821,195.203 143.284,194.572 137.129 C 194.183 133.335,193.218 129.793,192.294 128.772 C 190.324 126.596,185.678 126.465,183.614 128.529 M302.306 129.437 C 299.707 131.694,299.606 132.044,300.944 134.187 C 301.739 135.459,302.639 138.252,302.944 140.394 C 303.580 144.848,306.448 147.455,308.013 145.000 C 309.297 142.986,309.262 131.358,307.965 128.934 C 306.615 126.412,305.694 126.494,302.306 129.437 M313.696 128.250 C 312.478 129.153,311.879 131.507,311.540 136.718 C 311.113 143.290,311.267 144.073,313.258 145.468 C 316.329 147.619,320.352 147.373,322.593 144.898 C 324.127 143.202,324.429 141.606,324.154 136.648 C 323.946 132.914,323.199 129.813,322.251 128.750 C 320.431 126.710,316.114 126.457,313.696 128.250 M189.833 174.858 C 186.563 176.117,180.562 185.784,181.560 188.187 C 181.859 188.909,184.317 190.580,187.020 191.899 C 191.177 193.928,192.183 194.093,193.536 192.970 C 194.865 191.867,195.022 190.354,194.463 184.071 C 193.754 176.109,192.592 173.797,189.833 174.858 M302.455 176.455 C 299.614 179.296,299.418 180.561,301.500 182.643 C 302.325 183.468,303.000 185.424,303.000 186.990 C 303.000 191.109,303.959 193.000,306.048 193.000 C 308.648 193.000,309.422 191.335,309.996 184.500 C 310.498 178.528,310.516 178.499,313.885 178.177 C 316.831 177.895,317.170 178.090,316.500 179.677 C 312.193 189.873,311.963 193.000,315.521 193.000 C 317.211 193.000,318.331 192.258,318.916 190.750 C 319.396 189.512,320.951 185.800,322.370 182.500 C 324.750 176.969,324.821 176.402,323.285 175.250 C 322.261 174.483,318.391 174.000,313.263 174.000 C 305.727 174.000,304.669 174.240,302.455 176.455 M183.062 223.884 C 182.478 224.976,182.000 227.200,182.000 228.827 C 182.000 231.967,183.403 233.000,187.665 233.000 C 191.607 233.000,189.866 235.456,185.673 235.810 C 181.665 236.149,181.160 237.018,183.571 239.429 C 186.127 241.984,191.516 241.430,193.927 238.365 C 196.404 235.217,196.532 233.204,194.443 230.223 C 193.434 228.782,191.851 228.000,189.943 228.000 C 185.407 228.000,186.117 225.194,190.750 224.810 C 196.295 224.351,195.301 222.546,189.312 222.200 C 184.980 221.949,183.949 222.227,183.062 223.884 M302.028 224.630 L 298.902 227.260 300.951 229.169 C 302.344 230.467,303.000 232.334,303.000 235.004 C 303.000 239.340,305.657 241.943,307.847 239.753 C 309.395 238.205,309.357 224.757,307.800 223.200 C 306.118 221.518,305.564 221.655,302.028 224.630 M312.930 223.584 C 312.207 224.455,311.427 227.780,311.196 230.972 C 310.840 235.882,311.101 237.101,312.888 238.888 C 315.618 241.618,320.378 241.622,323.102 238.898 C 324.945 237.055,325.118 236.098,324.501 231.148 C 324.114 228.041,323.377 224.713,322.864 223.750 C 321.646 221.468,314.782 221.353,312.930 223.584 M317.707 235.238 C 317.468 236.482,317.263 235.700,317.252 233.500 C 317.241 231.300,317.437 230.282,317.687 231.238 C 317.937 232.194,317.946 233.994,317.707 235.238 M240.200 246.200 C 239.451 246.949,239.000 250.662,239.000 256.078 C 239.000 265.148,240.071 267.678,243.373 266.410 C 245.751 265.498,245.792 246.518,243.418 245.607 C 241.404 244.834,241.602 244.798,240.200 246.200 M249.923 247.923 C 247.449 250.398,247.000 251.637,247.000 256.000 C 247.000 260.363,247.449 261.602,249.923 264.077 C 252.079 266.233,253.798 267.000,256.473 267.000 C 262.518 267.000,267.441 263.608,266.269 260.250 C 265.674 258.544,263.738 258.681,259.439 260.730 C 255.945 262.397,255.758 262.390,254.405 260.539 C 252.613 258.089,252.604 253.924,254.385 251.488 C 255.733 249.645,255.881 249.643,259.799 251.409 C 264.159 253.375,266.000 252.956,266.000 249.998 C 266.000 247.199,262.128 245.000,257.201 245.000 C 253.721 245.000,252.259 245.587,249.923 247.923 M184.313 269.786 C 182.670 270.830,181.000 275.534,181.000 279.115 C 181.000 283.053,183.611 287.972,185.776 288.111 C 190.193 288.394,192.645 287.710,194.338 285.721 C 195.859 283.934,196.057 282.608,195.487 278.031 C 194.518 270.257,193.642 268.997,189.215 269.015 C 187.172 269.024,184.966 269.370,184.313 269.786 M302.075 271.590 L 298.997 274.180 300.998 276.725 C 302.099 278.125,303.000 280.729,303.000 282.512 C 303.000 286.466,304.966 288.298,308.311 287.458 C 309.688 287.113,311.725 287.318,312.838 287.914 C 314.095 288.586,316.312 288.697,318.682 288.207 C 323.043 287.304,325.590 283.486,324.562 279.392 C 323.991 277.116,322.868 276.333,317.500 274.468 C 315.830 273.887,316.141 273.585,319.386 272.636 C 324.672 271.091,324.461 269.562,318.912 269.202 C 313.525 268.852,312.486 269.798,311.730 275.750 L 311.190 280.000 314.595 280.000 C 317.171 280.000,318.000 280.426,318.000 281.750 C 318.000 283.157,317.119 283.500,313.500 283.500 L 309.000 283.500 309.000 277.450 C 309.000 271.982,307.898 269.000,305.877 269.000 C 305.479 269.000,303.768 270.166,302.075 271.590 M182.000 317.015 C 180.667 317.891,180.667 318.109,182.000 318.985 C 182.825 319.526,184.490 319.976,185.701 319.985 L 187.902 320.000 185.973 324.250 C 183.941 328.727,183.505 332.673,184.815 334.735 C 185.800 336.285,190.000 333.642,190.000 331.472 C 190.000 330.694,191.139 327.481,192.532 324.332 C 193.924 321.184,194.838 318.021,194.563 317.304 C 193.965 315.745,184.275 315.522,182.000 317.015 M302.306 318.422 C 299.523 320.824,299.515 320.869,301.250 323.827 C 302.212 325.467,303.000 327.940,303.000 329.323 C 303.000 333.116,304.011 335.000,306.048 335.000 C 308.827 335.000,309.319 333.395,309.077 325.118 C 308.797 315.525,307.336 314.080,302.306 318.422 M317.129 317.750 C 314.794 319.704,310.000 328.312,310.000 330.553 C 310.000 331.349,310.719 332.000,311.599 332.000 C 312.478 332.000,314.725 332.725,316.591 333.610 C 322.782 336.548,324.930 333.730,323.991 323.905 C 323.262 316.279,321.151 314.386,317.129 317.750 M184.209 364.750 C 182.790 365.984,182.012 368.280,181.573 372.534 C 180.791 380.101,182.827 383.000,188.924 383.000 C 194.495 383.000,196.329 379.918,195.166 372.506 C 193.813 363.875,189.074 360.520,184.209 364.750 M312.445 365.061 C 310.856 366.816,310.795 367.255,312.031 368.019 C 312.830 368.513,314.500 368.662,315.742 368.350 C 318.513 367.654,318.661 369.092,316.061 371.445 C 314.151 373.173,314.163 373.238,316.811 375.671 L 319.500 378.141 316.563 377.674 C 312.968 377.101,311.000 377.772,311.000 379.572 C 311.000 383.351,319.571 384.150,322.836 380.675 C 324.831 378.551,324.945 377.803,324.154 372.017 C 323.211 365.120,321.520 363.000,316.964 363.000 C 315.504 363.000,313.471 363.927,312.445 365.061 M301.861 365.935 C 299.694 367.711,299.619 368.060,300.953 370.185 C 301.753 371.458,302.653 374.525,302.953 377.000 C 303.438 380.988,303.785 381.500,306.000 381.500 C 308.431 381.500,308.508 381.282,308.795 373.587 C 309.006 367.932,308.720 365.439,307.795 364.852 C 305.795 363.583,304.426 363.833,301.861 365.935 M313.145 411.611 C 311.965 412.437,311.000 413.822,311.000 414.688 C 311.000 415.928,311.742 416.141,314.500 415.694 C 316.425 415.381,318.000 415.352,318.000 415.629 C 318.000 416.944,315.456 420.822,312.630 423.814 L 309.500 427.128 309.000 419.324 C 308.421 410.280,307.207 409.272,302.084 413.582 L 298.902 416.260 300.951 418.169 C 302.145 419.281,303.000 421.342,303.000 423.105 C 303.000 429.272,304.144 430.002,313.785 429.985 C 323.599 429.967,326.532 429.019,322.481 427.173 C 321.065 426.528,319.140 425.986,318.203 425.970 C 316.770 425.944,316.817 425.765,318.500 424.839 C 323.342 422.177,325.865 414.710,322.750 412.263 C 320.364 410.389,315.373 410.050,313.145 411.611 M182.936 413.064 C 181.138 414.862,180.961 415.861,181.561 420.814 C 182.538 428.872,183.330 430.000,188.012 430.000 C 192.735 430.000,194.990 427.290,195.722 420.736 C 196.092 417.425,195.721 415.900,194.025 413.750 C 191.302 410.299,186.027 409.973,182.936 413.064 M188.689 419.750 C 188.438 420.712,188.232 419.925,188.232 418.000 C 188.232 416.075,188.438 415.288,188.689 416.250 C 188.941 417.212,188.941 418.788,188.689 419.750 M187.500 459.210 C 183.947 461.244,183.033 463.209,184.600 465.446 C 185.370 466.546,186.000 468.850,186.000 470.568 C 186.000 474.143,189.394 478.006,191.067 476.333 C 192.364 475.036,191.851 458.766,190.500 458.363 C 189.950 458.199,188.600 458.580,187.500 459.210 M196.655 459.829 C 194.928 461.737,194.287 472.386,195.765 474.600 C 197.132 476.647,201.061 478.115,203.284 477.410 C 206.821 476.287,207.934 473.909,207.968 467.405 C 207.993 462.742,207.570 460.921,206.171 459.655 C 203.744 457.458,198.717 457.550,196.655 459.829 M303.579 460.515 C 300.990 462.914,300.902 463.234,302.387 464.875 C 303.269 465.849,304.284 468.790,304.643 471.411 C 305.332 476.436,307.040 478.042,309.513 475.989 C 312.146 473.804,310.799 458.778,307.921 458.223 C 307.070 458.059,305.115 459.090,303.579 460.515 M315.042 460.455 C 312.996 462.633,312.827 463.312,313.850 465.246 C 314.505 466.486,315.382 469.525,315.799 472.000 C 316.457 475.916,316.876 476.500,319.028 476.500 C 321.474 476.500,321.500 476.406,321.500 467.500 C 321.500 459.208,321.340 458.477,319.463 458.208 C 318.292 458.041,316.414 458.995,315.042 460.455 M202.000 467.500 C 202.000 470.525,201.550 473.000,201.000 473.000 C 200.450 473.000,200.000 470.525,200.000 467.500 C 200.000 464.475,200.450 462.000,201.000 462.000 C 201.550 462.000,202.000 464.475,202.000 467.500 " stroke="none" fill="undefined" fill-rule="evenodd"/></svg>