<svg id="svg" version="1.1" width="512" height="512" xmlns="http://www.w3.org/2000/svg"><path d="M80.309 55.250 C 79.864 55.938,79.275 70.000,79.000 86.500 L 78.500 116.500 70.500 117.098 C 60.742 117.828,59.000 118.515,59.000 121.632 C 59.000 124.774,62.211 126.000,70.443 126.000 C 74.539 126.000,77.151 126.477,77.882 127.357 C 78.706 128.351,78.940 161.360,78.754 250.607 L 78.500 372.500 70.368 373.030 C 62.036 373.573,59.000 374.890,59.000 377.962 C 59.000 380.443,63.227 382.000,69.965 382.000 C 79.801 382.000,79.000 379.308,79.000 412.384 C 79.000 443.777,79.346 446.000,84.237 446.000 C 85.405 446.000,91.342 443.574,97.430 440.610 C 103.519 437.645,114.350 432.416,121.500 428.989 C 128.650 425.562,143.500 418.364,154.500 412.993 C 165.500 407.622,183.050 399.107,193.500 394.071 C 203.950 389.035,215.987 383.171,220.250 381.041 L 228.000 377.169 228.000 396.935 C 228.000 418.881,228.731 423.000,232.623 423.000 C 234.308 423.000,235.348 422.216,236.025 420.435 C 236.561 419.024,237.000 408.069,237.000 396.090 C 237.000 371.593,236.635 372.820,245.000 369.191 C 250.205 366.933,308.193 338.686,312.154 336.479 C 314.384 335.237,321.826 335.000,358.682 335.000 C 408.190 335.000,407.387 335.114,406.805 328.178 C 406.323 322.430,404.557 322.016,381.000 322.121 C 369.725 322.171,355.775 322.524,350.000 322.906 C 344.225 323.288,339.325 323.478,339.111 323.328 C 338.898 323.179,339.853 322.626,341.235 322.101 C 346.701 320.022,383.068 302.615,438.000 275.783 C 449.275 270.276,462.325 263.985,467.000 261.804 C 481.445 255.065,482.218 254.615,483.250 252.350 C 485.242 247.978,483.459 245.319,476.243 241.904 C 459.039 233.760,442.825 225.949,423.500 216.494 C 379.400 194.916,356.587 183.999,345.735 179.281 L 338.970 176.339 370.235 176.728 C 404.841 177.157,406.282 176.950,406.761 171.477 C 407.304 165.265,409.329 165.547,360.287 165.000 L 315.500 164.500 297.500 155.627 C 261.685 137.973,243.058 129.000,242.226 129.000 C 241.759 129.000,240.392 128.082,239.189 126.961 C 237.068 124.985,237.000 124.248,236.985 103.211 C 236.970 80.303,236.331 76.500,232.500 76.500 C 228.717 76.500,228.030 80.366,228.015 101.750 C 228.005 114.574,227.633 122.000,227.000 122.000 C 226.450 122.000,226.000 121.599,226.000 121.109 C 226.000 120.618,224.313 119.541,222.250 118.714 C 217.709 116.894,200.412 108.619,169.000 93.240 C 156.075 86.912,140.550 79.372,134.500 76.486 C 100.692 60.357,95.180 57.700,91.864 55.935 C 87.747 53.744,81.522 53.375,80.309 55.250 M92.210 67.810 C 92.865 68.465,93.765 69.000,94.211 69.000 C 94.956 69.000,103.617 73.147,148.500 94.998 C 157.300 99.282,171.250 106.032,179.500 109.998 C 210.223 124.769,219.918 129.450,236.500 137.521 C 290.722 163.914,318.075 177.172,336.500 185.991 C 342.550 188.887,355.283 195.038,364.796 199.660 C 374.308 204.282,385.333 209.581,389.296 211.437 C 393.258 213.292,408.425 220.638,423.000 227.762 C 457.143 244.450,462.655 247.029,467.500 248.583 C 469.700 249.289,470.688 249.896,469.695 249.933 C 467.087 250.030,458.080 254.181,418.000 273.760 C 374.705 294.909,343.429 310.029,329.000 316.786 C 315.836 322.950,291.181 334.907,260.500 350.008 C 245.100 357.587,228.675 365.588,224.000 367.787 C 219.325 369.987,207.850 375.486,198.500 380.008 C 189.150 384.530,177.000 390.368,171.500 392.982 C 166.000 395.595,150.700 403.015,137.500 409.469 C 124.300 415.924,109.225 423.273,104.000 425.800 C 98.775 428.327,93.424 431.208,92.109 432.203 C 86.749 436.254,87.029 446.310,87.024 249.546 C 87.022 149.319,87.271 67.063,87.578 66.755 C 88.421 65.912,90.870 66.470,92.210 67.810 M96.250 118.067 C 92.024 119.355,91.613 123.522,95.565 125.025 C 98.821 126.263,118.077 126.302,121.299 125.077 C 124.483 123.866,125.509 121.080,123.507 119.079 C 121.629 117.200,101.543 116.455,96.250 118.067 M264.309 162.250 C 263.864 162.938,263.047 165.525,262.493 168.000 C 261.521 172.347,261.339 172.520,257.158 173.079 C 248.884 174.184,249.060 181.000,257.363 181.000 C 260.801 181.000,263.000 183.516,263.000 187.449 C 263.000 194.210,268.953 195.053,270.347 188.489 C 271.644 182.386,272.376 181.546,276.941 180.921 C 280.695 180.408,282.939 178.880,282.985 176.807 C 283.015 175.447,278.511 173.000,275.977 173.000 C 272.701 173.000,271.000 171.299,271.000 168.023 C 271.000 163.071,266.365 159.073,264.309 162.250 M252.750 319.080 C 251.787 319.641,251.000 320.887,251.000 321.850 C 251.000 325.465,253.014 326.000,266.629 326.000 C 277.321 326.000,280.158 325.699,281.429 324.429 C 283.535 322.322,283.412 321.402,280.777 319.557 C 279.058 318.352,275.832 318.007,266.527 318.030 C 259.912 318.047,253.713 318.519,252.750 319.080 M106.035 363.934 C 105.466 364.998,105.000 366.997,105.000 368.375 C 105.000 371.286,103.946 372.130,98.596 373.500 C 91.574 375.299,90.998 380.426,97.697 381.499 C 103.219 382.383,104.434 383.315,105.057 387.143 C 105.789 391.640,106.710 393.000,109.024 393.000 C 111.233 393.000,113.000 390.196,113.000 386.688 C 113.000 383.714,114.439 382.483,118.905 381.635 C 127.507 380.001,126.943 375.076,117.972 373.495 C 113.416 372.692,113.000 372.306,113.000 368.875 C 113.000 364.835,111.350 362.000,109.000 362.000 C 107.939 362.000,106.605 362.870,106.035 363.934 " stroke="none" fill="undefined" fill-rule="evenodd"/></svg>