<svg id="svg" version="1.1" width="512" height="512" xmlns="http://www.w3.org/2000/svg"><path d="M76.571 60.571 C 75.216 61.927,75.000 66.088,75.000 90.871 C 75.000 111.883,74.678 119.922,73.800 120.800 C 73.140 121.460,70.011 122.000,66.847 122.000 C 60.646 122.000,56.000 123.544,56.000 125.604 C 56.000 128.187,60.340 130.000,66.523 130.000 C 69.916 130.000,73.130 130.530,73.800 131.200 C 75.543 132.943,75.543 375.057,73.800 376.800 C 73.125 377.475,69.891 378.000,66.411 378.000 C 61.675 378.000,59.667 378.470,57.861 380.000 L 55.500 382.000 57.861 384.000 C 59.667 385.530,61.675 386.000,66.411 386.000 C 69.891 386.000,73.125 386.525,73.800 387.200 C 74.678 388.078,75.000 396.117,75.000 417.129 C 75.000 447.993,75.164 449.000,80.198 449.000 C 81.328 449.000,88.609 445.895,96.377 442.100 C 104.144 438.306,116.800 432.179,124.500 428.485 C 132.200 424.792,145.475 418.398,154.000 414.276 C 189.030 397.340,222.292 381.238,246.500 369.496 C 255.850 364.961,272.050 357.111,282.500 352.052 C 292.950 346.992,302.738 342.605,304.250 342.301 C 305.762 341.998,307.014 341.244,307.030 340.625 C 307.047 340.006,307.589 340.400,308.235 341.500 C 309.026 342.847,309.588 353.136,309.955 373.000 C 310.255 389.225,310.864 403.063,311.309 403.750 C 312.781 406.024,315.081 405.050,316.551 401.532 C 317.711 398.757,318.000 391.875,318.000 367.083 L 318.000 336.102 321.344 333.551 C 323.184 332.148,324.948 331.000,325.265 331.000 C 326.021 331.000,352.621 318.223,410.500 290.058 C 424.250 283.367,439.082 276.230,443.460 274.197 C 447.839 272.163,457.289 267.575,464.460 264.000 C 476.722 257.888,477.518 257.312,477.805 254.358 C 478.051 251.833,477.529 250.801,475.151 249.108 C 473.523 247.948,471.972 247.000,471.705 247.000 C 471.124 247.000,458.906 241.156,397.500 211.508 C 391.450 208.587,377.522 201.832,366.549 196.498 C 355.576 191.163,340.951 184.089,334.049 180.778 C 327.147 177.466,320.712 174.066,319.750 173.223 C 318.153 171.824,318.000 168.944,318.000 140.295 C 318.000 114.110,317.747 108.411,316.474 105.950 C 314.759 102.634,312.531 102.132,311.142 104.750 C 310.632 105.712,310.041 119.550,309.829 135.500 C 309.563 155.528,309.076 165.119,308.253 166.500 C 307.597 167.600,307.047 167.973,307.030 167.329 C 307.014 166.686,305.589 165.849,303.865 165.470 C 302.141 165.092,298.653 163.747,296.115 162.483 C 293.577 161.219,284.525 156.827,276.000 152.722 C 267.475 148.618,250.825 140.536,239.000 134.764 C 227.175 128.991,210.750 121.008,202.500 117.023 C 194.250 113.038,180.750 106.501,172.500 102.495 C 154.320 93.669,132.670 83.252,120.500 77.475 C 115.550 75.126,104.987 70.008,97.027 66.102 C 81.947 58.702,79.187 57.956,76.571 60.571 M98.000 75.686 C 109.957 81.514,133.733 92.965,148.500 100.007 C 154.000 102.630,167.050 108.929,177.500 114.006 C 187.950 119.082,203.250 126.500,211.500 130.489 C 219.750 134.478,242.925 145.731,263.000 155.495 C 283.075 165.260,304.450 175.617,310.500 178.512 C 316.550 181.406,330.950 188.373,342.500 193.993 C 354.050 199.614,367.775 206.228,373.000 208.691 C 378.225 211.154,388.800 216.233,396.500 219.976 C 404.200 223.720,419.050 230.919,429.500 235.975 C 459.325 250.404,460.866 251.208,461.417 252.645 C 462.729 256.063,464.777 254.924,409.494 281.541 C 390.889 290.499,372.628 299.317,349.500 310.513 C 341.250 314.507,326.850 321.476,317.500 326.000 C 308.150 330.524,293.750 337.499,285.500 341.500 C 277.250 345.501,263.525 352.148,255.000 356.271 C 246.475 360.394,230.950 367.926,220.500 373.009 C 210.050 378.091,195.200 385.288,187.500 389.001 C 179.800 392.714,166.075 399.357,157.000 403.762 C 147.925 408.168,129.700 416.955,116.500 423.290 C 103.300 429.624,91.150 435.522,89.500 436.397 C 85.466 438.536,84.344 438.412,83.630 435.750 C 82.845 432.818,82.814 73.650,83.599 71.603 C 84.439 69.414,86.093 69.883,98.000 75.686 M91.861 124.000 L 89.500 126.000 91.861 128.000 C 93.873 129.705,95.675 130.000,104.064 130.000 C 114.204 130.000,119.000 128.780,119.000 126.200 C 119.000 123.031,115.719 122.064,104.861 122.032 C 95.647 122.004,93.905 122.268,91.861 124.000 M103.751 367.742 C 102.789 367.964,101.734 369.351,101.408 370.823 C 101.081 372.295,100.604 374.277,100.347 375.228 C 100.082 376.206,98.221 377.402,96.056 377.985 C 88.570 380.001,88.487 383.977,95.890 385.970 C 98.977 386.802,99.776 387.620,101.023 391.227 C 102.075 394.270,103.126 395.589,104.675 395.810 C 106.500 396.070,107.065 395.359,108.184 391.398 C 109.381 387.158,109.914 386.564,113.401 385.586 C 120.508 383.592,120.670 379.851,113.714 378.341 C 110.766 377.700,108.000 374.616,108.000 371.969 C 108.000 369.561,105.715 367.288,103.751 367.742 " stroke="none" fill="undefined" fill-rule="evenodd"/></svg>