<svg id="svg" version="1.1" width="512" height="512" xmlns="http://www.w3.org/2000/svg"><path d="M30.500 102.841 C 28.850 103.853,25.873 106.486,23.885 108.693 C 21.898 110.900,18.523 113.560,16.385 114.603 L 12.500 116.500 12.246 241.308 C 12.073 326.204,12.325 366.738,13.031 368.058 C 14.055 369.972,17.492 370.000,252.964 370.000 C 468.806 370.000,492.009 369.848,493.429 368.429 C 494.841 367.016,494.998 353.612,494.985 235.679 C 494.975 154.755,494.606 103.925,494.021 103.000 C 493.184 101.675,466.271 101.471,263.287 101.250 C 41.656 101.009,33.394 101.065,30.500 102.841 M480.168 114.510 C 481.234 114.918,481.436 119.330,481.178 136.637 C 480.962 151.104,481.210 158.610,481.928 159.328 C 483.275 160.675,483.338 162.327,482.011 161.507 C 481.432 161.149,481.285 161.579,481.657 162.549 C 482.017 163.485,481.686 164.585,480.896 165.086 C 478.958 166.313,28.945 166.250,27.000 165.023 C 25.759 164.239,25.444 160.326,25.177 142.335 C 24.999 130.378,25.132 119.111,25.472 117.297 L 26.091 114.000 252.464 114.000 C 376.969 114.000,479.436 114.229,480.168 114.510 M480.421 179.872 C 481.166 181.077,481.226 354.825,480.482 356.029 C 479.503 357.613,27.335 357.336,26.309 355.750 C 25.029 353.773,24.734 183.366,26.006 180.988 C 27.063 179.013,28.541 179.000,253.476 179.000 C 381.145 179.000,480.117 179.380,480.421 179.872 M358.571 187.571 C 357.188 188.954,357.000 194.657,357.000 235.137 C 357.000 264.930,357.365 281.813,358.035 283.066 C 359.031 284.926,360.522 285.000,396.844 285.000 C 427.888 285.000,434.964 284.747,436.559 283.581 C 438.432 282.211,438.500 280.535,438.500 235.500 C 438.500 190.465,438.432 188.789,436.559 187.419 C 434.965 186.254,427.963 186.000,397.380 186.000 C 364.861 186.000,359.944 186.199,358.571 187.571 M424.763 235.228 L 425.026 269.955 422.763 270.509 C 421.518 270.814,409.250 270.936,395.500 270.781 L 370.500 270.500 370.237 236.067 C 370.031 209.189,370.251 201.457,371.237 200.823 C 371.931 200.377,384.200 200.122,398.500 200.256 L 424.500 200.500 424.763 235.228 M52.500 305.167 C 46.442 307.544,41.432 312.162,39.911 316.769 C 39.292 318.647,38.957 323.234,39.168 326.964 C 39.861 339.225,47.227 346.000,59.865 346.000 C 66.355 346.000,70.627 344.469,74.845 340.633 C 78.902 336.942,80.087 333.430,80.105 325.034 C 80.131 313.135,77.076 308.810,65.849 304.857 C 59.542 302.636,58.913 302.650,52.500 305.167 M129.663 305.447 C 122.203 308.515,120.308 310.278,117.383 316.874 C 114.337 323.744,114.418 327.202,117.782 333.955 C 121.656 341.731,126.485 345.263,133.981 345.805 C 145.293 346.623,150.415 344.146,156.168 335.074 C 161.008 327.442,159.350 316.115,152.458 309.723 C 149.809 307.267,139.837 302.974,136.897 303.024 C 136.129 303.037,132.873 304.127,129.663 305.447 M207.415 305.297 C 200.434 308.322,198.506 309.910,195.563 315.059 C 192.846 319.812,192.126 327.571,193.955 332.383 C 195.390 336.156,202.072 343.126,205.718 344.653 C 209.564 346.263,219.748 346.424,223.685 344.936 C 230.299 342.437,237.000 332.392,237.000 324.976 C 237.000 321.243,234.023 314.264,230.645 310.081 C 229.044 308.098,217.519 302.990,214.772 303.047 C 213.522 303.072,210.212 304.085,207.415 305.297 M284.500 305.172 C 281.750 306.254,278.428 308.120,277.118 309.320 C 269.418 316.368,268.998 332.008,276.298 339.834 C 280.633 344.482,285.661 346.236,293.512 345.839 C 305.160 345.251,311.579 339.481,312.703 328.585 C 313.559 320.300,311.531 313.610,306.986 309.720 C 303.047 306.349,295.005 302.909,291.500 303.097 C 290.400 303.156,287.250 304.090,284.500 305.172 M362.500 305.167 C 355.620 307.867,351.564 312.076,349.490 318.671 C 347.514 324.954,347.900 329.096,351.072 335.648 C 354.325 342.368,359.524 345.387,368.637 345.847 C 375.058 346.171,376.488 345.904,380.298 343.671 C 388.645 338.779,392.188 330.409,390.546 319.460 C 389.640 313.414,383.705 307.265,376.349 304.750 C 370.137 302.626,368.878 302.664,362.500 305.167 M440.305 304.875 C 437.998 305.792,434.842 307.480,433.292 308.626 C 429.439 311.475,424.994 320.553,425.023 325.514 C 425.053 330.639,429.314 338.385,434.306 342.388 C 437.552 344.991,439.134 345.499,445.042 345.833 C 454.004 346.339,456.199 345.718,461.098 341.293 C 466.510 336.403,469.000 331.269,469.000 325.000 C 469.000 315.938,463.695 308.788,454.213 305.072 C 448.030 302.649,445.978 302.620,440.305 304.875 M63.316 318.150 C 66.352 319.748,66.967 320.938,66.985 325.250 C 67.014 332.496,59.556 335.647,54.455 330.545 C 50.469 326.559,51.395 320.947,56.500 318.155 C 59.089 316.739,60.633 316.737,63.316 318.150 M143.250 320.114 C 147.316 325.011,143.678 333.000,137.382 333.000 C 129.552 333.000,126.269 324.476,132.182 319.500 C 135.897 316.374,140.350 316.621,143.250 320.114 M219.027 318.692 C 222.407 321.005,222.967 321.994,222.985 325.677 C 223.022 333.335,211.021 335.809,207.439 328.882 C 205.437 325.011,206.548 321.247,210.382 318.909 C 214.225 316.565,215.860 316.524,219.027 318.692 M298.344 320.230 C 302.247 324.937,298.171 333.000,291.889 333.000 C 287.555 333.000,285.000 329.860,285.000 324.532 C 285.000 320.696,285.389 319.847,287.750 318.532 C 291.251 316.581,295.942 317.333,298.344 320.230 M373.316 318.150 C 376.352 319.748,376.967 320.938,376.985 325.250 C 377.004 329.898,374.190 333.000,369.955 333.000 C 365.890 333.000,362.000 329.088,362.000 325.000 C 362.000 321.375,365.839 317.000,369.020 317.000 C 370.181 317.000,372.114 317.517,373.316 318.150 M451.618 318.909 C 458.684 323.217,455.648 332.887,447.205 332.968 C 440.320 333.035,436.406 324.709,441.250 320.302 C 445.308 316.610,447.389 316.330,451.618 318.909 " stroke="none" fill="undefined" fill-rule="evenodd"/></svg>