<svg id="svg" version="1.1" width="512" height="512" xmlns="http://www.w3.org/2000/svg"><path d="M86.983 20.011 C 85.952 20.648,85.383 23.596,85.016 30.204 L 84.500 39.500 68.500 40.000 C 50.389 40.566,49.501 40.894,42.277 49.703 L 38.500 54.308 38.000 70.904 L 37.500 87.500 28.000 87.816 C 21.475 88.033,18.044 88.579,17.043 89.559 C 14.358 92.188,17.456 93.467,27.795 94.000 L 37.500 94.500 37.500 114.500 L 37.500 134.500 27.843 134.785 C 17.467 135.091,14.435 136.410,17.000 139.500 C 17.932 140.622,20.429 141.000,26.922 141.000 C 32.338 141.000,36.051 141.451,36.800 142.200 C 37.648 143.048,38.000 148.887,38.000 162.093 C 38.000 178.216,37.783 180.869,36.418 181.393 C 35.548 181.727,31.359 182.000,27.109 182.000 C 18.290 182.000,14.588 183.594,16.910 186.392 C 17.914 187.601,20.059 188.000,25.557 188.000 C 29.579 188.000,34.034 188.443,35.457 188.983 L 38.043 189.967 37.772 209.233 L 37.500 228.500 29.000 228.760 C 20.253 229.027,16.000 230.316,16.000 232.700 C 16.000 234.651,17.795 235.114,28.225 235.847 L 37.500 236.500 37.785 254.500 C 37.941 264.400,37.835 273.453,37.549 274.618 C 37.069 276.569,36.295 276.751,27.764 276.917 C 21.227 277.045,18.071 277.523,17.043 278.542 C 14.368 281.192,17.442 282.467,27.795 283.000 L 37.500 283.500 37.785 301.500 C 37.941 311.400,37.820 320.512,37.515 321.750 C 36.991 323.884,36.478 324.000,27.603 324.000 C 20.505 324.000,17.944 324.362,17.000 325.500 C 16.007 326.697,16.007 327.303,17.000 328.500 C 17.932 329.622,20.429 330.000,26.922 330.000 C 32.338 330.000,36.051 330.451,36.800 331.200 C 37.648 332.048,38.000 337.887,38.000 351.093 C 38.000 367.216,37.783 369.869,36.418 370.393 C 35.548 370.727,31.359 371.000,27.109 371.000 C 18.474 371.000,14.599 372.607,16.810 375.271 C 17.677 376.315,20.715 376.885,27.030 377.187 C 31.973 377.423,36.473 378.073,37.031 378.631 C 37.665 379.265,37.943 386.737,37.773 398.573 L 37.500 417.500 35.000 417.701 C 18.165 419.052,16.837 419.262,16.301 420.659 C 15.260 423.370,17.879 424.349,27.726 424.926 L 37.500 425.500 38.000 441.500 C 38.297 450.992,38.977 458.331,39.674 459.542 C 41.589 462.873,50.641 470.875,53.164 471.466 C 54.449 471.768,62.025 472.124,70.000 472.257 L 84.500 472.500 85.012 481.712 C 85.556 491.495,86.755 494.278,89.458 492.035 C 90.617 491.073,91.000 488.726,91.000 482.578 C 91.000 477.551,91.462 473.938,92.200 473.200 C 93.926 471.474,130.576 471.504,131.644 473.233 C 132.063 473.912,132.594 478.384,132.823 483.172 C 133.141 489.837,133.602 492.017,134.787 492.472 C 137.257 493.420,137.760 492.029,138.250 482.888 C 138.504 478.152,139.028 473.764,139.415 473.138 C 139.900 472.352,145.970 472.000,159.024 472.000 C 181.176 472.000,180.000 471.337,180.000 483.827 C 180.000 490.438,180.292 491.898,181.724 492.447 C 184.631 493.563,185.999 490.252,186.015 482.059 C 186.024 477.901,186.394 473.928,186.838 473.228 C 187.456 472.254,192.199 472.019,207.073 472.228 L 226.500 472.500 226.786 481.658 C 227.000 488.503,227.469 491.145,228.645 492.120 C 231.376 494.387,232.998 490.655,233.015 482.059 C 233.024 477.901,233.394 473.928,233.838 473.228 C 234.456 472.254,239.199 472.019,254.073 472.228 L 273.500 472.500 274.012 481.712 C 274.556 491.495,275.755 494.278,278.458 492.035 C 279.617 491.073,280.000 488.726,280.000 482.578 C 280.000 477.551,280.462 473.938,281.200 473.200 C 282.889 471.511,319.573 471.501,320.617 473.189 C 321.021 473.844,321.610 478.420,321.926 483.360 C 322.242 488.299,322.950 492.482,323.500 492.654 C 325.934 493.417,326.874 491.007,327.375 482.721 C 327.666 477.904,328.177 473.522,328.511 472.982 C 328.874 472.394,336.879 472.000,348.452 472.000 C 365.160 472.000,367.868 472.215,368.393 473.582 C 368.727 474.452,369.000 478.672,369.000 482.959 C 369.000 488.902,369.382 491.072,370.608 492.090 C 373.380 494.390,374.998 490.708,375.015 482.059 C 375.024 477.901,375.394 473.928,375.838 473.228 C 376.456 472.254,381.199 472.019,396.073 472.228 L 415.500 472.500 415.786 481.658 C 416.000 488.503,416.469 491.145,417.645 492.120 C 420.376 494.387,421.998 490.655,422.015 482.059 C 422.024 477.901,422.368 473.970,422.780 473.322 C 423.290 472.520,428.725 472.041,439.819 471.822 L 456.110 471.500 462.555 464.860 L 469.000 458.219 469.000 442.810 C 469.000 432.158,469.370 427.030,470.200 426.200 C 470.939 425.461,474.562 425.000,479.629 425.000 C 485.776 425.000,488.255 424.603,489.429 423.429 C 493.076 419.781,489.778 418.005,479.316 417.985 C 475.017 417.976,470.909 417.595,470.187 417.136 C 469.160 416.485,468.942 412.247,469.187 397.733 C 469.359 387.519,469.874 378.788,470.332 378.331 C 470.790 377.874,475.159 377.343,480.041 377.152 C 486.407 376.903,489.272 376.377,490.171 375.294 C 492.454 372.543,488.563 371.000,479.344 371.000 C 472.188 371.000,470.931 370.739,470.035 369.066 C 468.888 366.922,468.769 337.051,469.892 333.000 C 470.559 330.596,470.935 330.489,479.700 330.214 C 489.522 329.905,492.518 328.534,490.000 325.500 C 489.067 324.376,486.562 324.000,480.000 324.000 C 473.637 324.000,470.921 323.610,470.061 322.573 C 468.587 320.797,468.762 286.134,470.255 284.250 C 470.912 283.421,474.191 283.000,480.000 283.000 C 486.562 283.000,489.067 282.624,490.000 281.500 C 492.447 278.552,489.563 277.221,479.922 276.848 C 473.299 276.592,470.676 276.104,469.978 275.000 C 469.457 274.175,469.024 265.336,469.015 255.357 C 468.998 234.559,468.253 236.000,479.017 236.000 C 486.721 236.000,491.000 234.772,491.000 232.560 C 491.000 230.045,487.489 229.000,479.041 229.000 C 471.277 229.000,470.911 228.897,469.975 226.435 C 469.439 225.024,469.000 216.238,469.000 206.910 L 469.000 189.950 471.565 188.975 C 472.976 188.439,477.715 188.000,482.096 188.000 C 488.285 188.000,490.192 187.662,490.643 186.487 C 491.909 183.188,489.111 182.000,480.078 182.000 C 474.662 182.000,470.949 181.549,470.200 180.800 C 468.510 179.110,468.510 143.890,470.200 142.200 C 470.949 141.451,474.662 141.000,480.078 141.000 C 486.571 141.000,489.068 140.622,490.000 139.500 C 490.993 138.303,490.993 137.697,490.000 136.500 C 489.082 135.394,486.618 134.996,480.628 134.985 C 476.157 134.976,471.825 134.543,471.000 134.023 C 468.999 132.759,468.128 97.756,470.041 95.451 C 470.927 94.383,473.580 94.000,480.087 94.000 C 487.662 94.000,489.071 93.735,489.918 92.153 C 491.576 89.056,489.257 88.000,480.800 88.000 C 469.227 88.000,469.000 87.652,469.000 69.950 C 469.000 54.255,468.554 52.715,462.332 46.946 C 455.208 40.339,455.883 40.537,438.601 40.000 L 422.500 39.500 422.000 30.211 C 421.641 23.542,421.086 20.666,420.034 20.018 C 417.170 18.254,416.082 20.898,415.786 30.342 L 415.500 39.500 395.500 39.500 L 375.500 39.500 375.000 30.211 C 374.641 23.542,374.086 20.666,373.034 20.018 C 370.077 18.196,369.000 20.879,369.000 30.063 C 369.000 35.406,368.566 39.150,367.898 39.563 C 366.437 40.466,329.708 40.094,328.773 39.167 C 328.373 38.770,327.744 34.521,327.375 29.723 C 326.724 21.248,325.367 18.037,323.044 19.473 C 322.459 19.834,322.000 23.642,322.000 28.125 C 322.000 40.663,323.162 40.000,301.165 40.000 C 287.903 40.000,282.048 39.648,281.200 38.800 C 280.462 38.062,280.000 34.449,280.000 29.422 C 280.000 23.274,279.617 20.927,278.458 19.965 C 275.755 17.722,274.556 20.505,274.012 30.288 L 273.500 39.500 253.500 39.500 L 233.500 39.500 233.000 30.295 C 232.470 20.546,231.260 17.709,228.579 19.935 C 227.482 20.845,226.995 23.676,226.786 30.342 L 226.500 39.500 206.500 39.500 L 186.500 39.500 186.000 30.500 C 185.483 21.190,184.825 19.000,182.548 19.000 C 180.570 19.000,180.000 21.349,180.000 29.500 C 180.000 33.535,179.727 37.548,179.393 38.418 C 178.868 39.785,176.160 40.000,159.452 40.000 C 147.505 40.000,139.879 39.614,139.493 38.989 C 139.150 38.433,138.606 33.918,138.284 28.955 C 137.685 19.702,137.258 18.580,134.710 19.558 C 133.619 19.976,133.131 22.372,132.823 28.828 C 132.594 33.616,132.063 38.088,131.644 38.767 C 131.082 39.676,125.796 40.000,111.548 40.000 C 94.840 40.000,92.132 39.785,91.607 38.418 C 91.273 37.548,91.000 33.328,91.000 29.041 C 91.000 20.906,89.821 18.256,86.983 20.011 M457.962 51.462 L 463.000 56.425 462.999 255.962 L 462.998 455.500 460.749 458.020 C 459.512 459.405,457.003 461.768,455.173 463.270 L 451.847 466.000 253.558 466.000 L 55.270 466.000 52.385 463.771 C 48.620 460.863,47.759 459.993,45.709 457.027 C 44.111 454.716,44.000 441.655,44.000 255.957 L 44.000 57.360 47.686 53.053 C 49.714 50.685,52.751 48.146,54.436 47.411 C 56.963 46.310,92.140 46.113,255.212 46.288 L 452.924 46.500 457.962 51.462 M77.571 59.571 C 76.707 60.436,76.000 61.513,76.000 61.964 C 76.000 63.221,78.563 63.927,80.904 63.315 C 84.030 62.497,83.461 64.345,78.998 69.502 C 75.688 73.326,75.176 74.460,76.034 76.063 C 77.314 78.455,84.046 78.714,89.181 76.569 C 91.385 75.648,93.121 75.464,94.053 76.054 C 96.728 77.746,100.007 77.119,100.862 74.750 C 101.634 72.615,101.438 66.013,100.465 61.360 C 99.808 58.219,97.212 57.706,93.521 59.987 L 90.267 61.998 87.726 59.999 C 84.683 57.605,79.745 57.397,77.571 59.571 M124.429 59.713 C 122.192 61.951,123.282 63.535,126.859 63.246 C 128.586 63.107,130.000 63.402,130.000 63.902 C 130.000 64.402,128.403 66.723,126.451 69.059 C 124.324 71.605,123.021 74.148,123.201 75.404 C 123.479 77.356,124.211 77.520,133.870 77.786 C 147.398 78.160,149.000 77.273,149.000 69.411 C 149.000 64.114,147.797 60.217,145.751 58.879 C 145.228 58.538,140.559 58.244,135.374 58.227 C 128.245 58.202,125.578 58.565,124.429 59.713 M171.930 59.585 C 170.043 61.858,171.566 64.147,174.478 63.416 C 178.057 62.518,177.705 64.477,173.440 69.199 C 171.168 71.713,169.992 73.929,170.190 75.320 C 170.486 77.402,171.035 77.513,182.417 77.783 C 189.955 77.962,194.729 77.671,195.408 76.992 C 196.868 75.532,194.405 74.036,190.500 74.012 L 187.500 73.993 190.686 72.050 C 196.023 68.796,197.747 62.853,194.250 59.764 C 191.863 57.657,173.652 57.510,171.930 59.585 M219.011 59.487 C 217.226 61.638,218.526 64.000,221.495 64.000 L 224.053 64.000 220.527 69.237 C 214.931 77.546,215.396 78.000,229.510 78.000 C 240.999 78.000,242.006 77.288,241.986 69.179 C 241.962 58.907,240.328 56.745,234.765 59.621 C 231.909 61.099,231.436 61.098,228.924 59.614 C 225.503 57.593,220.634 57.531,219.011 59.487 M266.750 59.025 C 264.932 60.141,264.298 64.000,265.933 64.000 C 268.076 64.000,268.010 68.089,265.804 71.975 C 262.733 77.385,263.771 77.965,276.559 77.985 C 289.167 78.004,290.202 77.378,290.774 69.384 C 291.130 64.413,290.847 63.059,288.952 60.658 C 287.000 58.184,286.242 57.895,283.105 58.430 C 278.311 59.248,277.203 59.261,272.500 58.553 C 270.268 58.217,267.727 58.426,266.750 59.025 M326.594 59.549 C 324.815 61.328,324.550 74.609,326.252 76.750 C 327.922 78.852,332.882 78.209,335.545 75.545 C 338.830 72.261,339.098 63.098,336.000 60.000 C 333.618 57.618,328.758 57.385,326.594 59.549 M374.641 59.273 C 372.244 61.026,371.497 74.355,373.673 76.531 C 375.736 78.593,381.341 78.385,383.345 76.171 C 385.788 73.472,385.667 61.913,383.171 59.655 C 380.992 57.683,377.057 57.507,374.641 59.273 M418.718 58.616 C 417.522 59.811,420.118 62.000,422.729 62.000 C 424.712 62.000,425.064 62.354,424.472 63.750 C 422.458 68.499,421.083 72.661,421.044 74.128 C 420.980 76.480,423.796 78.604,425.163 77.237 C 427.015 75.385,431.259 64.646,431.383 61.500 C 431.499 58.515,431.470 58.499,425.459 58.208 C 422.136 58.047,419.103 58.231,418.718 58.616 M315.057 61.654 C 313.084 64.163,313.063 64.412,314.672 66.190 C 315.609 67.225,316.628 69.968,316.938 72.286 C 317.386 75.646,317.905 76.500,319.500 76.500 C 321.326 76.500,321.525 75.737,321.789 67.750 C 322.077 59.037,322.067 59.000,319.612 59.000 C 318.134 59.000,316.308 60.064,315.057 61.654 M362.051 61.662 C 359.972 64.305,359.971 64.341,361.908 66.412 C 362.987 67.566,364.003 70.290,364.180 72.500 C 364.461 76.015,364.803 76.500,367.000 76.500 C 369.035 76.500,369.476 76.035,369.369 74.000 C 369.297 72.625,369.184 68.688,369.119 65.250 C 369.006 59.332,368.871 59.000,366.573 59.000 C 365.135 59.000,363.291 60.086,362.051 61.662 M410.067 61.428 C 407.924 63.710,407.883 63.995,409.393 66.151 C 410.277 67.413,411.007 69.807,411.015 71.473 C 411.035 75.421,412.286 77.283,414.620 76.838 C 416.189 76.539,416.550 75.413,416.803 70.021 C 416.970 66.468,416.849 62.535,416.534 61.281 C 415.784 58.292,412.953 58.357,410.067 61.428 M143.032 64.461 C 142.365 65.265,140.848 66.218,139.660 66.580 C 138.472 66.941,136.713 67.928,135.750 68.773 C 133.763 70.518,133.503 69.798,135.065 66.878 C 136.193 64.771,139.263 63.169,142.372 63.063 C 143.903 63.012,144.024 63.267,143.032 64.461 M190.166 65.604 C 189.598 68.827,184.885 73.000,181.813 73.000 C 180.266 73.000,179.000 72.698,179.000 72.329 C 179.000 70.930,182.380 68.000,183.994 68.000 C 184.921 68.000,186.208 66.840,186.854 65.421 C 188.171 62.531,190.683 62.669,190.166 65.604 M287.000 67.477 C 287.000 71.394,286.158 74.000,284.893 74.000 C 283.883 74.000,283.654 64.680,284.639 63.694 C 285.905 62.428,287.000 64.183,287.000 67.477 M331.689 67.750 C 331.438 68.713,331.232 67.925,331.232 66.000 C 331.232 64.075,331.438 63.288,331.689 64.250 C 331.941 65.213,331.941 66.787,331.689 67.750 M279.000 69.500 C 279.000 73.505,278.752 73.998,276.750 73.985 C 275.512 73.976,273.900 73.589,273.166 73.124 C 272.103 72.450,272.172 72.148,273.506 71.636 C 274.427 71.283,275.659 71.290,276.245 71.651 C 276.846 72.023,277.018 71.839,276.642 71.229 C 276.056 70.282,277.767 65.000,278.661 65.000 C 278.847 65.000,279.000 67.025,279.000 69.500 M92.000 66.917 C 92.000 67.421,91.438 68.062,90.750 68.341 C 89.809 68.722,89.871 69.110,91.000 69.909 C 92.290 70.821,92.251 70.972,90.719 70.985 C 89.739 70.993,88.678 71.675,88.362 72.500 C 88.026 73.375,86.528 74.000,84.764 74.000 L 81.743 74.000 86.121 70.041 C 90.562 66.026,92.000 65.262,92.000 66.917 M232.518 69.057 C 232.213 71.467,232.593 72.299,234.316 72.993 C 236.051 73.692,235.535 73.886,231.809 73.937 C 229.229 73.971,226.886 73.624,226.602 73.165 C 226.065 72.297,230.971 66.029,232.202 66.010 C 232.589 66.005,232.731 67.375,232.518 69.057 M332.714 72.714 C 331.698 73.731,331.025 73.850,330.559 73.096 C 330.179 72.480,330.565 72.000,331.441 72.000 C 332.357 72.000,333.048 71.072,333.116 69.750 C 333.212 67.881,333.313 67.816,333.712 69.368 C 333.976 70.396,333.527 71.901,332.714 72.714 M143.128 71.673 C 144.364 73.181,144.252 73.268,142.000 72.555 C 140.625 72.120,137.925 71.776,136.000 71.792 C 132.837 71.817,132.741 71.742,135.000 71.009 C 139.086 69.686,141.670 69.897,143.128 71.673 M54.200 83.200 C 52.058 85.342,52.796 87.168,55.663 86.822 C 59.601 86.346,59.566 88.368,55.560 92.802 C 51.712 97.061,50.952 100.612,53.750 101.256 C 54.712 101.477,60.000 101.459,65.500 101.216 C 76.607 100.725,78.000 99.961,78.000 94.366 C 78.000 90.705,75.107 88.000,71.194 88.000 C 67.432 88.000,69.193 85.563,73.361 85.000 C 78.877 84.256,77.777 82.500,71.795 82.500 C 67.085 82.500,66.528 82.738,65.933 85.000 C 65.314 87.353,65.227 87.382,64.461 85.500 C 64.013 84.400,63.163 83.169,62.573 82.765 C 60.876 81.603,55.519 81.881,54.200 83.200 M437.000 82.752 C 436.175 83.029,434.488 84.175,433.251 85.300 C 431.119 87.240,431.092 87.444,432.712 89.235 C 433.653 90.274,434.664 93.233,434.961 95.812 C 435.403 99.654,435.861 100.500,437.500 100.500 C 439.318 100.500,439.527 99.736,439.793 92.093 C 440.093 83.474,439.616 81.876,437.000 82.752 M444.950 83.561 C 442.826 86.119,442.479 95.556,444.400 98.488 C 446.536 101.747,453.331 102.119,454.965 99.066 C 456.625 95.963,456.260 85.403,454.429 83.571 C 452.406 81.549,446.625 81.542,444.950 83.561 M450.245 94.500 C 449.982 95.875,449.594 97.000,449.383 97.000 C 449.173 97.000,449.000 95.875,449.000 94.500 C 449.000 93.125,449.388 92.000,449.861 92.000 C 450.335 92.000,450.508 93.125,450.245 94.500 M72.000 94.370 C 72.000 95.666,70.017 96.137,59.000 97.459 L 55.500 97.878 60.000 95.484 C 65.041 92.803,72.000 92.156,72.000 94.370 M53.520 130.978 C 51.873 132.797,51.799 133.258,53.031 134.019 C 53.830 134.513,55.500 134.662,56.742 134.350 C 59.908 133.555,59.560 135.140,55.500 140.000 C 51.432 144.870,51.009 147.735,54.250 148.476 C 58.597 149.470,74.745 148.456,76.396 147.086 C 77.577 146.106,78.000 143.981,78.000 139.033 C 78.000 130.832,76.126 128.339,70.789 129.440 C 66.859 130.250,64.807 130.250,59.480 129.443 C 56.170 128.941,55.118 129.212,53.520 130.978 M445.246 130.154 C 444.560 130.840,444.000 133.335,444.000 135.700 C 444.000 139.811,444.132 140.000,447.000 140.000 C 449.333 140.000,450.000 140.444,450.000 142.000 C 450.000 143.619,449.333 144.000,446.500 144.000 C 442.689 144.000,442.133 144.990,444.571 147.429 C 446.579 149.437,450.922 149.444,453.777 147.443 C 455.426 146.289,456.000 144.883,456.000 142.000 C 456.000 137.896,453.425 135.000,449.777 135.000 C 446.612 135.000,447.896 133.242,451.564 132.554 C 453.666 132.160,454.968 131.396,454.736 130.693 C 454.195 129.043,446.777 128.623,445.246 130.154 M433.655 131.829 C 431.724 133.962,431.488 136.663,433.183 137.228 C 433.834 137.445,434.621 139.845,434.933 142.561 C 435.402 146.644,435.846 147.500,437.500 147.500 C 439.326 147.500,439.525 146.737,439.789 138.750 C 440.074 130.116,440.046 130.000,437.694 130.000 C 436.383 130.000,434.565 130.823,433.655 131.829 M65.000 142.000 C 65.000 144.863,64.806 145.000,60.750 144.996 L 56.500 144.993 59.641 143.077 C 61.368 142.024,63.082 140.676,63.450 140.081 C 64.556 138.291,65.000 138.840,65.000 142.000 M53.557 177.937 C 51.201 180.540,52.448 182.280,56.095 181.479 C 58.308 180.993,59.000 181.203,59.000 182.362 C 59.000 183.198,58.520 184.178,57.934 184.541 C 57.348 184.903,55.548 187.022,53.935 189.249 C 49.758 195.014,50.961 196.000,62.173 196.000 L 71.102 196.000 72.585 192.250 C 73.400 190.188,75.021 186.379,76.187 183.787 C 79.340 176.778,78.275 176.000,65.533 176.000 C 56.691 176.000,55.073 176.262,53.557 177.937 M434.223 178.557 C 431.920 180.169,431.211 183.570,433.049 184.183 C 433.627 184.376,434.418 186.776,434.808 189.516 C 435.387 193.582,435.914 194.557,437.668 194.808 C 439.655 195.092,439.872 194.542,440.525 187.580 C 440.913 183.435,440.968 179.359,440.647 178.522 C 439.895 176.562,437.048 176.578,434.223 178.557 M447.009 180.186 C 444.917 183.584,442.356 190.821,443.090 191.256 C 443.315 191.390,445.467 192.558,447.872 193.850 C 452.195 196.174,452.266 196.179,454.179 194.265 C 455.910 192.535,456.029 191.546,455.307 184.915 C 454.535 177.818,454.383 177.487,451.774 177.186 C 449.599 176.935,448.637 177.541,447.009 180.186 M68.482 186.250 C 66.079 191.448,66.008 191.502,61.278 191.705 C 58.650 191.818,57.175 191.648,58.000 191.328 C 60.561 190.333,63.785 186.933,65.041 183.901 C 65.881 181.872,66.944 181.000,68.575 181.000 L 70.908 181.000 68.482 186.250 M56.248 223.775 C 53.740 224.181,51.401 227.512,52.951 228.470 C 53.478 228.795,55.054 228.774,56.454 228.422 C 60.184 227.486,59.763 230.150,55.419 234.958 C 49.530 241.477,50.555 242.450,63.659 242.782 C 77.335 243.128,78.000 242.703,78.000 233.620 C 78.000 226.257,76.630 223.913,72.254 223.788 C 67.854 223.663,66.000 225.522,66.000 230.057 C 66.000 236.375,64.523 239.000,60.969 239.000 L 57.888 239.000 60.479 236.750 C 61.903 235.512,63.706 232.365,64.485 229.757 L 65.900 225.013 63.200 224.423 C 61.715 224.098,60.050 223.738,59.500 223.622 C 58.950 223.506,57.487 223.575,56.248 223.775 M433.696 226.795 C 431.196 229.405,431.129 229.700,432.687 231.259 C 433.605 232.176,434.613 234.856,434.928 237.214 C 435.379 240.591,435.949 241.564,437.615 241.802 C 439.286 242.040,439.862 241.438,440.365 238.927 C 441.802 231.741,440.426 224.000,437.712 224.000 C 436.976 224.000,435.169 225.258,433.696 226.795 M444.498 225.645 C 442.448 227.695,444.277 229.219,447.742 228.350 C 450.471 227.665,450.647 228.969,448.177 231.570 C 446.409 233.433,446.424 233.545,448.677 235.318 C 452.054 237.974,451.539 238.882,447.000 238.273 C 442.699 237.696,441.890 238.747,444.571 241.429 C 446.597 243.454,452.403 243.454,454.429 241.429 C 456.551 239.306,456.561 229.246,454.443 226.223 C 452.548 223.517,446.951 223.192,444.498 225.645 M71.985 236.309 C 71.993 237.304,71.550 237.840,71.000 237.500 C 70.450 237.160,70.007 235.671,70.015 234.191 C 70.027 232.086,70.242 231.827,71.000 233.000 C 71.533 233.825,71.976 235.314,71.985 236.309 M252.051 248.370 C 248.939 250.166,248.158 252.211,248.070 258.795 C 248.013 263.140,248.441 264.532,250.455 266.545 C 254.400 270.491,263.567 269.547,266.032 264.941 C 267.950 261.356,265.786 260.342,260.910 262.540 L 256.754 264.415 254.877 262.097 C 252.482 259.139,252.502 256.826,254.947 253.861 C 256.859 251.542,256.949 251.531,260.028 253.250 C 261.752 254.213,263.752 255.000,264.474 255.000 C 266.641 255.000,267.016 252.241,265.160 249.950 C 262.956 247.228,255.573 246.338,252.051 248.370 M240.000 258.000 L 240.000 268.000 242.500 268.000 L 245.000 268.000 245.000 258.000 L 245.000 248.000 242.500 248.000 L 240.000 248.000 240.000 258.000 M53.585 272.906 C 51.642 275.053,52.432 276.000,56.167 276.000 C 59.874 276.000,59.741 277.175,55.500 281.868 C 51.541 286.251,50.979 289.500,54.042 290.301 C 55.165 290.594,60.362 290.579,65.590 290.268 C 76.931 289.591,78.000 288.693,78.000 279.849 C 78.000 271.761,77.171 271.203,65.114 271.174 C 56.885 271.155,54.900 271.453,53.585 272.906 M444.571 272.571 C 442.032 275.111,442.711 276.253,446.500 275.810 C 451.118 275.271,451.011 276.710,446.000 282.500 C 443.800 285.042,442.000 287.544,442.000 288.061 C 442.000 288.577,441.561 289.000,441.025 289.000 C 440.477 289.000,440.310 287.699,440.644 286.030 C 440.971 284.397,440.927 280.572,440.547 277.530 C 439.939 272.664,439.586 272.000,437.602 272.000 C 436.363 272.000,434.363 273.049,433.159 274.331 L 430.969 276.662 432.984 278.486 C 434.221 279.605,435.000 281.572,435.000 283.573 C 435.000 287.468,435.909 290.174,436.992 289.505 C 437.422 289.239,440.318 289.533,443.427 290.157 C 447.775 291.030,450.034 291.007,453.205 290.057 C 456.257 289.142,456.961 288.589,455.914 287.926 C 455.136 287.434,453.262 287.024,451.750 287.015 C 450.238 287.007,449.000 286.761,449.000 286.469 C 449.000 286.178,450.575 284.556,452.500 282.866 C 458.352 277.728,456.651 271.000,449.500 271.000 C 447.654 271.000,445.436 271.707,444.571 272.571 M66.000 283.441 C 66.000 285.163,64.823 285.983,61.484 286.589 C 58.206 287.183,58.331 285.906,61.752 283.841 C 65.251 281.730,66.000 281.659,66.000 283.441 M54.200 319.200 C 53.540 319.860,53.000 321.182,53.000 322.137 C 53.000 323.581,53.634 323.776,56.750 323.295 L 60.500 322.716 58.129 325.302 L 55.757 327.887 58.629 330.517 L 61.500 333.147 57.310 332.571 C 52.377 331.893,51.003 333.240,53.647 336.162 C 55.167 337.842,56.189 338.076,59.494 337.503 C 64.203 336.687,66.228 336.696,71.127 337.554 C 76.136 338.432,78.000 335.687,78.000 327.432 C 78.000 320.731,76.294 318.000,72.106 318.000 C 67.496 318.000,66.012 319.722,65.825 325.285 L 65.651 330.500 65.256 326.002 C 65.038 323.528,64.147 320.715,63.275 319.752 C 61.462 317.749,55.984 317.416,54.200 319.200 M434.942 320.562 C 432.590 323.065,432.574 323.193,434.267 326.143 C 435.220 327.804,436.007 330.588,436.015 332.331 C 436.036 336.688,437.278 338.364,439.875 337.540 C 441.405 337.054,442.041 335.974,442.148 333.683 C 442.229 331.932,442.342 329.600,442.398 328.500 C 442.607 324.405,445.382 326.451,446.451 331.487 C 447.541 336.627,450.283 338.738,452.115 335.848 C 453.128 334.249,453.264 326.568,452.358 322.039 C 451.532 317.911,449.788 317.303,446.167 319.881 C 443.278 321.938,443.255 321.939,441.477 319.974 C 439.118 317.368,437.834 317.483,434.942 320.562 M72.810 328.610 C 72.640 331.300,72.050 333.500,71.500 333.500 C 70.361 333.500,69.567 325.571,70.470 323.218 C 71.628 320.201,73.125 323.652,72.810 328.610 M54.264 366.527 C 50.864 368.909,52.404 371.197,56.866 370.391 L 60.500 369.734 58.036 372.409 L 55.572 375.084 58.536 377.567 L 61.500 380.049 57.986 379.820 C 52.984 379.494,51.398 380.677,53.590 383.099 C 56.068 385.837,61.120 385.566,63.960 382.543 C 66.205 380.153,66.231 379.914,64.890 373.869 C 64.131 370.451,62.914 367.056,62.184 366.327 C 60.417 364.560,56.948 364.647,54.264 366.527 M445.611 366.532 C 442.368 369.775,442.368 380.225,445.611 383.468 C 447.740 385.597,451.619 385.381,454.000 383.000 C 455.586 381.414,456.000 379.667,456.000 374.557 C 456.000 369.032,455.683 367.891,453.777 366.557 C 450.951 364.577,447.576 364.567,445.611 366.532 M68.232 368.253 C 66.291 370.319,66.193 370.831,67.411 372.569 C 68.170 373.653,69.181 376.510,69.657 378.918 C 70.631 383.844,73.419 386.479,75.034 384.000 C 75.572 383.175,75.896 378.900,75.756 374.500 C 75.508 366.762,75.417 366.490,72.967 366.205 C 71.329 366.013,69.656 366.737,68.232 368.253 M433.482 368.262 L 430.852 370.524 432.926 372.915 C 434.225 374.413,435.000 376.697,435.000 379.031 C 435.000 383.323,437.521 386.369,439.061 383.936 C 439.561 383.146,439.976 378.788,439.985 374.250 C 439.999 366.740,439.826 366.000,438.056 366.000 C 436.986 366.000,434.928 367.018,433.482 368.262 M450.810 375.610 C 450.424 381.694,448.544 381.221,448.385 375.000 C 448.255 369.929,448.784 368.384,450.173 369.773 C 450.695 370.295,450.981 372.921,450.810 375.610 M68.000 413.045 C 66.625 413.405,63.224 413.488,60.442 413.230 C 56.563 412.869,54.986 413.156,53.682 414.460 C 51.240 416.903,52.577 418.170,56.766 417.384 L 60.376 416.707 58.111 419.586 L 55.846 422.465 58.423 424.520 C 62.050 427.412,61.634 428.283,57.000 427.500 C 52.602 426.757,51.764 427.977,54.555 431.061 C 55.974 432.628,55.888 433.018,53.577 435.511 C 48.497 440.992,48.979 450.358,54.614 455.672 C 65.579 466.013,82.800 455.045,78.076 440.729 C 76.650 436.409,74.071 433.998,69.791 432.984 C 66.589 432.226,66.622 432.202,71.000 432.087 C 76.428 431.945,79.459 430.497,76.612 429.405 C 75.605 429.018,73.449 428.656,71.822 428.601 C 69.310 428.515,69.132 428.349,70.643 427.500 C 71.622 426.950,73.677 425.297,75.211 423.827 C 81.320 417.971,76.533 410.813,68.000 413.045 M436.973 415.051 C 435.576 417.661,436.265 428.409,437.960 430.451 C 440.076 433.002,445.535 432.407,447.927 429.365 C 450.459 426.146,450.738 418.499,448.443 415.223 C 446.279 412.133,438.596 412.018,436.973 415.051 M72.000 417.944 C 72.000 419.788,67.325 424.319,66.164 423.601 C 64.173 422.371,64.880 420.129,67.750 418.572 C 70.999 416.810,72.000 416.662,72.000 417.944 M443.725 420.000 C 443.559 422.202,442.000 422.804,442.000 420.667 C 442.000 419.474,442.887 418.000,443.605 418.000 C 443.754 418.000,443.808 418.900,443.725 420.000 M130.571 437.571 C 129.707 438.436,129.000 439.545,129.000 440.036 C 129.000 441.339,132.271 442.811,133.887 442.236 C 134.649 441.964,133.832 443.837,132.071 446.397 C 130.227 449.078,129.002 451.996,129.184 453.276 C 129.470 455.292,130.060 455.500,135.500 455.500 C 140.167 455.500,141.500 455.167,141.500 454.000 C 141.500 453.018,140.189 452.327,137.700 452.000 L 133.900 451.500 136.725 450.266 C 142.471 447.756,144.354 440.522,140.104 437.286 C 137.829 435.552,132.428 435.714,130.571 437.571 M178.011 437.487 C 175.915 440.013,177.593 442.287,181.166 441.762 C 183.814 441.374,184.048 441.491,182.654 442.511 C 180.426 444.140,180.573 445.916,183.164 448.675 L 185.328 450.978 181.414 450.739 C 178.102 450.537,177.500 450.804,177.500 452.476 C 177.500 456.684,186.831 457.054,189.036 452.932 C 190.605 450.002,189.193 440.193,186.868 437.868 C 184.629 435.629,179.728 435.418,178.011 437.487 M229.307 438.250 C 226.677 441.148,224.382 444.918,223.551 447.704 C 223.012 449.512,223.619 450.365,226.927 452.454 C 234.558 457.271,237.474 455.061,236.377 445.291 C 235.316 435.849,233.304 433.846,229.307 438.250 M272.557 438.223 C 269.284 442.895,270.860 448.000,275.576 448.000 C 278.153 448.000,278.803 448.350,278.362 449.500 C 278.006 450.426,276.487 451.000,274.393 451.000 C 270.684 451.000,270.149 452.006,272.571 454.429 C 274.685 456.543,279.266 456.415,282.046 454.164 C 286.782 450.329,283.553 442.000,277.330 442.000 C 273.557 442.000,275.457 440.342,280.077 439.604 C 283.562 439.046,284.010 438.717,282.977 437.472 C 281.012 435.104,274.408 435.580,272.557 438.223 M320.496 437.379 C 319.076 438.418,318.508 440.366,318.196 445.270 C 317.838 450.886,318.071 452.071,319.890 453.890 C 322.725 456.725,327.091 456.596,329.910 453.596 C 331.930 451.446,332.094 450.575,331.464 445.346 C 331.078 442.131,330.070 438.712,329.225 437.750 C 327.386 435.653,323.105 435.472,320.496 437.379 M365.500 437.000 C 364.506 438.608,365.925 440.000,368.559 440.000 C 371.501 440.000,371.483 439.701,368.939 446.154 C 366.804 451.571,367.010 456.000,369.397 456.000 C 371.400 456.000,372.436 454.346,375.923 445.582 C 378.380 439.408,378.791 437.484,377.787 436.847 C 375.954 435.684,366.239 435.805,365.500 437.000 M414.789 437.750 C 413.952 438.712,412.989 442.319,412.648 445.764 C 412.112 451.179,412.297 452.297,414.014 454.014 C 416.472 456.472,422.215 456.642,424.532 454.326 C 427.013 451.844,426.240 439.647,423.468 437.552 C 420.794 435.530,416.636 435.624,414.789 437.750 M85.189 439.299 C 83.127 441.494,83.106 441.706,84.727 444.021 C 85.661 445.354,86.667 448.257,86.962 450.472 C 87.428 453.958,87.836 454.500,90.000 454.500 C 92.378 454.500,92.515 454.184,92.803 448.031 C 92.970 444.473,92.849 440.535,92.534 439.281 C 91.776 436.259,88.037 436.268,85.189 439.299 M325.094 450.306 C 324.302 451.098,324.000 450.838,324.000 449.367 C 324.000 446.723,325.398 445.320,325.844 447.517 C 326.033 448.449,325.695 449.705,325.094 450.306 " stroke="none" fill="undefined" fill-rule="evenodd"/></svg>