<svg id="svg" version="1.1" width="512" height="512" xmlns="http://www.w3.org/2000/svg"><path d="M92.000 96.957 C 90.711 97.790,90.461 104.186,90.220 142.497 L 89.940 187.068 93.621 193.784 C 98.027 201.822,104.977 208.697,113.535 213.483 L 119.825 217.000 135.662 216.985 C 147.667 216.974,152.105 216.619,154.000 215.519 C 155.375 214.721,158.321 213.208,160.547 212.156 C 164.840 210.129,173.630 201.104,175.114 197.200 C 175.601 195.918,176.000 193.249,176.000 191.268 C 176.000 185.215,177.744 189.655,177.926 196.170 C 178.029 199.870,187.986 209.639,195.862 213.767 L 202.029 217.000 218.030 217.000 L 234.030 217.000 239.765 213.838 C 250.471 207.936,256.879 200.486,257.937 192.712 L 258.645 187.500 259.440 193.263 C 260.159 198.485,260.769 199.573,265.928 204.846 C 269.060 208.046,272.945 211.354,274.561 212.196 C 276.178 213.038,278.850 214.461,280.500 215.357 C 282.911 216.668,286.594 216.989,299.268 216.994 C 314.413 217.000,315.244 216.894,320.268 214.318 C 331.992 208.307,338.529 201.136,339.822 192.867 L 340.661 187.500 341.435 193.168 C 342.103 198.056,342.909 199.621,347.286 204.531 C 350.077 207.663,354.193 211.090,356.431 212.147 C 358.669 213.204,361.625 214.721,363.000 215.519 C 364.894 216.619,369.324 216.974,381.269 216.985 C 396.889 217.000,397.091 216.972,402.663 213.998 C 410.761 209.677,418.662 202.552,421.789 196.750 C 423.280 193.985,425.056 190.772,425.735 189.611 C 427.341 186.866,427.557 100.909,425.965 97.934 C 425.394 96.867,423.880 96.000,422.587 96.000 C 417.606 96.000,417.535 96.536,417.000 138.402 C 416.562 172.645,416.290 177.873,414.811 180.500 C 413.882 182.150,412.571 185.008,411.898 186.851 C 410.371 191.031,402.652 198.963,398.000 201.132 C 383.784 207.759,379.701 208.417,373.198 205.131 C 371.164 204.103,367.355 202.237,364.732 200.983 C 359.245 198.359,353.622 192.564,351.364 187.206 C 350.505 185.168,348.987 181.700,347.992 179.500 C 346.996 177.300,345.879 174.153,345.510 172.506 C 344.619 168.528,343.229 167.000,340.500 167.000 C 337.663 167.000,336.187 168.755,335.375 173.095 C 335.024 174.968,333.954 177.850,332.997 179.500 C 332.040 181.150,330.993 183.625,330.670 185.000 C 329.141 191.517,319.733 200.349,311.500 202.998 C 309.300 203.705,306.612 204.896,305.527 205.642 C 302.724 207.572,296.413 207.322,291.610 205.091 C 289.349 204.041,285.961 202.604,284.080 201.899 C 279.661 200.242,270.747 191.320,269.114 186.920 C 268.416 185.039,267.009 181.636,265.988 179.358 C 264.967 177.080,263.826 173.589,263.453 171.599 C 262.934 168.833,262.175 167.831,260.232 167.343 C 256.657 166.446,254.676 168.057,253.774 172.593 C 253.347 174.742,252.150 178.075,251.114 180.000 C 250.077 181.925,248.888 184.625,248.471 186.000 C 246.797 191.516,240.971 197.713,234.500 200.862 C 220.074 207.881,217.107 208.354,209.277 204.882 C 198.831 200.249,197.335 199.333,192.938 194.876 C 188.292 190.167,187.005 187.519,180.729 169.750 C 179.064 165.036,172.000 166.443,172.000 171.489 C 172.000 172.637,171.110 175.323,170.022 177.457 C 168.934 179.591,167.518 182.931,166.874 184.881 C 166.231 186.830,164.428 190.188,162.867 192.343 C 159.939 196.384,150.744 202.995,148.034 203.007 C 147.190 203.010,145.150 203.907,143.500 205.000 C 138.131 208.556,133.284 207.790,119.000 201.132 C 113.259 198.455,106.255 190.598,104.579 184.954 C 103.768 182.222,102.405 178.989,101.552 177.771 C 100.218 175.866,99.998 170.356,99.985 138.527 C 99.970 99.540,99.676 96.788,95.475 96.244 C 94.389 96.104,92.825 96.424,92.000 96.957 M93.280 239.015 C 90.902 239.977,88.947 245.149,90.736 245.745 C 91.314 245.938,91.675 246.862,91.537 247.798 C 91.400 248.734,91.480 248.938,91.717 248.250 C 92.208 246.821,193.295 246.243,337.000 246.847 C 412.021 247.162,428.214 247.648,419.418 249.323 C 415.483 250.072,278.788 250.568,176.448 250.205 C 130.769 250.043,92.632 250.204,91.698 250.562 C 89.651 251.348,89.473 254.318,91.378 255.899 C 92.394 256.742,115.964 256.978,181.128 256.798 C 310.869 256.440,420.356 257.015,421.433 258.061 C 421.947 258.559,422.043 259.291,421.647 259.687 C 421.251 260.083,346.806 260.428,256.213 260.453 L 91.500 260.500 91.187 263.751 C 90.923 266.485,91.294 267.161,93.525 268.009 C 95.278 268.676,151.896 268.930,260.625 268.759 C 405.509 268.531,425.189 268.322,426.050 267.000 C 427.473 264.815,426.687 241.287,425.139 239.739 C 424.165 238.765,388.749 238.459,259.700 238.309 C 164.485 238.198,94.567 238.495,93.280 239.015 M120.000 289.902 C 111.543 292.675,98.099 303.682,94.842 310.500 C 93.792 312.700,92.279 315.625,91.481 317.000 C 90.273 319.081,90.027 326.888,90.015 363.559 C 89.999 410.958,90.062 411.554,95.031 410.845 C 99.722 410.176,99.969 408.102,99.985 369.277 C 100.002 329.255,99.514 332.862,106.909 318.000 C 109.936 311.916,116.637 306.100,123.445 303.648 C 125.675 302.845,129.546 301.394,132.046 300.425 C 136.567 298.672,136.624 298.677,142.046 301.212 C 145.046 302.614,148.566 304.087,149.869 304.486 C 156.645 306.558,164.478 314.813,166.997 322.537 C 169.000 328.680,173.725 335.003,176.298 334.985 C 177.509 334.976,179.004 334.639,179.619 334.235 C 181.003 333.326,187.000 322.169,187.000 320.503 C 187.000 316.580,200.794 304.000,205.096 304.000 C 205.877 304.000,208.629 302.875,211.212 301.500 C 213.795 300.125,216.762 299.000,217.805 299.000 C 218.849 299.000,221.818 300.125,224.404 301.500 C 226.990 302.875,229.665 304.000,230.349 304.000 C 231.033 304.000,233.921 305.468,236.766 307.262 C 242.094 310.621,247.194 316.604,248.477 321.000 C 249.702 325.194,253.412 332.429,255.000 333.718 C 256.921 335.278,260.081 335.277,262.000 333.717 C 263.559 332.449,266.929 325.993,269.117 320.080 C 270.749 315.672,279.669 306.751,284.080 305.115 C 285.961 304.417,289.795 302.756,292.600 301.423 C 295.405 300.091,298.432 299.000,299.328 299.000 C 300.781 299.000,304.594 300.572,316.000 305.873 C 320.638 308.029,328.363 315.957,329.911 320.149 C 333.409 329.623,336.004 333.963,338.554 334.603 C 342.588 335.615,345.592 333.300,348.420 326.999 C 349.839 323.837,351.000 320.937,351.000 320.555 C 351.000 320.173,352.363 317.880,354.028 315.459 C 357.560 310.326,363.930 305.653,369.543 304.078 C 371.719 303.467,374.374 302.300,375.441 301.484 C 378.209 299.368,384.927 299.634,388.500 302.000 C 390.150 303.093,392.153 303.990,392.951 303.993 C 393.750 303.997,396.823 305.463,399.781 307.250 C 405.778 310.874,411.341 317.839,412.919 323.699 C 413.491 325.823,414.629 328.448,415.448 329.531 C 416.702 331.189,416.944 337.336,416.983 368.500 C 417.033 408.680,417.227 410.231,422.273 410.816 C 424.442 411.068,425.204 410.595,426.000 408.501 C 426.611 406.892,427.000 388.956,427.000 362.347 L 427.000 318.825 423.363 312.321 C 419.843 306.027,409.779 295.000,407.555 295.000 C 406.955 295.000,404.672 293.762,402.482 292.250 C 398.519 289.513,398.420 289.500,381.426 289.500 C 364.473 289.500,364.322 289.520,360.197 292.250 C 357.912 293.762,355.619 295.000,355.101 295.000 C 354.584 295.000,351.424 297.736,348.080 301.080 L 342.000 307.160 342.000 313.639 C 342.000 317.704,341.627 319.888,341.000 319.500 C 340.450 319.160,340.000 317.363,340.000 315.506 C 340.000 313.649,339.556 310.963,339.014 309.538 C 337.345 305.148,329.126 297.257,322.145 293.342 L 315.500 289.615 300.711 289.198 L 285.921 288.780 278.360 292.640 C 273.223 295.262,269.068 298.362,265.399 302.307 C 260.121 307.983,259.328 309.995,259.933 316.161 C 260.022 317.075,259.624 318.114,259.048 318.470 C 258.394 318.875,258.000 317.805,258.000 315.624 C 258.000 313.702,257.556 310.963,257.014 309.538 C 255.357 305.178,247.124 297.245,240.132 293.270 L 233.500 289.500 217.333 289.500 C 202.606 289.500,200.913 289.683,198.333 291.555 C 196.775 292.686,194.019 294.211,192.209 294.944 C 190.398 295.677,186.461 298.991,183.459 302.309 C 178.161 308.163,177.348 310.201,177.933 316.161 C 178.022 317.075,177.624 318.114,177.048 318.470 C 176.392 318.876,176.000 317.776,176.000 315.527 C 176.000 307.670,169.724 299.922,157.919 293.205 L 151.500 289.553 137.000 289.318 C 129.025 289.188,121.375 289.451,120.000 289.902 " stroke="none" fill="undefined" fill-rule="evenodd"/></svg>