<svg id="svg" version="1.1" width="512" height="512" xmlns="http://www.w3.org/2000/svg"><path d="M418.872 102.652 C 417.785 103.962,417.396 111.996,417.000 141.402 C 416.572 173.151,416.265 178.933,414.870 181.500 C 413.974 183.150,412.908 186.075,412.501 188.000 C 411.605 192.234,406.237 199.819,401.672 203.301 C 399.837 204.701,395.354 207.456,391.710 209.423 C 385.589 212.728,384.438 213.000,376.557 213.000 C 368.941 213.000,367.359 212.659,361.765 209.806 C 350.786 204.210,348.812 200.935,352.966 195.210 C 356.609 190.187,358.343 171.294,356.256 159.354 C 354.863 151.388,353.583 149.141,349.452 147.415 C 344.974 145.545,334.679 145.597,330.980 147.510 C 327.279 149.424,326.083 151.696,324.744 159.354 C 322.619 171.514,324.326 190.028,328.052 195.210 C 332.125 200.875,330.137 204.332,319.609 209.890 C 313.817 212.948,313.480 213.000,299.500 213.000 C 285.520 213.000,285.183 212.948,279.391 209.890 C 268.755 204.275,267.214 201.626,271.010 195.484 C 273.212 191.920,275.390 179.645,275.353 171.000 C 275.325 164.381,273.607 154.003,272.061 151.114 C 270.244 147.718,265.687 146.000,258.500 146.000 C 251.491 146.000,246.760 147.712,245.076 150.858 C 243.565 153.681,241.646 164.868,241.621 171.000 C 241.588 179.149,244.015 192.124,246.139 195.154 C 250.073 200.765,248.229 204.044,237.878 209.848 C 232.292 212.980,232.166 213.000,217.769 213.000 C 203.488 213.000,203.198 212.956,197.391 209.890 C 186.676 204.234,185.205 201.641,189.117 195.311 C 194.262 186.986,194.604 158.149,189.646 150.583 C 187.393 147.144,184.257 146.000,177.084 146.000 C 170.029 146.000,165.592 147.437,163.728 150.325 C 162.957 151.521,161.531 156.775,160.561 162.000 C 158.919 170.847,158.908 172.030,160.399 179.208 C 161.280 183.447,162.002 187.947,162.004 189.208 C 162.006 190.469,162.822 192.850,163.817 194.500 C 164.813 196.150,165.911 198.259,166.258 199.186 C 167.270 201.894,163.440 205.698,155.878 209.493 C 149.556 212.666,148.093 213.000,140.528 213.000 C 132.867 213.000,131.603 212.701,125.452 209.438 C 121.759 207.479,117.208 204.667,115.337 203.188 C 110.884 199.668,105.341 191.409,104.473 187.000 C 104.094 185.075,102.933 182.097,101.892 180.382 C 100.162 177.530,100.000 174.994,100.000 150.703 C 100.000 127.891,99.778 123.921,98.429 122.571 C 96.422 120.564,93.578 120.564,91.571 122.571 C 90.205 123.937,90.002 128.479,90.015 157.321 C 90.027 184.359,90.296 190.963,91.470 193.000 C 92.262 194.375,93.998 197.750,95.327 200.500 C 98.329 206.711,106.155 214.643,111.640 217.031 C 113.917 218.023,116.073 219.309,116.432 219.890 C 116.791 220.471,118.978 221.430,121.292 222.021 C 123.606 222.612,127.608 223.975,130.185 225.048 C 136.903 227.847,145.542 227.639,153.000 224.500 C 156.267 223.125,159.819 222.000,160.893 222.000 C 161.968 222.000,164.119 220.967,165.673 219.705 C 167.228 218.443,170.417 216.573,172.761 215.549 L 177.022 213.686 182.348 216.294 C 185.277 217.728,188.252 219.599,188.959 220.451 C 189.666 221.303,191.023 222.000,191.974 222.000 C 192.924 222.000,195.890 223.163,198.563 224.585 C 203.241 227.072,205.648 227.388,217.000 227.007 C 218.375 226.961,222.594 226.983,226.376 227.057 C 231.880 227.163,233.806 226.780,236.026 225.139 C 237.551 224.011,240.082 222.783,241.650 222.410 C 243.217 222.037,245.175 221.158,246.000 220.457 C 248.049 218.715,257.056 214.000,258.333 214.000 C 259.961 214.000,268.288 218.120,270.500 220.020 C 271.600 220.965,273.823 222.051,275.439 222.435 C 277.055 222.819,279.532 223.955,280.943 224.959 C 283.361 226.681,289.012 227.552,295.282 227.170 C 297.137 227.057,298.366 226.250,298.969 224.750 C 299.624 223.120,299.891 222.966,299.937 224.191 C 300.032 226.723,301.778 227.364,308.103 227.190 C 312.073 227.080,315.288 226.259,318.566 224.516 C 321.169 223.132,324.061 222.000,324.994 222.000 C 325.927 222.000,327.494 221.111,328.477 220.026 C 329.460 218.940,331.217 217.756,332.382 217.394 C 333.547 217.033,335.696 215.896,337.158 214.866 C 339.811 212.998,339.827 213.001,346.158 216.460 C 365.269 226.900,377.119 229.399,386.764 225.021 C 389.109 223.956,392.570 222.796,394.456 222.442 C 396.341 222.089,399.347 220.719,401.136 219.400 C 402.925 218.080,404.950 217.000,405.637 217.000 C 408.056 217.000,418.943 205.816,421.526 200.678 C 422.957 197.830,424.768 194.375,425.549 193.000 C 426.716 190.947,426.973 182.777,426.985 147.321 C 426.998 109.389,426.809 103.952,425.429 102.571 C 423.392 100.535,420.603 100.569,418.872 102.652 M179.686 160.174 C 181.678 162.046,182.000 163.324,182.000 169.353 C 182.000 173.633,181.169 179.109,179.864 183.429 C 178.689 187.318,177.554 191.127,177.341 191.893 C 176.767 193.954,175.849 192.570,174.951 188.290 C 174.514 186.205,173.466 182.700,172.622 180.500 C 171.778 178.300,171.068 173.442,171.044 169.705 C 171.006 163.791,171.318 162.591,173.455 160.455 C 176.451 157.459,176.779 157.444,179.686 160.174 M261.686 160.174 C 263.693 162.060,264.000 163.313,264.000 169.609 C 264.000 173.603,263.488 178.137,262.862 179.685 C 262.237 181.233,261.190 184.750,260.537 187.500 C 259.260 192.876,257.691 194.048,257.192 190.000 C 257.023 188.625,256.010 184.911,254.942 181.746 C 252.263 173.810,252.323 164.130,255.073 160.635 C 257.591 157.434,258.687 157.357,261.686 160.174 M343.927 160.635 C 346.543 163.960,346.819 175.132,344.425 180.782 C 343.558 182.827,342.533 186.300,342.147 188.500 C 341.761 190.700,341.020 192.500,340.500 192.500 C 339.980 192.500,339.239 190.700,338.853 188.500 C 338.467 186.300,337.442 182.827,336.575 180.782 C 335.630 178.552,335.000 174.176,335.000 169.847 C 335.000 163.812,335.357 162.249,337.174 160.314 C 339.978 157.330,341.380 157.397,343.927 160.635 M94.000 244.294 C 92.178 245.216,91.500 246.365,91.500 248.530 L 91.500 251.500 258.500 251.500 L 425.500 251.500 425.500 248.530 C 425.500 246.365,424.822 245.216,423.000 244.294 C 421.015 243.290,387.126 243.029,258.500 243.029 C 129.874 243.029,95.985 243.290,94.000 244.294 M91.362 256.499 C 91.044 257.327,91.038 259.016,91.348 260.252 L 91.913 262.500 257.706 262.260 C 348.893 262.128,424.093 261.793,424.817 261.516 C 425.586 261.221,426.002 259.864,425.817 258.256 L 425.500 255.500 258.720 255.247 C 110.983 255.023,91.874 255.166,91.362 256.499 M91.670 265.664 C 91.301 266.032,91.000 267.619,91.000 269.191 C 91.000 271.339,91.637 272.292,93.565 273.025 C 97.127 274.379,419.935 274.355,423.498 273.001 C 425.704 272.162,426.076 271.479,425.813 268.751 L 425.500 265.500 258.920 265.247 C 167.300 265.108,92.038 265.295,91.670 265.664 M132.500 291.608 C 130.300 292.445,126.385 293.728,123.800 294.461 C 121.215 295.193,117.840 296.661,116.300 297.722 C 114.760 298.783,112.017 300.242,110.205 300.965 C 106.352 302.503,96.399 313.273,95.492 316.887 C 95.148 318.257,93.884 320.755,92.684 322.439 C 90.536 325.450,90.495 326.176,90.202 367.000 C 90.038 389.825,90.170 409.959,90.496 411.742 C 91.221 415.717,95.174 417.254,97.835 414.595 C 99.310 413.121,99.557 408.682,100.000 375.716 C 100.428 343.858,100.735 338.068,102.130 335.500 C 103.026 333.850,104.093 330.953,104.500 329.062 C 106.082 321.726,114.873 312.903,126.412 307.071 C 130.831 304.838,132.748 304.504,141.000 304.529 C 149.709 304.555,151.002 304.822,156.532 307.732 C 159.849 309.478,163.662 312.075,165.003 313.504 L 167.443 316.101 165.062 320.589 C 163.546 323.447,162.091 329.009,161.058 335.897 C 159.573 345.796,159.569 347.471,161.012 355.608 C 161.879 360.498,163.122 365.465,163.773 366.645 C 165.339 369.479,169.986 371.000,177.084 371.000 C 187.893 371.000,190.609 368.435,192.128 356.790 C 193.329 347.582,193.333 346.457,192.214 335.355 C 191.572 328.983,190.642 325.157,189.146 322.737 C 184.911 315.884,186.689 312.781,198.399 306.590 C 203.028 304.143,204.109 304.000,218.000 304.000 C 231.885 304.000,232.974 304.144,237.601 306.587 C 240.295 308.010,243.554 310.147,244.842 311.337 C 249.032 315.208,249.255 316.545,246.572 321.726 C 243.069 328.491,241.368 345.002,242.994 356.458 C 244.005 363.582,244.609 365.209,247.137 367.631 C 249.737 370.123,250.968 370.503,257.298 370.772 C 265.648 371.126,268.384 370.034,271.794 364.985 C 274.079 361.602,274.138 360.989,273.824 344.000 C 273.526 327.902,273.320 326.210,271.250 322.882 C 266.939 315.950,268.547 312.834,279.391 307.110 C 285.183 304.052,285.520 304.000,299.500 304.000 C 313.480 304.000,313.817 304.052,319.609 307.110 C 330.263 312.734,332.036 315.970,328.023 322.462 C 326.739 324.540,325.636 329.137,324.874 335.580 C 323.441 347.708,323.442 346.767,324.866 356.453 C 326.748 369.242,329.310 371.422,341.750 370.815 C 348.230 370.499,349.316 370.144,351.973 367.481 C 354.318 365.129,355.194 363.023,356.121 357.500 C 356.768 353.650,357.307 348.700,357.318 346.500 C 357.357 339.107,354.898 325.570,352.940 322.403 C 348.942 315.935,350.796 312.662,361.427 307.422 C 366.742 304.801,368.340 304.502,376.927 304.523 C 385.864 304.544,386.890 304.763,392.368 307.824 C 403.736 314.177,410.844 321.822,412.985 330.000 C 413.633 332.475,414.776 335.458,415.524 336.628 C 416.595 338.301,416.952 346.655,417.193 375.726 C 417.516 414.639,417.680 416.000,422.051 416.000 C 423.044 416.000,424.564 415.293,425.429 414.429 C 426.808 413.049,427.000 407.641,427.000 370.151 L 427.000 327.445 422.939 319.472 C 416.106 306.060,407.446 299.122,390.500 293.485 C 380.474 290.150,376.272 289.542,371.250 290.702 C 365.424 292.048,357.355 294.797,354.000 296.579 C 352.625 297.310,348.960 299.261,345.856 300.915 L 340.211 303.922 334.625 300.896 C 331.552 299.232,328.785 297.462,328.477 296.962 C 328.168 296.463,326.022 295.550,323.708 294.934 C 321.394 294.318,318.687 293.088,317.693 292.201 C 315.355 290.113,303.613 289.246,301.493 291.006 C 300.672 291.687,299.948 293.202,299.884 294.372 C 299.774 296.387,299.743 296.394,299.300 294.500 C 298.547 291.284,295.981 290.000,290.309 290.000 C 286.658 290.000,283.518 290.758,280.251 292.430 C 277.638 293.767,274.375 295.355,273.000 295.959 C 271.625 296.563,267.823 298.642,264.552 300.580 L 258.604 304.103 253.552 301.386 C 250.773 299.892,247.427 297.844,246.115 296.835 C 244.803 295.826,243.003 294.998,242.115 294.995 C 241.227 294.992,238.700 293.881,236.500 292.526 C 230.891 289.071,220.920 288.919,218.434 292.250 C 217.458 293.557,216.986 293.808,217.308 292.849 C 218.558 289.120,206.015 288.879,199.212 292.500 C 196.629 293.875,193.786 295.000,192.893 295.000 C 192.000 295.000,190.072 295.942,188.609 297.093 C 187.145 298.244,183.941 300.253,181.487 301.558 L 177.025 303.930 171.763 301.311 C 168.868 299.870,165.427 297.860,164.115 296.845 C 162.803 295.830,160.877 295.000,159.835 295.000 C 158.793 295.000,155.267 293.875,152.000 292.500 C 145.186 289.632,138.503 289.326,132.500 291.608 M178.000 326.463 C 178.000 327.818,178.900 331.209,180.000 334.000 C 182.538 340.439,182.791 353.426,180.443 356.777 C 178.347 359.770,175.601 359.577,172.970 356.250 C 171.024 353.791,170.841 352.602,171.239 345.000 C 171.485 340.284,172.394 334.942,173.280 333.000 C 174.159 331.075,175.139 328.262,175.458 326.750 C 176.179 323.333,178.000 323.127,178.000 326.463 M260.000 326.463 C 260.000 327.818,260.900 331.209,262.000 334.000 C 264.538 340.439,264.791 353.426,262.443 356.777 C 260.467 359.599,257.648 359.612,255.039 356.811 C 252.168 353.730,252.158 340.453,255.022 334.141 C 256.110 331.743,257.000 328.781,257.000 327.557 C 257.000 326.334,257.300 325.033,257.667 324.667 C 259.020 323.313,260.000 324.068,260.000 326.463 M342.000 326.343 C 342.000 327.632,342.900 331.303,344.000 334.500 C 346.787 342.600,346.767 353.799,343.961 356.811 C 341.352 359.612,338.533 359.599,336.557 356.777 C 334.180 353.385,334.495 341.018,337.161 333.000 C 338.350 329.425,339.461 325.938,339.630 325.250 C 340.168 323.062,342.000 323.907,342.000 326.343 " stroke="none" fill="undefined" fill-rule="evenodd"/></svg>