<svg id="svg" version="1.1" width="512" height="512" xmlns="http://www.w3.org/2000/svg"><path d="M326.750 39.080 C 325.179 39.995,325.000 42.075,325.000 59.427 C 325.000 75.200,324.730 78.979,323.532 79.973 C 321.885 81.340,311.616 80.055,302.500 77.340 C 295.953 75.391,262.529 74.410,251.000 75.829 C 235.470 77.740,218.381 81.928,209.223 86.067 C 206.871 87.130,204.476 88.000,203.901 88.000 C 201.894 88.000,181.431 98.727,172.893 104.255 C 138.697 126.395,112.362 161.692,99.591 202.500 C 98.214 206.900,96.796 212.525,96.440 215.000 C 96.084 217.475,95.204 221.975,94.486 225.000 C 93.767 228.025,92.866 234.550,92.482 239.500 C 92.099 244.450,91.271 248.831,90.643 249.235 C 90.014 249.639,82.833 249.976,74.684 249.985 C 59.304 250.001,56.000 250.711,56.000 254.000 C 56.000 257.325,59.286 258.000,75.466 258.000 C 87.044 258.000,91.175 258.322,91.499 259.250 C 91.739 259.938,92.365 265.000,92.891 270.500 C 99.813 342.969,150.087 404.442,219.500 425.310 C 239.880 431.437,247.818 432.505,272.500 432.437 C 292.655 432.383,296.489 432.112,303.500 430.248 C 311.110 428.225,323.776 426.311,324.198 427.121 C 324.306 427.329,324.644 436.725,324.948 448.000 L 325.500 468.500 328.310 468.822 C 333.791 469.451,334.000 468.628,334.000 446.443 C 334.000 425.720,334.617 421.410,337.735 420.348 C 347.857 416.900,372.699 402.415,383.404 393.720 C 401.797 378.780,420.501 355.970,429.956 336.948 C 431.719 333.401,433.528 329.793,433.977 328.929 C 437.518 322.114,443.649 303.587,447.192 289.000 C 449.288 280.374,449.500 277.199,449.500 254.500 C 449.500 231.966,449.273 228.513,447.197 219.500 C 439.564 186.350,427.683 161.805,407.748 138.000 C 399.138 127.719,395.168 123.815,384.718 115.355 C 371.575 104.714,352.555 93.291,339.212 88.024 C 337.403 87.310,335.491 85.917,334.962 84.929 C 334.433 83.940,334.000 73.684,334.000 62.137 C 334.000 44.385,333.757 40.900,332.429 39.571 C 330.621 37.764,329.219 37.642,326.750 39.080 M299.316 86.350 C 306.342 87.369,311.327 88.657,313.544 90.027 C 316.846 92.068,316.905 92.215,315.374 94.552 C 312.971 98.220,265.735 141.285,263.556 141.795 C 262.863 141.957,260.387 140.494,258.054 138.545 C 251.634 133.181,245.431 133.878,242.553 140.286 C 241.759 142.054,240.430 144.625,239.600 146.000 C 238.770 147.375,234.409 154.747,229.909 162.383 C 220.684 178.038,220.236 178.160,219.262 165.287 C 218.605 156.595,216.908 153.913,212.588 154.739 C 206.971 155.812,207.000 155.558,207.000 203.523 C 207.000 236.472,206.697 247.903,205.800 248.800 C 204.899 249.701,192.225 250.000,154.911 250.000 C 109.033 250.000,105.065 249.866,103.177 248.250 C 101.169 246.532,101.159 246.273,102.598 234.000 C 103.404 227.125,104.950 218.543,106.032 214.929 C 107.114 211.315,108.000 207.573,108.000 206.614 C 108.000 204.994,108.785 202.835,114.218 189.500 C 126.687 158.900,148.374 132.215,175.967 113.517 C 191.938 102.694,207.107 95.615,224.146 91.033 C 227.802 90.051,231.333 88.912,231.993 88.504 C 232.653 88.096,238.887 86.952,245.847 85.960 C 260.929 83.813,282.922 83.973,299.316 86.350 M338.667 98.046 C 380.398 115.713,415.998 153.573,430.864 196.095 C 443.647 232.658,444.641 264.701,434.136 301.500 C 431.695 310.050,429.531 316.148,426.954 321.739 C 425.879 324.071,425.000 326.170,425.000 326.406 C 425.000 327.367,414.098 345.932,410.167 351.666 C 399.269 367.560,381.875 384.255,364.000 395.976 C 352.764 403.343,335.292 412.000,331.658 412.000 C 328.942 412.000,320.893 405.323,301.520 387.000 C 295.995 381.775,284.765 371.425,276.563 364.000 C 236.789 327.994,220.042 311.743,219.472 308.600 C 219.163 306.895,219.043 281.325,219.205 251.777 C 219.492 199.576,219.557 197.999,221.500 196.096 C 223.359 194.276,243.476 183.949,264.500 174.023 C 269.450 171.686,274.512 168.846,275.750 167.712 C 279.095 164.648,278.648 160.723,274.420 156.043 C 271.813 153.158,271.015 151.527,271.485 150.047 C 272.106 148.089,295.314 126.024,318.077 105.750 C 330.096 95.044,330.882 94.750,338.667 98.046 M257.542 152.250 C 263.749 159.143,265.510 161.897,264.399 162.972 C 263.090 164.237,247.050 172.429,242.977 173.912 C 241.064 174.609,238.297 175.547,236.827 175.997 L 234.154 176.816 235.452 173.158 C 237.974 166.055,249.719 147.000,251.576 147.000 C 252.257 147.000,254.942 149.363,257.542 152.250 M205.800 259.200 C 206.697 260.097,207.000 271.528,207.000 304.477 C 207.000 353.580,206.924 353.000,213.388 353.000 C 217.814 353.000,218.765 350.725,219.285 338.892 C 219.517 333.608,220.028 328.764,220.421 328.129 C 221.609 326.206,232.035 335.116,263.500 364.942 C 267.350 368.592,277.243 377.635,285.485 385.039 C 293.726 392.442,304.301 402.231,308.985 406.791 L 317.500 415.081 313.560 417.493 C 311.318 418.864,307.223 420.174,304.060 420.530 C 301.002 420.875,294.675 421.795,290.000 422.575 C 271.823 425.608,248.513 423.643,224.500 417.054 C 207.124 412.287,195.780 406.989,177.636 395.171 C 153.336 379.342,131.107 354.387,119.139 329.500 C 115.475 321.881,109.307 306.192,108.484 302.400 C 108.138 300.805,107.007 296.575,105.970 293.000 C 104.934 289.425,103.402 280.650,102.567 273.500 C 101.161 261.462,101.172 260.407,102.716 259.250 C 105.080 257.477,204.029 257.429,205.800 259.200 " stroke="none" fill="undefined" fill-rule="evenodd"/></svg>