<svg id="svg" version="1.1" width="512" height="512" xmlns="http://www.w3.org/2000/svg"><path d="M326.750 39.080 C 325.179 39.995,325.000 42.075,325.000 59.427 C 325.000 75.244,324.732 78.978,323.525 79.980 C 322.355 80.950,320.125 80.874,312.775 79.614 C 307.674 78.739,301.925 77.533,300.000 76.934 C 294.946 75.360,261.053 74.598,251.000 75.832 C 214.655 80.293,182.132 94.612,154.147 118.472 C 142.039 128.796,132.571 139.604,122.588 154.500 C 105.272 180.336,95.936 206.491,92.784 238.000 C 92.207 243.775,91.231 248.831,90.617 249.235 C 90.003 249.639,82.833 249.976,74.684 249.985 C 59.304 250.001,56.000 250.711,56.000 254.000 C 56.000 257.325,59.286 258.000,75.466 258.000 C 87.044 258.000,91.175 258.322,91.499 259.250 C 91.739 259.938,92.365 265.000,92.891 270.500 C 99.817 343.016,150.043 404.429,219.500 425.310 C 239.880 431.437,247.818 432.505,272.500 432.437 C 292.655 432.383,296.489 432.112,303.500 430.248 C 311.097 428.228,323.797 426.308,324.177 427.121 C 324.274 427.329,324.612 436.725,324.927 448.000 L 325.500 468.500 328.310 468.822 C 333.791 469.451,334.000 468.628,334.000 446.443 C 334.000 425.713,334.619 421.390,337.735 420.372 C 347.418 417.210,372.520 402.561,383.404 393.720 C 401.797 378.780,420.501 355.970,429.956 336.948 C 431.719 333.401,433.528 329.793,433.977 328.929 C 437.518 322.114,443.649 303.587,447.192 289.000 C 449.288 280.374,449.500 277.199,449.500 254.500 C 449.500 231.966,449.273 228.513,447.197 219.500 C 439.521 186.163,427.723 161.784,407.758 138.000 C 398.759 127.279,393.992 122.683,382.500 113.646 C 369.152 103.150,352.374 93.219,339.212 88.024 C 337.403 87.310,335.491 85.917,334.962 84.929 C 334.433 83.940,334.000 73.684,334.000 62.137 C 334.000 44.385,333.757 40.900,332.429 39.571 C 330.621 37.764,329.219 37.642,326.750 39.080 M299.221 86.315 C 306.466 87.319,311.087 88.509,313.478 89.986 L 317.014 92.172 314.973 95.037 C 313.851 96.614,306.085 104.081,297.716 111.632 C 289.347 119.184,271.475 135.577,258.000 148.062 C 228.264 175.613,221.391 181.442,220.446 179.913 C 220.060 179.289,219.465 173.900,219.122 167.939 C 218.780 161.977,217.994 156.594,217.376 155.976 C 215.150 153.750,211.037 154.138,208.967 156.769 C 207.078 159.170,207.000 161.029,207.000 203.512 C 207.000 239.985,206.757 247.957,205.615 248.904 C 203.801 250.410,103.608 250.010,102.090 248.491 C 100.707 247.106,103.487 223.447,106.035 214.929 C 107.116 211.315,108.000 207.573,108.000 206.614 C 108.000 204.994,108.785 202.835,114.218 189.500 C 126.687 158.900,148.374 132.215,175.967 113.517 C 191.938 102.694,207.107 95.615,224.146 91.033 C 227.802 90.051,231.333 88.912,231.993 88.504 C 232.653 88.096,238.887 86.952,245.847 85.960 C 260.684 83.847,282.451 83.992,299.221 86.315 M338.667 98.046 C 380.398 115.713,415.998 153.573,430.864 196.095 C 443.647 232.658,444.641 264.701,434.136 301.500 C 431.695 310.050,429.531 316.148,426.954 321.739 C 425.879 324.071,425.000 326.170,425.000 326.406 C 425.000 327.367,414.098 345.932,410.167 351.666 C 399.269 367.560,381.875 384.255,364.000 395.976 C 354.311 402.329,335.440 412.000,332.731 412.000 C 330.846 412.000,325.404 405.871,321.567 399.426 C 306.956 374.886,298.584 361.218,297.264 359.750 C 294.572 356.757,289.293 357.502,284.868 361.500 C 282.738 363.425,280.329 365.000,279.515 365.000 C 277.775 365.000,265.794 354.489,239.268 329.691 C 224.191 315.595,219.915 311.041,219.474 308.606 C 219.164 306.898,219.043 281.031,219.205 251.125 L 219.500 196.750 231.000 185.849 C 237.325 179.854,249.025 169.000,257.000 161.729 C 264.975 154.458,279.992 140.632,290.371 131.005 C 320.587 102.977,328.773 96.000,331.441 96.000 C 332.757 96.000,336.009 96.921,338.667 98.046 M205.800 259.200 C 206.697 260.097,207.000 271.528,207.000 304.477 C 207.000 353.580,206.924 353.000,213.388 353.000 C 217.814 353.000,218.765 350.725,219.285 338.892 C 219.517 333.608,220.028 328.764,220.421 328.129 C 221.616 326.194,231.098 334.303,263.750 365.187 C 267.738 368.959,270.996 372.597,270.990 373.272 C 270.985 373.948,269.410 376.476,267.490 378.891 C 265.571 381.306,264.000 384.140,264.000 385.188 C 264.000 388.601,269.168 392.039,289.464 402.129 C 300.444 407.588,310.464 413.027,311.730 414.216 L 314.031 416.378 311.266 418.128 C 307.572 420.467,283.226 423.988,270.705 423.995 C 251.021 424.005,222.141 418.006,205.000 410.347 C 194.474 405.643,189.293 402.759,177.511 395.049 C 153.075 379.057,130.960 354.215,119.160 329.500 C 115.178 321.161,109.218 306.101,108.475 302.500 C 108.134 300.850,107.007 296.575,105.970 293.000 C 104.934 289.425,103.402 280.650,102.567 273.500 C 101.161 261.462,101.172 260.407,102.716 259.250 C 105.080 257.477,204.029 257.429,205.800 259.200 M293.840 372.330 C 296.089 374.723,309.000 396.753,309.000 398.196 C 309.000 398.638,307.988 398.998,306.750 398.995 C 303.874 398.989,277.696 385.916,277.199 384.238 C 276.837 383.015,289.350 370.000,290.888 370.000 C 291.308 370.000,292.636 371.049,293.840 372.330 " stroke="none" fill="undefined" fill-rule="evenodd"/></svg>