<svg id="svg" version="1.1" width="512" height="512" xmlns="http://www.w3.org/2000/svg"><path d="M336.655 42.829 C 335.231 44.402,335.000 47.447,335.000 64.612 L 335.000 84.566 327.750 83.687 C 323.762 83.204,318.097 81.952,315.161 80.904 C 310.380 79.199,306.802 79.000,280.915 79.000 C 255.131 79.000,251.386 79.206,246.254 80.911 C 243.089 81.962,238.072 83.111,235.105 83.465 C 232.138 83.818,227.993 84.983,225.895 86.054 C 223.796 87.124,221.049 88.015,219.790 88.034 C 218.530 88.053,215.700 88.937,213.500 90.000 C 211.300 91.063,209.135 91.947,208.688 91.966 C 207.673 92.008,198.133 96.331,191.500 99.754 C 181.907 104.705,169.224 112.693,162.410 118.077 C 148.910 128.743,126.389 152.904,122.293 161.115 C 121.414 162.877,119.032 166.834,116.999 169.909 C 112.779 176.292,105.000 192.280,105.000 194.569 C 105.000 195.411,104.275 197.502,103.388 199.216 C 102.502 200.930,101.246 204.170,100.596 206.416 L 99.416 210.500 78.358 211.000 C 57.076 211.505,54.000 212.074,54.000 215.500 C 54.000 218.862,57.154 219.496,76.400 220.000 L 95.500 220.500 95.821 225.000 C 96.007 227.615,95.232 232.563,93.971 236.813 C 92.024 243.374,91.845 245.843,92.229 260.813 C 92.555 273.544,93.053 278.381,94.328 281.218 C 95.256 283.280,96.010 287.511,96.022 290.718 C 96.035 294.133,96.790 298.141,97.866 300.510 C 98.868 302.716,100.020 306.295,100.427 308.464 C 100.834 310.632,102.029 314.097,103.083 316.164 C 104.138 318.230,105.000 320.571,105.000 321.366 C 105.000 322.161,107.109 327.388,109.686 332.982 C 113.562 341.392,114.124 343.309,112.936 344.060 C 112.146 344.560,99.307 344.976,84.405 344.985 C 59.437 344.999,57.180 345.144,55.655 346.829 C 53.484 349.228,53.555 352.287,55.829 354.345 C 57.450 355.813,61.288 356.000,89.707 356.000 L 121.756 356.000 127.145 362.250 C 130.109 365.688,134.209 370.594,136.256 373.154 C 140.545 378.519,152.325 390.161,156.000 392.668 C 157.375 393.606,160.750 396.373,163.500 398.817 C 166.250 401.261,170.883 404.665,173.796 406.380 C 176.710 408.096,181.210 410.748,183.796 412.273 C 199.058 421.271,225.547 431.632,237.000 433.084 C 240.025 433.467,244.300 434.486,246.500 435.347 C 252.509 437.698,309.343 437.741,314.782 435.398 C 316.827 434.517,321.425 433.440,325.000 433.005 C 328.575 432.569,332.288 431.892,333.250 431.499 C 334.883 430.834,335.000 432.155,335.000 451.238 C 335.000 469.782,335.171 471.844,336.829 473.345 C 338.960 475.274,344.067 475.533,345.800 473.800 C 346.651 472.949,347.029 466.471,347.100 451.550 C 347.155 439.972,347.504 429.408,347.877 428.074 C 348.298 426.568,349.682 425.290,351.528 424.703 C 356.727 423.048,374.248 414.462,381.500 410.014 C 409.393 392.908,432.541 368.371,448.258 339.254 C 451.977 332.364,453.233 329.448,458.485 315.500 C 459.728 312.200,461.252 308.233,461.872 306.685 C 462.493 305.137,463.000 302.373,463.000 300.544 C 463.000 298.715,463.890 295.257,464.978 292.859 C 466.804 288.836,466.958 286.227,466.978 259.000 C 466.998 232.473,466.805 228.895,465.057 223.500 C 463.988 220.200,462.680 215.250,462.151 212.500 C 461.236 207.743,459.470 202.684,453.597 187.998 C 450.750 180.878,442.324 166.271,434.500 154.892 C 424.810 140.799,404.338 121.197,388.500 110.846 C 375.688 102.473,362.164 95.292,353.121 92.060 L 348.500 90.409 347.817 67.138 C 347.359 51.553,346.741 43.393,345.944 42.433 C 344.255 40.398,338.638 40.637,336.655 42.829 M288.148 89.079 C 289.257 89.673,296.315 90.591,303.832 91.120 C 313.354 91.790,318.921 92.676,322.185 94.041 C 324.762 95.118,328.137 96.007,329.685 96.015 C 335.224 96.045,335.045 94.653,334.762 135.567 L 334.500 173.500 292.616 173.761 C 262.527 173.949,250.347 173.703,249.366 172.889 C 248.521 172.188,248.000 169.703,248.000 166.378 C 248.000 162.333,247.504 160.504,246.000 159.000 C 243.655 156.655,238.276 156.346,235.472 158.397 C 233.615 159.755,233.561 162.500,233.531 257.531 C 233.506 336.404,233.752 355.629,234.807 357.134 C 236.335 359.316,244.813 359.787,246.800 357.800 C 247.460 357.140,248.000 354.022,248.000 350.871 C 248.000 341.424,245.152 342.000,291.871 342.000 C 322.216 342.000,332.906 342.306,333.800 343.200 C 334.690 344.090,334.996 353.838,334.985 380.950 C 334.976 401.052,334.639 418.019,334.235 418.653 C 333.831 419.288,331.025 420.266,328.000 420.828 C 324.975 421.389,321.150 422.555,319.500 423.418 C 317.458 424.487,313.627 425.009,307.500 425.053 C 302.550 425.090,296.250 425.605,293.500 426.200 C 286.774 427.653,274.837 427.653,267.500 426.200 C 264.200 425.546,257.675 425.006,253.000 425.000 C 247.250 424.992,243.530 424.481,241.500 423.422 C 239.850 422.561,236.250 421.432,233.500 420.913 C 230.750 420.394,226.250 419.097,223.500 418.030 C 220.750 416.963,215.575 414.974,212.000 413.610 C 199.673 408.909,190.439 403.938,175.000 393.692 C 167.674 388.830,137.000 359.253,137.000 357.051 C 137.000 356.332,151.389 356.000,182.566 356.000 C 212.063 356.000,228.814 355.635,230.066 354.965 C 231.900 353.983,232.000 352.618,232.000 328.530 C 232.000 314.447,231.565 301.987,231.025 300.565 C 230.364 298.827,229.300 298.000,227.725 298.000 C 223.255 298.000,223.000 299.211,223.000 320.477 C 223.000 337.031,222.727 340.945,221.443 342.777 L 219.887 345.000 175.878 345.000 C 147.241 345.000,131.188 344.636,129.920 343.957 C 126.722 342.246,119.400 329.962,116.534 321.500 C 115.788 319.300,113.790 313.684,112.093 309.019 C 110.396 304.354,108.708 298.279,108.342 295.519 C 107.976 292.759,106.860 288.700,105.861 286.500 C 104.268 282.993,104.041 279.522,104.022 258.339 C 104.002 235.960,104.160 233.747,106.174 228.339 C 107.370 225.128,108.766 221.948,109.277 221.273 C 109.989 220.333,124.132 219.982,169.684 219.773 C 227.240 219.509,229.208 219.437,230.581 217.559 C 231.712 216.012,232.000 210.810,232.000 191.958 C 232.000 166.237,231.367 162.000,227.525 162.000 C 226.271 162.000,224.748 162.598,224.142 163.329 C 223.427 164.191,222.944 172.724,222.769 187.579 L 222.500 210.500 167.121 210.759 L 111.742 211.017 112.397 206.917 C 112.758 204.662,113.941 201.076,115.026 198.948 C 116.112 196.820,117.002 194.499,117.004 193.790 C 117.013 191.129,124.454 177.863,133.432 164.500 C 141.538 152.436,164.545 129.433,176.000 121.940 C 186.984 114.754,195.374 109.813,201.000 107.216 C 211.521 102.360,217.344 99.998,218.871 99.966 C 219.767 99.947,222.300 99.063,224.500 98.000 C 226.700 96.937,229.511 96.053,230.746 96.034 C 231.981 96.015,235.581 95.106,238.746 94.012 C 242.355 92.766,249.346 91.676,257.500 91.090 C 264.650 90.577,271.625 89.699,273.000 89.141 C 276.360 87.778,285.645 87.740,288.148 89.079 M364.500 109.581 C 376.355 115.786,382.358 119.727,395.000 129.609 C 407.318 139.237,410.993 142.982,421.605 156.722 C 429.848 167.395,434.918 175.064,439.308 183.500 C 444.384 193.256,449.534 206.474,450.604 212.490 C 450.994 214.684,452.132 218.284,453.134 220.490 C 454.352 223.171,454.963 226.912,454.978 231.775 C 454.992 236.436,455.719 241.095,457.000 244.740 C 459.508 251.877,459.687 263.897,457.377 270.124 C 456.484 272.531,455.424 278.795,455.021 284.045 C 454.618 289.295,453.582 295.145,452.719 297.045 C 451.855 298.945,450.852 302.075,450.489 304.000 C 448.864 312.618,440.597 331.495,433.478 342.842 C 429.105 349.812,412.734 371.175,408.587 375.322 C 404.019 379.890,386.035 394.000,380.667 397.227 C 377.825 398.936,374.825 400.891,374.000 401.571 C 371.801 403.385,357.173 410.608,352.305 412.284 C 348.646 413.543,348.039 413.543,347.555 412.282 C 347.250 411.487,346.993 376.336,346.985 334.168 C 346.976 292.001,346.639 256.981,346.235 256.346 C 345.388 255.017,335.516 251.318,329.198 249.964 C 326.833 249.456,323.920 248.357,322.726 247.521 C 321.532 246.684,319.501 246.000,318.213 246.000 C 316.925 246.000,313.762 245.111,311.185 244.025 C 308.608 242.939,304.700 241.619,302.500 241.093 C 300.300 240.566,296.475 239.460,294.000 238.635 C 277.881 233.262,277.241 233.175,273.861 235.909 C 271.844 237.540,271.427 238.959,271.000 245.659 L 270.500 253.500 261.000 253.793 C 255.775 253.954,250.501 253.837,249.281 253.532 L 247.062 252.977 247.449 219.904 C 247.662 201.714,248.070 186.597,248.356 186.311 C 248.641 186.025,270.086 185.680,296.011 185.544 C 342.943 185.298,343.156 185.288,345.324 183.119 C 347.481 180.960,347.500 180.604,347.534 143.220 C 347.552 122.474,347.665 104.765,347.784 103.867 C 347.976 102.417,348.420 102.382,351.750 103.553 C 353.813 104.278,359.550 106.991,364.500 109.581 M291.360 249.087 C 294.033 249.542,297.264 250.598,298.540 251.434 C 299.815 252.270,302.803 253.250,305.180 253.612 C 307.556 253.973,310.625 254.857,312.000 255.575 C 313.375 256.293,316.300 257.206,318.500 257.605 L 322.500 258.331 317.692 259.091 C 315.048 259.509,312.326 260.315,311.643 260.881 C 310.960 261.448,308.398 262.210,305.950 262.574 C 303.503 262.938,300.485 263.870,299.244 264.645 C 298.003 265.420,294.628 266.500,291.744 267.044 C 288.860 267.588,285.712 268.282,284.750 268.584 C 283.155 269.086,283.000 268.146,283.000 257.960 C 283.000 247.704,283.144 246.847,284.750 247.523 C 285.712 247.929,288.687 248.633,291.360 249.087 M269.418 262.607 C 270.650 263.080,271.000 264.748,271.000 270.152 C 271.000 276.262,271.306 277.397,273.557 279.648 C 275.565 281.656,276.800 282.095,279.307 281.692 C 282.256 281.217,291.328 278.618,298.500 276.194 C 300.150 275.636,304.875 274.183,309.000 272.966 C 313.125 271.748,319.462 269.641,323.082 268.284 C 326.703 266.927,330.753 265.971,332.082 266.158 L 334.500 266.500 334.765 297.932 C 334.971 322.413,334.749 329.542,333.765 330.167 C 332.181 331.172,249.865 331.238,248.500 330.235 C 246.923 329.076,246.698 263.810,248.268 262.813 C 249.717 261.893,267.114 261.723,269.418 262.607 " stroke="none" fill="undefined" fill-rule="evenodd"/></svg>