<svg id="svg" version="1.1" width="512" height="512" xmlns="http://www.w3.org/2000/svg"><path d="M319.241 38.986 C 318.360 40.396,318.000 46.813,318.000 61.093 C 318.000 79.861,317.882 81.166,316.250 80.501 C 315.288 80.108,311.575 79.428,308.000 78.990 C 304.425 78.551,299.531 77.474,297.124 76.596 C 290.737 74.266,235.479 74.313,229.500 76.653 C 227.300 77.514,223.025 78.536,220.000 78.923 C 214.854 79.582,209.020 81.240,199.500 84.749 C 197.300 85.560,193.700 86.877,191.500 87.676 C 185.483 89.862,168.094 98.516,162.465 102.128 C 152.303 108.647,147.419 112.079,144.500 114.753 C 142.850 116.264,139.925 118.689,138.000 120.142 C 129.546 126.524,109.487 148.779,106.000 155.646 C 105.203 157.216,103.550 159.744,102.328 161.264 C 99.305 165.023,88.001 188.123,87.996 190.549 C 87.994 191.622,87.164 193.859,86.151 195.520 C 85.138 197.181,84.002 200.176,83.627 202.174 C 83.252 204.172,82.246 206.075,81.391 206.403 C 80.536 206.732,71.198 207.000,60.641 207.000 C 44.886 207.000,41.047 207.279,39.223 208.557 C 36.545 210.432,36.414 211.834,38.750 213.608 C 40.040 214.587,44.968 214.948,57.500 214.982 C 66.850 215.007,75.512 215.299,76.750 215.630 C 78.732 216.161,79.000 216.878,79.000 221.649 C 79.000 224.627,78.249 228.737,77.331 230.782 C 74.725 236.590,74.210 264.510,76.552 273.088 C 77.514 276.614,78.604 282.875,78.973 287.000 C 79.342 291.125,80.339 295.850,81.188 297.500 C 82.038 299.150,83.055 302.279,83.450 304.453 C 83.844 306.628,85.029 310.097,86.083 312.164 C 87.138 314.230,88.000 316.601,88.000 317.432 C 88.000 318.264,90.025 323.220,92.500 328.446 C 94.975 333.673,97.000 338.362,97.000 338.867 C 97.000 340.737,93.237 341.000,66.453 341.000 C 40.404 341.000,39.020 341.094,38.035 342.934 C 36.388 346.012,36.823 348.763,39.223 350.443 C 41.121 351.773,46.080 352.000,73.223 352.000 C 109.288 352.000,104.847 350.907,113.500 361.912 C 129.733 382.559,151.354 400.390,174.500 412.222 C 181.964 416.037,190.599 420.000,191.449 420.000 C 191.861 420.000,193.616 420.672,195.349 421.493 C 197.082 422.315,200.750 423.623,203.500 424.401 C 206.250 425.179,210.300 426.512,212.500 427.364 C 214.700 428.215,218.091 428.932,220.035 428.956 C 221.979 428.980,226.130 429.900,229.260 431.000 C 234.439 432.820,237.513 433.000,263.471 433.000 C 288.685 433.000,292.659 432.782,297.746 431.119 C 300.911 430.084,306.762 428.832,310.750 428.336 L 318.000 427.434 318.000 447.562 C 318.000 465.792,318.172 467.846,319.829 469.345 C 321.912 471.230,325.234 471.480,328.066 469.965 C 329.890 468.989,330.000 467.652,330.000 446.465 C 330.000 425.333,330.119 423.881,332.000 422.000 C 333.100 420.900,334.684 420.000,335.521 420.000 C 336.358 420.000,341.870 417.618,347.771 414.706 C 359.386 408.976,361.268 407.926,367.433 403.736 C 369.670 402.216,374.650 398.869,378.500 396.298 C 382.350 393.727,391.581 385.521,399.013 378.062 C 417.257 359.752,429.667 341.153,438.754 318.500 C 443.943 305.564,445.192 301.731,445.981 296.322 C 446.449 293.120,447.544 288.827,448.416 286.782 C 449.740 283.675,450.000 278.298,450.000 254.070 C 450.000 228.090,449.802 224.525,448.098 219.788 C 447.051 216.879,445.969 212.587,445.692 210.248 C 444.726 202.071,434.524 177.639,427.045 165.590 C 415.380 146.797,407.314 136.879,391.659 122.077 C 379.898 110.958,347.795 91.403,334.528 87.276 C 332.671 86.699,331.301 85.441,330.877 83.926 C 330.504 82.592,330.155 72.028,330.100 60.450 C 330.029 45.529,329.651 39.051,328.800 38.200 C 326.809 36.209,320.659 36.715,319.241 38.986 M277.500 85.909 C 280.250 86.444,286.325 86.910,291.000 86.947 C 296.658 86.990,300.503 87.536,302.500 88.578 C 304.150 89.439,307.705 90.563,310.401 91.075 C 313.096 91.587,315.909 92.509,316.651 93.125 C 317.738 94.027,318.000 101.301,318.000 130.541 C 318.000 150.503,317.727 167.548,317.393 168.418 C 316.853 169.826,312.203 169.998,275.143 169.985 C 252.038 169.976,232.863 169.566,232.070 169.064 C 231.161 168.489,230.487 165.852,230.222 161.829 C 229.754 154.734,228.434 153.000,223.500 153.000 C 217.426 153.000,216.581 154.591,217.066 165.120 C 217.539 175.413,217.478 183.622,216.470 245.000 C 216.020 272.399,216.163 291.087,216.889 300.000 C 217.578 308.448,217.711 320.567,217.245 332.387 C 216.385 354.199,216.596 355.000,223.228 355.000 C 229.390 355.000,231.000 353.004,231.000 345.364 C 231.000 339.633,231.211 338.987,233.250 338.491 C 234.488 338.190,253.950 338.069,276.500 338.222 L 317.500 338.500 317.762 376.433 C 318.044 417.253,318.208 415.954,312.787 415.985 C 311.295 415.993,307.851 416.876,305.133 417.948 C 302.025 419.172,296.353 420.137,289.846 420.547 C 284.156 420.906,276.660 421.829,273.188 422.600 C 265.665 424.269,260.727 424.371,255.993 422.955 C 254.072 422.381,246.875 421.472,240.000 420.935 C 232.570 420.355,225.166 419.157,221.746 417.980 C 218.581 416.891,215.203 416.000,214.238 416.000 C 212.719 416.000,206.894 414.032,191.869 408.443 C 184.685 405.770,168.713 396.853,156.863 388.899 C 153.363 386.549,143.306 377.399,134.513 368.564 L 118.526 352.500 165.513 352.000 C 191.356 351.725,213.076 351.127,213.780 350.672 C 214.770 350.033,215.039 344.089,214.967 324.536 C 214.915 310.616,214.620 298.262,214.311 297.082 C 213.535 294.112,210.531 292.645,208.000 294.000 C 206.099 295.018,206.000 296.094,206.000 315.844 C 206.000 332.202,205.698 337.030,204.581 338.559 C 203.220 340.421,201.397 340.511,159.726 340.780 C 133.638 340.949,115.280 340.677,113.762 340.100 C 110.041 338.685,102.911 327.137,99.191 316.500 C 98.614 314.850,96.780 309.734,95.115 305.131 C 93.449 300.528,91.789 294.678,91.425 292.131 C 91.062 289.584,89.902 285.456,88.848 282.958 C 87.096 278.802,86.961 276.249,87.271 252.958 C 87.576 230.036,87.817 226.965,89.692 222.129 C 90.838 219.174,92.388 216.369,93.137 215.894 C 93.887 215.419,120.742 215.024,152.816 215.015 C 191.073 215.005,211.797 214.644,213.066 213.965 C 214.895 212.986,215.000 211.641,214.994 189.215 C 214.988 162.995,214.281 158.000,210.575 158.000 C 209.294 158.000,207.748 158.598,207.142 159.329 C 206.427 160.191,205.944 168.724,205.769 183.579 L 205.500 206.500 149.680 206.758 L 93.860 207.017 94.477 204.758 C 97.917 192.169,105.479 176.643,115.507 161.585 C 121.322 152.853,126.225 147.151,136.782 136.841 C 147.827 126.054,165.278 112.000,167.628 112.000 C 167.885 112.000,170.471 110.481,173.374 108.624 C 179.028 105.007,184.643 102.351,195.000 98.394 C 198.575 97.028,203.750 95.037,206.500 93.970 C 209.250 92.903,213.750 91.602,216.500 91.079 C 219.250 90.556,223.075 89.482,225.000 88.693 C 226.925 87.903,233.675 86.992,240.000 86.668 C 246.325 86.344,252.850 85.623,254.500 85.067 C 257.799 83.954,269.674 84.389,277.500 85.909 M346.829 104.854 C 357.627 110.298,364.779 114.973,377.000 124.576 C 392.748 136.949,402.246 147.554,414.995 166.993 C 423.489 179.947,430.751 195.942,433.037 206.736 C 433.531 209.066,434.621 212.301,435.461 213.924 C 436.300 215.547,437.419 221.516,437.947 227.188 C 438.474 232.859,439.602 239.709,440.453 242.409 C 442.431 248.686,442.431 258.314,440.453 264.591 C 439.602 267.291,438.474 274.141,437.947 279.812 C 437.419 285.484,436.353 291.350,435.579 292.847 C 434.805 294.344,433.881 297.354,433.525 299.535 C 433.169 301.716,431.953 305.750,430.822 308.500 C 429.691 311.250,427.968 315.525,426.994 318.000 C 423.633 326.535,423.629 326.544,414.535 341.594 C 410.817 347.748,394.382 368.446,389.876 372.649 C 385.006 377.192,367.355 390.799,361.500 394.525 C 355.883 398.098,340.420 406.120,334.825 408.362 C 331.574 409.665,331.084 409.662,330.575 408.336 C 330.259 407.511,330.000 372.255,330.000 329.990 C 330.000 261.462,329.830 252.973,328.429 251.571 C 327.139 250.282,324.131 249.998,311.679 249.986 C 291.203 249.968,292.000 250.284,292.000 242.188 C 292.000 236.411,291.673 235.268,289.313 232.805 C 286.544 229.915,281.423 228.977,279.409 230.991 C 278.864 231.536,276.411 232.402,273.959 232.916 C 271.506 233.429,267.250 234.616,264.500 235.554 C 261.750 236.492,257.250 238.030,254.500 238.972 C 240.556 243.749,235.277 245.196,233.000 244.864 L 230.500 244.500 230.235 214.120 C 230.047 192.538,230.300 183.344,231.108 182.370 C 232.041 181.246,240.644 181.000,279.122 181.000 C 324.667 181.000,326.057 180.943,328.000 179.000 C 329.931 177.069,330.000 175.667,330.000 138.167 C 330.000 116.808,330.266 99.068,330.590 98.743 C 331.431 97.902,337.784 100.293,346.829 104.854 M280.000 254.026 L 280.000 266.051 277.050 264.526 C 275.427 263.687,273.094 263.000,271.865 263.000 C 270.637 263.000,267.802 262.135,265.566 261.078 C 261.310 259.067,251.801 256.232,246.241 255.316 C 242.008 254.619,241.023 253.000,244.832 253.000 C 246.454 253.000,249.743 252.110,252.141 251.022 C 254.538 249.934,257.400 249.019,258.500 248.988 C 259.600 248.957,262.300 248.063,264.500 247.000 C 266.700 245.937,269.625 245.046,271.000 245.019 C 272.375 244.992,274.625 244.346,276.000 243.583 C 277.375 242.820,278.837 242.152,279.250 242.098 C 279.663 242.044,280.000 247.412,280.000 254.026 M316.764 258.833 C 317.749 259.459,317.970 266.883,317.764 292.551 L 317.500 325.467 313.500 326.176 C 308.552 327.053,237.633 327.005,233.500 326.122 L 230.500 325.481 230.220 295.991 C 230.066 279.771,230.187 265.488,230.489 264.250 C 231.160 261.501,235.038 261.229,239.500 263.619 C 241.150 264.503,244.750 265.813,247.500 266.531 C 250.250 267.249,254.750 268.626,257.500 269.591 C 274.175 275.443,282.374 278.000,284.461 278.000 C 285.392 278.000,287.469 276.685,289.077 275.077 C 291.707 272.446,292.000 271.504,292.000 265.660 C 292.000 261.401,292.430 258.993,293.250 258.662 C 295.325 257.825,315.406 257.971,316.764 258.833 " stroke="none" fill="undefined" fill-rule="evenodd"/></svg>