<svg id="svg" version="1.1" width="512" height="512" xmlns="http://www.w3.org/2000/svg"><path d="M333.000 41.977 C 331.776 42.750,331.408 46.650,331.000 63.212 L 330.500 83.500 323.598 83.176 C 319.802 82.997,314.498 81.985,311.811 80.926 C 307.373 79.176,304.181 79.000,276.931 79.000 C 250.268 79.000,246.302 79.209,241.218 80.880 C 238.073 81.914,233.097 83.060,230.160 83.427 C 227.223 83.793,223.179 84.972,221.175 86.046 C 219.170 87.121,216.493 88.000,215.225 88.000 C 213.957 88.000,211.156 88.900,209.000 90.000 C 206.844 91.100,204.583 92.000,203.976 92.000 C 203.369 92.000,200.412 93.125,197.406 94.500 C 194.400 95.875,191.765 97.000,191.549 97.000 C 191.334 97.000,187.185 99.314,182.329 102.142 C 177.473 104.970,171.775 108.224,169.666 109.373 C 167.557 110.521,163.282 113.734,160.166 116.512 C 157.050 119.290,153.150 122.419,151.500 123.465 C 146.066 126.911,137.880 135.318,127.867 147.736 C 122.440 154.466,118.000 160.340,118.000 160.789 C 118.000 161.238,116.692 163.384,115.094 165.558 C 111.733 170.127,101.004 191.105,100.991 193.133 C 100.986 193.885,99.875 196.750,98.522 199.500 C 97.169 202.250,96.048 205.688,96.031 207.141 C 96.014 208.593,95.110 211.743,94.022 214.141 C 92.898 216.618,92.034 220.699,92.022 223.593 C 92.010 226.395,91.100 231.303,90.000 234.500 C 88.900 237.697,88.000 242.853,88.000 245.957 C 88.000 249.060,87.460 252.140,86.800 252.800 C 85.968 253.632,80.741 254.000,69.734 254.000 C 53.282 254.000,50.000 254.665,50.000 258.000 C 50.000 261.335,53.282 262.000,69.734 262.000 C 80.741 262.000,85.968 262.368,86.800 263.200 C 87.460 263.860,88.000 267.021,88.000 270.225 C 88.000 273.487,88.880 278.554,90.000 281.740 C 91.100 284.870,92.015 289.921,92.034 292.965 C 92.055 296.326,92.827 300.071,94.000 302.500 C 95.063 304.700,95.961 307.625,95.997 309.000 C 96.033 310.375,97.169 313.750,98.522 316.500 C 99.875 319.250,100.986 322.126,100.991 322.891 C 101.006 325.174,110.567 344.114,114.422 349.497 C 116.390 352.245,118.000 354.866,118.000 355.320 C 118.000 356.854,130.440 372.296,138.500 380.768 C 142.900 385.392,148.750 390.809,151.500 392.805 C 154.250 394.801,156.725 396.707,157.000 397.040 C 158.502 398.858,169.238 407.000,170.135 407.000 C 170.716 407.000,172.609 408.012,174.342 409.250 C 178.369 412.127,182.132 414.262,189.000 417.571 C 192.025 419.028,196.164 421.071,198.198 422.110 C 200.232 423.150,202.654 424.000,203.580 424.000 C 204.506 424.000,206.667 424.840,208.382 425.866 C 210.097 426.892,213.744 428.275,216.487 428.940 C 219.229 429.604,222.004 430.588,222.652 431.126 C 223.300 431.664,226.906 432.485,230.665 432.952 C 234.424 433.419,239.485 434.543,241.911 435.451 C 245.742 436.884,250.542 437.062,278.411 436.801 C 305.863 436.543,310.933 436.263,313.500 434.862 C 315.188 433.940,319.562 433.066,323.500 432.862 L 330.500 432.500 331.000 452.500 C 331.275 463.500,331.864 473.063,332.309 473.750 C 333.651 475.823,340.759 475.319,341.965 473.066 C 342.586 471.905,343.000 462.542,343.000 449.638 L 343.000 428.145 345.635 426.073 C 347.084 424.933,348.854 424.000,349.567 424.000 C 352.207 424.000,378.087 410.040,387.634 403.466 C 402.126 393.488,424.436 370.756,433.521 356.710 C 444.154 340.271,444.301 340.017,447.865 332.000 C 449.699 327.875,451.830 323.082,452.600 321.349 C 453.370 319.616,454.000 317.456,454.000 316.549 C 454.000 315.643,454.747 313.461,455.661 311.700 C 456.574 309.940,457.877 305.575,458.555 302.000 C 459.234 298.425,460.541 293.498,461.459 291.051 C 462.912 287.176,463.087 282.650,462.814 256.051 C 462.542 229.609,462.272 225.084,460.805 222.406 C 459.873 220.705,458.794 216.880,458.406 213.906 C 458.019 210.933,456.869 206.932,455.851 205.015 C 454.833 203.098,454.000 200.790,454.000 199.886 C 454.000 195.421,443.254 174.170,433.679 159.699 C 420.292 139.466,395.845 116.520,375.198 104.810 C 365.499 99.309,350.833 92.122,348.066 91.515 C 346.371 91.142,344.537 90.004,343.992 88.984 C 343.424 87.924,343.000 77.934,343.000 65.637 C 343.000 47.430,342.760 43.903,341.429 42.571 C 339.684 40.827,335.312 40.518,333.000 41.977 M297.500 90.937 C 308.080 91.735,313.881 92.648,317.185 94.034 C 319.762 95.115,323.385 96.000,325.235 96.000 C 327.086 96.000,329.140 96.540,329.800 97.200 C 331.521 98.921,331.521 171.079,329.800 172.800 C 328.906 173.694,318.216 174.000,287.871 174.000 C 241.492 174.000,244.000 174.471,244.000 165.757 C 244.000 159.201,242.131 156.995,236.595 157.015 C 234.343 157.024,231.909 157.405,231.187 157.863 C 229.240 159.098,229.238 356.901,231.185 358.136 C 233.447 359.570,240.746 359.111,242.429 357.429 C 243.438 356.420,244.000 354.070,244.000 350.863 C 244.000 341.260,240.384 342.000,287.335 342.000 C 318.097 342.000,328.905 342.305,329.800 343.200 C 331.197 344.597,331.540 416.601,330.159 418.776 C 329.714 419.478,326.908 420.324,323.925 420.655 C 320.941 420.986,317.150 422.044,315.500 423.006 C 308.201 427.262,247.353 427.277,237.446 423.026 C 235.216 422.069,231.166 420.954,228.446 420.549 C 225.726 420.144,223.050 419.464,222.500 419.037 C 221.950 418.610,219.700 417.726,217.500 417.072 C 215.300 416.418,211.475 415.050,209.000 414.030 C 206.525 413.011,203.017 411.624,201.205 410.948 C 197.097 409.417,176.608 397.700,172.317 394.427 C 170.566 393.092,168.649 392.000,168.056 392.000 C 165.860 392.000,136.639 362.343,131.623 355.023 C 120.734 339.133,115.316 329.121,110.504 316.000 C 108.991 311.875,106.909 306.392,105.877 303.815 C 104.844 301.238,103.990 297.413,103.978 295.315 C 103.966 293.217,103.066 289.538,101.978 287.141 C 100.487 283.855,100.000 280.613,100.000 273.973 C 100.000 269.128,100.273 264.452,100.607 263.582 C 101.151 262.165,107.112 262.000,157.673 262.000 C 194.679 262.000,214.798 262.357,216.066 263.035 C 217.931 264.034,218.000 265.575,218.000 306.500 C 218.000 348.536,218.019 348.940,220.093 350.050 C 221.244 350.666,223.265 350.899,224.583 350.569 L 226.979 349.967 227.239 260.734 C 227.383 211.655,227.356 170.487,227.180 169.248 C 226.697 165.847,223.425 164.491,220.433 166.452 L 218.000 168.046 218.000 209.823 C 218.000 240.983,217.695 251.905,216.800 252.800 C 215.068 254.532,102.932 254.532,101.200 252.800 C 99.144 250.744,99.711 234.240,102.000 229.500 C 103.063 227.300,103.950 223.475,103.972 221.000 C 103.994 218.525,104.680 215.221,105.495 213.657 C 106.310 212.094,107.644 208.719,108.458 206.157 C 113.651 189.821,117.336 182.610,131.357 161.349 C 137.207 152.477,161.963 128.421,172.155 121.704 C 176.915 118.567,181.068 116.000,181.385 116.000 C 181.702 116.000,184.332 114.516,187.231 112.701 C 191.786 109.850,198.047 106.848,210.500 101.545 C 216.400 99.033,223.586 96.817,228.860 95.885 C 231.808 95.364,235.435 94.309,236.920 93.541 C 238.513 92.718,245.704 91.718,254.445 91.104 C 262.599 90.532,269.546 89.782,269.885 89.437 C 270.223 89.092,273.200 89.034,276.500 89.308 C 279.800 89.581,289.250 90.314,297.500 90.937 M346.823 103.574 C 348.295 103.891,351.075 104.978,353.000 105.991 C 354.925 107.003,359.425 109.364,363.000 111.238 C 378.483 119.354,402.610 137.827,409.364 146.737 C 411.639 149.738,416.313 155.622,419.750 159.813 C 423.188 164.003,426.000 167.816,426.000 168.286 C 426.000 168.755,427.367 171.127,429.038 173.555 C 433.160 179.546,442.000 197.351,442.000 199.662 C 442.000 200.689,442.900 203.209,444.000 205.261 C 445.100 207.314,446.000 210.103,446.000 211.459 C 446.000 212.816,446.843 216.080,447.873 218.713 C 448.903 221.346,450.076 227.527,450.479 232.448 C 450.883 237.369,451.840 243.804,452.606 246.747 C 454.381 253.559,454.369 263.025,452.578 269.754 C 451.808 272.644,450.856 278.944,450.462 283.754 C 450.068 288.564,448.903 294.654,447.873 297.287 C 446.843 299.920,446.000 303.200,446.000 304.577 C 446.000 305.953,445.100 308.844,444.000 311.000 C 442.900 313.156,442.000 315.634,442.000 316.506 C 442.000 318.637,433.331 336.378,429.543 342.000 C 427.875 344.475,425.833 347.719,425.005 349.209 C 423.673 351.607,420.041 356.250,407.369 371.755 C 403.520 376.465,382.377 393.457,373.305 399.131 C 365.027 404.308,350.176 412.000,348.457 412.000 C 347.656 412.000,346.100 412.900,345.000 414.000 L 343.000 416.000 343.000 375.500 C 343.000 336.333,342.934 334.934,341.000 333.000 C 339.058 331.058,337.667 331.000,292.700 331.000 C 258.022 331.000,246.099 330.699,245.200 329.800 C 243.418 328.018,243.467 187.463,245.250 186.309 C 245.938 185.864,267.413 185.366,292.973 185.203 C 333.993 184.940,339.655 184.717,341.223 183.298 C 342.867 181.810,343.009 178.611,343.116 140.595 C 343.180 117.993,343.438 100.287,343.689 101.249 C 343.941 102.211,345.351 103.258,346.823 103.574 " stroke="none" fill="undefined" fill-rule="evenodd"/></svg>