<svg id="svg" version="1.1" width="512" height="512" xmlns="http://www.w3.org/2000/svg"><path d="M328.571 29.571 C 327.262 30.880,326.998 34.096,326.986 48.821 C 326.968 72.573,327.426 71.397,318.465 70.719 C 314.295 70.403,309.808 69.394,307.867 68.336 C 304.802 66.665,301.673 66.500,273.000 66.500 C 242.853 66.500,241.231 66.597,235.246 68.750 C 231.806 69.987,227.401 71.000,225.456 71.000 C 223.511 71.000,220.156 71.900,218.000 73.000 C 215.844 74.100,212.919 75.000,211.500 75.000 C 210.081 75.000,207.156 75.900,205.000 77.000 C 202.844 78.100,200.620 79.000,200.059 79.000 C 195.862 79.000,163.392 97.098,156.107 103.499 C 153.573 105.725,149.700 108.867,147.500 110.481 C 140.809 115.391,132.061 124.097,125.880 132.000 C 122.653 136.125,118.435 141.474,116.507 143.886 C 114.578 146.298,113.000 148.659,113.000 149.133 C 113.000 149.607,111.491 152.134,109.647 154.748 C 104.566 161.948,96.000 179.331,96.000 182.442 C 96.000 183.303,95.100 185.686,94.000 187.739 C 92.900 189.791,91.990 192.602,91.978 193.985 C 91.966 195.368,91.066 198.462,89.978 200.859 C 88.890 203.257,88.000 207.349,88.000 209.953 C 88.000 212.556,87.067 217.345,85.927 220.593 C 84.121 225.738,83.849 228.907,83.817 245.158 C 83.785 261.605,84.030 264.537,85.890 269.912 C 87.051 273.265,88.000 278.274,88.000 281.044 C 88.000 284.106,88.784 287.616,90.000 290.000 C 91.100 292.156,92.000 295.081,92.000 296.500 C 92.000 297.919,92.900 300.844,94.000 303.000 C 95.100 305.156,96.000 307.625,96.000 308.486 C 96.000 309.347,98.041 314.362,100.536 319.630 C 104.094 327.143,104.822 329.509,103.914 330.604 C 102.975 331.735,97.608 332.003,75.628 332.015 C 60.707 332.024,47.994 332.361,47.376 332.765 C 45.292 334.127,44.747 339.604,46.519 341.376 C 47.947 342.804,51.860 343.000,79.006 343.000 C 95.981 343.000,110.957 343.413,112.286 343.919 C 113.615 344.424,118.234 349.261,122.549 354.669 C 129.783 363.732,145.524 380.000,147.060 380.000 C 147.422 380.000,151.494 383.145,156.109 386.990 C 160.724 390.834,164.903 393.984,165.396 393.990 C 165.890 393.995,168.590 395.523,171.396 397.384 C 176.764 400.943,196.658 410.978,198.452 411.031 C 199.029 411.048,201.750 412.169,204.500 413.522 C 207.250 414.875,210.530 415.986,211.790 415.991 C 213.049 415.996,215.844 416.900,218.000 418.000 C 220.255 419.150,223.956 420.014,226.710 420.034 C 229.345 420.053,233.300 420.937,235.500 422.000 C 239.194 423.784,241.964 423.935,271.713 423.966 C 300.856 423.997,304.382 423.822,308.713 422.130 C 311.346 421.101,316.126 420.049,319.336 419.791 C 324.780 419.353,325.233 419.482,326.086 421.726 C 326.589 423.048,327.007 432.088,327.015 441.815 C 327.024 451.542,327.361 459.992,327.765 460.593 C 328.169 461.194,329.972 461.972,331.771 462.322 C 334.273 462.809,335.507 462.493,337.021 460.979 C 338.869 459.131,339.000 457.592,339.000 437.723 C 339.000 420.083,339.266 416.065,340.557 414.223 C 341.413 413.000,342.734 412.000,343.492 412.000 C 345.576 412.000,373.398 397.676,378.252 394.105 C 380.588 392.385,386.100 388.358,390.500 385.155 C 402.748 376.238,420.964 356.692,430.251 342.500 C 438.758 329.501,450.000 307.442,450.000 303.750 C 450.000 302.907,450.890 300.257,451.978 297.859 C 453.066 295.462,453.966 291.870,453.978 289.877 C 453.990 287.885,455.012 284.060,456.250 281.377 C 458.432 276.646,458.500 275.555,458.500 245.000 C 458.500 214.247,458.447 213.400,456.250 209.290 C 455.012 206.974,454.000 203.633,454.000 201.865 C 454.000 199.075,450.631 187.531,448.056 181.500 C 439.974 162.564,427.992 143.030,416.786 130.519 C 408.116 120.839,392.707 106.654,385.500 101.719 C 373.121 93.243,369.367 90.871,364.500 88.450 C 361.750 87.082,358.825 85.558,358.000 85.063 C 353.964 82.642,345.866 79.000,344.518 79.000 C 343.683 79.000,342.100 78.100,341.000 77.000 C 339.122 75.122,339.000 73.667,339.000 53.071 C 339.000 28.978,338.766 28.000,333.000 28.000 C 331.429 28.000,329.436 28.707,328.571 29.571 M289.000 77.992 C 293.125 78.498,299.038 78.932,302.141 78.956 C 305.539 78.983,309.514 79.786,312.141 80.978 C 314.538 82.066,318.323 82.966,320.550 82.978 C 322.778 82.990,325.140 83.540,325.800 84.200 C 326.692 85.092,326.974 94.408,326.900 120.450 C 326.845 139.728,326.488 156.625,326.107 158.000 L 325.413 160.500 297.957 161.302 C 270.464 162.104,243.421 161.496,241.036 160.022 C 240.338 159.591,239.460 156.275,239.085 152.654 C 238.710 149.033,238.125 145.792,237.784 145.451 C 237.444 145.110,235.380 144.592,233.199 144.300 C 227.992 143.602,224.369 146.717,225.585 150.848 C 226.014 152.307,226.520 193.233,226.709 241.796 C 226.968 308.380,226.757 331.126,225.852 334.296 L 224.651 338.500 223.944 335.500 C 223.555 333.850,223.183 291.183,223.118 240.684 C 223.040 179.529,222.654 148.223,221.965 146.934 C 220.784 144.729,216.778 144.357,215.163 146.304 C 214.409 147.212,213.992 175.075,213.790 238.151 C 213.550 313.106,213.264 328.978,212.128 330.347 C 210.890 331.838,206.504 332.000,167.425 332.000 C 136.685 332.000,123.354 331.663,121.548 330.840 C 117.269 328.890,106.761 308.556,103.876 296.645 C 103.363 294.525,102.343 291.600,101.610 290.145 C 100.876 288.690,100.028 285.025,99.724 282.000 C 99.420 278.975,98.461 275.150,97.592 273.500 C 96.277 271.002,96.011 266.367,96.006 245.787 C 96.001 223.423,96.190 220.592,98.000 216.000 C 99.100 213.209,100.010 209.255,100.022 207.213 C 100.034 205.171,100.934 201.538,102.022 199.141 C 103.110 196.743,104.003 194.043,104.006 193.141 C 104.010 192.238,104.635 190.306,105.397 188.847 C 106.158 187.387,107.352 184.462,108.049 182.347 C 110.035 176.322,116.279 165.014,124.107 153.268 C 135.608 136.010,160.367 112.383,175.741 103.995 C 177.259 103.167,180.750 101.125,183.500 99.456 C 193.577 93.343,215.780 84.431,224.500 82.999 C 227.250 82.548,231.075 81.519,233.000 80.714 C 234.925 79.908,241.225 78.939,247.000 78.560 C 252.775 78.181,259.975 77.479,263.000 77.001 C 268.651 76.106,275.871 76.381,289.000 77.992 M342.568 91.000 C 343.897 91.000,352.259 94.788,356.000 97.084 C 356.825 97.590,358.625 98.453,360.000 99.002 C 361.375 99.550,363.175 100.458,364.000 101.019 C 364.825 101.579,367.472 103.267,369.883 104.769 C 378.156 109.923,396.503 124.748,402.000 130.720 C 408.148 137.399,419.359 151.883,424.277 159.500 C 428.932 166.709,438.000 185.447,438.000 187.856 C 438.000 188.529,438.900 190.844,440.000 193.000 C 441.100 195.156,442.000 198.047,442.000 199.423 C 442.000 200.800,442.837 204.080,443.860 206.713 C 444.882 209.346,445.993 215.550,446.328 220.500 C 446.663 225.450,447.626 231.709,448.469 234.409 C 450.424 240.678,450.409 250.104,448.434 256.500 C 447.584 259.250,446.626 265.550,446.304 270.500 C 445.978 275.511,444.895 281.622,443.860 284.287 C 442.837 286.920,442.000 290.200,442.000 291.577 C 442.000 292.953,441.100 295.844,440.000 298.000 C 438.900 300.156,438.000 302.416,438.000 303.022 C 438.000 304.197,434.186 312.900,430.779 319.500 C 426.058 328.645,419.935 337.789,410.500 349.786 C 399.897 363.267,387.676 374.137,370.500 385.365 C 361.108 391.504,346.867 398.683,342.256 399.601 L 339.012 400.248 338.756 321.912 L 338.500 243.577 336.000 242.398 C 328.164 238.704,323.716 237.000,321.909 237.000 C 320.788 237.000,317.762 236.161,315.185 235.136 C 312.608 234.111,308.700 232.810,306.500 232.246 C 304.300 231.681,301.150 230.738,299.500 230.150 C 290.009 226.767,273.920 221.890,270.348 221.313 C 265.133 220.471,263.000 223.515,263.000 231.800 C 263.000 235.756,262.498 239.102,261.800 239.800 C 261.031 240.569,257.097 241.000,250.835 241.000 C 242.204 241.000,240.950 240.775,240.035 239.066 C 238.380 235.972,238.642 175.542,240.317 174.152 C 241.218 173.404,256.423 172.970,288.406 172.779 L 335.178 172.500 337.089 170.139 C 338.898 167.904,339.002 165.640,339.030 127.639 C 339.051 99.882,339.375 88.040,340.080 89.250 C 340.641 90.213,341.760 91.000,342.568 91.000 M282.331 236.527 C 285.174 237.248,289.525 238.510,292.000 239.332 C 303.313 243.092,307.083 244.000,311.384 244.000 C 314.820 244.000,316.000 244.383,316.000 245.500 C 316.000 246.655,314.679 247.008,310.250 247.035 C 307.087 247.055,303.375 247.714,302.000 248.500 C 300.625 249.286,298.150 249.960,296.500 249.998 C 294.850 250.037,291.700 250.937,289.500 252.000 C 287.300 253.063,284.517 253.947,283.315 253.966 C 282.113 253.985,279.901 254.467,278.398 255.039 C 274.574 256.493,274.033 255.184,274.015 244.417 C 274.000 235.386,274.420 233.524,276.220 234.636 C 276.738 234.956,279.488 235.807,282.331 236.527 M261.913 250.635 C 262.140 250.832,262.606 254.422,262.949 258.614 C 263.476 265.058,263.948 266.539,265.999 268.200 C 269.111 270.720,272.170 270.119,288.185 263.838 C 290.762 262.827,293.912 261.985,295.185 261.966 C 296.458 261.947,299.300 261.063,301.500 260.000 C 303.700 258.937,306.625 258.043,308.000 258.012 C 309.375 257.981,312.462 257.066,314.859 255.978 C 320.189 253.560,325.546 253.376,326.393 255.582 C 326.727 256.452,327.000 270.386,327.000 286.547 C 327.000 314.573,326.911 315.977,325.066 316.965 C 323.824 317.630,308.639 318.000,282.637 318.000 C 247.157 318.000,241.948 317.805,240.571 316.429 C 239.210 315.067,239.000 310.678,239.000 283.551 C 239.000 259.468,239.293 252.002,240.270 251.191 C 242.343 249.470,260.042 249.016,261.913 250.635 M324.421 330.608 C 326.567 331.431,327.000 338.482,327.000 372.568 C 327.000 408.804,327.161 408.000,319.889 408.000 C 317.706 408.000,314.251 408.838,312.210 409.862 C 303.094 414.438,243.960 414.479,232.815 409.918 C 230.238 408.863,226.638 407.997,224.815 407.994 C 222.992 407.990,220.285 407.354,218.801 406.580 C 217.317 405.805,213.627 404.452,210.602 403.573 C 207.577 402.693,204.827 401.530,204.492 400.987 C 204.156 400.444,203.065 400.000,202.066 400.000 C 199.494 400.000,183.193 391.554,172.124 384.487 C 157.175 374.941,127.711 346.895,129.534 343.945 C 129.887 343.373,148.712 343.000,177.199 343.000 C 219.802 343.000,224.394 343.157,225.486 344.650 C 226.272 345.725,228.231 346.329,231.097 346.381 C 238.186 346.510,238.696 346.005,239.493 338.067 C 240.254 330.488,239.861 330.933,247.000 329.590 C 250.221 328.984,322.672 329.937,324.421 330.608 " stroke="none" fill="undefined" fill-rule="evenodd"/></svg>