<svg id="svg" version="1.1" width="512" height="512" xmlns="http://www.w3.org/2000/svg"><path d="M336.677 42.804 C 335.307 44.319,335.001 47.729,334.772 64.054 L 334.500 83.500 328.000 83.208 C 324.425 83.047,319.121 82.034,316.212 80.958 C 311.384 79.170,308.304 79.004,280.712 79.044 C 255.883 79.080,249.787 79.364,246.500 80.638 C 244.300 81.491,239.706 82.577,236.291 83.051 C 232.876 83.525,228.063 84.832,225.596 85.956 C 223.128 87.080,220.167 88.000,219.015 88.000 C 217.863 88.000,215.156 88.900,213.000 90.000 C 210.844 91.100,208.589 92.000,207.989 92.000 C 206.552 92.000,185.484 102.294,181.000 105.187 C 179.075 106.429,175.587 108.583,173.248 109.973 C 169.230 112.361,166.852 114.233,149.965 128.294 C 143.153 133.966,122.000 159.085,122.000 161.502 C 122.000 162.174,120.600 164.474,118.889 166.612 C 115.295 171.103,105.002 191.864,104.996 194.633 C 104.994 195.660,104.147 197.887,103.113 199.582 C 102.079 201.277,100.765 204.652,100.192 207.082 C 99.618 209.512,98.461 213.300,97.619 215.500 C 96.777 217.700,96.048 221.750,96.000 224.500 C 95.952 227.250,95.241 231.300,94.421 233.500 C 93.600 235.700,92.653 240.875,92.316 245.000 C 91.979 249.125,91.207 252.831,90.601 253.235 C 89.996 253.639,82.257 253.976,73.405 253.985 C 58.591 253.999,57.166 254.159,55.500 256.000 C 53.753 257.930,53.753 258.070,55.500 260.000 C 57.157 261.830,58.590 262.001,72.405 262.014 C 80.707 262.021,88.451 262.282,89.613 262.594 C 91.463 263.091,91.795 264.115,92.283 270.831 C 92.590 275.049,93.551 280.469,94.420 282.876 C 95.289 285.282,96.010 289.557,96.022 292.376 C 96.034 295.263,96.889 299.362,97.979 301.764 C 99.044 304.109,100.214 307.709,100.579 309.764 C 100.944 311.819,102.089 314.903,103.122 316.618 C 104.155 318.333,105.000 320.495,105.000 321.423 C 105.000 324.415,112.443 339.888,118.899 350.318 C 128.034 365.077,148.674 388.678,156.860 393.726 C 158.312 394.621,161.300 397.046,163.500 399.114 C 167.320 402.704,169.887 404.348,187.000 414.164 C 194.285 418.342,202.771 422.279,208.123 423.962 C 209.566 424.416,211.816 425.477,213.123 426.320 C 214.430 427.163,217.300 428.170,219.500 428.560 C 221.700 428.949,224.850 429.952,226.500 430.789 C 228.150 431.625,232.200 432.644,235.500 433.052 C 238.800 433.461,243.300 434.496,245.500 435.354 C 248.803 436.641,254.856 436.920,280.246 436.956 C 308.064 436.996,311.540 436.816,316.746 435.066 C 319.911 434.002,325.200 432.990,328.500 432.816 L 334.500 432.500 334.748 451.500 C 335.031 473.292,335.484 475.000,340.969 475.000 C 342.966 475.000,345.140 474.460,345.800 473.800 C 346.641 472.959,347.022 467.056,347.074 454.050 C 347.115 443.847,347.452 433.492,347.824 431.037 C 348.540 426.308,348.609 426.248,357.850 422.340 C 379.828 413.044,397.710 400.848,415.816 382.807 C 434.232 364.456,446.309 346.505,455.715 323.500 C 460.614 311.517,462.214 306.742,462.992 301.784 C 463.447 298.878,464.516 294.700,465.366 292.500 C 466.638 289.210,466.916 283.087,466.934 258.000 C 466.954 229.722,466.812 227.182,464.978 223.141 C 463.890 220.743,462.990 217.143,462.978 215.141 C 462.966 213.138,462.141 209.700,461.144 207.500 C 460.148 205.300,459.017 202.150,458.632 200.500 C 458.246 198.850,457.296 196.150,456.520 194.500 C 455.745 192.850,453.636 188.125,451.834 184.000 C 448.435 176.219,445.622 171.387,436.116 157.000 C 425.391 140.768,398.856 115.999,381.350 105.880 C 373.478 101.329,354.699 92.000,353.411 92.000 C 352.757 92.000,351.299 91.213,350.170 90.250 C 348.236 88.599,348.102 87.245,347.810 66.403 C 347.573 49.506,347.177 43.917,346.128 42.653 C 344.294 40.445,338.732 40.534,336.677 42.804 M301.500 90.896 C 311.989 91.716,317.909 92.660,321.185 94.034 C 323.762 95.115,327.385 96.000,329.235 96.000 C 331.086 96.000,333.140 96.540,333.800 97.200 C 335.521 98.921,335.521 171.079,333.800 172.800 C 332.906 173.694,322.216 174.000,291.871 174.000 C 245.347 174.000,248.000 174.514,248.000 165.500 C 248.000 161.963,247.466 159.609,246.429 158.571 C 244.444 156.587,236.686 156.469,235.083 158.399 C 234.219 159.441,233.925 184.826,233.935 257.751 C 233.943 311.624,234.233 356.444,234.581 357.351 C 235.349 359.352,244.897 359.703,246.800 357.800 C 247.460 357.140,248.000 354.022,248.000 350.871 C 248.000 341.384,245.234 341.950,291.239 342.023 C 315.679 342.062,332.016 342.473,333.147 343.079 C 334.900 344.017,335.000 346.082,335.000 381.488 L 335.000 418.906 331.250 419.947 C 329.188 420.520,326.593 420.991,325.485 420.994 C 324.377 420.997,321.902 421.833,319.985 422.852 C 312.093 427.046,250.993 427.422,242.500 423.328 C 240.850 422.533,236.800 421.262,233.500 420.504 C 204.403 413.822,177.120 398.150,153.453 374.523 C 140.141 361.233,137.202 357.482,124.442 337.500 C 121.218 332.451,117.328 324.452,116.611 321.397 C 116.237 319.804,115.301 317.150,114.531 315.500 C 112.167 310.437,109.890 302.837,108.538 295.500 C 107.829 291.650,106.517 286.827,105.624 284.782 C 103.653 280.271,103.354 265.046,105.200 263.200 C 106.101 262.299,118.680 262.000,155.661 262.000 L 204.923 262.000 208.750 265.865 C 212.464 269.617,213.437 270.132,219.250 271.426 L 222.000 272.038 222.000 309.996 L 222.000 347.954 224.451 349.560 C 225.894 350.505,227.745 350.898,228.951 350.516 C 230.997 349.866,231.000 349.711,231.000 259.004 C 231.000 178.808,230.821 167.963,229.471 166.614 C 227.785 164.928,225.178 165.438,223.250 167.831 C 222.300 169.010,222.000 178.333,222.000 206.663 L 222.000 243.944 216.583 245.519 C 212.605 246.675,210.466 248.011,208.532 250.547 L 205.898 254.000 156.149 254.000 C 118.789 254.000,106.101 253.701,105.200 252.800 C 103.354 250.954,103.653 235.729,105.624 231.218 C 106.517 229.173,107.832 224.350,108.545 220.500 C 109.815 213.647,112.668 204.630,115.553 198.349 C 116.349 196.616,117.010 194.366,117.022 193.349 C 117.034 192.332,117.924 190.375,119.000 189.000 C 120.076 187.625,120.966 185.747,120.978 184.827 C 120.990 183.906,122.043 181.881,123.318 180.327 C 124.593 178.772,128.077 173.484,131.061 168.575 C 137.008 158.789,150.668 143.103,161.967 133.084 C 172.632 123.627,184.710 115.772,200.000 108.347 C 216.662 100.256,224.028 97.450,232.608 95.925 C 235.417 95.425,239.296 94.356,241.228 93.549 C 243.206 92.723,251.209 91.622,259.548 91.030 C 267.692 90.452,274.609 89.724,274.921 89.413 C 275.232 89.101,277.964 89.044,280.993 89.286 C 284.022 89.527,293.250 90.252,301.500 90.896 M357.000 105.828 C 358.375 106.710,362.875 109.149,367.000 111.248 C 378.231 116.963,384.323 121.032,397.000 131.286 C 405.870 138.460,410.959 143.635,419.250 153.910 C 425.163 161.238,430.000 167.611,430.000 168.072 C 430.000 168.534,431.800 171.481,434.000 174.621 C 436.200 177.762,438.000 180.784,438.000 181.337 C 438.000 181.890,438.640 183.053,439.423 183.921 C 440.205 184.790,441.511 187.300,442.325 189.500 C 443.140 191.700,445.009 196.650,446.480 200.500 C 447.951 204.350,449.786 210.013,450.559 213.084 C 451.331 216.155,452.647 220.303,453.482 222.302 C 454.324 224.318,455.008 228.955,455.017 232.718 C 455.027 236.448,455.919 242.875,457.000 247.000 C 459.376 256.067,459.455 259.803,457.423 267.000 C 456.569 270.025,455.509 277.332,455.068 283.237 C 454.627 289.142,453.744 294.604,453.105 295.374 C 452.466 296.144,451.330 299.637,450.580 303.137 C 449.831 306.637,448.496 310.850,447.615 312.500 C 446.733 314.150,446.010 316.050,446.006 316.723 C 446.003 317.396,445.145 319.871,444.100 322.223 C 443.056 324.575,441.704 327.625,441.097 329.000 C 440.489 330.375,438.757 333.567,437.246 336.094 C 435.736 338.620,433.176 342.895,431.558 345.594 C 428.411 350.844,414.910 368.296,409.672 373.886 C 406.787 376.965,390.012 390.987,386.117 393.574 C 371.754 403.117,355.947 411.544,350.491 412.568 L 347.283 413.169 347.301 374.090 C 347.318 337.730,347.193 334.871,345.505 333.005 C 343.739 331.054,342.459 331.000,297.779 331.000 C 268.044 331.000,251.187 330.635,249.934 329.965 C 248.050 328.956,248.000 327.103,248.000 258.012 L 248.000 187.094 251.750 186.053 C 254.087 185.404,272.103 185.009,299.559 185.006 C 336.021 185.001,343.952 184.755,345.559 183.581 C 347.424 182.217,347.500 180.608,347.500 142.583 L 347.500 103.004 351.000 103.614 C 352.925 103.950,355.625 104.946,357.000 105.828 M222.000 257.933 C 222.000 259.234,218.615 260.173,216.647 259.418 C 215.747 259.073,215.260 258.388,215.565 257.895 C 216.300 256.706,222.000 256.739,222.000 257.933 " stroke="none" fill="undefined" fill-rule="evenodd"/></svg>