<svg id="svg" version="1.1" width="512" height="512" xmlns="http://www.w3.org/2000/svg"><path d="M328.200 38.200 C 327.354 39.046,327.000 44.815,327.000 57.766 C 327.000 68.402,326.568 76.938,325.974 78.048 C 325.071 79.737,324.210 79.888,318.724 79.327 C 315.301 78.977,310.067 77.860,307.093 76.845 C 302.314 75.214,298.232 75.000,271.880 75.000 C 244.432 75.000,241.673 75.158,237.000 77.000 C 234.209 78.100,230.030 79.010,227.713 79.022 C 225.396 79.034,221.695 79.864,219.490 80.866 C 217.284 81.868,213.736 83.015,211.604 83.414 C 209.473 83.814,206.109 85.010,204.129 86.071 C 202.149 87.132,199.974 88.000,199.296 88.000 C 196.786 88.000,172.385 100.533,168.921 103.601 C 168.053 104.371,166.982 105.000,166.541 105.000 C 164.208 105.000,141.834 123.287,133.925 131.658 C 127.295 138.676,115.975 152.776,113.571 157.012 C 112.432 159.018,110.340 162.423,108.923 164.579 C 104.110 171.902,96.000 188.552,96.000 191.111 C 96.000 191.891,95.100 194.209,94.000 196.261 C 92.900 198.314,91.985 201.232,91.966 202.746 C 91.947 204.261,91.063 207.300,90.000 209.500 C 88.884 211.811,88.054 215.672,88.034 218.645 C 88.015 221.474,87.040 226.874,85.868 230.645 C 84.052 236.483,83.737 239.948,83.747 254.000 C 83.756 267.971,84.083 271.551,85.879 277.355 C 87.046 281.126,88.000 286.364,88.000 288.996 C 88.000 291.628,88.890 295.743,89.978 298.141 C 91.066 300.538,91.966 303.632,91.978 305.015 C 91.990 306.398,92.900 309.209,94.000 311.261 C 95.100 313.314,96.000 315.697,96.000 316.558 C 96.000 318.100,99.140 325.455,103.326 333.718 C 104.810 336.648,105.144 338.256,104.420 338.980 C 103.765 339.635,93.340 340.154,76.438 340.374 C 61.622 340.567,48.712 341.060,47.750 341.469 C 46.121 342.162,45.502 344.411,45.951 348.000 C 46.422 351.768,48.475 352.000,81.290 352.000 L 113.198 352.000 116.245 355.250 C 117.922 357.037,121.769 361.650,124.795 365.500 C 132.826 375.716,137.387 380.333,147.883 388.869 C 160.955 399.500,165.404 402.946,166.096 402.975 C 166.424 402.989,170.426 405.220,174.988 407.934 C 179.550 410.647,187.157 414.517,191.892 416.532 C 196.626 418.548,202.425 421.053,204.777 422.099 C 207.129 423.144,210.061 424.000,211.292 424.000 C 212.522 424.000,215.238 424.916,217.327 426.035 C 219.415 427.155,224.134 428.482,227.812 428.985 C 231.490 429.488,236.300 430.577,238.500 431.406 C 241.719 432.618,248.212 432.921,271.746 432.956 C 297.998 432.996,301.581 432.803,306.746 431.079 C 309.911 430.023,315.477 428.869,319.116 428.514 C 327.344 427.712,326.968 426.696,326.986 449.816 C 326.994 459.811,327.438 467.949,328.035 469.066 C 328.746 470.395,330.132 471.000,332.464 471.000 C 338.829 471.000,339.000 470.344,339.000 445.929 C 339.000 425.333,339.122 423.878,341.000 422.000 C 342.100 420.900,343.624 420.000,344.388 420.000 C 346.011 420.000,355.375 415.589,366.000 409.819 C 394.349 394.424,419.024 370.520,436.005 342.000 C 439.811 335.609,442.089 330.968,448.028 317.500 C 450.291 312.368,454.000 300.079,454.000 297.712 C 454.000 296.261,455.012 292.695,456.250 289.787 C 458.421 284.685,458.500 283.415,458.500 253.500 C 458.500 225.029,458.346 222.218,456.616 219.041 C 455.580 217.139,454.378 213.089,453.944 210.041 C 453.176 204.646,450.375 195.722,447.447 189.349 C 446.651 187.616,445.986 185.816,445.969 185.349 C 445.951 184.882,444.698 182.025,443.182 179.000 C 424.093 140.889,394.359 111.471,356.264 93.006 C 350.634 90.278,344.885 87.758,343.488 87.408 C 342.090 87.057,340.509 85.951,339.974 84.951 C 339.429 83.933,339.000 73.666,339.000 61.637 C 339.000 43.430,338.760 39.903,337.429 38.571 C 335.573 36.716,329.912 36.488,328.200 38.200 M298.000 86.819 C 305.297 87.312,310.601 88.183,312.513 89.201 C 314.170 90.084,317.643 91.124,320.231 91.512 C 322.818 91.900,325.421 92.803,326.015 93.518 C 326.756 94.411,327.001 106.292,326.797 131.446 C 326.544 162.695,326.280 168.214,325.000 169.022 C 324.120 169.578,306.683 169.976,282.821 169.985 C 236.351 170.002,239.000 170.515,239.000 161.500 C 239.000 157.963,238.466 155.609,237.429 154.571 C 235.335 152.478,229.743 152.574,227.076 154.750 C 225.003 156.441,224.983 156.668,226.455 161.500 C 227.769 165.814,227.980 178.477,227.989 253.800 C 227.999 334.015,227.862 341.359,226.302 344.300 L 224.604 347.500 223.843 343.500 C 223.424 341.300,223.095 298.409,223.111 248.186 C 223.132 178.933,222.851 156.526,221.947 155.436 C 220.382 153.550,217.533 153.610,215.571 155.571 C 214.166 156.977,214.000 166.634,214.000 246.880 C 214.000 322.795,213.781 336.917,212.581 338.559 C 211.218 340.424,209.457 340.507,167.842 340.683 C 131.872 340.836,124.005 340.622,121.478 339.423 C 119.279 338.379,117.284 335.786,114.284 330.077 C 107.836 317.802,100.000 296.740,100.000 291.686 C 100.000 290.220,99.100 286.654,98.001 283.761 C 96.197 279.016,96.001 276.076,96.001 253.787 C 96.000 231.431,96.191 228.590,98.000 224.000 C 99.100 221.209,100.000 217.339,100.000 215.398 C 100.000 213.458,100.838 209.762,101.863 207.185 C 104.662 200.147,107.769 191.752,108.409 189.500 C 108.722 188.400,110.327 185.025,111.976 182.000 C 113.625 178.975,115.527 175.375,116.202 174.000 C 116.877 172.625,120.815 166.550,124.953 160.500 C 134.480 146.568,154.271 126.559,166.966 118.023 C 171.893 114.710,176.157 112.000,176.442 112.000 C 176.728 112.000,179.332 110.498,182.231 108.662 C 189.904 103.801,195.658 101.260,215.250 94.075 C 218.137 93.016,222.075 91.855,224.000 91.494 C 225.925 91.134,229.879 89.975,232.788 88.920 C 236.197 87.682,240.815 86.980,245.788 86.942 C 250.029 86.911,255.300 86.484,257.500 85.995 C 261.558 85.092,277.116 85.409,298.000 86.819 M354.567 104.589 C 359.480 107.101,366.425 111.017,370.000 113.291 C 380.098 119.714,399.023 135.183,403.950 141.042 C 416.271 155.693,424.403 167.269,430.262 178.500 C 434.273 186.189,438.000 194.562,438.000 195.886 C 438.000 196.543,438.900 198.844,440.000 201.000 C 441.100 203.156,442.000 206.047,442.000 207.423 C 442.000 208.800,442.836 212.080,443.858 214.713 C 444.881 217.346,445.984 223.325,446.311 228.000 C 446.637 232.675,447.596 238.750,448.442 241.500 C 450.547 248.349,450.385 258.266,448.007 268.187 C 446.911 272.759,446.011 279.071,446.007 282.213 C 446.003 285.552,445.169 290.034,444.000 293.000 C 442.900 295.791,441.985 299.070,441.966 300.287 C 441.947 301.504,441.063 304.300,440.000 306.500 C 438.937 308.700,438.053 311.056,438.034 311.736 C 438.015 312.416,435.529 318.041,432.509 324.236 C 424.725 340.204,415.061 354.403,403.086 367.469 C 396.741 374.391,380.542 387.619,370.416 394.146 C 360.781 400.357,346.084 407.728,342.500 408.148 L 339.500 408.500 339.244 331.072 C 339.011 260.769,338.836 253.476,337.339 251.822 C 335.884 250.214,333.857 249.992,320.095 249.930 C 311.518 249.891,303.684 249.538,302.686 249.144 C 301.240 248.574,300.786 247.015,300.447 241.464 C 300.068 235.248,299.698 234.205,296.996 231.750 C 293.623 228.686,291.402 228.330,288.473 230.381 C 287.388 231.141,284.025 232.461,281.000 233.313 C 266.962 237.270,264.294 238.111,261.349 239.507 C 259.616 240.328,257.366 241.010,256.349 241.022 C 255.332 241.034,252.538 241.934,250.141 243.022 C 244.856 245.420,240.439 245.586,239.607 243.418 C 239.273 242.548,239.000 228.614,239.000 212.453 C 239.000 184.427,239.089 183.023,240.934 182.035 C 242.187 181.365,259.092 181.000,288.934 181.000 C 333.667 181.000,335.058 180.942,337.000 179.000 C 338.932 177.068,339.000 175.667,339.000 137.889 L 339.000 98.777 342.317 99.400 C 344.141 99.742,349.654 102.077,354.567 104.589 M288.000 254.122 C 288.000 263.696,287.737 266.031,286.750 265.228 C 286.063 264.669,283.025 263.527,280.000 262.690 C 276.975 261.853,272.250 260.434,269.500 259.536 C 266.750 258.638,262.475 257.248,260.000 256.447 C 257.525 255.646,253.813 254.992,251.750 254.995 C 249.688 254.998,248.000 254.550,248.000 254.000 C 248.000 253.450,249.291 253.000,250.870 253.000 C 252.448 253.000,256.557 252.100,260.000 251.000 C 263.443 249.900,267.007 249.000,267.919 249.000 C 268.831 249.000,271.342 248.100,273.500 247.000 C 275.658 245.900,278.340 244.980,279.461 244.955 C 280.583 244.930,282.850 244.292,284.500 243.536 C 286.150 242.781,287.613 242.126,287.750 242.081 C 287.887 242.037,288.000 247.455,288.000 254.122 M325.800 259.200 C 327.697 261.097,327.493 321.944,325.581 324.559 C 324.217 326.424,322.605 326.500,284.331 326.500 C 262.424 326.500,243.262 326.154,241.750 325.731 L 239.000 324.962 239.000 294.048 C 239.000 258.977,238.614 260.424,247.141 263.514 C 249.538 264.383,253.525 265.706,256.000 266.455 C 258.475 267.203,262.750 268.610,265.500 269.581 C 287.670 277.407,291.707 278.487,294.794 277.417 C 298.772 276.038,301.239 270.612,300.525 264.814 C 300.054 260.990,300.275 259.938,301.724 259.095 C 304.277 257.608,324.296 257.696,325.800 259.200 M325.128 339.652 C 326.220 340.968,326.567 348.585,326.826 377.004 C 327.187 416.489,327.262 416.000,320.864 416.000 C 319.218 416.000,315.762 416.869,313.185 417.930 C 307.872 420.119,286.990 422.370,272.000 422.370 C 257.780 422.370,236.209 420.020,230.713 417.871 C 228.080 416.842,224.926 416.000,223.705 416.000 C 221.769 416.000,216.842 414.369,200.691 408.381 C 179.234 400.426,153.117 381.267,134.059 359.500 L 127.930 352.500 175.715 352.000 C 220.115 351.535,223.669 351.624,225.885 353.250 C 228.855 355.430,235.327 355.530,237.429 353.429 C 238.466 352.391,239.000 350.037,239.000 346.500 C 239.000 337.485,236.337 338.000,282.949 338.000 C 319.673 338.000,323.892 338.165,325.128 339.652 " stroke="none" fill="undefined" fill-rule="evenodd"/></svg>