<svg id="svg" version="1.1" width="512" height="512" xmlns="http://www.w3.org/2000/svg"><path d="M332.500 42.713 C 331.400 42.978,330.179 43.494,329.787 43.860 C 329.395 44.226,329.022 53.101,328.959 63.580 C 328.896 74.060,328.479 83.225,328.033 83.946 C 327.011 85.601,318.887 84.699,308.085 81.731 C 301.389 79.891,297.628 79.641,276.000 79.592 C 253.824 79.542,250.599 79.754,242.000 81.818 C 215.833 88.100,195.642 96.088,181.112 105.905 C 178.025 107.990,174.951 109.877,174.280 110.098 C 173.610 110.319,167.629 114.964,160.990 120.420 C 142.395 135.700,125.874 156.623,114.341 179.500 C 108.776 190.537,102.649 209.012,99.417 224.500 C 96.975 236.198,96.700 239.604,96.668 258.500 C 96.637 276.531,96.943 280.914,98.833 289.500 C 102.145 304.549,104.822 313.988,108.699 324.284 C 110.285 328.498,110.321 329.182,109.000 330.019 C 108.175 330.542,98.050 331.021,86.500 331.084 C 74.950 331.148,64.375 331.512,63.000 331.895 C 61.062 332.434,60.500 333.247,60.500 335.516 C 60.500 340.561,62.716 340.969,90.250 340.985 C 112.545 340.999,115.156 341.174,116.572 342.750 C 117.436 343.712,121.509 349.675,125.622 356.000 C 129.735 362.325,134.565 369.075,136.356 371.000 C 138.146 372.925,141.283 376.612,143.326 379.192 C 148.769 386.070,166.086 400.720,177.614 408.201 C 186.580 414.019,205.549 423.990,207.683 424.006 C 208.132 424.010,209.658 424.617,211.073 425.355 C 214.645 427.219,226.534 430.774,239.000 433.706 C 247.710 435.755,252.909 436.259,269.500 436.663 C 290.830 437.183,298.175 436.600,315.331 433.021 C 323.584 431.299,326.440 431.039,327.331 431.928 C 328.118 432.714,328.602 439.354,328.813 452.271 C 329.001 463.831,329.547 471.954,330.185 472.723 C 331.541 474.357,335.453 474.373,336.766 472.750 C 337.341 472.038,337.979 462.243,338.246 450.000 C 338.504 438.175,339.044 427.734,339.446 426.798 C 339.848 425.862,341.702 424.593,343.566 423.978 C 348.811 422.247,364.685 413.934,373.000 408.563 C 381.394 403.142,393.036 394.000,400.352 387.086 C 406.152 381.604,418.932 366.024,424.993 357.047 C 435.633 341.289,447.251 314.502,449.518 300.500 C 449.875 298.300,450.916 294.250,451.833 291.500 C 454.278 284.167,454.293 233.147,451.853 225.000 C 450.947 221.975,449.902 217.700,449.531 215.500 C 448.824 211.306,444.332 197.327,441.497 190.500 C 430.463 163.929,411.659 138.028,391.388 121.478 C 381.229 113.185,368.512 104.426,361.000 100.550 C 351.197 95.492,345.857 93.002,343.590 92.433 C 338.849 91.243,338.609 90.124,338.177 67.147 C 337.804 47.285,337.155 41.801,335.215 42.116 C 334.822 42.180,333.600 42.448,332.500 42.713 M296.149 89.936 C 309.356 91.647,317.269 93.362,325.226 96.237 C 327.171 96.940,328.116 98.121,328.527 100.361 C 328.843 102.088,328.967 119.174,328.801 138.331 C 328.515 171.470,328.406 173.232,326.559 174.581 C 324.962 175.748,317.753 176.000,285.931 176.000 C 251.313 176.000,247.101 175.828,245.872 174.361 C 245.118 173.460,244.050 169.748,243.500 166.111 L 242.500 159.500 237.533 159.186 C 233.704 158.945,232.272 159.275,231.283 160.627 C 230.264 162.022,230.000 179.173,230.000 244.069 C 230.000 314.471,229.798 325.923,228.540 326.967 C 226.621 328.560,223.165 327.692,200.500 319.927 C 182.041 313.604,174.731 312.323,171.655 314.872 C 170.442 315.879,170.000 317.893,170.000 322.422 C 170.000 325.894,169.474 329.126,168.800 329.800 C 167.456 331.144,124.394 331.547,122.362 330.235 C 120.243 328.866,115.335 315.841,111.346 301.000 C 108.445 290.207,106.088 271.556,106.038 259.000 C 105.996 248.468,108.458 224.543,110.000 220.500 C 110.629 218.850,111.564 215.287,112.078 212.583 C 114.457 200.054,126.733 174.273,136.877 160.500 C 138.902 157.750,141.368 154.225,142.357 152.667 C 146.536 146.082,166.801 127.230,177.507 119.967 C 192.023 110.119,191.145 110.645,201.738 105.443 C 213.655 99.589,222.022 96.684,240.000 92.155 C 246.581 90.498,265.350 88.289,274.000 88.154 C 278.125 88.090,288.092 88.892,296.149 89.936 M344.510 103.566 C 351.949 105.367,372.260 117.931,385.027 128.630 C 399.858 141.056,416.019 160.817,424.178 176.500 C 425.895 179.800,427.650 183.175,428.078 184.000 C 436.032 199.321,441.205 217.545,444.073 240.345 L 446.318 258.189 444.109 275.751 C 440.122 307.455,431.067 331.770,414.488 355.288 C 406.101 367.186,391.614 382.872,382.620 389.792 C 376.579 394.441,361.275 405.000,360.579 405.000 C 360.366 405.000,357.546 406.496,354.312 408.323 C 351.078 410.151,346.562 412.122,344.277 412.702 C 340.743 413.599,340.010 413.513,339.381 412.128 C 338.974 411.233,338.384 393.309,338.070 372.298 C 337.632 342.917,337.200 333.796,336.201 332.798 C 335.191 331.789,324.844 331.381,289.701 330.965 C 264.841 330.671,244.387 330.333,244.250 330.215 C 244.113 330.097,244.000 297.648,244.000 258.107 C 244.000 193.472,244.160 186.153,245.582 185.607 C 246.452 185.273,266.602 185.000,290.359 185.000 C 327.125 185.000,333.874 184.777,335.695 183.501 C 337.805 182.023,337.842 181.465,338.266 143.751 C 338.662 108.538,339.250 99.169,340.899 101.836 C 341.240 102.389,342.866 103.167,344.510 103.566 M190.500 326.608 C 192.700 327.445,196.525 328.705,199.000 329.409 C 204.457 330.961,209.211 333.344,210.894 335.372 C 211.936 336.627,211.676 337.105,209.321 338.264 C 203.869 340.949,183.049 347.233,181.533 346.651 C 180.299 346.178,180.000 344.138,180.000 336.198 C 180.000 330.772,180.300 326.033,180.667 325.667 C 181.769 324.564,186.251 324.993,190.500 326.608 M168.475 341.959 C 168.801 342.487,169.430 345.927,169.873 349.605 C 171.073 359.575,174.171 360.849,186.500 356.442 C 189.250 355.458,193.750 353.885,196.500 352.946 C 199.250 352.007,203.075 350.684,205.000 350.006 C 206.925 349.329,210.525 348.188,213.000 347.471 C 215.475 346.755,219.603 345.372,222.172 344.397 C 228.112 342.146,230.000 343.352,230.000 349.400 C 230.000 355.294,232.182 358.000,236.934 358.000 C 241.778 358.000,242.641 356.887,243.527 349.500 C 243.923 346.200,244.696 342.938,245.246 342.250 C 246.015 341.287,255.525 341.000,286.647 341.000 L 327.050 341.000 328.025 343.565 C 329.104 346.405,329.400 410.748,328.358 415.961 C 327.965 417.927,326.898 419.484,325.608 419.975 C 314.355 424.261,291.027 428.000,275.545 428.000 C 264.925 428.000,242.783 425.286,235.000 423.030 C 231.425 421.994,226.925 420.695,225.000 420.144 C 201.263 413.347,176.011 398.035,156.387 378.540 C 142.345 364.590,130.000 347.937,130.000 342.943 C 130.000 341.087,130.852 341.000,148.941 341.000 C 159.952 341.000,168.130 341.402,168.475 341.959 " stroke="none" fill="undefined" fill-rule="evenodd"/></svg>