<svg id="svg" version="1.1" width="512" height="512" xmlns="http://www.w3.org/2000/svg"><path d="M328.571 46.571 C 327.262 47.880,326.998 51.096,326.986 65.821 C 326.979 75.545,326.701 84.513,326.370 85.750 C 325.840 87.728,325.119 88.000,320.421 88.000 C 317.259 88.000,312.711 87.081,309.288 85.750 C 303.720 83.586,302.300 83.500,272.000 83.512 C 241.638 83.523,240.309 83.605,235.213 85.762 C 232.305 86.993,228.125 88.000,225.923 88.000 C 223.722 88.000,220.156 88.900,218.000 90.000 C 215.844 91.100,212.949 92.000,211.567 92.000 C 210.184 92.000,207.129 92.860,204.777 93.912 C 202.425 94.964,197.575 97.043,194.000 98.532 C 187.969 101.044,174.920 107.914,165.507 113.533 C 163.310 114.844,159.277 117.848,156.545 120.208 C 153.812 122.569,149.759 125.791,147.538 127.368 C 141.397 131.730,132.470 140.659,125.911 149.000 C 122.667 153.125,118.435 158.474,116.507 160.886 C 114.578 163.298,113.000 165.659,113.000 166.133 C 113.000 166.607,111.491 169.134,109.647 171.748 C 107.803 174.361,105.636 177.850,104.831 179.500 C 104.026 181.150,102.853 183.400,102.223 184.500 C 99.763 188.796,96.000 197.777,96.000 199.350 C 96.000 200.262,95.100 202.686,94.000 204.739 C 92.900 206.791,92.000 209.716,92.000 211.239 C 92.000 212.761,91.100 215.686,90.000 217.739 C 88.820 219.940,88.000 223.381,88.000 226.130 C 88.000 228.693,87.040 233.874,85.867 237.645 C 84.020 243.580,83.735 246.915,83.744 262.500 C 83.753 278.007,84.049 281.449,85.877 287.355 C 87.045 291.126,88.000 296.206,88.000 298.645 C 88.000 301.106,88.890 304.824,90.000 307.000 C 91.100 309.156,92.000 312.182,92.000 313.725 C 92.000 315.268,92.900 318.209,94.000 320.261 C 95.100 322.314,96.014 324.782,96.031 325.746 C 96.048 326.711,97.169 329.750,98.522 332.500 C 99.875 335.250,100.986 338.007,100.991 338.628 C 100.996 339.248,101.631 340.279,102.402 340.919 C 104.495 342.656,105.370 347.149,103.808 348.140 C 103.089 348.596,90.350 348.983,75.500 349.000 C 60.650 349.017,47.994 349.361,47.376 349.765 C 45.292 351.127,44.747 356.604,46.519 358.376 C 47.942 359.799,51.933 360.012,78.821 360.100 C 95.695 360.155,110.617 360.510,111.983 360.891 C 113.502 361.314,117.859 365.832,123.217 372.541 C 132.177 383.761,139.662 391.334,148.500 398.119 C 151.250 400.230,155.975 403.972,159.000 406.434 C 162.025 408.897,164.881 410.931,165.346 410.956 C 165.811 410.980,167.605 412.012,169.332 413.250 C 173.047 415.911,183.056 421.455,188.000 423.590 C 189.925 424.421,192.850 425.730,194.500 426.499 C 203.848 430.852,209.517 433.000,211.661 433.000 C 212.991 433.000,215.844 433.900,218.000 435.000 C 220.167 436.106,223.894 437.000,226.333 437.000 C 228.760 437.000,232.879 437.944,235.486 439.097 C 239.976 441.083,241.906 441.194,271.864 441.188 C 300.937 441.182,303.905 441.023,308.500 439.218 C 311.250 438.137,316.274 437.058,319.663 436.819 C 325.808 436.386,325.829 436.394,326.413 439.317 C 326.736 440.930,327.007 449.956,327.015 459.375 C 327.024 468.794,327.384 477.056,327.815 477.735 C 328.246 478.414,329.993 479.249,331.696 479.589 C 334.059 480.062,335.290 479.710,336.896 478.104 C 338.903 476.097,339.000 475.018,339.000 454.723 C 339.000 431.001,339.311 429.727,345.375 428.589 C 347.258 428.236,349.313 427.328,349.941 426.572 C 350.568 425.815,352.111 424.938,353.368 424.622 C 356.384 423.865,373.550 414.456,377.998 411.122 C 379.922 409.680,384.197 406.770,387.498 404.656 C 396.914 398.627,421.272 373.348,429.284 361.291 C 438.302 347.721,450.000 324.743,450.000 320.600 C 450.000 319.840,450.890 317.257,451.978 314.859 C 453.066 312.462,453.966 308.788,453.978 306.695 C 453.990 304.602,455.012 300.777,456.250 298.195 C 458.436 293.633,458.500 292.610,458.499 262.000 C 458.497 231.255,458.443 230.399,456.249 226.290 C 455.012 223.974,453.990 220.374,453.978 218.290 C 453.966 216.205,453.066 212.538,451.978 210.141 C 450.890 207.743,450.000 205.131,450.000 204.336 C 450.000 203.541,449.158 201.002,448.129 198.695 C 447.099 196.388,444.964 191.575,443.384 188.000 C 440.388 181.224,433.616 169.820,426.101 158.895 C 420.503 150.758,394.343 124.600,386.635 119.432 C 374.982 111.620,373.797 110.844,370.672 108.982 C 364.788 105.475,345.500 96.000,344.245 96.000 C 343.560 96.000,342.100 95.100,341.000 94.000 C 339.122 92.122,339.000 90.667,339.000 70.071 C 339.000 45.978,338.766 45.000,333.000 45.000 C 331.429 45.000,329.436 45.707,328.571 46.571 M298.000 95.579 C 303.894 95.934,309.278 96.882,312.185 98.076 C 314.762 99.134,318.684 100.000,320.900 100.000 C 323.934 100.000,325.200 100.505,326.022 102.042 C 326.771 103.442,327.018 115.399,326.807 140.079 C 326.545 170.757,326.278 176.215,325.000 177.022 C 322.645 178.510,242.698 178.298,241.200 176.800 C 240.540 176.140,239.998 174.002,239.996 172.050 C 239.994 170.097,239.108 167.050,238.027 165.277 C 235.350 160.886,231.727 160.119,226.571 162.849 C 224.332 164.035,221.349 165.004,219.941 165.003 C 218.534 165.001,216.509 165.639,215.441 166.419 C 213.549 167.802,213.492 170.083,213.189 257.140 C 212.976 318.215,212.543 346.846,211.817 347.721 C 210.359 349.478,125.388 349.590,121.548 347.840 C 119.055 346.704,115.819 341.993,111.353 333.000 C 109.266 328.796,108.028 325.684,104.987 317.000 C 104.313 315.075,102.958 311.250,101.975 308.500 C 100.993 305.750,99.945 301.162,99.648 298.304 C 99.350 295.446,98.408 291.756,97.553 290.103 C 95.280 285.708,95.259 239.334,97.528 234.946 C 98.368 233.321,99.442 228.956,99.913 225.246 C 100.384 221.536,101.438 216.925,102.254 215.000 C 103.071 213.075,104.295 209.925,104.976 208.000 C 105.656 206.075,106.856 202.700,107.642 200.500 C 110.702 191.940,114.320 185.387,124.461 170.036 C 135.395 153.484,159.094 130.643,174.804 121.515 C 175.737 120.973,179.200 118.938,182.500 116.993 C 185.800 115.048,191.425 112.179,195.000 110.618 C 198.575 109.057,202.888 107.124,204.583 106.322 C 206.279 105.520,209.204 104.475,211.083 104.000 C 212.963 103.524,216.525 102.459,219.000 101.634 C 221.475 100.808,225.412 99.653,227.750 99.066 C 230.088 98.480,233.688 97.558,235.750 97.018 C 245.650 94.427,269.652 93.872,298.000 95.579 M353.000 112.819 C 359.875 116.253,367.759 120.511,370.521 122.281 C 377.999 127.075,395.983 141.280,400.125 145.663 C 405.113 150.942,421.000 170.783,421.000 171.733 C 421.000 172.158,422.579 174.727,424.508 177.440 C 427.702 181.933,429.456 185.270,435.876 199.066 C 437.044 201.577,438.000 204.182,438.000 204.856 C 438.000 205.529,438.900 207.844,440.000 210.000 C 441.100 212.156,442.000 215.047,442.000 216.423 C 442.000 217.800,442.837 221.080,443.860 223.713 C 444.882 226.346,445.994 232.550,446.330 237.500 C 446.665 242.450,447.623 248.975,448.458 252.000 C 450.400 259.035,450.389 266.177,448.427 272.500 C 447.573 275.250,446.615 281.775,446.298 287.000 C 445.960 292.566,444.951 298.482,443.861 301.287 C 442.837 303.920,441.998 307.295,441.996 308.787 C 441.994 310.279,441.094 312.973,439.996 314.774 C 438.898 316.575,438.000 318.780,438.000 319.674 C 438.000 320.569,436.800 323.820,435.334 326.900 C 433.867 329.980,431.730 334.491,430.584 336.924 C 426.348 345.917,411.953 366.205,401.840 377.436 C 398.246 381.427,380.342 395.725,370.500 402.465 C 367.750 404.348,360.325 408.439,354.000 411.557 C 347.675 414.674,341.712 417.628,340.750 418.121 C 339.091 418.971,339.000 414.953,339.000 340.508 C 339.000 263.333,338.966 261.966,337.000 260.000 C 335.164 258.164,333.667 258.000,318.700 258.000 C 307.356 258.000,302.035 257.635,301.200 256.800 C 300.519 256.119,300.000 252.857,300.000 249.255 C 300.000 243.851,299.636 242.545,297.545 240.455 C 296.195 239.105,294.180 238.000,293.066 238.000 C 291.052 238.000,280.676 241.000,274.000 243.511 C 268.858 245.446,261.188 247.965,255.500 249.587 C 252.750 250.372,248.957 251.745,247.071 252.639 C 242.600 254.758,240.671 253.538,239.930 248.124 C 239.207 242.838,238.208 241.890,232.704 241.270 C 229.018 240.855,227.846 241.154,226.024 242.976 C 224.427 244.573,224.018 245.783,224.547 247.342 C 225.805 251.053,226.228 269.690,225.166 274.667 C 223.696 281.563,224.782 283.000,231.464 283.000 C 237.781 283.000,239.993 281.365,240.015 276.679 C 240.044 270.650,241.015 270.251,249.201 272.906 C 253.216 274.208,258.075 275.893,260.000 276.651 C 261.925 277.408,265.750 278.660,268.500 279.433 C 275.461 281.390,282.901 283.888,286.784 285.574 C 291.208 287.495,294.323 287.368,297.054 285.158 C 298.842 283.709,299.563 281.623,300.421 275.408 L 301.514 267.500 312.995 267.215 C 322.922 266.969,324.646 267.164,325.738 268.656 C 327.358 270.871,327.566 330.074,325.965 333.066 C 324.967 334.930,323.439 335.000,283.665 335.000 C 252.903 335.000,242.095 334.695,241.200 333.800 C 240.540 333.140,240.000 330.215,240.000 327.300 C 240.000 319.090,235.335 316.021,227.426 319.028 C 224.744 320.048,224.728 320.110,225.589 326.278 C 226.600 333.530,226.365 348.172,225.167 352.500 C 224.360 355.419,224.302 355.353,223.030 350.088 C 222.059 346.067,221.933 341.443,222.541 332.088 C 222.991 325.165,223.331 310.725,223.298 300.000 C 223.150 253.050,223.142 243.388,223.242 224.500 C 223.300 213.500,223.011 198.650,222.600 191.500 C 222.018 181.372,222.167 177.506,223.275 174.000 L 224.698 169.500 225.492 174.443 C 225.928 177.161,226.030 185.125,225.718 192.140 L 225.150 204.895 228.474 205.992 C 235.475 208.302,240.000 204.763,240.000 196.977 C 240.000 194.460,240.540 191.860,241.200 191.200 C 242.098 190.302,253.790 190.000,287.653 190.000 C 335.025 190.000,337.280 189.806,338.402 185.628 C 338.716 184.458,338.986 165.725,339.002 144.000 C 339.018 122.275,339.361 104.967,339.765 105.538 C 340.169 106.108,346.125 109.385,353.000 112.819 M288.208 261.260 C 288.128 266.892,288.048 272.357,288.031 273.405 C 288.003 275.151,287.854 275.179,286.250 273.740 C 285.288 272.876,282.700 271.840,280.500 271.438 C 278.300 271.036,274.932 269.873,273.015 268.853 C 271.098 267.834,268.173 266.984,266.515 266.965 C 264.857 266.945,262.375 266.286,261.000 265.500 C 259.625 264.714,255.912 264.055,252.750 264.035 C 248.321 264.008,247.000 263.655,247.000 262.500 C 247.000 261.365,248.226 261.000,252.032 261.000 C 254.800 261.000,258.680 260.325,260.654 259.500 C 262.629 258.675,265.332 258.000,266.662 258.000 C 267.992 258.000,270.770 257.138,272.836 256.083 C 274.903 255.029,278.236 253.859,280.244 253.482 C 282.252 253.105,284.706 252.205,285.696 251.480 C 286.686 250.756,287.690 250.356,287.925 250.592 C 288.161 250.828,288.288 255.629,288.208 261.260 M325.691 348.250 C 326.136 348.938,326.638 365.755,326.806 385.622 C 327.152 426.416,327.409 425.000,319.664 425.000 C 317.357 425.000,313.902 425.832,311.985 426.849 C 303.260 431.476,244.630 431.483,232.713 426.858 C 230.080 425.836,226.473 425.000,224.698 425.000 C 222.923 425.000,219.791 424.100,217.739 423.000 C 215.686 421.900,213.201 421.000,212.215 421.000 C 211.229 421.000,208.658 420.100,206.500 419.000 C 204.342 417.900,202.194 417.000,201.727 417.000 C 198.906 417.000,180.488 406.995,167.353 398.328 C 154.465 389.825,127.926 363.547,129.558 360.907 C 129.880 360.385,149.926 360.013,176.809 360.032 C 216.280 360.059,223.800 360.291,225.441 361.532 C 227.438 363.042,232.591 363.478,235.455 362.379 C 237.736 361.504,240.000 356.707,240.000 352.750 C 240.000 350.907,240.540 348.860,241.200 348.200 C 242.971 346.429,324.544 346.477,325.691 348.250 " stroke="none" fill="undefined" fill-rule="evenodd"/></svg>