<svg id="svg" version="1.1" width="512" height="512" xmlns="http://www.w3.org/2000/svg"><path d="M323.215 40.250 C 322.617 40.976,322.042 49.546,321.843 60.701 C 321.604 74.075,321.130 80.272,320.280 81.121 C 319.021 82.379,318.416 82.285,295.500 77.314 C 283.951 74.809,252.104 74.811,239.000 77.317 C 226.323 79.742,211.964 83.593,204.000 86.703 C 155.040 105.824,119.259 141.414,99.883 190.264 C 96.592 198.562,92.013 215.182,92.006 218.856 C 92.003 220.701,91.230 224.976,90.289 228.356 C 88.161 235.996,87.828 270.995,89.821 277.500 C 90.495 279.700,91.486 284.875,92.022 289.000 C 92.957 296.191,93.748 299.159,98.286 312.500 C 99.408 315.800,100.636 320.152,101.015 322.172 C 101.613 325.362,101.427 325.919,99.601 326.409 C 98.446 326.719,88.263 326.979,76.973 326.986 C 60.028 326.998,56.057 327.272,54.223 328.557 C 51.588 330.402,51.465 331.322,53.571 333.429 C 54.916 334.773,58.750 335.000,80.157 335.000 L 105.171 335.000 108.189 338.250 C 109.848 340.038,113.921 345.775,117.238 351.000 C 143.481 392.331,184.918 419.839,236.500 430.171 C 250.882 433.051,282.184 433.378,294.000 430.771 C 310.928 427.037,319.163 425.763,320.130 426.730 C 321.578 428.178,321.855 431.797,321.931 450.215 C 321.997 466.178,322.095 466.981,324.117 468.062 C 325.809 468.968,326.561 468.868,327.867 467.563 C 329.250 466.181,329.542 462.839,329.776 445.716 C 329.928 434.597,330.282 424.458,330.562 423.184 C 330.890 421.694,332.395 420.317,334.786 419.322 C 356.174 410.422,381.417 393.601,394.282 379.676 C 416.441 355.691,429.639 333.322,437.750 306.000 C 444.410 283.568,445.439 276.496,445.384 253.500 C 445.342 235.453,445.030 231.259,443.167 223.671 C 441.975 218.815,441.000 214.086,441.000 213.162 C 441.000 209.539,432.734 186.218,427.878 176.139 C 416.912 153.381,399.679 131.390,381.286 116.685 C 374.804 111.503,365.678 104.882,361.007 101.972 C 352.260 96.523,335.419 88.036,333.309 88.013 C 330.893 87.987,330.489 85.046,330.000 63.901 C 329.624 47.656,329.160 41.893,328.128 40.651 C 326.493 38.684,324.630 38.532,323.215 40.250 M292.500 85.442 C 304.893 87.513,318.362 91.527,320.153 93.682 C 321.206 94.950,321.572 102.420,321.830 127.902 C 322.011 145.831,321.870 162.828,321.517 165.674 C 320.941 170.320,320.560 170.958,317.788 171.924 C 313.018 173.587,238.920 173.393,236.620 171.712 C 235.422 170.835,234.587 168.233,234.009 163.570 C 233.541 159.800,232.560 156.337,231.829 155.873 C 229.540 154.422,226.080 154.920,224.000 157.000 C 222.032 158.968,222.000 160.333,222.000 241.800 C 222.000 304.867,221.714 324.886,220.800 325.800 C 219.252 327.348,178.797 327.497,175.934 325.965 C 174.354 325.119,174.000 323.839,174.000 318.965 C 174.000 312.337,171.874 308.963,167.750 309.044 C 166.512 309.069,154.250 312.843,140.500 317.432 C 124.587 322.743,114.955 325.484,114.000 324.974 C 109.803 322.730,101.320 297.846,99.009 281.000 C 95.311 254.039,95.309 250.762,98.990 227.953 C 103.302 201.227,111.284 180.835,126.195 158.449 C 136.122 143.545,156.401 123.200,171.000 113.498 C 193.270 98.698,217.667 89.095,242.000 85.550 C 248.325 84.628,254.175 83.702,255.000 83.491 C 258.461 82.607,283.255 83.897,292.500 85.442 M344.122 102.285 C 376.344 118.657,402.805 145.304,418.919 177.610 C 425.479 190.760,426.964 194.532,430.490 207.000 C 435.586 225.022,437.001 235.349,437.000 254.507 C 437.000 264.410,436.543 274.085,435.984 276.007 C 435.425 277.928,434.481 282.650,433.887 286.500 C 430.627 307.617,419.616 333.133,404.848 353.797 C 395.795 366.465,376.635 385.149,364.500 393.143 C 350.860 402.129,349.377 403.013,342.500 406.260 C 339.200 407.819,335.633 409.576,334.573 410.166 C 330.289 412.549,330.000 410.106,330.000 371.458 C 330.000 332.871,329.645 329.576,325.312 327.929 C 323.947 327.410,303.964 327.000,280.006 327.000 C 242.373 327.000,236.951 326.808,235.571 325.429 C 234.173 324.030,234.000 316.173,234.000 254.000 C 234.000 191.827,234.173 183.970,235.571 182.571 C 236.950 181.192,242.320 181.000,279.422 181.000 C 307.359 181.000,322.762 180.630,324.829 179.910 C 327.204 179.082,328.200 177.940,328.972 175.160 C 329.574 172.993,329.991 156.789,329.994 135.450 C 330.000 100.273,330.261 97.000,333.060 97.000 C 333.423 97.000,338.401 99.378,344.122 102.285 M164.783 331.250 C 164.514 341.962,164.395 342.515,162.310 342.812 C 159.848 343.162,134.188 334.616,132.554 332.902 C 130.741 331.000,136.360 327.751,148.308 323.789 C 154.464 321.748,160.752 320.061,162.283 320.039 L 165.066 320.000 164.783 331.250 M220.171 336.655 C 221.477 337.836,222.009 339.768,222.032 343.405 C 222.069 349.334,223.558 351.762,227.664 352.583 C 231.667 353.383,233.217 351.270,234.097 343.811 C 234.487 340.501,235.322 337.278,235.952 336.647 C 236.766 335.833,248.640 335.418,276.898 335.217 C 315.062 334.947,316.797 335.015,319.099 336.880 L 321.500 338.825 321.500 375.878 C 321.500 407.534,321.282 413.131,320.000 414.308 C 317.609 416.505,307.098 419.852,298.975 421.002 C 294.864 421.584,289.700 422.581,287.500 423.217 C 280.984 425.102,254.038 424.761,243.000 422.655 C 222.949 418.829,206.784 413.822,193.426 407.301 C 184.445 402.916,183.302 402.240,169.500 393.133 C 153.016 382.257,130.475 358.451,124.198 345.289 C 123.342 343.494,122.838 341.829,123.078 341.589 C 124.025 340.641,137.225 344.103,151.000 348.911 C 165.770 354.066,170.661 354.939,172.800 352.800 C 173.479 352.121,174.000 348.867,174.000 345.300 C 174.000 334.988,173.971 335.000,198.171 335.000 C 215.538 335.000,218.597 335.230,220.171 336.655 " stroke="none" fill="undefined" fill-rule="evenodd"/></svg>