<svg id="svg" version="1.1" width="512" height="512" xmlns="http://www.w3.org/2000/svg"><path d="M323.309 38.250 C 322.864 38.938,322.275 48.500,322.000 59.500 L 321.500 79.500 315.500 79.206 C 312.200 79.044,306.996 78.008,303.936 76.904 C 298.722 75.022,296.336 74.915,265.936 75.198 C 237.251 75.465,233.153 75.702,230.500 77.244 C 228.850 78.203,225.558 78.990,223.185 78.994 C 220.812 78.997,216.762 79.863,214.185 80.917 C 211.608 81.972,208.150 83.115,206.500 83.459 C 204.850 83.803,201.700 84.932,199.500 85.969 C 197.300 87.007,192.575 89.064,189.000 90.542 C 176.931 95.529,159.008 106.037,150.232 113.269 C 147.079 115.867,141.591 120.373,138.037 123.283 C 134.482 126.193,129.307 131.288,126.537 134.606 C 114.695 148.790,110.420 154.326,108.908 157.435 C 108.024 159.253,106.148 162.261,104.740 164.120 C 101.472 168.435,93.340 184.667,92.505 188.542 C 92.154 190.169,91.051 193.525,90.054 196.000 C 89.057 198.475,87.777 202.300,87.210 204.500 C 86.643 206.700,85.483 210.300,84.633 212.500 C 83.783 214.700,83.068 218.581,83.044 221.124 C 83.020 223.668,82.232 227.718,81.294 230.124 C 78.999 236.009,78.687 273.057,80.899 276.958 C 81.666 278.311,82.642 282.811,83.067 286.958 C 83.493 291.106,84.767 296.525,85.899 299.000 C 87.030 301.475,87.966 304.530,87.978 305.790 C 87.990 307.049,88.900 309.844,90.000 312.000 C 91.100 314.156,92.000 316.667,92.000 317.580 C 92.000 318.493,94.045 323.472,96.544 328.644 C 99.043 333.816,100.817 338.488,100.485 339.024 C 100.117 339.620,89.202 340.000,72.441 340.000 C 46.333 340.000,44.903 340.097,43.000 342.000 C 40.865 344.135,40.429 347.547,41.978 350.000 C 42.777 351.267,48.051 351.578,75.884 352.000 L 108.843 352.500 111.558 355.000 C 113.052 356.375,116.633 360.665,119.515 364.533 C 122.398 368.400,127.849 374.638,131.629 378.395 C 137.767 384.495,141.647 387.737,156.655 399.299 C 167.770 407.863,195.256 421.377,208.500 424.790 C 210.700 425.357,214.300 426.517,216.500 427.367 C 218.700 428.217,222.210 428.932,224.300 428.956 C 226.389 428.980,229.539 429.788,231.300 430.750 C 234.117 432.290,238.265 432.538,265.938 432.816 C 295.147 433.109,297.770 432.991,302.938 431.159 C 305.997 430.074,311.538 428.884,315.250 428.514 L 322.000 427.841 322.000 447.198 C 322.000 469.136,322.501 471.000,328.402 471.000 C 334.654 471.000,334.930 469.948,335.230 444.981 L 335.500 422.575 338.000 421.389 C 339.375 420.737,343.425 418.938,347.000 417.392 C 350.575 415.845,354.175 414.053,355.000 413.408 C 355.825 412.764,357.616 411.895,358.981 411.478 C 360.345 411.060,362.595 409.954,363.981 409.020 C 365.366 408.086,371.158 404.250,376.851 400.496 C 400.606 384.832,424.637 357.685,436.809 332.766 C 442.417 321.285,446.000 312.990,446.000 311.488 C 446.000 310.790,446.890 308.257,447.978 305.859 C 449.066 303.462,449.966 299.862,449.978 297.859 C 449.990 295.857,450.890 292.257,451.978 289.859 C 453.815 285.812,453.956 283.248,453.956 254.000 C 453.956 224.752,453.815 222.188,451.978 218.141 C 450.890 215.743,450.000 211.912,450.000 209.626 C 450.000 207.340,449.169 203.902,448.153 201.985 C 447.138 200.068,445.997 197.150,445.619 195.500 C 444.904 192.382,444.724 191.959,438.168 178.000 C 429.617 159.795,419.683 145.908,403.441 129.459 C 391.177 117.038,386.649 113.446,369.145 102.250 C 361.493 97.357,343.812 88.466,339.724 87.456 C 338.197 87.079,336.509 85.951,335.974 84.951 C 335.429 83.933,335.000 73.696,335.000 61.721 C 335.000 42.248,334.834 40.160,333.171 38.655 C 331.026 36.713,324.478 36.445,323.309 38.250 M292.601 86.855 C 300.128 87.256,305.288 87.987,306.251 88.789 C 307.103 89.499,310.647 90.537,314.127 91.098 C 317.607 91.658,320.795 92.653,321.212 93.308 C 321.903 94.395,322.587 152.430,322.033 163.000 C 321.903 165.475,321.338 168.063,320.776 168.750 C 319.990 169.713,310.393 170.000,279.000 170.000 C 247.591 170.000,238.017 169.713,237.253 168.750 C 236.708 168.063,236.022 165.265,235.729 162.533 C 235.329 158.798,234.538 157.000,232.543 155.283 C 229.476 152.645,223.884 152.230,222.000 154.500 C 221.285 155.361,219.104 156.000,216.878 156.000 C 214.333 156.000,212.312 156.688,211.000 158.000 C 209.030 159.970,209.000 161.333,209.000 248.800 C 209.000 316.533,208.715 337.885,207.800 338.800 C 206.902 339.698,195.384 339.996,162.050 339.985 C 137.547 339.976,117.020 339.639,116.434 339.235 C 114.688 338.031,109.561 329.893,106.836 324.000 C 104.447 318.833,103.650 316.792,100.881 308.750 C 100.265 306.962,98.915 303.241,97.881 300.481 C 96.846 297.720,96.000 294.218,96.000 292.699 C 96.000 291.180,95.040 287.139,93.868 283.718 C 91.929 278.067,91.734 275.359,91.724 254.000 C 91.714 232.561,91.901 229.955,93.857 224.282 C 95.036 220.861,96.000 216.808,96.000 215.273 C 96.000 213.739,97.390 208.662,99.089 203.992 C 100.788 199.321,102.796 193.574,103.551 191.220 C 104.305 188.866,105.722 185.491,106.698 183.720 C 111.114 175.714,117.730 164.881,122.405 158.004 C 129.476 147.600,152.590 124.788,163.240 117.702 C 167.953 114.566,172.099 112.000,172.453 112.000 C 172.807 112.000,175.437 110.504,178.298 108.675 C 184.412 104.768,193.714 100.000,195.223 100.000 C 195.805 100.000,198.130 99.137,200.390 98.082 C 206.030 95.450,213.356 93.082,220.500 91.584 C 223.800 90.891,227.940 89.577,229.700 88.663 C 231.965 87.486,235.620 86.974,242.200 86.912 C 247.315 86.864,253.750 86.445,256.500 85.980 C 259.250 85.515,265.775 85.377,271.000 85.673 C 276.225 85.968,285.946 86.501,292.601 86.855 M347.500 103.249 C 359.971 109.497,370.519 115.930,375.920 120.584 C 377.889 122.280,382.582 126.037,386.349 128.933 C 390.117 131.829,394.129 135.129,395.266 136.266 C 398.706 139.706,417.000 162.924,417.000 163.849 C 417.000 164.324,418.495 166.690,420.321 169.106 C 426.063 176.702,438.000 204.017,438.000 209.560 C 438.000 210.946,438.839 213.749,439.864 215.790 C 441.128 218.306,441.918 222.719,442.318 229.500 C 442.643 235.000,443.604 241.709,444.455 244.409 C 446.514 250.949,446.403 256.106,444.000 265.500 C 442.900 269.801,441.990 276.510,441.978 280.410 C 441.963 285.108,441.338 288.860,440.124 291.533 C 439.117 293.751,437.983 297.628,437.605 300.148 C 437.227 302.668,436.276 305.578,435.491 306.615 C 434.706 307.652,434.049 309.119,434.032 309.875 C 433.998 311.346,430.214 320.643,426.665 327.973 C 421.378 338.894,402.132 364.845,393.396 372.833 C 380.959 384.205,367.235 393.918,353.528 401.050 C 349.143 403.331,344.656 405.828,343.555 406.599 C 342.455 407.369,340.620 408.000,339.477 408.000 C 338.335 408.000,336.860 408.540,336.200 409.200 C 335.267 410.133,335.000 392.984,335.000 332.029 C 335.000 260.507,334.855 253.498,333.345 251.829 C 332.435 250.823,330.955 250.000,330.056 250.000 C 329.158 250.000,326.658 249.100,324.500 248.000 C 322.342 246.900,319.743 246.000,318.724 246.000 C 317.705 246.000,314.762 245.111,312.185 244.025 C 309.608 242.939,305.700 241.619,303.500 241.093 C 301.300 240.566,297.250 239.383,294.500 238.463 C 291.750 237.543,288.150 236.341,286.500 235.791 C 284.850 235.242,280.643 233.984,277.151 232.997 C 273.659 232.009,270.306 230.706,269.701 230.101 C 267.738 228.138,263.914 228.932,260.923 231.923 C 258.252 234.594,258.000 235.447,258.000 241.806 C 258.000 249.894,257.893 249.973,247.000 249.973 C 236.355 249.973,236.000 249.744,236.000 242.883 C 236.000 235.230,234.017 232.993,227.250 233.015 C 219.952 233.039,219.345 233.765,220.788 240.750 C 222.309 248.119,222.342 258.962,220.865 266.318 C 219.320 274.013,220.449 275.376,227.861 274.762 C 234.662 274.198,236.000 272.564,236.000 264.828 C 236.000 257.896,236.261 257.763,249.000 258.205 L 257.500 258.500 258.046 266.196 C 258.737 275.925,260.529 278.376,266.480 277.726 C 268.691 277.484,271.850 276.819,273.500 276.248 C 281.155 273.599,286.903 271.770,291.500 270.521 C 297.828 268.802,305.208 266.255,311.065 263.769 C 313.576 262.703,316.951 261.982,318.565 262.166 L 321.500 262.500 321.500 293.955 L 321.500 325.410 317.500 326.255 C 315.300 326.720,296.496 326.965,275.713 326.800 C 233.319 326.463,236.042 327.016,236.015 318.750 C 235.995 312.508,233.616 309.994,227.750 310.015 C 220.399 310.042,220.463 309.872,221.518 326.500 C 221.867 332.000,221.714 339.425,221.178 343.000 C 219.884 351.626,221.072 354.381,226.273 354.811 C 229.342 355.065,230.579 354.575,233.016 352.138 C 235.419 349.735,236.000 348.302,236.000 344.777 C 236.000 342.370,236.540 339.860,237.200 339.200 C 238.924 337.476,319.076 337.476,320.800 339.200 C 321.690 340.090,322.000 350.018,322.000 377.681 L 322.000 414.962 319.750 415.423 C 318.512 415.677,315.716 416.174,313.535 416.528 C 311.354 416.882,308.425 417.763,307.027 418.486 C 304.455 419.816,278.535 422.347,267.500 422.346 C 254.141 422.344,231.963 419.956,226.950 417.980 C 224.187 416.891,220.773 416.000,219.364 416.000 C 217.955 416.000,215.384 415.373,213.651 414.608 C 211.918 413.842,208.475 412.543,206.000 411.721 C 197.073 408.757,190.820 406.084,184.220 402.410 C 180.524 400.352,175.700 397.673,173.500 396.457 C 163.885 391.140,154.763 384.097,144.738 374.252 C 130.768 360.531,125.000 354.333,125.000 353.043 C 125.000 352.335,139.521 351.995,170.250 351.985 C 195.137 351.976,216.132 351.569,216.905 351.080 C 218.368 350.154,219.189 328.303,219.136 291.750 C 219.104 269.935,219.109 235.138,219.146 215.750 C 219.163 206.813,219.024 190.876,218.838 180.336 C 218.526 162.626,218.899 158.566,220.677 160.344 C 221.458 161.125,221.718 184.166,221.026 191.305 C 220.686 194.817,220.956 196.376,222.030 197.099 C 223.892 198.352,232.743 197.657,234.262 196.138 C 234.891 195.509,235.592 192.071,235.819 188.497 C 236.047 184.924,236.293 181.907,236.366 181.793 C 236.440 181.679,257.966 181.342,284.201 181.043 C 321.408 180.619,332.188 180.214,333.201 179.201 C 334.213 178.189,334.565 169.077,334.793 138.011 L 335.086 98.119 338.793 99.431 C 340.832 100.153,344.750 101.871,347.500 103.249 M277.050 244.597 C 279.497 244.973,283.170 246.118,285.210 247.141 C 287.251 248.163,290.176 249.003,291.710 249.006 C 293.245 249.010,295.789 249.685,297.364 250.506 C 298.940 251.328,301.865 252.006,303.864 252.014 C 305.864 252.021,308.512 252.299,309.750 252.630 C 313.754 253.703,312.138 254.999,306.750 255.035 C 303.863 255.055,300.375 255.714,299.000 256.500 C 297.625 257.286,295.133 257.945,293.461 257.965 C 291.790 257.984,288.640 258.911,286.461 260.024 C 284.283 261.138,280.700 262.316,278.500 262.642 C 276.300 262.969,273.488 263.868,272.250 264.641 L 270.000 266.046 270.000 253.901 C 270.000 244.050,270.246 241.959,271.300 242.834 C 272.014 243.427,274.602 244.220,277.050 244.597 " stroke="none" fill="undefined" fill-rule="evenodd"/></svg>