<?xml version="1.0" standalone="no"?>
<!DOCTYPE svg PUBLIC "-//W3C//DTD SVG 20010904//EN"
 "http://www.w3.org/TR/2001/REC-SVG-20010904/DTD/svg10.dtd">
<svg version="1.0" xmlns="http://www.w3.org/2000/svg"
 width="120.000000pt" height="120.000000pt" viewBox="0 0 120.000000 120.000000"
 preserveAspectRatio="xMidYMid meet">

<g transform="translate(0.000000,120.000000) scale(0.100000,-0.100000)"
fill="#000000" stroke="none">
<path d="M212 915 c2 -5 13 -30 24 -55 44 -94 46 -90 -43 -92 l-78 -2 80 -5
c79 -6 80 -6 86 -36 4 -16 7 -66 7 -110 0 -44 -3 -93 -7 -110 -6 -30 -7 -30
-86 -36 l-80 -5 78 -2 c89 -2 88 2 41 -97 -13 -27 -21 -51 -19 -53 5 -5 40 65
54 111 9 26 18 37 32 37 17 0 19 -4 13 -22 -6 -19 -36 -89 -52 -120 -7 -14
290 -9 344 6 116 31 233 126 288 234 l26 51 97 4 98 3 -97 2 -98 2 -26 52
c-55 108 -172 203 -288 234 -54 15 -351 20 -344 7 16 -32 46 -102 52 -120 6
-19 4 -23 -12 -23 -14 0 -25 15 -40 58 -12 31 -29 66 -37 77 -9 11 -15 16 -13
10z m411 -25 c110 -34 203 -115 273 -240 l20 -35 -28 -49 c-47 -80 -80 -117
-141 -163 -89 -65 -160 -83 -329 -83 -130 0 -140 1 -132 18 48 109 58 159 58
277 0 118 -10 168 -58 278 -8 16 2 17 132 17 112 0 153 -4 205 -20z m-292
-165 c4 -16 7 -66 7 -110 0 -108 -8 -139 -35 -143 -20 -3 -21 -1 -12 35 11 49
11 167 0 216 -9 36 -8 38 12 35 15 -2 24 -12 28 -33z"/>
</g>
</svg>
