<svg id="svg" version="1.1" width="512" height="512" xmlns="http://www.w3.org/2000/svg"><path d="M227.000 58.976 C 202.231 62.878,182.073 69.516,161.184 80.649 C 125.013 99.928,95.059 131.030,77.440 167.604 C 70.364 182.293,66.763 192.204,63.309 206.500 C 62.511 209.800,61.146 215.425,60.275 219.000 C 58.297 227.117,57.335 267.905,58.859 279.000 C 64.672 321.307,82.535 358.668,111.230 388.538 C 127.012 404.965,134.026 410.569,156.540 424.733 C 164.741 429.893,183.987 438.056,198.000 442.319 C 219.817 448.957,224.136 449.503,254.500 449.465 C 280.285 449.432,283.128 449.254,290.438 447.215 C 294.804 445.997,299.250 445.000,300.317 445.000 C 301.384 445.000,305.912 443.811,310.379 442.357 C 345.311 430.989,370.548 415.547,394.578 390.836 C 405.080 380.036,409.713 374.426,416.738 364.000 C 431.459 342.153,440.422 320.815,447.191 291.500 C 449.305 282.346,449.500 279.173,449.500 254.000 C 449.500 228.827,449.305 225.654,447.191 216.500 C 442.586 196.555,437.805 182.739,429.787 166.205 C 411.640 128.785,378.426 95.823,340.355 77.451 C 320.170 67.711,301.488 61.992,280.000 58.977 C 272.500 57.925,233.678 57.924,227.000 58.976 M269.500 67.030 C 272.800 67.590,280.000 68.705,285.500 69.507 C 301.948 71.907,317.817 76.906,334.450 84.930 C 373.809 103.914,405.421 135.842,423.887 175.258 C 429.279 186.768,437.997 213.733,438.003 218.918 C 438.004 220.338,438.903 226.900,440.000 233.500 C 442.520 248.665,442.520 259.335,440.000 274.500 C 438.903 281.100,438.004 287.593,438.003 288.929 C 438.001 290.265,437.045 294.540,435.878 298.429 C 434.711 302.318,433.095 307.750,432.287 310.500 C 424.381 337.420,406.441 366.552,384.827 387.569 C 354.286 417.266,319.038 434.081,275.000 439.960 C 255.743 442.531,252.257 442.531,233.000 439.960 C 217.836 437.935,210.679 436.330,194.500 431.322 C 186.054 428.707,184.966 428.266,172.870 422.551 C 148.599 411.082,123.111 390.645,106.708 369.500 C 96.076 355.795,90.638 346.468,80.471 324.500 C 78.317 319.847,74.984 309.956,73.961 305.185 C 73.452 302.812,72.363 298.762,71.540 296.185 C 69.381 289.426,65.997 262.968,65.999 252.860 C 65.999 248.109,66.644 240.684,67.431 236.360 C 68.219 232.037,69.146 225.575,69.493 222.000 C 69.840 218.425,70.767 213.475,71.553 211.000 C 72.339 208.525,73.623 204.025,74.405 201.000 C 81.122 175.041,100.248 142.730,121.481 121.471 C 130.099 112.842,148.151 98.962,159.500 92.237 C 178.708 80.856,201.790 72.513,222.500 69.466 C 228.000 68.657,234.750 67.599,237.500 67.115 C 244.566 65.872,262.395 65.824,269.500 67.030 M239.702 175.393 C 238.491 176.709,236.905 179.746,236.178 182.143 C 235.451 184.539,232.911 191.450,230.532 197.500 C 228.154 203.550,224.780 212.325,223.034 217.000 C 219.882 225.441,217.865 230.682,211.492 247.000 C 207.907 256.180,203.043 268.921,199.466 278.500 C 198.234 281.800,196.251 286.975,195.059 290.000 C 190.411 301.802,183.773 319.686,182.682 323.344 C 181.014 328.940,182.915 330.000,194.619 330.000 C 203.408 330.000,203.955 329.872,205.930 327.362 C 207.071 325.912,208.623 322.649,209.378 320.112 C 212.976 308.038,221.286 286.366,222.746 285.250 C 224.651 283.795,280.566 283.438,282.819 284.867 C 283.545 285.327,286.747 292.633,289.936 301.102 C 293.125 309.571,296.727 319.089,297.940 322.254 C 299.154 325.419,300.984 328.456,302.008 329.004 C 304.464 330.318,321.593 330.288,324.066 328.965 C 327.369 327.197,327.387 327.262,316.473 301.000 C 314.073 295.225,308.652 281.950,304.427 271.500 C 300.201 261.050,294.160 246.200,291.002 238.500 C 283.023 219.048,279.929 211.415,274.178 197.000 C 263.988 171.461,265.413 173.000,251.952 173.000 C 242.635 173.000,241.744 173.174,239.702 175.393 M255.506 211.017 C 257.573 215.726,263.034 229.796,270.052 248.500 C 271.084 251.250,272.239 254.850,272.618 256.500 C 272.998 258.150,273.778 259.807,274.352 260.181 C 276.659 261.687,268.581 262.500,251.299 262.500 C 238.560 262.500,232.742 262.143,231.909 261.310 C 230.743 260.143,232.504 254.418,240.001 235.000 C 241.169 231.975,243.855 224.775,245.970 219.000 C 251.210 204.692,251.127 204.876,252.173 205.224 C 252.682 205.394,254.182 208.001,255.506 211.017 " stroke="none" fill="undefined" fill-rule="evenodd"/></svg>