<svg id="svg" version="1.1" width="512" height="512" xmlns="http://www.w3.org/2000/svg"><path d="M234.500 62.954 C 201.074 68.275,175.832 77.686,150.000 94.457 C 141.248 100.139,124.691 113.560,118.309 120.144 C 97.170 141.955,79.152 172.211,71.050 199.500 C 70.071 202.800,68.814 206.625,68.259 208.000 C 67.703 209.375,66.930 212.975,66.540 216.000 C 66.151 219.025,65.091 224.200,64.185 227.500 C 61.797 236.200,61.774 280.964,64.153 289.000 C 65.048 292.025,66.060 296.731,66.400 299.457 C 67.023 304.451,68.876 310.793,74.009 325.500 C 87.674 364.651,116.031 400.079,152.500 423.564 C 169.476 434.495,200.251 447.376,214.500 449.514 C 216.700 449.844,221.650 450.876,225.500 451.807 C 231.155 453.175,237.495 453.500,258.500 453.500 C 279.505 453.500,285.845 453.175,291.500 451.807 C 295.350 450.876,300.300 449.837,302.500 449.498 C 311.367 448.132,330.587 441.181,345.500 433.947 C 356.651 428.538,371.831 418.785,382.441 410.213 C 414.584 384.243,439.476 344.868,448.638 305.500 C 449.406 302.200,450.763 296.575,451.654 293.000 C 453.653 284.984,454.714 243.887,453.178 234.000 C 448.477 203.733,441.837 184.136,427.841 159.217 C 414.494 135.454,390.141 109.941,365.141 93.532 C 346.158 81.072,316.856 69.084,298.000 66.064 C 294.425 65.492,289.925 64.522,288.000 63.909 C 283.787 62.568,241.651 61.816,234.500 62.954 M285.000 72.409 C 289.675 73.310,295.525 74.458,298.000 74.960 C 352.611 86.046,401.918 124.908,427.113 176.722 C 435.074 193.093,439.349 206.433,443.707 228.500 C 446.157 240.904,446.700 273.486,444.593 281.699 C 443.775 284.889,442.834 289.975,442.502 293.000 C 441.552 301.661,435.077 321.952,428.462 337.000 C 424.440 346.150,413.994 363.248,406.293 373.288 C 384.926 401.145,350.630 425.381,317.500 436.037 C 313.650 437.275,307.979 439.124,304.897 440.144 C 301.816 441.165,297.991 442.007,296.397 442.016 C 294.804 442.024,289.269 442.924,284.098 444.016 C 272.490 446.466,245.037 446.787,235.500 444.585 C 232.200 443.823,227.025 442.883,224.000 442.496 C 211.146 440.854,186.939 432.509,171.421 424.370 C 135.416 405.488,106.821 375.751,89.155 338.818 C 85.914 332.043,82.022 322.450,80.504 317.500 C 78.987 312.550,77.145 306.700,76.410 304.500 C 75.675 302.300,74.355 295.775,73.476 290.000 C 72.597 284.225,71.464 276.800,70.959 273.500 C 69.785 265.836,69.778 250.239,70.944 242.500 C 71.442 239.200,72.365 233.125,72.995 229.000 C 74.789 217.260,80.204 197.393,84.033 188.500 C 94.565 164.040,106.229 146.108,122.988 128.615 C 141.423 109.372,161.987 95.377,188.500 84.028 C 197.635 80.118,217.280 74.784,229.500 72.896 C 233.900 72.216,239.525 71.321,242.000 70.906 C 249.230 69.694,275.712 70.620,285.000 72.409 M256.736 118.751 C 254.687 119.217,252.844 122.481,250.666 129.500 C 249.121 134.481,246.414 142.199,241.547 155.500 C 233.542 177.374,232.971 179.901,235.546 182.038 C 236.827 183.102,237.549 182.981,239.755 181.333 C 241.730 179.859,243.463 176.347,246.459 167.742 C 248.682 161.360,250.825 155.820,251.222 155.431 C 253.716 152.985,254.000 165.352,254.000 276.454 C 254.000 391.325,254.025 392.808,256.000 395.139 L 258.000 397.500 260.000 395.139 C 261.974 392.809,262.001 391.251,262.100 276.139 C 262.155 211.988,262.492 158.461,262.850 157.191 C 263.207 155.921,263.929 154.796,264.453 154.691 C 264.977 154.586,267.236 159.787,269.474 166.249 C 272.078 173.767,274.494 178.949,276.185 180.639 C 279.039 183.493,281.418 183.333,282.229 180.233 C 282.662 178.575,276.839 160.130,269.844 141.000 C 268.737 137.975,267.166 133.475,266.351 131.000 C 263.085 121.077,260.574 117.878,256.736 118.751 " stroke="none" fill="undefined" fill-rule="evenodd"/></svg>