<svg id="svg" version="1.1" width="512" height="512" xmlns="http://www.w3.org/2000/svg"><path d="M235.500 49.966 C 231.650 50.426,227.375 51.241,226.000 51.777 C 224.625 52.313,221.025 53.068,218.000 53.454 C 202.802 55.396,173.717 66.943,155.349 78.327 C 122.940 98.414,99.513 124.179,82.609 158.327 C 75.729 172.226,67.466 195.711,66.415 204.358 C 66.071 207.186,65.049 211.975,64.145 215.000 C 61.765 222.956,61.790 267.712,64.178 276.500 C 65.075 279.800,66.108 284.663,66.474 287.307 C 67.585 295.332,75.840 318.780,82.034 331.500 C 97.208 362.665,120.468 389.290,149.500 408.728 C 162.860 417.672,181.155 426.709,194.500 430.955 C 198.350 432.180,203.300 433.799,205.500 434.553 C 207.700 435.306,212.200 436.368,215.500 436.913 C 218.800 437.458,224.650 438.592,228.500 439.434 C 236.333 441.147,276.904 441.568,285.000 440.020 C 287.475 439.547,293.235 438.455,297.800 437.594 C 328.974 431.711,362.719 414.910,387.819 392.776 C 398.102 383.708,411.285 369.149,418.403 359.000 C 433.318 337.732,446.816 306.852,449.973 286.775 C 450.555 283.077,451.545 278.802,452.173 277.275 C 453.708 273.548,454.494 229.484,453.177 221.000 C 449.207 195.423,445.091 181.580,435.336 161.000 C 409.779 107.080,358.830 66.177,302.500 54.357 C 298.650 53.549,292.800 52.212,289.500 51.386 C 282.421 49.615,246.370 48.667,235.500 49.966 M283.000 59.526 C 286.575 60.265,291.750 61.164,294.500 61.523 C 297.250 61.882,303.100 63.217,307.500 64.488 C 333.577 72.024,349.935 80.197,373.769 97.598 C 382.099 103.679,400.595 122.110,405.837 129.550 C 423.056 153.995,426.365 160.070,435.497 184.000 C 438.211 191.114,441.823 204.666,442.457 210.116 C 442.817 213.205,443.755 218.155,444.543 221.116 C 446.590 228.808,446.550 261.797,444.484 269.701 C 443.651 272.891,442.706 277.975,442.386 281.000 C 440.941 294.624,429.456 324.675,419.265 341.500 C 398.063 376.500,367.788 402.698,330.500 418.310 C 315.900 424.423,304.449 427.791,288.500 430.663 C 276.333 432.853,244.206 433.658,236.569 431.963 C 233.781 431.345,227.900 430.251,223.500 429.532 C 159.014 419.004,99.583 366.777,80.082 303.500 C 78.895 299.650,77.291 294.475,76.516 292.000 C 75.255 287.973,73.260 276.829,70.966 261.000 C 69.938 253.909,69.941 237.056,70.972 230.000 C 71.414 226.975,72.331 220.675,73.009 216.000 C 79.662 170.165,106.870 124.762,144.663 96.426 C 158.596 85.980,159.427 85.475,176.500 77.094 C 194.126 68.441,211.274 62.804,225.429 61.009 C 229.670 60.471,233.591 59.752,234.143 59.412 C 238.068 56.986,271.084 57.063,283.000 59.526 M167.830 202.750 C 166.431 204.262,158.558 214.500,150.334 225.500 C 142.109 236.500,129.781 252.925,122.938 262.000 C 105.816 284.704,105.556 285.170,107.923 288.910 C 109.195 290.919,113.910 288.798,116.500 285.050 C 117.600 283.458,122.550 276.911,127.500 270.501 C 132.450 264.091,138.075 256.665,140.000 254.000 C 145.114 246.919,160.378 227.063,163.831 223.000 C 165.467 221.075,167.186 219.874,167.652 220.332 C 168.119 220.789,168.615 235.639,168.755 253.332 C 168.896 271.024,169.234 286.483,169.508 287.683 C 170.616 292.551,176.366 291.410,180.262 285.550 C 181.493 283.699,186.550 276.933,191.500 270.515 C 196.450 264.097,202.075 256.665,204.000 254.000 C 209.195 246.807,224.416 227.017,227.842 223.000 L 230.828 219.500 231.914 222.315 C 232.612 224.126,233.000 236.321,233.000 256.494 C 233.000 283.673,233.210 288.067,234.571 289.429 C 237.330 292.187,240.763 290.813,244.262 285.550 C 245.493 283.699,250.550 276.933,255.500 270.515 C 260.450 264.097,266.075 256.665,268.000 254.000 C 273.114 246.919,288.378 227.063,291.831 223.000 C 293.467 221.075,295.186 219.874,295.652 220.332 C 296.119 220.789,296.725 236.405,297.000 255.034 C 297.355 279.079,297.841 289.245,298.677 290.079 C 300.783 292.181,304.597 290.152,308.656 284.771 C 310.843 281.872,316.202 274.855,320.566 269.178 C 324.930 263.500,330.075 256.672,332.000 254.005 C 337.080 246.963,352.360 227.084,355.831 223.000 C 357.467 221.075,359.186 219.874,359.652 220.332 C 360.119 220.789,360.725 236.405,361.000 255.034 C 361.355 279.079,361.841 289.245,362.677 290.079 C 364.784 292.182,368.598 290.151,372.647 284.771 C 378.863 276.509,390.004 261.968,394.103 256.765 C 398.316 251.419,399.805 246.675,397.966 244.459 C 395.378 241.341,393.122 242.992,384.589 254.250 C 373.103 269.403,371.223 271.557,370.294 270.629 C 369.857 270.193,369.275 254.686,369.000 236.168 C 368.725 217.651,368.136 201.938,367.691 201.250 C 366.320 199.132,362.502 199.862,359.838 202.750 C 358.443 204.262,350.397 214.725,341.958 226.000 C 317.409 258.798,314.635 262.441,310.721 267.013 C 308.681 269.396,306.672 271.006,306.256 270.591 C 305.840 270.176,305.275 254.686,305.000 236.168 C 304.725 217.651,304.136 201.938,303.691 201.250 C 302.321 199.133,298.502 199.862,295.835 202.750 C 294.438 204.262,286.387 214.725,277.945 226.000 C 252.526 259.947,250.574 262.511,246.721 267.013 C 244.681 269.396,242.672 271.006,242.256 270.591 C 241.840 270.176,241.275 254.686,241.000 236.168 C 240.725 217.651,240.136 201.938,239.691 201.250 C 238.321 199.133,234.502 199.862,231.832 202.750 C 230.434 204.262,223.234 213.600,215.832 223.500 C 183.341 266.954,179.471 271.804,178.256 270.591 C 177.840 270.176,177.275 254.686,177.000 236.168 C 176.725 217.651,176.136 201.938,175.691 201.250 C 174.321 199.133,170.502 199.862,167.830 202.750 " stroke="none" fill="undefined" fill-rule="evenodd"/></svg>