<svg id="svg" version="1.1" width="512" height="512" xmlns="http://www.w3.org/2000/svg"><path d="M231.332 49.957 C 227.389 50.410,223.739 51.043,223.221 51.364 C 222.702 51.684,218.728 52.582,214.389 53.359 C 174.444 60.513,130.094 86.719,103.905 118.644 C 87.584 138.540,71.459 168.058,66.895 186.390 C 66.363 188.529,65.044 192.902,63.964 196.108 C 62.884 199.314,61.995 203.414,61.989 205.218 C 61.983 207.023,61.260 210.750,60.382 213.500 C 58.320 219.961,57.313 257.049,58.902 268.000 C 63.922 302.586,73.793 329.114,91.273 355.000 C 117.312 393.561,152.692 419.269,200.500 434.366 C 203.250 435.234,208.200 436.386,211.500 436.925 C 214.800 437.464,220.875 438.633,225.000 439.523 C 231.085 440.835,237.123 441.069,257.000 440.764 C 281.662 440.386,282.643 440.272,302.000 435.573 C 366.127 420.004,419.196 370.649,440.249 307.000 C 442.705 299.575,445.036 291.250,445.430 288.500 C 445.823 285.750,446.899 281.025,447.821 278.000 C 450.286 269.908,450.286 221.092,447.821 213.000 C 446.899 209.975,445.823 205.250,445.430 202.500 C 444.213 193.999,436.101 171.092,429.861 158.536 C 405.027 108.570,360.509 71.519,307.500 56.699 C 287.323 51.059,278.567 49.776,258.000 49.446 C 247.275 49.274,235.274 49.504,231.332 49.957 M279.000 59.521 C 282.575 60.263,287.750 61.164,290.500 61.523 C 301.660 62.981,321.109 69.491,335.780 76.680 C 381.173 98.922,417.249 139.986,431.819 186.000 C 436.275 200.072,438.001 206.446,438.026 208.918 C 438.040 210.338,438.928 215.325,440.000 220.000 C 442.750 231.993,442.799 258.633,440.095 270.876 C 439.048 275.619,437.724 281.975,437.155 285.000 C 430.644 319.573,409.491 356.764,381.478 382.891 C 374.531 389.370,358.984 401.316,353.500 404.387 C 351.850 405.312,348.475 407.305,346.000 408.817 C 331.487 417.683,306.583 426.644,288.500 429.506 C 283.550 430.290,277.928 431.396,276.007 431.965 C 271.501 433.300,236.567 433.314,231.993 431.984 C 230.072 431.425,225.350 430.510,221.500 429.950 C 204.853 427.530,179.354 418.667,164.000 409.965 C 154.563 404.617,152.533 403.298,142.836 396.217 C 110.115 372.324,84.295 335.475,74.016 298.000 C 73.035 294.425,71.794 290.375,71.256 289.000 C 70.719 287.625,69.971 283.700,69.593 280.277 C 69.216 276.854,68.261 271.004,67.471 267.277 C 65.604 258.469,65.563 232.745,67.401 224.000 C 68.152 220.425,69.073 215.025,69.446 212.000 C 70.244 205.545,73.350 193.588,76.075 186.481 C 77.134 183.720,78.000 181.050,78.000 180.548 C 78.000 178.037,88.147 157.245,93.883 148.000 C 113.364 116.606,139.735 92.597,172.220 76.680 C 188.117 68.890,206.157 63.043,220.352 61.078 C 224.671 60.481,228.641 59.722,229.175 59.392 C 233.095 56.969,267.127 57.058,279.000 59.521 M189.500 164.689 C 182.598 165.812,182.568 168.005,189.227 185.000 C 191.705 191.325,197.360 205.950,201.794 217.500 C 206.228 229.050,214.669 250.875,220.552 266.000 C 226.436 281.125,233.395 299.308,236.017 306.407 C 239.571 316.029,241.384 319.647,243.142 320.622 C 246.449 322.456,260.954 322.421,263.593 320.573 C 265.842 318.997,266.958 316.649,273.128 300.500 C 275.440 294.450,281.464 278.925,286.516 266.000 C 291.567 253.075,298.670 234.850,302.300 225.500 C 305.929 216.150,312.296 199.807,316.449 189.182 C 320.602 178.558,324.000 169.236,324.000 168.467 C 324.000 166.667,321.537 165.432,316.371 164.645 C 311.920 163.966,303.417 165.183,301.881 166.719 C 301.011 167.589,297.787 176.077,276.327 234.000 C 258.736 281.479,256.038 288.389,254.502 289.906 C 253.023 291.366,252.788 291.332,251.716 289.500 C 250.601 287.596,215.856 191.046,210.417 174.739 C 208.993 170.471,207.058 166.566,206.115 166.062 C 203.959 164.908,193.478 164.042,189.500 164.689 " stroke="none" fill="undefined" fill-rule="evenodd"/></svg>