<svg id="svg" version="1.1" width="512" height="512" xmlns="http://www.w3.org/2000/svg"><path d="M241.500 69.922 C 236.550 70.346,230.388 71.423,227.806 72.316 C 225.224 73.208,220.411 74.373,217.110 74.905 C 213.810 75.436,210.075 76.425,208.811 77.101 C 207.548 77.777,204.036 79.119,201.007 80.084 C 188.619 84.027,169.270 94.009,156.500 103.043 C 142.535 112.922,122.340 133.118,113.675 145.871 C 111.571 148.967,109.209 152.210,108.427 153.077 C 107.644 153.944,103.740 161.091,99.752 168.958 C 95.763 176.825,92.050 183.269,91.500 183.277 C 89.549 183.305,89.115 175.046,89.058 136.821 C 89.007 103.043,88.801 97.944,87.429 96.571 C 85.434 94.577,83.566 94.577,81.571 96.571 C 80.155 97.987,80.000 114.556,80.000 264.024 C 80.000 387.778,80.295 430.553,81.161 432.453 C 82.747 435.934,86.698 435.924,88.025 432.435 C 88.607 430.902,89.023 410.072,89.058 380.685 C 89.114 332.519,89.479 324.015,91.500 323.814 C 92.050 323.759,95.457 329.516,99.070 336.607 C 109.783 357.629,118.205 368.908,136.527 386.773 C 153.384 403.209,167.336 412.302,195.066 424.922 C 197.577 426.065,200.407 427.000,201.356 427.000 C 202.304 427.000,204.811 427.883,206.927 428.963 C 209.043 430.042,213.692 431.392,217.257 431.961 C 220.822 432.531,225.710 433.719,228.120 434.601 C 238.795 438.511,289.341 438.146,301.839 434.068 C 305.326 432.931,309.299 432.000,310.669 432.000 C 312.038 432.000,315.936 430.924,319.329 429.609 C 322.723 428.295,326.850 426.750,328.500 426.177 C 346.813 419.815,365.957 408.644,383.011 394.368 C 393.237 385.808,407.228 370.700,414.202 360.687 C 420.194 352.084,430.426 334.423,431.580 330.691 C 431.953 329.486,433.325 326.479,434.629 324.008 C 435.933 321.537,437.000 318.770,437.000 317.857 C 437.000 316.945,438.121 313.791,439.490 310.849 C 440.860 307.907,441.985 304.342,441.990 302.926 C 441.996 301.511,443.190 296.561,444.644 291.926 C 447.236 283.669,447.291 282.919,447.394 254.500 C 447.493 227.356,447.361 225.052,445.323 218.500 C 444.125 214.650,442.678 208.911,442.106 205.746 C 441.534 202.582,440.527 198.985,439.868 197.753 C 439.209 196.522,437.881 193.036,436.916 190.007 C 431.948 174.401,419.702 152.453,407.558 137.390 C 400.429 128.547,384.661 113.437,375.500 106.669 C 370.550 103.012,365.344 99.149,363.931 98.084 C 358.752 94.181,329.762 80.025,326.850 79.978 C 326.108 79.966,323.475 79.035,321.000 77.909 C 318.525 76.784,313.350 75.253,309.500 74.507 C 305.650 73.762,300.059 72.448,297.076 71.587 C 290.682 69.743,255.798 68.698,241.500 69.922 M257.066 80.035 C 258.950 81.043,259.000 82.884,259.000 150.835 C 259.000 203.763,258.710 220.890,257.800 221.800 C 256.915 222.685,247.881 223.000,223.365 223.000 C 205.086 223.000,189.037 223.416,187.701 223.923 C 185.010 224.947,183.761 227.213,184.634 229.489 C 185.903 232.795,192.280 233.053,265.923 232.775 C 338.215 232.503,338.966 232.479,341.012 230.433 C 343.255 228.189,342.911 225.682,340.173 224.327 C 339.253 223.872,322.975 223.275,304.000 223.000 L 269.500 222.500 269.500 151.500 L 269.500 80.500 274.423 80.188 C 277.131 80.017,282.531 80.566,286.423 81.410 C 290.315 82.254,295.975 83.223,299.000 83.564 C 306.854 84.449,321.909 89.398,335.500 95.563 C 338.250 96.811,342.075 98.536,344.000 99.396 C 353.869 103.808,376.631 120.567,386.824 130.927 C 394.818 139.051,405.451 152.669,411.869 163.000 C 422.152 179.555,431.849 203.739,433.520 217.000 C 433.901 220.025,435.058 226.550,436.091 231.500 C 438.468 242.895,438.632 263.475,436.424 273.500 C 435.576 277.350,434.433 283.650,433.883 287.500 C 433.334 291.350,431.786 297.726,430.442 301.668 C 429.099 305.610,427.986 309.435,427.969 310.168 C 427.952 310.901,426.831 313.750,425.478 316.500 C 424.125 319.250,423.008 321.950,422.996 322.500 C 422.917 326.141,406.973 352.707,400.490 360.000 C 399.268 361.375,397.837 363.314,397.311 364.310 C 395.276 368.157,378.052 384.594,369.000 391.326 C 360.423 397.705,344.594 408.000,343.364 408.000 C 342.926 408.000,338.124 410.161,325.390 416.087 C 323.130 417.139,320.548 418.000,319.651 418.000 C 318.755 418.000,315.654 418.921,312.761 420.046 C 309.867 421.172,303.675 422.710,299.000 423.464 C 294.325 424.218,286.822 425.635,282.327 426.613 C 275.783 428.037,273.640 428.157,271.571 427.214 L 268.987 426.037 269.243 355.268 L 269.500 284.500 304.000 284.000 C 340.302 283.474,343.000 283.122,343.000 278.914 C 343.000 274.095,341.455 274.000,263.500 274.000 C 202.396 274.000,190.388 274.229,187.468 275.449 C 184.054 276.876,183.299 278.349,184.786 280.687 C 186.612 283.560,191.806 284.000,223.865 284.000 C 247.992 284.000,256.916 284.316,257.800 285.200 C 259.536 286.936,259.536 425.064,257.800 426.800 C 256.218 428.382,252.983 428.291,244.500 426.426 C 240.650 425.580,233.675 424.267,229.000 423.508 C 224.325 422.749,217.924 421.199,214.775 420.064 C 211.626 418.929,208.532 418.000,207.900 418.000 C 207.268 418.000,203.994 416.829,200.625 415.399 C 176.730 405.250,157.229 392.414,140.910 376.092 C 132.138 367.317,118.720 350.083,114.368 342.000 C 104.853 324.328,104.989 324.627,100.464 311.500 C 99.516 308.750,97.855 304.135,96.773 301.245 C 95.691 298.355,94.446 293.180,94.006 289.745 C 93.567 286.310,92.410 279.450,91.435 274.500 C 88.914 261.697,89.086 243.412,91.850 230.308 C 93.033 224.702,94.020 218.627,94.044 216.808 C 94.068 214.988,94.766 211.700,95.596 209.500 C 96.425 207.300,97.941 202.800,98.965 199.500 C 101.526 191.241,105.280 181.583,106.582 179.899 C 107.178 179.130,108.277 176.925,109.024 175.000 C 110.841 170.322,116.891 160.662,126.241 147.508 C 131.245 140.468,148.476 122.859,155.178 117.936 C 165.436 110.401,171.260 106.389,175.283 104.087 C 183.303 99.497,194.281 94.000,195.427 94.000 C 196.059 94.000,198.360 93.087,200.539 91.971 C 202.717 90.855,207.032 89.282,210.127 88.475 C 213.222 87.669,217.047 86.335,218.627 85.511 C 220.207 84.687,222.679 84.010,224.119 84.006 C 225.559 84.003,230.734 83.282,235.619 82.405 C 240.504 81.528,246.750 80.460,249.500 80.030 C 252.250 79.601,254.642 79.193,254.816 79.125 C 254.989 79.056,256.002 79.466,257.066 80.035 " stroke="none" fill="undefined" fill-rule="evenodd"/></svg>