<svg id="svg" version="1.1" width="512" height="512" xmlns="http://www.w3.org/2000/svg"><path d="M245.464 64.992 C 241.045 65.380,235.195 66.417,232.464 67.297 C 229.734 68.177,224.911 69.355,221.746 69.915 C 218.582 70.475,214.985 71.473,213.753 72.132 C 212.522 72.791,209.036 74.119,206.007 75.084 C 193.341 79.116,179.380 86.255,163.500 96.819 C 150.461 105.493,128.162 127.579,118.457 141.431 C 110.427 152.893,109.862 153.862,102.815 168.250 C 99.920 174.162,97.250 179.000,96.882 179.000 C 95.027 179.000,94.629 172.214,94.224 133.685 L 93.786 91.869 91.328 90.935 C 88.209 89.749,88.423 89.720,86.571 91.571 C 85.155 92.987,85.000 109.586,85.000 259.349 C 85.000 408.160,85.163 425.788,86.557 427.777 C 88.264 430.215,91.419 430.715,92.691 428.750 C 93.136 428.063,93.756 403.650,94.070 374.500 C 94.383 345.350,94.994 320.712,95.427 319.750 C 96.610 317.119,97.597 317.609,99.452 321.750 C 117.482 362.011,146.999 393.346,185.000 412.568 C 194.755 417.502,202.217 420.770,205.532 421.559 C 207.165 421.947,210.345 423.086,212.601 424.090 C 214.856 425.093,219.638 426.383,223.227 426.956 C 226.817 427.530,231.496 428.787,233.627 429.749 C 237.044 431.294,241.091 431.500,268.000 431.500 C 296.459 431.500,298.968 431.355,305.500 429.334 C 309.350 428.142,314.469 426.891,316.875 426.552 C 319.280 426.214,323.105 425.104,325.375 424.087 C 327.644 423.070,330.625 421.930,332.000 421.554 C 342.028 418.810,358.204 410.485,374.629 399.614 C 389.903 389.506,408.132 371.330,420.199 354.179 C 428.061 343.005,437.506 325.173,441.216 314.500 C 441.789 312.850,443.300 308.575,444.573 305.000 C 445.846 301.425,447.170 296.700,447.514 294.500 C 447.859 292.300,449.121 287.350,450.318 283.500 C 452.337 277.012,452.496 274.453,452.496 248.500 C 452.496 222.771,452.323 219.932,450.363 213.500 C 449.190 209.650,447.693 203.626,447.038 200.113 C 446.382 196.599,445.421 192.999,444.903 192.113 C 444.384 191.226,443.117 188.025,442.086 185.000 C 437.588 171.796,429.344 156.050,418.789 140.500 C 410.637 128.491,388.600 106.607,375.819 97.829 C 357.369 85.157,336.588 75.209,319.500 70.867 C 317.300 70.308,312.125 68.937,308.000 67.821 C 295.266 64.375,267.051 63.099,245.464 64.992 M290.500 75.909 C 295.450 76.942,301.975 78.099,305.000 78.480 C 311.052 79.243,323.189 82.873,332.500 86.706 C 359.429 97.791,384.383 115.513,400.277 134.840 C 407.202 143.261,407.352 143.465,414.410 154.101 C 417.111 158.170,420.085 162.634,421.020 164.019 C 421.954 165.405,423.066 167.655,423.491 169.019 C 423.915 170.384,425.030 172.625,425.969 174.000 C 426.907 175.375,428.381 178.525,429.244 181.000 C 430.106 183.475,431.588 187.750,432.536 190.500 C 433.484 193.250,435.068 197.750,436.057 200.500 C 437.046 203.250,438.147 207.975,438.504 211.000 C 438.860 214.025,440.018 220.248,441.076 224.829 C 443.774 236.507,443.788 260.981,441.104 271.833 C 440.061 276.050,438.911 281.975,438.549 285.000 C 436.975 298.146,426.966 322.852,416.229 340.094 C 405.261 357.706,390.071 374.391,373.810 386.686 C 365.414 393.034,363.617 394.182,351.000 401.254 C 341.355 406.660,342.046 406.340,332.000 410.059 C 316.445 415.819,315.903 415.969,297.500 419.564 C 277.882 423.398,258.876 423.746,246.000 420.509 C 242.975 419.749,236.984 418.649,232.687 418.065 C 228.389 417.480,223.889 416.471,222.687 415.821 C 221.484 415.171,218.250 414.077,215.500 413.390 C 194.885 408.240,164.986 390.134,146.440 371.568 C 135.059 360.176,118.946 338.400,114.943 329.000 C 114.357 327.625,112.828 324.250,111.545 321.500 C 104.029 305.396,101.001 295.250,97.049 272.931 C 92.836 249.143,95.180 222.501,103.947 194.500 C 106.634 185.920,110.313 176.531,111.628 174.899 C 112.248 174.130,113.091 172.375,113.501 171.000 C 114.269 168.422,119.594 159.238,123.997 152.895 C 134.035 138.434,138.258 133.280,147.270 124.484 C 152.896 118.993,160.650 112.250,164.500 109.500 C 173.231 103.263,185.692 95.351,189.000 93.944 C 190.375 93.359,193.750 91.849,196.500 90.588 C 210.198 84.308,224.544 79.547,233.000 78.477 C 236.025 78.094,242.325 76.963,247.000 75.965 C 258.785 73.447,278.580 73.422,290.500 75.909 " stroke="none" fill="undefined" fill-rule="evenodd"/></svg>