<svg id="svg" version="1.1" width="512" height="512" xmlns="http://www.w3.org/2000/svg"><path d="M166.750 123.080 C 165.114 124.033,165.000 128.060,165.000 185.115 C 165.000 225.263,164.646 246.793,163.965 248.066 C 162.959 249.945,161.222 250.000,102.576 250.000 C 44.372 250.000,42.137 250.069,39.861 251.935 C 37.593 253.795,37.570 253.942,39.285 255.685 C 40.965 257.392,44.665 257.516,101.710 257.773 C 143.952 257.963,162.752 258.379,163.675 259.145 C 164.748 260.036,165.000 271.792,165.000 321.041 C 165.000 354.478,165.273 382.548,165.607 383.418 C 166.914 386.824,172.021 385.268,179.424 379.207 C 183.316 376.021,188.750 371.898,191.500 370.046 C 194.250 368.193,198.750 364.822,201.500 362.553 C 204.250 360.285,207.850 357.582,209.500 356.547 C 211.150 355.511,215.200 352.505,218.500 349.866 C 224.535 345.039,237.145 335.499,246.079 329.000 C 248.726 327.075,256.132 321.450,262.538 316.500 C 268.943 311.550,276.730 305.761,279.842 303.635 C 282.954 301.509,285.760 299.358,286.079 298.853 C 286.397 298.349,290.260 295.364,294.664 292.218 C 304.210 285.401,313.058 278.828,322.259 271.721 C 325.976 268.849,330.026 265.722,331.259 264.770 C 333.147 263.313,333.269 262.889,332.029 262.075 C 330.217 260.885,331.335 259.531,333.457 260.345 C 334.823 260.869,335.000 267.630,335.000 319.404 C 335.000 355.367,335.379 378.867,335.985 380.461 C 337.146 383.515,339.652 384.748,341.317 383.083 C 342.191 382.210,342.631 365.779,343.000 320.201 L 343.500 258.500 405.000 258.000 C 438.825 257.725,467.063 257.136,467.750 256.691 C 469.363 255.647,469.363 252.353,467.750 251.309 C 467.063 250.864,438.825 250.275,405.000 250.000 L 343.500 249.500 343.000 187.785 C 342.563 133.899,342.304 125.874,340.955 124.525 C 339.607 123.178,339.159 123.163,337.455 124.409 C 335.558 125.796,335.492 127.627,335.227 186.419 C 334.993 238.469,334.751 247.000,333.509 247.000 C 332.713 247.000,332.269 246.438,332.521 245.750 C 333.153 244.024,332.261 243.028,326.500 239.030 C 323.750 237.121,321.050 235.186,320.500 234.731 C 317.548 232.286,301.258 220.134,297.936 217.899 C 295.810 216.469,291.933 213.544,289.321 211.399 C 286.709 209.255,281.804 205.475,278.420 203.000 C 267.246 194.828,255.575 186.064,250.500 182.034 C 247.750 179.851,236.950 171.718,226.500 163.960 C 216.050 156.203,204.575 147.638,201.000 144.928 C 197.425 142.217,192.700 138.665,190.500 137.035 C 188.300 135.404,182.948 131.354,178.606 128.035 C 170.358 121.730,169.607 121.416,166.750 123.080 " stroke="none" fill="undefined" fill-rule="evenodd"/></svg>