<svg id="svg" version="1.1" width="512" height="512" xmlns="http://www.w3.org/2000/svg"><path d="M377.250 80.031 C 375.959 80.550,375.000 81.795,375.000 82.953 C 375.000 84.512,376.030 85.231,379.532 86.112 C 384.275 87.307,387.000 90.010,387.000 93.523 C 387.000 97.493,392.095 99.801,393.393 96.418 C 394.692 93.034,394.031 82.174,392.429 80.571 C 390.674 78.817,381.118 78.476,377.250 80.031 M381.000 88.797 C 378.620 89.593,375.096 92.560,366.250 101.211 C 359.679 107.637,358.000 109.868,358.000 112.171 C 358.000 115.511,360.113 116.737,363.567 115.402 C 367.392 113.923,385.859 93.176,385.289 90.997 C 384.733 88.871,383.172 88.070,381.000 88.797 M397.450 102.693 C 395.860 104.283,395.893 104.495,397.990 106.193 C 399.217 107.187,401.264 108.000,402.538 108.000 C 405.288 108.000,409.000 112.315,409.000 115.512 C 409.000 116.746,409.727 118.358,410.615 119.095 C 412.001 120.246,412.510 120.089,414.216 117.981 C 415.853 115.960,416.132 114.413,415.800 109.195 C 415.540 105.117,414.881 102.537,413.948 101.947 C 413.152 101.443,409.495 101.024,405.821 101.015 C 400.865 101.004,398.706 101.437,397.450 102.693 M396.286 114.336 C 382.401 126.946,378.862 130.973,379.188 133.793 C 379.442 136.001,380.068 136.555,382.579 136.801 C 385.322 137.068,386.717 135.997,395.386 126.966 C 405.273 116.665,407.957 112.557,406.047 110.647 C 403.922 108.522,401.810 109.320,396.286 114.336 M165.607 124.582 C 165.273 125.452,165.000 153.487,165.000 186.882 C 165.000 232.774,164.707 247.893,163.800 248.800 C 162.893 249.707,147.992 250.000,102.865 250.000 C 66.473 250.000,42.128 250.381,40.565 250.975 C 37.252 252.235,37.242 255.334,40.547 256.839 C 42.389 257.679,59.540 258.000,102.465 258.000 C 135.119 258.000,162.548 258.273,163.418 258.607 C 164.837 259.151,165.000 265.540,165.000 320.525 C 165.000 354.246,165.273 382.548,165.607 383.418 C 166.748 386.391,172.387 385.342,177.660 381.177 C 180.322 379.075,197.125 366.366,215.000 352.936 C 232.875 339.505,248.175 327.977,249.000 327.318 C 251.039 325.690,266.194 314.315,272.074 310.000 C 299.908 289.574,331.924 264.767,332.324 263.316 C 332.600 262.317,333.119 259.767,333.477 257.648 C 333.836 255.529,334.350 254.016,334.619 254.286 C 334.889 254.556,335.074 282.669,335.031 316.760 C 334.981 355.833,335.321 379.715,335.951 381.372 C 337.015 384.169,340.267 384.950,341.691 382.750 C 342.136 382.063,342.725 353.825,343.000 320.000 L 343.500 258.500 405.215 258.000 C 462.263 257.538,467.062 257.368,468.679 255.750 C 470.345 254.084,470.345 253.916,468.679 252.250 C 467.062 250.632,462.263 250.462,405.215 250.000 L 343.500 249.500 343.000 187.213 C 342.567 133.304,342.298 124.799,341.000 123.979 C 340.175 123.459,339.050 123.173,338.500 123.345 C 335.197 124.378,334.997 128.055,335.029 187.000 C 335.067 257.061,335.114 254.094,334.000 251.500 C 333.527 250.400,333.109 248.266,333.070 246.758 C 332.996 243.861,330.215 240.878,322.572 235.500 C 320.227 233.850,312.052 227.800,304.404 222.056 C 296.757 216.312,285.325 207.731,279.000 202.986 C 225.225 162.648,180.800 129.143,177.397 126.358 C 172.815 122.608,166.717 121.689,165.607 124.582 M175.000 133.443 C 175.000 136.713,178.928 139.939,217.063 168.000 C 221.921 171.575,249.095 191.973,277.448 213.329 C 313.303 240.335,329.000 252.727,329.000 254.028 C 329.000 255.240,325.692 258.290,319.594 262.699 C 314.421 266.440,286.930 287.050,258.503 308.500 C 230.076 329.950,203.758 349.750,200.018 352.500 C 176.144 370.057,175.000 371.044,175.000 374.080 C 175.000 377.219,173.599 378.003,172.607 375.418 C 171.818 373.363,171.838 135.205,172.627 132.261 C 173.372 129.485,175.000 130.296,175.000 133.443 " stroke="none" fill="undefined" fill-rule="evenodd"/></svg>