<svg id="svg" version="1.1" width="512" height="512" xmlns="http://www.w3.org/2000/svg"><path d="M383.687 88.750 C 372.284 100.505,369.786 103.648,370.184 105.735 C 371.003 110.030,374.590 108.135,385.764 97.503 C 397.196 86.625,399.049 83.969,396.960 81.452 C 394.649 78.667,392.117 80.059,383.687 88.750 M361.975 100.565 C 360.411 104.680,360.770 113.627,362.571 115.429 C 364.387 117.244,373.331 117.585,377.508 115.997 C 380.456 114.876,380.619 111.403,377.712 111.639 C 376.770 111.715,376.000 111.351,376.000 110.830 C 376.000 110.309,375.588 110.137,375.085 110.448 C 373.405 111.486,368.368 106.170,367.136 102.059 C 365.741 97.403,363.432 96.735,361.975 100.565 M414.000 101.737 C 411.530 102.690,394.276 120.565,392.488 124.023 C 390.545 127.780,391.608 129.566,395.244 128.654 C 396.559 128.324,402.444 123.429,408.322 117.777 C 418.895 107.609,420.527 104.927,417.800 102.200 C 416.499 100.899,416.250 100.869,414.000 101.737 M382.630 122.250 C 381.668 125.840,381.906 133.956,383.035 136.066 C 383.890 137.662,385.156 137.998,390.285 137.986 C 402.032 137.961,404.243 135.740,396.250 131.994 C 390.865 129.471,390.399 128.945,388.961 123.750 C 388.138 120.778,387.436 120.000,385.578 120.000 C 383.992 120.000,383.038 120.728,382.630 122.250 M170.130 124.343 C 169.343 125.291,168.940 143.892,168.758 187.593 L 168.500 249.500 106.785 250.000 C 52.899 250.437,44.875 250.696,43.525 252.045 C 42.178 253.393,42.163 253.841,43.409 255.545 C 44.793 257.439,46.775 257.516,106.669 258.000 L 168.500 258.500 169.000 320.500 C 169.275 354.600,169.864 383.063,170.309 383.750 C 172.168 386.622,176.782 385.034,184.833 378.750 C 192.855 372.488,200.340 366.846,213.023 357.500 C 216.755 354.750,235.714 340.489,255.154 325.810 C 274.595 311.130,300.849 291.319,313.497 281.786 L 336.494 264.453 337.267 258.921 C 337.692 255.878,337.693 250.993,337.270 248.065 C 336.519 242.873,336.322 242.614,329.332 237.621 C 325.390 234.804,316.840 228.491,310.332 223.592 C 303.825 218.693,292.200 209.943,284.500 204.148 C 276.800 198.353,259.762 185.486,246.639 175.556 C 233.515 165.625,219.731 155.250,216.008 152.500 C 199.569 140.359,195.209 137.076,186.459 130.250 C 176.946 122.829,172.671 121.282,170.130 124.343 M340.586 125.637 C 340.240 126.537,339.958 184.449,339.958 254.330 C 339.957 367.405,340.127 381.555,341.497 382.926 C 342.673 384.101,343.448 384.207,344.769 383.374 C 346.375 382.361,346.519 377.884,346.758 321.484 C 346.940 278.603,347.344 260.290,348.130 259.343 C 349.040 258.247,360.201 257.997,408.872 257.985 C 471.126 257.970,473.021 257.846,473.814 253.728 C 474.028 252.617,473.210 251.650,471.508 251.003 C 469.851 250.373,446.599 250.000,408.970 250.000 C 350.772 250.000,349.041 249.945,348.035 248.066 C 347.355 246.795,347.000 225.739,347.000 186.648 C 347.000 153.931,346.727 126.452,346.393 125.582 C 345.596 123.504,341.389 123.543,340.586 125.637 M179.486 133.023 C 178.281 134.972,181.275 137.764,197.849 150.150 C 207.557 157.405,218.791 165.852,222.814 168.921 C 226.837 171.989,233.201 176.750,236.956 179.500 C 240.711 182.250,259.832 196.650,279.448 211.500 C 299.064 226.350,318.906 241.200,323.542 244.500 C 332.234 250.688,334.311 253.716,331.875 256.651 C 331.133 257.544,327.303 260.576,323.364 263.388 C 319.424 266.199,306.593 275.714,294.850 284.531 C 283.108 293.348,271.410 302.123,268.855 304.031 C 224.267 337.327,180.689 370.713,179.907 372.173 C 179.357 373.201,179.148 374.431,179.443 374.907 C 179.737 375.384,179.315 376.324,178.504 376.996 C 177.208 378.072,177.030 363.310,177.020 253.991 C 177.010 144.247,177.182 129.906,178.493 130.994 C 179.310 131.672,179.756 132.585,179.486 133.023 " stroke="none" fill="undefined" fill-rule="evenodd"/></svg>