<svg id="svg" version="1.1" width="512" height="512" xmlns="http://www.w3.org/2000/svg"><path d="M296.000 126.729 C 293.382 127.725,293.031 129.264,293.015 139.816 C 293.000 150.276,293.915 154.000,296.500 154.000 C 298.744 154.000,299.822 150.966,300.067 143.964 C 300.432 133.549,299.624 134.000,317.928 134.000 C 331.466 134.000,333.875 134.231,334.393 135.582 C 335.470 138.389,335.089 250.827,334.000 251.500 C 333.450 251.840,333.000 251.230,333.000 250.144 C 333.000 248.741,327.137 243.789,312.750 233.039 C 301.613 224.717,289.350 215.456,285.500 212.458 C 281.650 209.460,276.700 205.707,274.500 204.118 C 269.304 200.364,228.845 169.986,218.500 162.071 C 202.999 150.210,196.685 145.470,192.436 142.500 C 190.076 140.850,184.484 136.688,180.011 133.250 C 171.630 126.811,166.878 125.270,165.607 128.582 C 165.273 129.452,165.000 157.754,165.000 191.475 C 165.000 246.460,164.837 252.849,163.418 253.393 C 162.548 253.727,135.211 254.007,102.668 254.015 C 40.898 254.030,38.979 254.157,38.186 258.272 C 37.972 259.383,38.790 260.350,40.492 260.997 C 42.149 261.627,65.346 262.000,102.865 262.000 C 147.992 262.000,162.893 262.293,163.800 263.200 C 164.707 264.107,165.000 279.456,165.000 326.150 C 165.000 382.374,165.147 387.983,166.642 388.820 C 169.790 390.581,172.458 389.160,187.000 377.977 C 206.444 363.025,250.397 329.900,259.656 323.220 C 266.789 318.074,308.385 286.676,309.000 285.975 C 309.275 285.661,311.075 284.329,313.000 283.015 C 314.925 281.701,320.240 277.690,324.812 274.103 C 331.042 269.213,333.002 267.117,332.640 265.733 C 332.346 264.608,332.615 264.038,333.329 264.276 C 334.199 264.566,334.628 280.382,335.000 325.914 C 335.483 385.083,335.566 387.210,337.441 388.581 C 338.974 389.701,343.869 390.000,360.691 390.000 C 387.040 390.000,386.007 390.541,385.985 376.750 C 385.970 367.047,384.717 362.762,381.728 362.186 C 379.285 361.716,378.000 365.803,378.000 374.046 C 378.000 382.527,378.883 382.176,358.500 381.787 L 343.500 381.500 343.500 322.000 L 343.500 262.500 405.215 262.000 C 459.101 261.563,467.126 261.304,468.475 259.955 C 469.822 258.607,469.837 258.159,468.591 256.455 C 467.207 254.561,465.225 254.484,405.331 254.000 L 343.500 253.500 343.000 191.169 C 342.517 130.928,342.435 128.790,340.559 127.419 C 339.023 126.296,334.329 126.016,318.059 126.079 C 306.751 126.122,296.825 126.415,296.000 126.729 " stroke="none" fill="undefined" fill-rule="evenodd"/></svg>