<svg id="svg" version="1.1" width="512" height="512" xmlns="http://www.w3.org/2000/svg"><path d="M166.200 119.200 C 165.293 120.107,165.000 135.340,165.000 181.629 C 165.000 235.958,164.823 243.034,163.429 244.429 C 162.035 245.822,155.093 246.000,102.120 246.000 C 51.663 246.000,42.081 246.224,40.441 247.441 C 37.898 249.330,39.517 252.239,43.607 253.132 C 45.198 253.479,72.657 253.817,104.628 253.882 C 151.949 253.978,162.962 254.250,163.870 255.343 C 164.656 256.291,165.060 274.733,165.242 317.984 C 165.479 374.366,165.636 379.368,167.196 380.352 C 169.585 381.858,173.669 379.695,184.154 371.371 C 188.914 367.592,196.789 361.606,201.654 358.069 C 206.519 354.532,212.207 350.333,214.294 348.737 C 219.176 345.003,249.291 322.316,273.000 304.512 C 283.175 296.870,294.794 288.117,298.819 285.059 C 302.845 282.002,308.952 277.475,312.391 275.000 C 322.696 267.584,333.000 258.693,333.000 257.217 C 333.000 256.456,333.499 256.000,334.109 256.203 C 334.907 256.469,335.173 272.664,335.058 313.839 C 334.969 345.335,334.657 371.729,334.364 372.493 C 333.942 373.593,329.923 373.945,314.964 374.190 C 295.813 374.505,293.300 375.013,294.567 378.313 C 295.608 381.028,301.682 381.991,317.500 381.951 C 333.649 381.910,340.739 381.020,342.106 378.862 C 342.581 378.113,342.976 349.964,342.985 316.309 C 342.994 278.618,343.366 254.892,343.953 254.529 C 344.477 254.205,370.915 253.940,402.703 253.940 C 434.491 253.940,462.032 253.607,463.905 253.199 C 468.439 252.211,470.215 249.414,467.559 247.441 C 465.919 246.223,456.212 246.000,404.916 246.000 C 350.486 246.000,344.151 245.837,343.607 244.418 C 343.273 243.548,343.000 215.455,343.000 181.990 C 343.000 128.008,342.823 120.966,341.429 119.571 C 340.103 118.246,336.702 118.002,319.679 118.014 C 308.580 118.021,298.488 118.299,297.250 118.630 C 295.731 119.037,295.000 119.992,295.000 121.570 C 295.000 125.046,299.938 125.988,318.191 125.994 C 326.821 125.997,334.110 126.369,334.389 126.821 C 334.668 127.272,334.969 153.468,335.057 185.034 C 335.173 226.302,334.907 242.531,334.109 242.797 C 333.499 243.000,333.000 242.524,333.000 241.738 C 333.000 239.987,309.383 221.389,279.998 200.000 C 277.354 198.075,269.012 191.775,261.462 186.000 C 253.911 180.225,245.572 173.925,242.930 172.000 C 240.288 170.075,234.836 165.996,230.813 162.935 C 214.409 150.452,195.518 136.329,191.633 133.644 C 189.360 132.074,186.375 129.758,185.000 128.498 C 180.669 124.531,170.737 118.000,169.034 118.000 C 168.135 118.000,166.860 118.540,166.200 119.200 " stroke="none" fill="undefined" fill-rule="evenodd"/></svg>