<svg id="svg" version="1.1" width="512" height="512" xmlns="http://www.w3.org/2000/svg"><path d="M144.571 119.571 C 143.177 120.966,143.000 128.095,143.000 182.955 L 143.000 244.767 140.750 245.370 C 139.512 245.701,116.393 245.979,89.372 245.986 C 47.658 245.998,40.063 246.219,39.040 247.452 C 36.835 250.109,38.242 252.421,42.511 253.158 C 44.705 253.537,67.819 253.890,93.875 253.942 C 119.932 253.994,141.644 254.280,142.125 254.578 C 142.609 254.877,143.000 282.523,143.000 316.488 C 143.000 383.477,142.784 381.000,148.624 381.000 C 151.040 381.000,169.302 371.128,175.683 366.372 C 177.434 365.068,179.143 364.000,179.482 364.000 C 179.820 364.000,183.926 361.637,188.605 358.750 C 193.285 355.863,198.326 352.829,199.807 352.010 C 201.288 351.190,207.036 347.703,212.580 344.260 C 218.124 340.817,222.935 338.000,223.272 338.000 C 224.017 338.000,236.903 330.129,239.000 328.392 C 239.825 327.709,243.019 325.827,246.097 324.209 C 249.175 322.591,254.495 319.408,257.918 317.134 C 261.341 314.860,264.447 312.984,264.821 312.964 C 265.194 312.945,269.325 310.475,274.000 307.476 C 278.675 304.477,284.300 301.057,286.500 299.875 C 288.700 298.693,293.875 295.618,298.000 293.041 C 309.240 286.020,324.579 276.826,329.838 273.958 C 332.402 272.560,338.075 269.073,342.444 266.208 C 346.813 263.344,350.938 261.000,351.611 261.000 C 352.283 261.000,353.756 259.762,354.885 258.250 L 356.937 255.500 356.968 317.128 C 356.997 372.026,357.172 378.898,358.579 380.065 C 359.694 380.991,365.043 381.489,376.829 381.763 C 395.648 382.200,403.745 381.353,405.369 378.778 C 407.642 375.173,404.888 374.526,385.034 374.000 C 374.654 373.725,365.787 373.125,365.331 372.667 C 364.090 371.424,363.718 259.872,364.944 256.648 L 365.950 254.000 412.725 253.926 C 438.451 253.885,461.477 253.548,463.894 253.176 C 468.812 252.419,471.289 249.890,469.179 247.778 C 468.190 246.788,456.440 246.387,417.033 246.000 C 389.056 245.725,365.790 245.125,365.332 244.667 C 364.875 244.209,364.374 216.114,364.220 182.234 C 364.026 139.539,363.605 120.229,362.848 119.317 C 362.006 118.302,356.783 118.000,340.069 118.000 C 316.839 118.000,314.079 118.524,315.399 122.681 C 315.945 124.403,317.196 124.808,323.672 125.355 C 327.868 125.710,336.806 126.000,343.534 126.000 C 355.374 126.000,355.786 126.072,356.370 128.250 C 356.701 129.488,356.979 155.897,356.986 186.939 L 357.000 243.377 354.971 241.199 C 353.855 240.001,351.493 238.277,349.721 237.368 C 347.949 236.459,342.900 233.403,338.500 230.578 C 334.100 227.753,329.375 224.903,328.000 224.245 C 326.625 223.588,322.350 221.004,318.500 218.505 C 314.650 216.005,310.360 213.407,308.968 212.730 C 307.575 212.054,301.725 208.652,295.968 205.170 C 290.210 201.689,284.825 198.449,284.000 197.970 C 280.497 195.936,263.100 185.387,258.500 182.508 C 254.157 179.790,250.877 177.816,241.500 172.280 C 235.307 168.623,219.803 159.196,215.500 156.471 C 212.750 154.730,207.575 151.628,204.000 149.578 C 200.425 147.528,194.350 143.873,190.500 141.457 C 186.650 139.040,182.107 136.426,180.404 135.647 C 178.701 134.868,175.034 132.633,172.256 130.680 C 169.478 128.727,164.733 125.810,161.713 124.199 C 158.692 122.587,155.171 120.533,153.888 119.634 C 150.933 117.565,146.607 117.535,144.571 119.571 " stroke="none" fill="undefined" fill-rule="evenodd"/></svg>