<svg id="svg" version="1.1" width="512" height="512" xmlns="http://www.w3.org/2000/svg"><path d="M229.500 95.609 C 222.714 96.306,202.891 101.042,195.045 103.841 C 184.604 107.565,167.056 116.680,157.000 123.603 C 147.555 130.105,127.441 149.498,121.325 158.000 C 115.955 165.464,106.337 181.345,105.465 184.188 C 105.074 185.460,104.395 186.954,103.955 187.509 C 102.290 189.608,96.816 205.974,93.756 218.000 C 90.655 230.187,90.574 231.063,90.538 253.000 C 90.502 274.413,90.639 276.080,93.379 287.500 C 97.800 305.927,106.430 327.375,113.296 337.000 C 114.277 338.375,116.974 342.425,119.290 346.000 C 124.708 354.366,147.585 377.254,156.000 382.729 C 159.575 385.056,163.046 387.420,163.713 387.984 C 165.702 389.666,186.138 399.939,189.442 400.918 C 191.124 401.417,194.750 402.723,197.500 403.820 C 200.250 404.917,207.675 407.081,214.000 408.628 C 225.009 411.322,226.504 411.439,249.000 411.373 L 272.500 411.304 285.500 407.770 C 292.650 405.827,301.200 403.258,304.500 402.061 C 312.529 399.148,328.365 391.255,332.574 388.068 C 334.439 386.656,338.786 383.705,342.233 381.512 C 350.659 376.150,373.553 353.018,377.934 345.440 C 379.823 342.173,382.153 338.600,383.113 337.500 C 385.400 334.878,394.574 316.859,395.442 313.285 C 395.813 311.753,396.956 308.700,397.981 306.500 C 402.145 297.561,405.929 278.206,406.582 262.500 C 407.267 246.024,405.958 227.278,403.580 219.500 C 402.739 216.750,401.417 212.025,400.643 209.000 C 398.603 201.028,395.412 192.627,390.925 183.411 C 387.169 175.698,385.279 172.502,377.094 160.021 C 371.187 151.014,349.643 130.104,338.962 123.009 C 327.967 115.707,314.684 108.506,307.519 105.965 C 304.759 104.986,300.475 103.475,298.000 102.607 C 283.434 97.499,272.940 95.846,253.000 95.519 C 242.275 95.342,231.700 95.383,229.500 95.609 M273.669 107.551 C 294.255 111.645,310.197 117.730,326.615 127.763 C 377.745 159.007,405.703 221.479,394.407 279.242 C 389.437 304.660,381.270 323.114,365.969 343.500 C 352.322 361.682,328.575 380.717,310.000 388.361 C 295.571 394.300,289.041 396.346,276.000 399.015 C 251.684 403.992,229.468 402.813,205.500 395.276 C 197.419 392.734,185.182 387.888,181.500 385.771 C 180.400 385.139,177.925 383.820,176.000 382.841 C 167.739 378.639,152.198 366.932,143.779 358.568 C 137.905 352.733,127.095 339.223,123.321 333.000 C 121.426 329.877,119.331 326.190,116.155 320.387 C 106.804 303.304,100.010 275.331,100.004 253.884 C 99.998 234.983,105.440 208.866,112.108 195.790 C 113.149 193.749,114.000 191.496,114.000 190.783 C 114.000 189.404,123.870 172.402,127.399 167.702 C 142.635 147.409,157.181 134.531,177.500 123.349 C 186.446 118.426,202.948 111.910,211.500 109.924 C 236.550 104.106,253.154 103.472,273.669 107.551 M198.500 223.461 C 186.552 225.979,176.053 234.087,170.101 245.391 C 166.605 252.032,166.309 254.166,168.571 256.429 C 171.599 259.456,173.757 258.267,178.881 250.750 C 184.270 242.845,188.796 238.817,196.500 235.072 C 200.576 233.090,203.071 232.636,210.000 232.615 C 217.599 232.591,219.213 232.936,225.230 235.868 C 233.230 239.766,238.337 245.175,243.025 254.716 C 247.272 263.359,252.124 270.918,255.140 273.592 C 256.438 274.743,260.525 277.345,264.223 279.376 C 280.684 288.415,304.762 285.841,317.875 273.640 C 321.812 269.977,328.000 260.775,328.000 258.583 C 328.000 257.751,327.130 256.605,326.066 256.035 C 322.630 254.197,319.267 254.839,317.078 257.750 C 312.573 263.744,306.213 269.081,300.501 271.661 C 295.501 273.919,293.127 274.365,286.272 274.334 C 279.087 274.301,277.224 273.892,271.575 271.111 C 263.854 267.311,258.273 261.355,253.752 252.092 C 248.121 240.554,241.696 232.385,236.000 229.519 C 234.075 228.551,231.779 227.128,230.898 226.358 C 228.716 224.451,216.726 222.017,210.000 222.115 C 206.975 222.160,201.800 222.765,198.500 223.461 " stroke="none" fill="undefined" fill-rule="evenodd"/></svg>