<svg id="svg" version="1.1" width="512" height="384" xmlns="http://www.w3.org/2000/svg"><path d="M158.571 56.571 C 157.159 57.984,157.000 71.088,157.000 185.871 C 157.000 283.883,157.279 313.879,158.200 314.800 C 159.883 316.483,163.564 316.294,165.429 314.429 C 166.823 313.034,167.000 305.992,167.000 252.012 L 167.000 191.167 171.250 189.750 C 174.913 188.529,175.500 187.943,175.500 185.507 C 175.500 183.063,174.959 182.529,171.500 181.559 L 167.500 180.437 167.000 118.681 C 166.567 65.246,166.298 56.799,165.000 55.978 C 162.778 54.574,160.344 54.799,158.571 56.571 M235.035 56.934 C 233.444 59.907,233.606 313.206,235.200 314.800 C 235.860 315.460,237.380 316.000,238.578 316.000 C 243.414 316.000,243.495 315.329,243.580 274.096 C 243.736 199.410,243.905 190.963,245.250 190.605 C 251.941 188.827,252.500 188.437,252.500 185.539 C 252.500 183.048,251.995 182.498,249.000 181.735 C 247.075 181.245,245.079 180.435,244.565 179.937 C 244.007 179.396,243.604 154.702,243.565 118.669 C 243.495 53.763,243.595 55.000,238.413 55.000 C 237.120 55.000,235.606 55.867,235.035 56.934 M311.872 56.655 C 309.829 59.120,309.835 311.892,311.879 314.354 C 313.479 316.282,317.086 316.514,318.800 314.800 C 319.707 313.893,320.000 298.800,320.000 253.000 C 320.000 207.200,320.293 192.107,321.200 191.200 C 321.860 190.540,323.403 190.000,324.629 190.000 C 327.370 190.000,330.209 187.324,329.788 185.136 C 329.616 184.245,328.131 182.926,326.488 182.206 C 324.844 181.485,322.825 180.533,322.000 180.090 C 320.697 179.389,320.462 171.298,320.212 118.448 C 320.014 76.612,319.585 57.205,318.839 56.306 C 317.327 54.485,313.514 54.676,311.872 56.655 M388.557 57.223 C 387.168 59.205,387.000 72.996,387.000 185.157 C 387.000 264.419,387.360 311.818,387.975 313.435 C 389.207 316.675,394.351 317.081,395.965 314.066 C 396.646 312.794,397.000 291.409,397.000 251.585 L 397.000 191.038 399.250 190.524 C 400.488 190.241,416.254 189.895,434.287 189.755 C 468.494 189.489,468.932 189.432,468.985 185.285 C 469.025 182.063,464.636 181.576,432.000 181.184 C 412.003 180.944,399.019 180.402,398.250 179.775 C 397.275 178.980,397.000 165.556,397.000 118.812 C 397.000 79.404,396.645 58.206,395.965 56.934 C 394.561 54.310,390.485 54.469,388.557 57.223 M113.223 119.557 C 111.013 121.104,111.000 121.285,111.000 149.934 C 111.000 171.781,110.698 179.002,109.750 179.775 C 108.987 180.397,95.842 180.985,76.000 181.283 C 58.125 181.552,42.487 182.101,41.250 182.503 C 39.786 182.978,39.000 184.032,39.000 185.519 C 39.000 189.537,42.918 190.000,76.949 190.000 C 100.233 190.000,108.917 190.317,109.800 191.200 C 110.678 192.078,111.000 200.117,111.000 221.129 C 111.000 252.965,110.870 252.322,117.578 253.581 C 122.698 254.541,131.870 253.558,133.560 251.868 C 134.808 250.620,135.022 241.027,135.037 185.462 C 135.054 125.196,134.932 120.423,133.337 119.257 C 130.761 117.374,116.025 117.593,113.223 119.557 M189.718 119.250 C 188.247 120.355,187.998 124.106,187.574 151.500 C 186.991 189.094,186.990 183.074,187.588 220.246 L 188.083 250.992 190.992 252.496 C 194.956 254.546,206.823 254.512,209.777 252.443 L 212.000 250.887 212.000 185.478 C 212.000 121.835,211.948 120.042,210.066 119.035 C 207.294 117.552,191.760 117.716,189.718 119.250 M266.728 119.250 C 264.505 120.930,263.636 160.375,264.509 219.942 C 264.887 245.765,265.192 250.620,266.513 251.942 C 267.694 253.123,270.260 253.500,277.116 253.500 C 284.916 253.500,286.357 253.233,287.581 251.559 C 288.772 249.930,289.000 239.207,289.000 184.844 C 289.000 121.828,288.948 120.042,287.066 119.035 C 284.294 117.552,268.758 117.716,266.728 119.250 M343.441 119.418 C 341.618 120.750,341.459 122.736,340.818 152.168 C 340.444 169.401,340.143 184.400,340.150 185.500 C 340.157 186.600,340.370 201.509,340.622 218.632 C 341.155 254.801,340.566 252.874,351.366 253.741 C 358.665 254.327,362.147 253.710,364.430 251.427 C 365.824 250.033,366.000 242.655,366.000 185.584 C 366.000 124.586,365.907 121.226,364.171 119.655 C 361.748 117.462,346.360 117.286,343.441 119.418 " stroke="none" fill="undefined" fill-rule="evenodd"/></svg>