<svg id="svg" version="1.1" width="512" height="512" xmlns="http://www.w3.org/2000/svg"><path d="M233.500 90.614 C 229.803 90.996,222.869 92.623,209.000 96.362 C 184.054 103.088,160.841 116.940,141.000 136.941 C 121.391 156.708,107.432 180.465,101.304 204.500 C 100.463 207.800,98.817 213.875,97.646 218.000 C 95.756 224.662,95.517 228.071,95.509 248.500 C 95.501 269.195,95.715 272.202,97.646 278.500 C 98.826 282.350,100.073 287.300,100.417 289.500 C 101.829 298.531,114.135 327.016,118.994 332.500 C 119.969 333.600,121.449 335.850,122.285 337.500 C 123.862 340.616,135.899 355.020,142.000 361.093 C 152.757 371.800,170.756 384.931,181.000 389.544 C 181.825 389.915,184.750 391.272,187.500 392.558 C 196.370 396.707,207.383 400.681,212.000 401.399 C 214.475 401.784,219.650 403.075,223.500 404.268 C 229.861 406.239,232.599 406.431,253.500 406.364 L 276.500 406.292 290.000 402.703 C 297.425 400.729,306.425 398.031,310.000 396.708 C 318.798 393.450,334.065 385.780,339.000 382.138 C 340.375 381.124,344.175 378.540,347.445 376.397 C 355.488 371.125,376.519 349.993,381.691 341.987 C 383.996 338.419,386.765 334.356,387.845 332.957 C 390.712 329.245,399.566 311.463,402.014 304.500 C 403.175 301.200,405.754 292.650,407.746 285.500 L 411.367 272.500 411.427 248.500 C 411.482 226.644,411.294 223.875,409.329 217.500 C 408.143 213.650,406.658 207.945,406.030 204.822 C 405.402 201.699,404.013 197.333,402.944 195.120 C 401.875 192.907,400.997 190.512,400.994 189.798 C 400.981 187.345,390.387 167.492,384.025 158.000 C 376.847 147.291,355.930 125.785,346.975 119.906 C 334.355 111.623,331.110 109.703,323.500 106.014 C 312.249 100.562,301.273 96.383,295.999 95.545 C 293.525 95.152,288.575 93.925,285.000 92.819 C 279.569 91.138,275.128 90.757,258.000 90.504 C 246.725 90.337,235.700 90.386,233.500 90.614 M276.175 101.602 C 279.296 102.380,284.921 103.661,288.675 104.449 C 304.261 107.722,327.525 118.120,338.500 126.717 C 357.273 141.423,361.328 145.442,372.934 160.836 C 384.925 176.742,393.901 196.122,398.020 215.000 C 399.040 219.675,400.353 225.072,400.937 226.993 C 402.639 232.588,402.304 265.751,400.492 271.072 C 399.662 273.507,398.335 278.875,397.544 283.000 C 396.013 290.972,392.034 303.331,389.557 307.802 C 388.735 309.286,387.383 312.075,386.551 314.000 C 385.720 315.925,384.478 318.400,383.790 319.500 C 383.102 320.600,381.186 323.750,379.531 326.500 C 371.491 339.862,353.911 359.291,343.388 366.443 C 341.250 367.897,337.250 370.667,334.500 372.599 C 331.750 374.531,327.925 376.901,326.000 377.866 C 324.075 378.831,321.600 380.127,320.500 380.746 C 312.256 385.384,297.692 390.706,288.354 392.493 C 284.424 393.245,278.830 394.567,275.923 395.430 C 267.859 397.825,240.311 397.618,230.167 395.087 C 225.950 394.035,220.546 392.863,218.158 392.484 C 211.896 391.488,193.714 384.747,186.500 380.748 C 176.438 375.169,171.988 372.476,169.000 370.157 C 167.075 368.664,164.195 366.613,162.600 365.600 C 157.543 362.387,142.943 347.776,137.117 340.097 C 130.507 331.385,124.048 321.826,124.020 320.715 C 124.009 320.283,123.228 318.752,122.285 317.312 C 119.093 312.440,112.663 295.959,110.459 287.000 C 105.596 267.232,105.000 263.004,105.007 248.316 C 105.012 236.984,105.483 231.545,107.007 225.187 C 108.103 220.614,109.000 216.028,109.000 214.994 C 109.000 212.727,115.172 193.713,117.275 189.500 C 126.621 170.780,127.051 170.063,136.274 157.829 C 144.867 146.432,153.514 138.069,167.721 127.416 C 172.690 123.690,185.872 116.034,190.239 114.338 C 192.583 113.428,194.991 112.309,195.592 111.851 C 197.656 110.276,211.512 105.884,220.500 103.955 C 225.450 102.893,231.075 101.643,233.000 101.178 C 239.025 99.721,269.843 100.024,276.175 101.602 M251.816 102.677 C 250.890 102.921,249.878 104.444,249.566 106.061 C 249.255 107.677,248.749 110.304,248.443 111.898 C 247.948 114.474,247.253 114.947,242.193 116.148 C 237.202 117.333,236.462 117.824,236.195 120.133 C 235.942 122.314,236.440 122.958,239.094 123.883 C 240.856 124.497,243.340 125.000,244.614 125.000 C 247.082 125.000,249.000 127.575,249.000 130.887 C 249.000 134.196,251.195 138.000,253.104 138.000 C 255.535 138.000,258.000 134.213,258.000 130.477 C 258.000 126.868,259.552 125.000,262.551 125.000 C 263.734 125.000,266.144 124.497,267.906 123.883 C 270.560 122.958,271.058 122.314,270.805 120.133 C 270.540 117.842,269.786 117.326,265.000 116.160 C 261.975 115.423,259.322 114.644,259.104 114.430 C 258.886 114.216,258.339 111.705,257.887 108.850 C 257.174 104.337,255.700 101.789,254.000 102.131 C 253.725 102.187,252.742 102.432,251.816 102.677 M242.613 371.987 C 237.063 372.994,235.661 374.001,236.165 376.619 C 236.806 379.948,240.879 380.971,253.500 380.971 C 266.524 380.971,270.286 379.940,270.819 376.227 C 271.057 374.575,270.436 373.736,268.405 372.964 C 264.618 371.524,248.525 370.914,242.613 371.987 " stroke="none" fill="undefined" fill-rule="evenodd"/></svg>