<svg id="svg" version="1.1" width="512" height="384" xmlns="http://www.w3.org/2000/svg"><path d="M321.500 132.132 C 297.750 142.152,289.062 145.693,285.768 146.696 C 284.593 147.054,282.466 145.597,279.159 142.165 L 274.283 137.106 268.892 138.515 C 264.057 139.778,260.104 141.286,250.500 145.532 C 243.076 148.814,236.533 151.513,223.500 156.666 C 215.800 159.711,208.001 163.332,206.170 164.713 C 202.906 167.174,202.846 167.356,203.170 173.862 L 203.500 180.500 198.000 183.227 C 194.975 184.726,188.224 187.764,182.998 189.977 L 173.497 194.000 134.371 194.000 C 92.182 194.000,92.432 193.968,93.173 199.195 L 93.500 201.500 134.166 201.761 L 174.833 202.022 183.666 198.396 C 200.928 191.311,202.540 190.728,206.124 190.274 C 209.532 189.841,209.891 190.072,212.168 194.157 C 214.537 198.410,214.691 198.497,219.544 198.375 C 222.406 198.303,227.246 197.106,231.000 195.543 C 275.719 176.922,281.233 174.509,286.149 171.406 C 289.678 169.178,290.122 168.500,289.570 166.173 C 289.222 164.703,288.678 161.675,288.360 159.445 L 287.784 155.390 297.142 151.246 C 302.289 148.967,309.650 145.896,313.500 144.421 C 335.572 135.969,339.892 133.226,337.388 129.250 C 336.782 128.287,335.659 127.403,334.893 127.285 C 334.127 127.167,328.100 129.348,321.500 132.132 M271.610 149.177 C 272.777 151.066,266.795 155.229,258.290 158.448 C 254.006 160.069,247.125 162.922,243.000 164.787 C 230.571 170.406,218.198 175.000,215.490 175.000 C 214.086 175.000,212.672 174.308,212.347 173.463 C 211.660 171.671,214.638 168.000,216.780 168.000 C 217.588 168.000,221.006 166.831,224.375 165.401 C 227.744 163.972,232.750 161.893,235.500 160.782 C 238.250 159.670,242.349 157.914,244.610 156.880 C 246.870 155.846,249.052 155.000,249.458 155.000 C 249.865 155.000,251.616 154.345,253.349 153.544 C 264.692 148.304,270.249 146.975,271.610 149.177 M279.000 163.010 C 279.000 164.115,278.171 165.730,277.157 166.597 C 275.625 167.909,251.179 178.314,240.500 182.199 C 238.850 182.799,237.050 183.627,236.500 184.038 C 235.950 184.450,232.271 185.903,228.324 187.267 C 223.210 189.035,220.839 189.439,220.074 188.674 C 217.107 185.707,219.734 183.411,231.500 178.684 C 236.450 176.695,245.450 172.970,251.500 170.407 C 275.257 160.341,279.000 159.334,279.000 163.010 M350.412 194.765 C 348.676 195.938,348.088 199.828,349.473 200.977 C 350.315 201.676,361.424 201.940,382.620 201.764 L 414.500 201.500 414.827 199.195 C 415.554 194.067,415.121 193.999,382.128 194.015 C 365.282 194.024,351.011 194.361,350.412 194.765 " stroke="none" fill="undefined" fill-rule="evenodd"/></svg>