<svg id="svg" version="1.1" width="512" height="384" xmlns="http://www.w3.org/2000/svg"><path d="M128.590 160.669 C 124.459 161.371,115.472 166.651,112.602 170.061 C 111.266 171.649,108.917 175.548,107.383 178.724 C 105.849 181.901,104.123 184.831,103.547 185.235 C 102.971 185.639,89.162 185.976,72.861 185.985 C 45.043 185.999,43.076 186.119,40.861 187.935 C 38.593 189.794,38.571 189.943,40.284 191.685 C 41.907 193.337,44.828 193.545,72.784 194.000 C 89.678 194.275,104.063 194.864,104.750 195.309 C 105.438 195.754,106.000 196.773,106.000 197.574 C 106.000 200.234,112.186 210.041,115.367 212.424 C 122.561 217.814,126.371 219.000,136.492 219.000 C 142.916 219.000,147.287 218.486,149.782 217.438 C 151.827 216.579,156.425 215.274,160.000 214.538 C 177.251 210.988,197.435 206.593,208.500 203.978 C 212.900 202.938,218.300 201.808,220.500 201.466 C 222.700 201.125,226.525 200.262,229.000 199.549 C 235.488 197.680,250.217 195.000,254.000 195.000 C 258.241 195.000,272.815 197.780,280.918 200.135 C 284.449 201.161,288.380 202.000,289.656 202.000 C 290.931 202.000,296.305 203.125,301.597 204.500 C 306.889 205.875,312.215 207.000,313.431 207.000 C 314.648 207.000,317.636 207.672,320.072 208.494 C 322.507 209.315,327.200 210.389,330.500 210.881 C 338.323 212.046,348.993 214.571,356.500 217.033 C 365.149 219.869,380.040 219.798,385.457 216.895 C 393.912 212.363,397.333 208.294,403.021 196.000 C 403.609 194.730,408.482 194.423,434.824 194.000 C 463.158 193.545,466.091 193.338,467.716 191.685 C 469.430 189.943,469.407 189.795,467.139 187.935 C 464.920 186.116,462.961 186.000,434.399 186.000 L 404.020 186.000 400.961 179.254 C 397.323 171.231,394.375 167.945,387.000 163.693 C 381.798 160.693,380.959 160.525,371.500 160.580 C 364.263 160.622,360.639 161.090,358.383 162.275 C 356.669 163.176,352.619 164.351,349.383 164.886 C 346.148 165.420,341.531 166.565,339.124 167.429 C 336.718 168.293,333.553 169.000,332.092 169.000 C 330.631 169.000,326.975 169.677,323.968 170.505 C 320.961 171.333,314.900 172.640,310.500 173.411 C 306.100 174.181,301.375 175.243,300.000 175.772 C 298.625 176.300,294.800 177.061,291.500 177.464 C 288.200 177.866,284.082 178.785,282.349 179.505 C 280.616 180.226,276.035 181.306,272.169 181.906 C 268.303 182.506,263.954 183.447,262.505 183.998 C 257.077 186.062,248.593 185.085,228.000 180.025 C 219.587 177.958,207.962 175.462,197.500 173.477 C 193.650 172.746,187.818 171.440,184.540 170.574 C 181.262 169.708,177.540 169.000,176.269 169.000 C 173.812 169.000,162.563 166.153,152.284 162.929 C 145.934 160.938,133.814 159.782,128.590 160.669 M143.977 171.004 C 155.190 176.774,159.442 190.237,153.151 200.054 C 148.125 207.899,142.697 211.000,133.992 211.000 C 119.349 211.000,108.957 195.614,114.553 182.218 C 116.708 177.060,120.621 173.170,126.500 170.342 C 132.180 167.610,137.795 167.822,143.977 171.004 M381.000 170.081 C 395.634 176.705,399.457 192.015,389.443 203.892 C 381.975 212.749,367.339 213.369,358.624 205.197 C 348.220 195.441,350.734 177.918,363.494 171.259 C 370.585 167.558,374.800 167.275,381.000 170.081 M176.500 176.942 C 178.700 177.411,183.650 178.526,187.500 179.419 C 205.657 183.631,211.820 184.968,215.756 185.549 C 221.096 186.338,223.807 189.450,221.436 192.071 C 220.598 192.996,217.570 194.058,214.706 194.430 C 211.843 194.802,206.640 195.982,203.145 197.053 C 199.649 198.124,195.527 199.000,193.984 199.000 C 192.441 199.000,188.326 199.897,184.839 200.994 C 181.353 202.091,174.845 203.278,170.378 203.632 L 162.255 204.275 163.173 198.888 C 163.677 195.924,163.811 189.563,163.470 184.750 L 162.850 176.000 167.675 176.044 C 170.329 176.068,174.300 176.472,176.500 176.942 M344.377 184.750 C 344.047 189.563,344.227 195.924,344.777 198.886 L 345.776 204.272 338.598 203.729 C 334.649 203.430,327.837 202.292,323.459 201.199 C 311.921 198.319,298.111 195.190,293.500 194.412 C 288.098 193.500,286.000 192.288,286.000 190.079 C 286.000 188.001,291.409 185.000,295.154 185.000 C 296.448 185.000,300.430 184.166,304.003 183.147 C 307.576 182.127,312.707 180.964,315.405 180.562 C 318.103 180.160,323.503 178.994,327.405 177.971 C 331.307 176.947,336.858 176.085,339.739 176.055 L 344.978 176.000 344.377 184.750 " stroke="none" fill="undefined" fill-rule="evenodd"/></svg>