<svg id="svg" version="1.1" width="512" height="384" xmlns="http://www.w3.org/2000/svg"><path d="M114.655 144.829 C 113.241 146.391,113.000 149.344,113.000 165.129 C 113.000 178.162,112.647 183.953,111.800 184.800 C 110.914 185.686,101.441 186.008,75.550 186.032 C 47.990 186.057,40.126 186.347,38.750 187.392 C 36.414 189.166,36.545 190.568,39.223 192.443 C 41.130 193.779,46.346 194.000,76.023 194.000 C 101.583 194.000,110.913 194.313,111.800 195.200 C 112.648 196.048,113.000 201.877,113.000 215.045 C 113.000 231.838,113.182 233.854,114.829 235.345 C 116.512 236.868,127.593 237.000,253.829 237.000 C 389.667 237.000,391.019 236.981,393.000 235.000 C 394.859 233.141,395.000 231.667,395.000 214.107 C 395.000 197.802,395.217 195.131,396.582 194.607 C 397.452 194.273,413.615 194.000,432.500 194.000 C 451.385 194.000,467.548 193.727,468.418 193.393 C 470.504 192.593,470.504 187.407,468.418 186.607 C 467.548 186.273,451.686 185.994,433.168 185.986 C 414.651 185.979,398.488 185.701,397.250 185.370 C 395.017 184.771,395.000 184.621,395.000 165.883 C 395.000 148.333,394.859 146.859,393.000 145.000 C 391.019 143.019,389.667 143.000,253.655 143.000 C 121.867 143.000,116.243 143.074,114.655 144.829 M384.800 152.200 C 386.478 153.878,386.478 183.122,384.800 184.800 C 383.879 185.721,353.324 186.000,253.359 186.000 C 181.726 186.000,122.900 185.647,122.633 185.216 C 122.367 184.784,122.017 177.334,121.857 168.659 C 121.616 155.657,121.823 152.724,123.033 151.959 C 125.394 150.465,383.303 150.703,384.800 152.200 M384.800 195.200 C 385.628 196.028,386.000 201.110,386.000 211.593 C 386.000 224.525,385.765 226.876,384.418 227.393 C 381.562 228.489,123.173 228.089,122.492 226.988 C 121.689 225.688,121.707 196.283,122.512 194.981 C 123.466 193.436,383.253 193.653,384.800 195.200 " stroke="none" fill="undefined" fill-rule="evenodd"/></svg>