<svg id="svg" version="1.1" width="512" height="384" xmlns="http://www.w3.org/2000/svg"><path d="M173.500 119.612 C 171.300 120.451,167.778 121.566,165.672 122.091 C 150.281 125.928,129.057 145.722,123.709 161.227 C 119.570 173.229,117.981 178.738,117.990 181.050 C 118.009 185.984,117.888 186.000,81.411 186.000 C 49.081 186.000,47.093 186.105,44.861 187.935 C 42.593 189.795,42.570 189.942,44.285 191.685 C 45.931 193.360,48.828 193.522,81.738 193.787 C 107.931 193.998,118.182 193.753,120.326 192.865 C 123.627 191.498,126.000 186.842,126.000 181.734 C 126.000 177.150,131.012 163.233,135.111 156.437 C 139.340 149.423,151.824 137.412,158.748 133.695 C 169.577 127.881,177.268 126.000,190.207 126.000 C 202.880 126.000,209.048 127.382,219.626 132.589 C 228.951 137.180,240.939 148.960,246.288 158.788 C 251.850 169.007,253.794 176.648,254.230 190.000 C 254.653 202.940,256.459 210.895,261.269 221.000 C 268.986 237.211,286.763 253.442,301.500 257.732 C 304.250 258.532,308.750 259.847,311.500 260.655 C 315.154 261.727,319.866 262.006,329.000 261.690 C 342.029 261.239,349.236 259.456,360.019 254.016 C 370.873 248.539,385.194 234.377,390.442 223.929 C 393.701 217.440,398.000 204.708,398.000 201.544 C 398.000 200.216,398.439 197.976,398.975 196.565 L 399.950 194.000 434.364 194.000 C 467.325 194.000,468.878 193.916,471.139 192.000 L 473.500 190.000 471.139 188.000 C 468.869 186.077,467.325 186.000,431.012 186.000 C 402.017 186.000,393.004 186.290,392.209 187.250 C 391.640 187.938,390.965 191.875,390.711 196.000 C 389.988 207.716,385.123 219.466,376.517 230.286 C 371.009 237.210,357.971 247.138,351.301 249.485 C 348.661 250.415,345.022 251.811,343.216 252.588 C 340.957 253.559,335.965 253.998,327.216 253.993 C 316.470 253.987,313.416 253.618,307.500 251.609 C 292.149 246.397,279.067 235.813,271.088 222.150 C 264.709 211.228,262.867 204.488,262.030 189.000 C 261.282 175.162,259.056 165.910,254.171 156.335 C 250.749 149.627,241.317 138.421,234.777 133.294 C 226.021 126.428,222.082 124.339,211.507 120.952 C 203.293 118.320,200.948 118.005,189.897 118.044 C 181.298 118.074,176.275 118.555,173.500 119.612 " stroke="none" fill="undefined" fill-rule="evenodd"/></svg>