<svg id="svg" version="1.1" width="512" height="384" xmlns="http://www.w3.org/2000/svg"><path d="M111.223 148.557 C 109.060 150.071,109.000 150.622,109.000 168.857 C 109.000 182.101,108.648 187.952,107.800 188.800 C 106.913 189.687,97.630 190.000,72.234 190.000 C 50.457 190.000,37.160 190.379,35.934 191.035 C 33.446 192.367,33.446 195.633,35.934 196.965 C 37.160 197.621,50.457 198.000,72.234 198.000 C 97.630 198.000,106.913 198.313,107.800 199.200 C 108.648 200.048,109.000 205.895,109.000 219.129 C 109.000 234.821,109.255 238.112,110.571 239.429 C 111.985 240.842,125.963 241.000,249.500 241.000 C 373.037 241.000,387.015 240.842,388.429 239.429 C 389.745 238.112,390.000 234.821,390.000 219.129 C 390.000 205.895,390.352 200.048,391.200 199.200 C 392.088 198.312,401.562 198.000,427.629 198.000 C 458.321 198.000,463.059 197.798,464.429 196.429 C 466.244 194.613,466.319 194.053,465.022 192.000 C 464.214 190.721,458.802 190.458,428.345 190.213 C 404.529 190.022,392.180 189.564,391.308 188.840 C 390.316 188.017,390.000 183.232,390.000 169.033 C 390.000 152.164,389.819 150.146,388.171 148.655 C 386.488 147.132,375.457 147.000,249.894 147.000 C 128.015 147.000,113.208 147.166,111.223 148.557 M137.418 156.607 C 138.821 157.145,139.000 161.370,139.000 193.907 C 139.000 221.113,138.690 230.910,137.800 231.800 C 136.179 233.421,119.821 233.421,118.200 231.800 C 117.310 230.910,117.000 221.126,117.000 193.967 C 117.000 173.818,117.300 157.033,117.667 156.667 C 118.500 155.833,135.270 155.783,137.418 156.607 M350.418 156.607 C 351.821 157.145,352.000 161.370,352.000 193.907 C 352.000 221.113,351.690 230.910,350.800 231.800 C 349.059 233.541,149.941 233.541,148.200 231.800 C 146.430 230.030,146.478 157.377,148.250 156.662 C 150.051 155.935,348.527 155.881,350.418 156.607 M381.762 193.383 C 381.950 219.773,381.702 230.654,380.890 231.633 C 380.087 232.600,377.172 233.000,370.913 233.000 C 363.194 233.000,361.939 232.754,361.035 231.066 C 359.446 228.097,359.632 158.768,361.233 157.167 C 362.082 156.318,365.436 156.022,371.983 156.217 L 381.500 156.500 381.762 193.383 " stroke="none" fill="undefined" fill-rule="evenodd"/></svg>