<svg id="svg" version="1.1" width="512" height="384" xmlns="http://www.w3.org/2000/svg"><path d="M277.601 61.542 C 276.800 62.343,275.864 65.362,275.522 68.249 C 275.180 71.137,275.036 127.745,275.200 194.044 C 275.481 306.921,275.611 314.759,277.252 317.262 C 279.106 320.091,281.262 320.055,282.652 317.173 C 283.096 316.253,283.693 288.275,283.980 255.000 L 284.500 194.500 377.097 194.000 C 453.561 193.587,469.981 193.261,471.347 192.128 C 473.247 190.550,473.326 190.064,472.021 188.000 C 471.193 186.690,459.253 186.437,377.787 186.000 L 284.500 185.500 283.980 125.000 C 283.693 91.725,283.096 63.747,282.652 62.827 C 281.490 60.419,279.285 59.858,277.601 61.542 M217.750 123.080 C 216.145 124.015,216.000 126.571,216.000 153.850 C 216.000 175.655,215.680 183.920,214.800 184.800 C 213.886 185.714,193.780 186.000,130.411 186.000 C 49.626 186.000,47.153 186.056,44.861 187.935 C 42.593 189.795,42.570 189.942,44.285 191.685 C 45.978 193.405,50.443 193.514,129.703 193.767 C 188.947 193.956,213.724 194.356,214.668 195.139 C 215.722 196.014,216.000 202.363,216.000 225.551 C 216.000 250.860,216.214 255.071,217.571 256.429 C 220.020 258.877,237.078 258.676,239.345 256.171 C 240.849 254.509,241.000 248.450,241.000 189.743 C 241.000 132.349,240.825 124.968,239.429 123.571 C 238.223 122.366,235.720 122.007,228.679 122.030 C 223.630 122.047,218.713 122.519,217.750 123.080 " stroke="none" fill="undefined" fill-rule="evenodd"/></svg>