<svg id="svg" version="1.1" width="512" height="384" xmlns="http://www.w3.org/2000/svg"><path d="M187.593 58.170 C 186.156 60.222,186.000 72.677,186.000 185.175 C 186.000 277.701,186.300 310.564,187.161 312.453 C 188.589 315.589,190.396 315.700,192.443 312.777 C 193.810 310.826,194.000 303.272,194.000 250.884 C 194.000 184.592,193.393 190.006,200.832 189.994 C 206.081 189.986,212.009 188.140,212.718 186.293 C 213.671 183.809,210.155 182.000,204.374 182.000 C 201.490 182.000,197.976 181.561,196.565 181.025 L 194.000 180.050 193.985 120.775 C 193.970 60.665,193.787 57.412,190.343 56.277 C 189.707 56.067,188.470 56.919,187.593 58.170 M383.872 57.654 C 382.729 59.031,382.451 80.014,382.204 183.404 C 381.996 270.552,382.231 308.616,382.994 311.250 C 383.665 313.568,384.691 315.000,385.680 315.000 C 389.892 315.000,389.935 314.358,389.968 251.357 C 389.997 197.456,390.164 191.151,391.582 190.607 C 392.452 190.273,409.566 190.000,429.614 190.000 C 459.181 190.000,466.719 189.726,469.532 188.551 C 473.377 186.944,474.024 184.618,471.066 183.035 C 469.832 182.375,455.724 182.000,432.131 182.000 C 410.510 182.000,394.064 181.595,392.565 181.025 L 390.000 180.050 390.000 120.247 C 390.000 67.740,389.810 60.174,388.443 58.223 C 386.583 55.567,385.696 55.456,383.872 57.654 M127.035 119.934 C 126.390 121.140,126.000 132.793,126.000 150.875 C 126.000 172.982,125.703 180.074,124.750 180.691 C 124.063 181.136,105.821 181.725,84.212 182.000 C 51.886 182.411,44.771 182.750,44.055 183.909 C 42.956 185.690,43.670 187.608,45.827 188.666 C 46.747 189.117,65.050 189.714,86.500 189.993 L 125.500 190.500 125.765 220.438 C 125.996 246.538,126.241 250.608,127.670 252.188 C 129.923 254.677,146.992 254.866,149.429 252.429 C 150.825 251.032,151.000 243.594,151.000 185.629 C 151.000 136.229,150.709 120.109,149.800 119.200 C 149.023 118.423,144.986 118.000,138.335 118.000 C 129.210 118.000,127.955 118.215,127.035 119.934 M323.035 119.934 C 322.389 121.142,322.000 132.930,322.000 151.319 L 322.000 180.770 319.500 182.408 C 317.112 183.972,315.981 188.000,317.929 188.000 C 318.439 188.000,319.564 188.707,320.429 189.571 C 321.785 190.928,322.000 195.131,322.000 220.349 C 322.000 244.401,322.259 249.925,323.467 251.650 C 324.760 253.495,326.037 253.765,334.217 253.917 C 349.066 254.192,347.500 262.254,347.500 185.544 C 347.500 128.306,347.308 119.806,346.000 118.979 C 345.175 118.457,339.903 118.024,334.285 118.015 C 325.201 118.002,323.956 118.214,323.035 119.934 M232.529 183.355 C 229.870 185.299,231.228 187.692,235.695 188.932 C 246.404 191.906,260.457 187.732,254.471 183.355 C 253.232 182.450,249.594 182.000,243.500 182.000 C 237.406 182.000,233.768 182.450,232.529 183.355 M275.750 182.689 C 274.702 182.963,274.000 184.101,274.000 185.526 C 274.000 187.424,274.759 188.117,277.750 188.947 C 281.867 190.091,290.133 190.183,293.905 189.128 C 295.228 188.757,296.803 187.651,297.405 186.669 C 299.380 183.447,295.737 181.985,286.059 182.116 C 281.351 182.180,276.712 182.438,275.750 182.689 M254.506 227.350 C 253.660 228.642,251.154 234.380,248.937 240.100 C 246.721 245.820,244.502 251.400,244.007 252.500 C 240.966 259.246,238.000 268.033,238.000 270.293 C 238.000 273.667,240.495 275.000,246.812 275.000 C 249.669 275.000,252.214 275.553,252.843 276.311 C 253.574 277.192,254.024 290.295,254.215 316.276 C 254.479 352.072,254.634 355.062,256.315 356.715 C 258.058 358.430,258.205 358.407,260.065 356.139 C 261.903 353.896,262.000 351.874,262.000 315.589 C 262.000 287.220,262.309 277.091,263.200 276.200 C 263.860 275.540,266.735 275.000,269.589 275.000 C 273.156 275.000,275.496 274.419,277.072 273.143 L 279.366 271.285 277.081 264.393 C 275.824 260.602,273.750 255.025,272.472 252.000 C 271.193 248.975,268.936 243.350,267.456 239.500 C 264.152 230.912,262.068 226.730,260.610 225.765 C 258.501 224.370,256.041 225.008,254.506 227.350 " stroke="none" fill="undefined" fill-rule="evenodd"/></svg>